<?xml version="1.0" standalone="no"?>
<!DOCTYPE svg PUBLIC "-//W3C//DTD SVG 1.1//EN" "http://www.w3.org/Graphics/SVG/1.1/DTD/svg11.dtd" >
<svg>
<metadata>
Created by FontForge 20090914 at Wed Jun  9 11:06:18 2021
 By www-data
AzBuki press 1991
</metadata>
<defs>
<font id="BaskervilleBold" horiz-adv-x="1421" >
  <font-face 
    font-family="Baskerville"
    font-weight="700"
    font-stretch="normal"
    units-per-em="4096"
    panose-1="2 2 -30 0 0 0 0 0 0 0"
    ascent="3276"
    descent="-820"
    x-height="1565"
    cap-height="2384"
    bbox="0 -991 3625 3232"
    underline-thickness="86"
    underline-position="-74"
    unicode-range="U+0020-U+2122"
  />
<missing-glyph horiz-adv-x="3072" 
d="M512 0v2560h2048v-2560h-2048zM2494 66v2428h-1916v-2428h1916z" />
    <glyph glyph-name=".notdef" horiz-adv-x="3072" 
d="M512 0v2560h2048v-2560h-2048zM2494 66v2428h-1916v-2428h1916z" />
    <glyph glyph-name="space" unicode=" " 
 />
    <glyph glyph-name="exclam" unicode="!" horiz-adv-x="1130" 
d="M901 135c-20 -52.667 -57.168 -96.501 -111.501 -131.501s-109.833 -52.5 -166.5 -52.5c-27.333 0 -46.666 1.33301 -57.999 4c-72 12.667 -131.667 48.334 -179 107.001s-71 122.667 -71 192c0 23.333 7 60.333 21 111c24.667 58 62.667 103.833 114 137.5
s107.333 50.5 168 50.5c62 0 119.667 -16.333 173 -49c87.333 -62.667 131 -148.667 131 -258c0 -43.333 -7 -80.333 -21 -111zM470.999 1430c-7.33301 39.333 -26.833 120.499 -58.5 243.499s-51.834 220.5 -60.501 292.5c0 8.66699 -1.33301 21.667 -4 39s-4 30.333 -4 39
c0 102.667 22.333 193.167 67 271.5s113.667 117.5 207 117.5h37c88.667 -7.33301 151.834 -47.833 189.501 -121.5s56.5 -161.5 56.5 -263.5c0 -12.667 -0.666992 -32.667 -2 -60s-2 -47 -2 -59c-9.33301 -64 -30.5 -159.167 -63.5 -285.5s-55.5 -219.5 -67.5 -279.5
c-46 -238 -70.667 -449.667 -74 -635h-135c-3.33301 210.667 -32 444.334 -86 701.001z" />
    <glyph glyph-name="quotedbl" unicode="&#x22;" horiz-adv-x="1319" 
d="M389 1479h-70l-139 798c0 6 -1.33301 15 -4 27s-4 21 -4 27c0 62 18.167 110.833 54.5 146.5s78.166 53.5 125.499 53.5c48.667 0 90.834 -17.5 126.501 -52.5s53.5 -84.167 53.5 -147.5c0 -6 -0.666992 -15 -2 -27s-2 -21 -2 -27zM1118 2277l-139 -798h-70l-139 798
c0 6 -1.33301 15 -4 27s-4 21 -4 27c0 61.333 18.667 110 56 146s80 54 128 54c47.333 0 88.5 -17 123.5 -51s52.5 -82.333 52.5 -145c0 -27.333 -1.33301 -46.666 -4 -58z" />
    <glyph glyph-name="numbersign" unicode="#" horiz-adv-x="2879" 
d="M1270 2540h377l-258 -721h442l258 721h369l-254 -721h487l-127 -344h-483l-152 -431h508l-123 -339h-508l-254 -717h-372l254 717h-439l-258 -717h-377l258 717h-499l127 339h495l156 431h-528l127 344h520zM1716 1479h-454l-156 -439h459z" />
    <glyph glyph-name="dollar" unicode="$" horiz-adv-x="1966" 
d="M905 2236c-56.667 0 -112.667 -15.833 -168 -47.5s-100.5 -73.5 -135.5 -125.5s-52.5 -107.667 -52.5 -167c0 -88 37.167 -165.167 111.5 -231.5s155.833 -99.5 244.5 -99.5v671zM905 -500l-0.00292969 488.003c-158 0.666992 -292.667 24.334 -404 71.001
s-194 104.167 -248 172.5s-81 135.833 -81 202.5c0 48 16.333 90.667 49 128s76.334 59 131.001 65h25c74.667 0 126 -26.167 154 -78.5s54.333 -131.5 79 -237.5c16 -59.333 50.333 -104.166 103 -134.499s112.667 -45.5 180 -45.5c1.33301 0 3.33301 0.666992 6 2
s4.66699 2 6 2v869c-149.333 76 -267.666 141.833 -354.999 197.5s-162.666 128.167 -225.999 217.5s-95 196.666 -95 321.999c0 4 0.666992 12.333 2 25s2 20.667 2 24c8 116 43.667 218.167 107 306.5s144.833 156.833 244.5 205.5s206.5 76 320.5 82v250h168v-246
c150 -6.66699 275.833 -32.834 377.5 -78.501s176.834 -101 225.501 -166s73 -128.167 73 -189.5c0 -48 -13.833 -88.5 -41.5 -121.5s-65.834 -52.5 -114.501 -58.5c-3.33301 0 -8.5 -0.833008 -15.5 -2.5s-11.167 -2.5 -12.5 -2.5c-48 0 -90 15 -126 45
s-59.667 69.667 -71 119c-24.667 113.333 -54 191.666 -88 234.999s-103 67.666 -207 72.999v-754c130 -57.333 244.833 -119 344.5 -185s183.5 -146.667 251.5 -242s105.667 -204.333 113 -327v-61c0 -129.333 -31.167 -242.5 -93.5 -339.5s-147 -173.833 -254 -230.5
s-224.833 -93.334 -353.5 -110.001v-492h-176zM1409 492.003l-0.00390625 12c0 81.333 -28.167 159.666 -84.5 234.999s-140.166 136.333 -251.499 183v-775c64.667 6 122.334 25 173.001 57s90.334 73.333 119.001 124s43.334 105.334 44.001 164.001z" />
    <glyph glyph-name="percent" unicode="%" horiz-adv-x="3142" 
d="M864 2425c44 5.33301 78.3311 7.99805 102.998 7.99805c110 0 241 -50.667 393 -152c115.333 -73.333 230 -110 344 -110c121.333 0 240.333 34.667 357 104s223 161.666 319 277h131l-1618 -2724h-197l1397 2343c-151.333 -74 -288 -111 -410 -111
c-89.333 0 -180.666 23.333 -273.999 70c19.333 -68 29 -143 29 -225c0 -52.667 -4.33301 -104.667 -13 -156c-24 -142 -71.167 -273.667 -141.5 -395s-162.166 -211 -275.499 -269c-85.333 -40.667 -170 -61 -254 -61c-138 0 -254.5 54.333 -349.5 163
s-142.5 244 -142.5 406c0 50.667 8.33301 120.334 25 209.001c40 154.667 109.833 289.334 209.5 404.001s222.167 187.667 367.5 219zM736.998 1782c-35.333 -138 -53.001 -246 -53.001 -324c0 -154.667 57.333 -244.667 172 -270c16 -5.33301 32.333 -8 49 -8
c94 0 173.833 51 239.5 153s114.167 210.667 145.5 326c27.333 100 41 194.333 41 283c0 98.667 -19.167 176.5 -57.5 233.5s-86.166 85.5 -143.499 85.5c-67.333 0 -136.833 -40.167 -208.5 -120.5s-133.167 -199.833 -184.5 -358.5zM2879 1188
c54.667 -83.333 81.999 -193.999 81.999 -331.999c0 -65.333 -6.66699 -132.333 -20 -201c-28 -140.667 -76.333 -272.167 -145 -394.5s-158.334 -211.833 -269 -268.5c-81.333 -38.667 -167.333 -58 -258 -58c-139.333 0 -256 53.667 -350 161s-141 242.333 -141 405
c0 57.333 9.33301 127 28 209c36.667 150 105.167 281.667 205.5 395s223.166 187.666 368.5 222.999c32.667 8 68 12 106 12c80 0 158.833 -16.167 236.5 -48.5s129.834 -66.5 156.501 -102.5zM2806 564.999c30 114.667 45 207.667 45 279c0 100 -19 178.833 -57 236.5
s-86 86.5 -144 86.5c-68.667 0 -139.334 -41 -212 -123c-72.667 -82 -133 -202 -181 -360c-38 -134 -57 -240.333 -57 -319c0 -158.667 57.333 -249 172 -271c21.333 -5.33301 39 -8 53 -8c94 0 173.167 50.667 237.5 152s112.166 210.333 143.5 327z" />
    <glyph glyph-name="ampersand" unicode="&#x26;" horiz-adv-x="3183" 
d="M1622 287c-236 -197.333 -465.334 -308.001 -688.001 -332.001c-10 0 -26 -0.666992 -48 -2s-37.333 -2 -46 -2c-103.333 0 -200.333 18 -291 54s-161.667 90.333 -213 163c-54.667 84.667 -82 176 -82 274c0 132.667 43.667 258.334 131 377.001
c106.667 142 267.667 271.667 483 389c-155.333 228.667 -233 432.334 -233 611.001c0 1.33301 0.666992 4 2 8s2 6.66699 2 8c4 168 66.333 310.333 187 427s267.334 175 440.001 175c92 0 179.667 -19.5 263 -58.5s150.333 -94.833 201 -167.5s76 -157 76 -253
c0 -225.333 -139 -422 -417 -590c56 -71.333 207.333 -254.333 454 -549l207 316c73.333 111.333 153.5 201.833 240.5 271.5s186.5 104.5 298.5 104.5h28c98 -6 176.5 -42 235.5 -108s88.5 -139 88.5 -219c0 -112 -47.667 -190 -143 -234c-44 -21.333 -90.667 -32 -140 -32
c-72.667 0 -131.334 20.333 -176 61c-24 23.333 -41.667 62.666 -53 117.999s-22.333 87 -33 95c-16 5.33301 -29.667 8 -41 8c-32.667 0 -75 -38.333 -127 -115c-35.333 -47.333 -83.166 -118.5 -143.5 -213.5c-60.333 -95 -99.833 -156.167 -118.5 -183.5
c118 -124 222.667 -221.167 314 -291.5s183.333 -105.5 276 -105.5c116 0 218.333 60 307 180l127 -98c-202.667 -281.333 -434.667 -422 -696 -422c-232 0 -456 112 -672 336zM1016 2040c0 -92 22.001 -175.834 66.001 -251.501s112 -172.167 204 -289.5
c134 124.667 201 272.334 201 443.001v8c0 75.333 -16.333 145.333 -49 209.999c-32.667 64.667 -82 102.334 -148 113c-5.33301 0 -14 0.666992 -26 2s-19.667 2 -23 2c-64.667 0 -118.334 -22.667 -161.001 -68s-64 -101.666 -64 -168.999zM1487 409.998
c-176 164.667 -353.667 381.667 -533 651c-68.667 -44.667 -122 -102.834 -160 -174.501s-57 -144.5 -57 -218.5c0 -138 56 -252.667 168 -344c66.667 -54.667 141.667 -82 225 -82c67.333 0 133.5 15.333 198.5 46s117.833 71.334 158.5 122.001z" />
    <glyph glyph-name="quotesingle" unicode="'" horiz-adv-x="713" 
d="M389 1479h-70l-139 798c0 6 -1.33301 15 -4 27s-4 21 -4 27c0 62 18.167 110.833 54.5 146.5s78.166 53.5 125.499 53.5c48.667 0 90.834 -17.5 126.501 -52.5s53.5 -84.167 53.5 -147.5c0 -6 -0.666992 -15 -2 -27s-2 -21 -2 -27z" />
    <glyph glyph-name="parenleft" unicode="(" horiz-adv-x="1319" 
d="M1040 -762c-248.667 227.333 -442 472.499 -580 735.499s-208 550.5 -210 862.5c0 208.667 32.833 408.334 98.5 599.001s156.834 367.667 273.501 531s256 319 418 467l86 -74c-166 -225.333 -287.333 -460 -364 -704s-115 -510.333 -115 -799
c0 -213.333 15.167 -404.833 45.5 -574.5s80.666 -333 150.999 -490s164.5 -316.833 282.5 -479.5z" />
    <glyph glyph-name="parenright" unicode=")" horiz-adv-x="1208" 
d="M205 -762l-85.999 74c118 164 211.833 323.833 281.5 479.5s120 317.334 151 485.001s46.5 355.5 46.5 563.5v28c-2 291.333 -40.333 555.666 -115 792.999s-196 470 -364 698l82 74c249.333 -225.333 444 -470.5 584 -735.5s210 -552.167 210 -861.5
c0 -208.667 -32.333 -408.167 -97 -598.5s-155.834 -368 -273.501 -533s-257.5 -320.5 -419.5 -466.5z" />
    <glyph glyph-name="asterisk" unicode="*" horiz-adv-x="1815" 
d="M954 1630c6.66699 -70.667 16.6719 -125.841 30.0049 -165.508s33 -84.667 59 -135s48.333 -103.166 67 -158.499c5.33301 -26.667 8 -48.334 8 -65.001c0 -49.333 -18 -91 -54 -125s-79.333 -51 -130 -51h-8c-55.333 0 -100.666 16.667 -135.999 50s-53 75.333 -53 126
c0 26.667 4.33301 50 13 70c14.667 46 35.167 94.333 61.5 145s46 95.834 59 135.501s23.167 97.5 30.5 173.5c-68 -44.667 -115.5 -82.667 -142.5 -114s-54.833 -70.666 -83.5 -117.999s-61 -90 -97 -128c-38.667 -46.667 -86.667 -70 -144 -70
c-70 0 -123.333 34.333 -160 103c-18.667 30 -28 64 -28 102c0 42 14.167 79.833 42.5 113.5s65.833 54.5 112.5 62.5c42.667 8.66699 96 15.667 160 21s114.167 11.666 150.5 18.999s88.5 25.333 156.5 54c-75.333 36.667 -134.833 59 -178.5 67
s-97.834 13.5 -162.501 16.5s-117.334 10.833 -158.001 23.5c-39.333 11.333 -70.333 32.833 -93 64.5s-34 66.167 -34 103.5c0 48 16.333 93 49 135c34.667 46 81 69 139 69c71.333 0 127.333 -28.667 168 -86c63.333 -94.667 112.166 -162.667 146.499 -204
s85.166 -86.333 152.499 -135c-9.33301 90.667 -22.333 157.834 -39 201.501s-38.5 89.667 -65.5 138s-44.167 87.833 -51.5 118.5c-5.33301 28 -8 47.333 -8 58c0 51.333 18.167 95.5 54.5 132.5s82.5 55.5 138.5 55.5h24c52 -4 91.667 -23 119 -57s41 -75 41 -123
c0 -38 -5.33301 -69.333 -16 -94c-14 -34 -33.667 -78 -59 -132s-43.333 -98.667 -54 -134s-21 -88.666 -31 -159.999c69.333 44 117.833 81.667 145.5 113s56.167 71.5 85.5 120.5s60.333 89.833 93 122.5c43.333 43.333 91 65 143 65c78 0 136.667 -40.667 176 -122
c11.333 -36.667 17 -65.334 17 -86.001c0 -45.333 -16.667 -83.666 -50 -114.999s-76.666 -49 -129.999 -53c-106 -10.667 -189.833 -21.167 -251.5 -31.5s-126.834 -31.5 -195.501 -63.5c58.667 -28.667 109.667 -47.667 153 -57s98.666 -17.333 165.999 -24
s120.666 -13.667 159.999 -21c44 -8 79 -29.167 105 -63.5s39 -73.166 39 -116.499c0 -33.333 -9.66699 -67.666 -29 -102.999c-39.333 -65.333 -92.666 -98 -159.999 -98c-56.667 0 -104.334 23.333 -143.001 70c-28 32.667 -60.5 76.334 -97.5 131.001
s-69.5 97.334 -97.5 128.001s-69.667 64.334 -125 101.001z" />
    <glyph glyph-name="plus" unicode="+" horiz-adv-x="2765" 
d="M1343 2118h353v-885h860v-344h-860v-889h-353v889h-864v344h864v885z" />
    <glyph glyph-name="comma" unicode="," horiz-adv-x="1057" 
d="M217 -549c136 70 243.166 146.834 321.499 230.501s118.5 189.834 120.5 318.501c-55.333 -16.667 -107 -25 -155 -25c-84 0 -150.833 26.667 -200.5 80s-74.5 117 -74.5 191c0 59.333 18.5 115.666 55.5 168.999s88.167 89.666 153.5 108.999
c28.667 11.333 64.334 17 107.001 17c67.333 0 125.5 -21.5 174.5 -64.5s86 -98.5 111 -166.5s37.5 -138.667 37.5 -212c0 -336 -200.667 -590 -602 -762z" />
    <glyph glyph-name="hyphen" unicode="-" horiz-adv-x="1245" 
d="M201 578v421h852v-421h-852z" />
    <glyph glyph-name="period" unicode="." horiz-adv-x="1057" 
d="M713 496c40.667 -26.667 72.665 -63.668 95.998 -111.001s35 -96.333 35 -147c0 -43.333 -7 -80.333 -21 -111c-20 -52.667 -56.833 -96.5 -110.5 -131.5s-109.5 -52.5 -167.5 -52.5c-27.333 0 -46.666 1.33301 -57.999 4c-72 12 -131.5 48 -178.5 108
s-70.5 125 -70.5 195c0 20 6.66699 56.667 20 110c24.667 56.667 62.834 102.334 114.501 137.001s107.834 52 168.501 52c55.333 0 112.666 -17.667 171.999 -53z" />
    <glyph glyph-name="slash" unicode="/" horiz-adv-x="1286" 
d="M12 -328l893 2761h176l-901 -2761h-168z" />
    <glyph glyph-name="zero" unicode="0" horiz-adv-x="2040" 
d="M188 1188c0 128 16.168 264.167 48.501 408.5s81.666 279.666 147.999 405.999s152.833 229.5 259.5 309.5s230.667 120.333 372 121c183.333 0 337.833 -66 463.5 -198s218.334 -293.833 278.001 -485.5s89.5 -376.167 89.5 -553.5
c0 -131.333 -16 -269.166 -48 -413.499s-81.5 -280 -148.5 -407s-153.833 -230.167 -260.5 -309.5s-231.334 -119 -374.001 -119c-142 0 -266 39.667 -372 119s-192.333 182.5 -259 309.5s-115.667 260.833 -147 401.5s-48 277.667 -50 411zM737.001 1176
c0 -188.667 4.00195 -351.168 12.002 -487.501s26 -260.833 54 -373.5c42.667 -147.333 115 -221 217 -221c105.333 0 177.666 78 216.999 234c27.333 111.333 44.333 239.5 51 384.5s10 314.5 10 508.5c0 357.333 -17.667 623.333 -53 798
c-38.667 169.333 -116.334 254 -233.001 254c-120 0 -193.667 -87.333 -221 -262c-38.667 -192.667 -58 -424.667 -58 -696c0 -15.333 0.666992 -38.666 2 -69.999s2 -54.333 2 -69z" />
    <glyph glyph-name="one" unicode="1" horiz-adv-x="1552" 
d="M139 -8v135.001c91.333 4.66699 159 12.5 203 23.5s77.167 35.333 99.5 73s33.5 98.5 33.5 182.5v1486c0 60 -7.83301 105.167 -23.5 135.5s-37.834 50.833 -66.501 61.5s-63.167 16.5 -103.5 17.5s-89.166 1.83301 -146.499 2.5v127c317.333 40 567.333 105.667 750 197
h123c-6 -147.333 -9 -247 -9 -299v-1737c0 -116.667 24.333 -190.334 73 -221.001s139 -47 271 -49v-135c-272 5.33301 -474 8 -606 8c-136 -0 -335.333 -2.66699 -598 -8z" />
    <glyph glyph-name="two" unicode="2" horiz-adv-x="1929" 
d="M0 0l155.999 0.00195312c79.333 169.333 160 314.333 242 435s192.333 261 331 421c125.333 143.333 224.166 271 296.499 383s120.833 234.333 145.5 367c8.66699 43.333 13 96.333 13 159c0 136 -27.5 254.667 -82.5 356s-140.833 152 -257.5 152h-13
c-92.667 -4 -164.167 -37.167 -214.5 -99.5s-75.5 -132.833 -75.5 -211.5c0 -70.667 18.667 -132 56 -184s85.333 -78 144 -78c44.667 0 95.334 17.667 152.001 53c0 -6.66699 0.666992 -17.334 2 -32.001s2 -24.334 2 -29.001c0 -82 -28.833 -148.333 -86.5 -199
s-128.5 -76 -212.5 -76c-5.33301 0 -14 0.666992 -26 2s-19.667 2 -23 2c-108 10.667 -193.667 56.167 -257 136.5s-95 174.166 -95 281.499c0 183.333 76.333 330.666 229 441.999c153.333 104 328 156 524 156c133.333 0 259.333 -26.667 378 -80
s214.334 -131.666 287.001 -234.999s109 -226.333 109 -369v-4c0 -143.333 -34.5 -267 -103.5 -371s-170.833 -211 -305.5 -321c-32 -27.333 -108.167 -88.333 -228.5 -183s-213.5 -170.5 -279.5 -227.5s-130.333 -120.833 -193 -191.5h1110l-143 -656h-135
c8 48.667 12 88.334 12 119.001c0 37.333 -12 60.333 -36 69s-74.667 13 -152 13h-1270z" />
    <glyph glyph-name="three" unicode="3" horiz-adv-x="1929" 
d="M1085 1380l-0.00195312 -28.002c144 -0.666992 265.833 -26.667 365.5 -78s173.667 -119.333 222 -204s72.5 -177.667 72.5 -279s-24 -204 -72 -308s-118.167 -198.5 -210.5 -283.5s-201.5 -150.167 -327.5 -195.5c-126 -43.333 -249 -65 -369 -65
c-114 0 -218.667 19.333 -314 58s-170 88.5 -224 149.5s-81 121.5 -81 181.5c0 55.333 23.333 104.333 70 147c36.667 32.667 80.334 49 131.001 49c38 0 76.167 -10.667 114.5 -32s67.166 -48.666 86.499 -81.999c13.333 -22 32.833 -60.167 58.5 -114.5
s51.167 -97 76.5 -128s59.333 -51.5 102 -61.5c42 -8 62.667 -12 62 -12c99.333 0 179.166 48 239.499 144s95.166 199.667 104.499 311c8 106 12 173 12 201c0 112.667 -15.667 212.334 -47 299.001s-84 141 -158 163c-13.333 3.33301 -33.666 5 -60.999 5
c-34.667 0 -65.167 -9.66699 -91.5 -29s-49.5 -42.5 -69.5 -69.5l-72 -98.5c-28 -32.667 -63.667 -49 -107 -49c-44.667 0 -74.667 17.667 -90 53c-10.667 14 -16 31.667 -16 53c0 38.667 32.667 80.667 98 126l225 154c84.667 57.333 156.334 126.5 215.001 207.5
s90.667 180.833 96 299.5v37c0 111.333 -31.5 198.5 -94.5 261.5s-135.167 94.5 -216.5 94.5c-55.333 0 -106 -16.167 -152 -48.5s-77.333 -76.166 -94 -131.5c-10.667 -38.667 -16 -66 -16 -82c0 -43.333 14.667 -78.833 44 -106.5s63.666 -41.5 102.999 -41.5
c42 0 85.667 13.667 131 41v-37c0 -84 -26 -150.667 -78 -200s-122.667 -74 -212 -74c-92.667 0 -163.667 28.833 -213 86.5s-74 128.5 -74 212.5c0 98.667 27.333 186 82 262c65.333 89.333 162 160.833 290 214.5s259.333 80.5 394 80.5
c116.667 0 222.334 -20.833 317.001 -62.5s166.334 -105.5 215.001 -191.5c33.333 -58.667 50 -128.334 50 -209c0 -97.333 -30.333 -194.333 -91 -291c-48 -66.667 -104.667 -120.667 -170 -162s-150.666 -87 -255.999 -137z" />
    <glyph glyph-name="four" unicode="4" horiz-adv-x="2122" 
d="M680 -4l-0.000976562 139c90.667 4.66699 159.334 10.5 206.001 17.5s81.667 25.833 105 56.5c27.333 37.333 41 127.333 41 270c0 38 -0.666992 85 -2 141s-2 88.333 -2 97h-926v217l1180 1499h254v-1503h369v-213h-369c0 -50 -1.33301 -111 -4 -183
s-4 -117.667 -4 -137c0 -72 8.16699 -124.333 24.5 -157s47.5 -55.667 93.5 -69s124 -25.333 234 -36v-139c-144.667 2.66699 -365.667 4 -663 4c-240.667 0 -419.667 -1.33301 -537 -4zM314.999 926h713l29 958z" />
    <glyph glyph-name="five" unicode="5" horiz-adv-x="1966" 
d="M418 2433l119.006 -0.00390625c61.333 -45.333 144.166 -82.666 248.499 -111.999s205.833 -44 304.5 -44c200 0 340.333 52 421 156h131c-22 -115.333 -73.667 -220 -155 -314s-178.333 -161.333 -291 -202c-104.667 -35.333 -211 -53 -319 -53
c-40.667 0 -96.667 3.83301 -168 11.5s-118 11.834 -140 12.501l-16 -561c150.667 126 322.667 189 516 189c81.333 0 149.666 -8.33301 204.999 -25c158 -43.333 278.667 -126.333 362 -249s125 -261 125 -415c0 -185.333 -56 -354.666 -168 -507.999
c-83.333 -111.333 -204.166 -202.5 -362.499 -273.5s-318.5 -106.5 -480.5 -106.5c-186 0 -341.667 46.333 -467 139c-96 70 -144 153.333 -144 250c0 63.333 26 115 78 155c34.667 27.333 74.334 41 119.001 41c52 0 101.5 -18 148.5 -54s80.833 -79.333 101.5 -130
c4.66699 -9.33301 13.167 -28 25.5 -56s24.5 -51.833 36.5 -71.5s25.167 -36.667 39.5 -51s32.166 -27.166 53.499 -38.499c58 -14 92.333 -21 103 -21c45.333 0 91.666 12.833 138.999 38.5s85.666 58.167 114.999 97.5c34 48 62.333 119.833 85 215.5
s34 195.834 34 300.501c0 100 -12 192.333 -36 277s-57.333 145 -100 181c-62.667 52 -132.334 78 -209.001 78c-55.333 0 -110.333 -15.833 -165 -47.5s-99.334 -74.5 -134.001 -128.5v-90c0 -101.333 -34 -152 -102 -152c-1.33301 0 -3.66602 0.833008 -6.99902 2.5
s-6.33301 2.5 -9 2.5c-68.667 3.33301 -103 49.666 -103 138.999c0 1.33301 0.5 3.83301 1.5 7.5s1.83301 6.5 2.5 8.5c1.33301 45.333 6.16602 112.5 14.499 201.5s13.166 161.167 14.499 216.5z" />
    <glyph glyph-name="six" unicode="6" horiz-adv-x="2081" 
d="M737 1159c0 -41.333 -3.33203 -114.001 -9.99902 -218.001s-10 -182.667 -10 -236c0 -172.667 21.667 -316.334 65 -431.001c24 -57.333 57.667 -101.666 101 -132.999s89 -47 137 -47c62.667 0 120.167 25.333 172.5 76s86.166 121 101.499 211
c16.667 94.667 25 210.667 25 348c0 305.333 -45 492.333 -135 561c-40 32.667 -92 49 -156 49c-60.667 0 -118.167 -16.667 -172.5 -50s-93.833 -76.666 -118.5 -129.999zM918.001 2195c-70.667 -64.667 -114.831 -164.004 -132.498 -298.004s-28.167 -299.333 -31.5 -496
c154 95.333 300 143 438 143c114 0 219 -27.333 315 -82c116.667 -63.333 205.334 -153.833 266.001 -271.5s91 -244.167 91 -379.5c0 -139.333 -31.167 -274.166 -93.5 -404.499s-148.833 -234.5 -259.5 -312.5c-134.667 -100.667 -298.334 -151 -491.001 -151
c-114 0 -217.667 20.333 -311 61c-108.667 47.333 -200.167 119.333 -274.5 216s-130.5 204.334 -168.5 323.001s-61 242 -69 370c0 20 -1.5 45.333 -4.5 76s-4.5 53.334 -4.5 68.001c0 164.667 18.833 328.334 56.5 491.001s97 311.834 178 447.501
s185.5 243.834 313.5 324.5c128 80.667 277.333 121 448 121h69c114 -7.33301 217.833 -33.5 311.5 -78.5s151.167 -114.5 172.5 -208.5c5.33301 -26.667 8 -48.334 8 -65.001c0 -53.333 -16.333 -98.333 -49 -135c-50.667 -46.667 -100 -70 -148 -70
c-44.667 0 -88.834 17.167 -132.501 51.5s-79.834 78.5 -108.501 132.5l-41.5 89c-12.333 26.667 -28.333 50.167 -48 70.5s-45.834 32.833 -78.501 37.5h-37c-71.333 0 -132.666 -23.333 -183.999 -70z" />
    <glyph glyph-name="seven" unicode="7" horiz-adv-x="2007" 
d="M213 1573l205.001 1032h131c-1.33301 -20.667 -4.5 -45 -9.5 -73s-7.5 -48.667 -7.5 -62c0 -39.333 12.167 -66.333 36.5 -81s68.166 -22 131.499 -22h1110v-131c-304.667 -578 -493 -1120 -565 -1626c-9.33301 -84.667 -20 -175.667 -32 -273
s-37.167 -181.666 -75.5 -252.999s-99.5 -115.666 -183.5 -132.999c-13.333 -2.66699 -36.333 -4 -69 -4c-63.333 0 -117.833 16 -163.5 48s-73.167 77.333 -82.5 136c-5.33301 38.667 -8 68.667 -8 90c0 66 11.5 136.5 34.5 211.5s50.667 145.167 83 210.5
s74.833 143.333 127.5 234l103 180l512 880h-786c-86.667 0 -151.5 -13.5 -194.5 -40.5s-72.167 -59.333 -87.5 -97s-40.333 -113.167 -75 -226.5h-135z" />
    <glyph glyph-name="eight" unicode="8" horiz-adv-x="2007" 
d="M696 1163c-87.333 36.667 -161.333 85.665 -222 146.998s-106.334 130 -137.001 206s-46 155 -46 237c0 115.333 29.5 225 88.5 329s145.833 189 260.5 255s249.334 99.333 404.001 100c135.333 0 255.5 -25.167 360.5 -75.5s186 -117.166 243 -200.5
c57 -83.333 85.5 -173 85.5 -269c0 -92 -29.667 -182.833 -89 -272.5s-147.333 -168.167 -264 -235.5c292.667 -128 439 -354.333 439 -679c0 -153.333 -36 -287.5 -108 -402.5s-170.5 -202.667 -295.5 -263s-263.833 -91.166 -416.5 -92.499c-192 0 -365.667 48 -521 144
s-241 233.667 -257 413c0 6 -1.33301 17 -4 33s-4 28 -4 36c0 244.667 161 441.334 483 590.001zM709 1765c30.667 -42.667 75.167 -81.834 133.5 -117.501s121 -68 188 -97l214.5 -92.5c96 104.667 144 233 144 385c0 122.667 -33.667 227.834 -101 315.501
s-156.666 131.5 -267.999 131.5c-58.667 0 -109.334 -8.33301 -152.001 -25c-64.667 -24 -117 -66.667 -157 -128s-60 -125 -60 -191c0 -64 19.333 -124.333 58 -181zM827 1073c-70.667 -60.667 -125.834 -138.501 -165.501 -233.501s-59.5 -189.167 -59.5 -282.5
c0 -127.333 35.667 -235.666 107 -324.999s172.333 -134 303 -134c6 0 18.333 1.33301 37 4s32.334 4 41.001 4c115.333 14.667 205.5 57.667 270.5 129s97.5 158.333 97.5 261c0 60 -6.66699 110.333 -20 151c-24 74.667 -68.667 138.834 -134 192.501
s-129.833 94.167 -193.5 121.5s-158.167 64.666 -283.5 111.999z" />
    <glyph glyph-name="nine" unicode="9" horiz-adv-x="2040" 
d="M1266 979c-139.333 -90 -279.999 -134.999 -421.999 -134.999c-44 0 -93.333 6.66699 -148 20c-174 39.333 -309 125.666 -405 258.999s-144 284.666 -144 453.999c0 198.667 61.667 379 185 541c77.333 101.333 174.5 179.833 291.5 235.5s239.5 83.5 367.5 83.5
c10 0 25.333 -0.666992 46 -2s35.334 -2 44.001 -2c112 -8 214.167 -41.5 306.5 -100.5s170.333 -135.167 234 -228.5s111.5 -195.333 143.5 -306c44 -162 66 -324.333 66 -487c0 -257.333 -45 -501.666 -135 -732.999c-76 -183.333 -174 -327 -294 -431
s-273.333 -168 -460 -192c-90 -8 -140.333 -12 -151 -12c-191.333 0 -340.333 53 -447 159c-52 57.333 -78 119 -78 185c0 13.333 7 42 21 86c38.667 76 100 114 184 114s146.667 -31.333 188 -94c11.333 -14 34.666 -55.667 69.999 -125s65.333 -112.333 90 -129
c27.333 -18.667 60.333 -28 99 -28c56 0 109 17.667 159 53c81.333 60 132.166 160.5 152.499 301.5s32.5 312.167 36.5 513.5zM893.001 1061c15.333 -2 30.8359 -4.50098 46.5029 -7.50098s30.167 -4.5 43.5 -4.5c63.333 0 122.666 15.667 177.999 47
s95.666 73 120.999 125c1.33301 44 4.33301 115.333 9 214s7 173.334 7 224.001c0 163.333 -17.667 301.333 -53 414c-19.333 67.333 -52 118.833 -98 154.5s-96.667 53.5 -152 53.5c-56.667 0 -109.334 -20.167 -158.001 -60.5s-82 -96.5 -100 -168.5
c-27.333 -126.667 -41 -270 -41 -430c0 -142.667 15.5 -266.5 46.5 -371.5s81.167 -168.167 150.5 -189.5z" />
    <glyph glyph-name="colon" unicode=":" horiz-adv-x="1130" 
d="M573 -53c-72 12 -131.499 47.999 -178.499 107.999s-70.5 125 -70.5 195c0 20 6.66699 56.667 20 110c22.667 56.667 60.167 102.334 112.5 137.001s109.166 52 170.499 52c55.333 0 112.666 -17.667 171.999 -53c40.667 -26.667 72.667 -63.667 96 -111
s35 -96.333 35 -147c0 -34 -7 -71 -21 -111c-20 -52.667 -56.833 -96.5 -110.5 -131.5s-109.5 -52.5 -167.5 -52.5c-27.333 0 -46.666 1.33301 -57.999 4zM913.001 1184c-22.667 -54 -60.832 -99 -114.499 -135s-109.5 -54 -167.5 -54c-16 0 -33.667 3 -53 9
c-72 11.333 -131.667 46.166 -179 104.499s-71 123.166 -71 194.499c0 36.667 6.66699 73.334 20 110.001c22.667 58.667 60 104.834 112 138.501s109 50.5 171 50.5c61.333 0 118.666 -16.667 171.999 -50c40.667 -28 72.667 -65.5 96 -112.5s35 -95.5 35 -145.5
c0 -38 -7 -74.667 -21 -110z" />
    <glyph glyph-name="semicolon" unicode=";" horiz-adv-x="1171" 
d="M578 1004c-72 11.333 -131.665 46.166 -178.998 104.499s-71 123.166 -71 194.499c0 36.667 6.66699 73.334 20 110.001c22.667 58.667 60 104.834 112 138.501s109 50.5 171 50.5c61.333 0 118.666 -16.667 171.999 -50c40.667 -28 72.667 -65.5 96 -112.5
s35 -95.5 35 -145.5c0 -38 -7 -74.667 -21 -110c-22.667 -54 -60.834 -99 -114.501 -135s-109.5 -54 -167.5 -54c-16 0 -33.667 3 -53 9zM360.002 -664l-48.998 115.002c138.667 71.333 247.167 148.5 325.5 231.5s117.5 188.833 117.5 317.5c-56 -16.667 -108 -25 -156 -25
c-84.667 0 -150.834 26.5 -198.501 79.5s-71.5 116.833 -71.5 191.5c0 61.333 17.667 118.166 53 170.499s85.666 88.166 150.999 107.499c32 11.333 67.667 17 107 17c101.333 0 181.333 -45 240 -135s88 -192.667 88 -308c0 -336.667 -202.333 -590.667 -607 -762z" />
    <glyph glyph-name="less" unicode="&#x3c;" horiz-adv-x="2728" 
d="M2540 2073v-381l-1549 -635l1549 -631v-381l-2044 844v344z" />
    <glyph glyph-name="equal" unicode="=" horiz-adv-x="2765" 
d="M479 1606h2077v-344h-2077v344zM479 860h2077v-344h-2077v344z" />
    <glyph glyph-name="greater" unicode="&#x3e;" horiz-adv-x="2728" 
d="M496 2073l2044 -840v-344l-2044 -844v381l1552 631l-1552 635v381z" />
    <glyph glyph-name="question" unicode="?" horiz-adv-x="1667" 
d="M549 774l0.000976562 721c14 -0.666992 37.833 -2.16699 71.5 -4.5s66.834 -4.16602 99.501 -5.49902s59 -2 79 -2c180 0 308.333 36.667 385 110c40.667 48.667 61 109 61 181c0 58 -13.333 113.667 -40 167s-63.667 91.666 -111 114.999
c-39.333 22 -96.666 33 -171.999 33c-46.667 0 -114.334 -6.83301 -203.001 -20.5s-152.334 -20.5 -191.001 -20.5c-104 0 -170.667 35.333 -200 106c-19.333 42 -29 75 -29 99c0 55.333 27 98.5 81 129.5s124 46.5 210 46.5c98 0 200.833 -19.5 308.5 -58.5
s201.5 -94.5 281.5 -166.5c51.333 -49.333 99 -108.5 143 -177.5s78.833 -142.833 104.5 -221.5s38.5 -156 38.5 -232c0 -142 -42.333 -256.667 -127 -344c-112 -112 -288 -168 -528 -168c-12.667 0 -31.334 0.666992 -56.001 2s-43 2 -55 2v-291h-151zM791.001 487
c38.667 -26.667 70.166 -63.834 94.499 -111.501s36.5 -96.5 36.5 -146.5c0 -46 -7 -82.667 -21 -110c-20 -53.333 -57.167 -97.5 -111.5 -132.5s-109.833 -52.5 -166.5 -52.5h-58c-72 12.667 -131.667 48.5 -179 107.5s-71 124.5 -71 196.5c0 15.333 7 52 21 110
c24.667 58.667 62.667 104.834 114 138.501s107.333 50.5 168 50.5s118.334 -16.667 173.001 -50z" />
    <glyph glyph-name="at" unicode="@" horiz-adv-x="3523" 
d="M1942 1647c-89.333 -12.667 -171.167 -70.166 -245.5 -172.499s-135.5 -220 -183.5 -353s-78.667 -246.167 -92 -339.5c-10.667 -54.667 -16 -101 -16 -139c0 -86.667 16.833 -160.834 50.5 -222.501s85.167 -92.5 154.5 -92.5c-0.666992 0 28 4 86 12
c72 21.333 146.5 89.833 223.5 205.5s140.833 249 191.5 400s76 286.5 76 406.5c0 90 -17.333 161.667 -52 215s-87 80 -157 80h-36zM2077 553.001c-150.667 -229.333 -321.327 -344.004 -511.994 -344.004c-8.66699 0 -20.667 1.33301 -36 4s-26.666 4 -33.999 4
c-146.667 18 -259.834 81.833 -339.501 191.5s-119.5 239.834 -119.5 390.501c0 7.33301 1.33301 20.666 4 39.999s4 33.333 4 42c13.333 160 66.166 307.333 158.499 442s204.333 241.334 336 320.001s256.5 118 374.5 118c96 0 178.5 -26.667 247.5 -80
s114.833 -133 137.5 -239l86 287h332l-303 -1074c-19.333 -74 -29 -131.333 -29 -172c0 -106 43.667 -159 131 -159c73.333 0 167.666 39.333 283 118c130.667 96.667 230.167 225.834 298.5 387.501s102.5 328.834 102.5 501.501v82
c-10.667 177.333 -59.334 336.333 -146 477c-86.667 140.667 -201.834 254.334 -345.5 341.001c-143.667 86.667 -304.834 141.667 -483.501 165c-86.667 5.33301 -153.667 8 -201 8c-178.667 0 -353.834 -32 -525.501 -96s-326.334 -156.667 -464.001 -278
s-245.834 -262.666 -324.501 -423.999c-106.667 -216.667 -160 -453 -160 -709c0 -167.333 27 -328.166 81 -482.499s134.667 -288.5 242 -402.5c88.667 -87.333 187.167 -158.833 295.5 -214.5s223 -96.667 344 -123s246.5 -39.5 376.5 -39.5
c177.333 0 350.666 23.333 520 70c58.667 17.333 113 36.666 163 57.999s95.333 42.666 136 63.999s82.167 44.5 124.5 69.5l154.5 91.5l66 -86c-157.333 -109.333 -305.333 -193.333 -444 -252s-296.667 -99 -474 -121c-100 -14 -193 -21 -279 -21
c-218 0 -428 33.5 -630 100.5s-375.333 167.5 -520 301.5c-142 130 -250 282.667 -324 458s-111 357 -111 545c0 132 18.167 265.667 54.5 401s89.5 263.666 159.5 384.999s154.333 231 253 329c162.667 160.667 353 284 571 370s444.333 129 679 129
c113.333 0 221 -8 323 -24c146 -25.333 281 -71.833 405 -139.5s230.5 -152.334 319.5 -254.001s157.833 -218 206.5 -349s73 -272.833 73 -425.5c0 -126.667 -16.667 -250.667 -50 -372s-84.166 -235.166 -152.5 -341.499
c-68.333 -106.333 -151.166 -196.166 -248.5 -269.499c-133.333 -100.667 -269.666 -151 -409 -151c-98.667 0 -182.834 29.333 -252.501 88s-111.167 146.667 -124.5 264z" />
    <glyph glyph-name="A" unicode="A" horiz-adv-x="2765" 
d="M791 909h655l-311 828zM877 -8c-186.667 5.33301 -328.666 7.99414 -425.999 7.99414c-90.667 0 -231.334 -2.66699 -422.001 -8v143c164 20 281.333 113 352 279l856 2015h176l799 -2011c13.333 -14 31 -47.167 53 -99.5s53.833 -93.666 95.5 -123.999
s112.167 -50.166 211.5 -59.499v-143c-300 5.33301 -525.333 8 -676 8c-125.333 0 -308 -2.66699 -548 -8v143c92 4 165 12.333 219 25s82 45.334 84 98.001v25c0 40.667 -8 87.834 -24 141.501s-33.667 105 -53 154l-63 158.5h-794l-70.5 -166
c-19 -45.333 -34.5 -88.166 -46.5 -128.499s-18 -77.166 -18 -110.499c0 -124 98.333 -189.667 295 -197v-143z" />
    <glyph glyph-name="B" unicode="B" horiz-adv-x="2576" 
d="M172 -12v150.998c130.667 7.33301 219.334 32 266.001 74s70 126.667 70 254v1487c0 81.333 -10.833 142 -32.5 182s-55 67.333 -100 82s-110.167 23.667 -195.5 27v147c216.667 -16.667 368.334 -25 455.001 -25c55.333 0 121.5 1.83301 198.5 5.5
s135.167 6.16699 174.5 7.5c24 0 63.667 0.666992 119 2s98.666 2 129.999 2c184 0 347.5 -16.167 490.5 -48.5s256.833 -94.166 341.5 -185.499c79.333 -87.333 119 -197.666 119 -330.999c0 -96 -24.667 -180.667 -74 -254
c-56.667 -88.667 -130.834 -152.5 -222.501 -191.5s-208.5 -72.167 -350.5 -99.5c159.333 -19.333 301.5 -53.833 426.5 -103.5s222.833 -125.834 293.5 -228.501c54.667 -81.333 82 -181 82 -299c0 -148 -42.333 -271 -127 -369c-68 -76.667 -150 -135.667 -246 -177
s-197.167 -69.166 -303.5 -83.499s-220.833 -21.5 -343.5 -21.5h-126c-246.667 5.33301 -434 8 -562 8c-158 0 -319 -4 -483 -12zM1081 2204c-16 -7.33301 -24 -20.999 -24 -40.999v-820c8.66699 0 23.334 -0.666992 44.001 -2s36 -2 46 -2c316.667 0 475 147.667 475 443
c0 7.33301 -0.666992 21.666 -2 42.999s-2 37 -2 47c-6 106 -42.5 187.667 -109.5 245s-154.833 89 -263.5 95h-69c-24.667 0 -56.334 -2.66699 -95.001 -8zM1057 577.999c0 -95.333 7.83301 -175.667 23.5 -241s52.834 -110.666 111.501 -135.999
c47.333 -22 97.666 -33 150.999 -33c111.333 0 200.333 32.667 267 98c84.667 80.667 127 207.667 127 381c0 115.333 -19.333 213.666 -58 294.999c-40.667 90.667 -105.167 151.5 -193.5 182.5s-194.5 46.5 -318.5 46.5h-110v-593z" />
    <glyph glyph-name="C" unicode="C" horiz-adv-x="2576" 
d="M2232 831l147.997 0.000976562v-831h-144l-82 201c-132 -88 -258.667 -153 -380 -195s-252.666 -63 -393.999 -63c-65.333 0 -114.333 1.33301 -147 4c-208.667 18.667 -394.167 82 -556.5 190s-288.333 249.333 -378 424s-134.5 366 -134.5 574l4 8v4
c0 185.333 33.5 357.5 100.5 516.5s159 296.5 276 412.5s250 205.167 399 267.5s302.833 93.5 461.5 93.5c254 0 490.333 -76.333 709 -229l61 196h156l20 -766h-147c-34.667 114 -82 217 -142 309s-135.167 166 -225.5 222s-193.166 84 -308.499 84
c-130 0 -242.167 -32.667 -336.5 -98s-170.5 -151.166 -228.5 -257.499s-99.833 -220.666 -125.5 -342.999s-38.5 -244.5 -38.5 -366.5c0 -1.33301 0.666992 -3.33301 2 -6s2 -4.66699 2 -6c0 -123.333 12 -243.833 36 -361.5s63.833 -227.334 119.5 -329.001
s129.334 -182.834 221.001 -243.501s202.167 -92.334 331.5 -95.001h13c354 0 590 228 708 684z" />
    <glyph glyph-name="D" unicode="D" horiz-adv-x="2843" 
d="M184 -8l0.00195312 147.003c84.667 1.33301 150.167 10.666 196.5 27.999s79.166 47.166 98.499 89.499s29 104.166 29 185.499v1483c0 124 -22 207.167 -66 249.5s-131.333 64.5 -262 66.5v143c38.667 0 96 -2 172 -6s132 -6 168 -6c8.66699 0 22.667 0.666992 42 2
s32.666 2 39.999 2c58 0 146.667 1.33301 266 4s209.666 4 270.999 4c62.667 0 151.334 -2.66699 266.001 -8c188.667 -8.66699 359 -43.834 511 -105.5c152 -61.667 281.333 -146.167 388 -253.5s188.334 -234.833 245 -382.5c56.667 -147.667 85 -310.167 85 -487.5
c0 -92.667 -5.66699 -174.667 -17 -246c-30 -206 -113.833 -387.667 -251.5 -545s-306.167 -262.333 -505.5 -315c-123.333 -30 -284.666 -45 -483.999 -45c-38 0 -95.667 0.666992 -173 2s-134.333 2 -171 2c-376.667 -0 -659.334 -2.66699 -848.001 -8zM1077 532.003
c0 -106.667 17.668 -189.836 53.001 -249.503s102.333 -96.5 201 -110.5c11.333 0 27.666 -0.666992 48.999 -2s36.333 -2 45 -2c192 0 333.833 79.5 425.5 238.5s141.167 349.833 148.5 572.5c2.66699 46.667 4 120.334 4 221.001c0 161.333 -14.333 309.333 -43 444
s-83.667 252.334 -165 353.001s-193.666 165.334 -336.999 194.001c-90.667 22 -168.334 33 -233.001 33c-98.667 0 -148 -31.333 -148 -94v-1598z" />
    <glyph glyph-name="E" unicode="E" horiz-adv-x="2462" 
d="M164 -12l0.00390625 146.999c107.333 4 184.166 20.333 230.499 49s74.833 70.5 85.5 125.5s16 144.5 16 268.5v1347c0 123.333 -24 209 -72 257s-134.667 73 -260 75v139c318.667 -13.333 608 -20 868 -20c152 0 326.833 2.33301 524.5 7l569.5 13v-622h-148
c-31.333 114.667 -69.333 202.834 -114 264.501s-102.334 104.5 -173.001 128.5s-168.667 37.667 -294 41c-6 0 -29.667 0.666992 -71 2s-75 2 -101 2c-88 0 -140 -9.66699 -156 -29c-10.667 -14 -16 -33 -16 -57c0 -2.66699 0.666992 -7.33398 2 -14
c1.33301 -6.66699 2 -10.334 2 -11v-778c2.66699 0 8.66699 -0.666992 18 -2s15.666 -2 18.999 -2c105.333 0 186.166 11.5 242.499 34.5s100.166 62.667 131.499 119s59.333 138.833 84 247.5h152c-10.667 -201.333 -16 -355.666 -16 -462.999
c0 -116.667 5.33301 -281.667 16 -495h-143c-23.333 110.667 -53 193.667 -89 249s-85.333 93.5 -148 114.5s-151.667 32.167 -267 33.5v-639c0 -232 132.333 -348 397 -348h33c202.667 4 351.5 44.667 446.5 122s161.833 215.666 200.5 414.999h131v-721
c-180 4 -334 7.83301 -462 11.5s-263 6.66699 -405 9s-257 3.5 -345 3.5c-297.333 0 -593.666 -8 -888.999 -24z" />
    <glyph glyph-name="F" unicode="F" horiz-adv-x="2347" 
d="M152 -8l-0.000976562 142.998c106 6 182.833 20.333 230.5 43s79.834 60 96.501 112s25 131.333 25 238v1364c-1.33301 92.667 -12 163.5 -32 212.5s-54.667 83.833 -104 104.5s-121.333 32.667 -216 36v147c340.667 -16.667 669.667 -25 987 -25
c275.333 0 604.333 7 987 21l20 -623h-147c-32.667 135.333 -79.167 234.333 -139.5 297s-133.5 102.334 -219.5 119.001s-206.667 25.667 -362 27h-70c-53.333 0 -93.166 -8 -119.499 -24s-39.5 -50.333 -39.5 -103v-778c4 0 9.16699 -0.833008 15.5 -2.5
s11.833 -2.5 16.5 -2.5c145.333 0 252.166 29.833 320.499 89.5s114.5 165.167 138.5 316.5h160c-0.666992 -36 -2 -88.333 -4 -157s-3.83301 -137.167 -5.5 -205.5s-2.5 -120.833 -2.5 -157.5c0 -34 0.666992 -80.167 2 -138.5s3.16602 -116.5 5.49902 -174.5
s3.83301 -104 4.5 -138h-152c-22.667 116 -51.167 202.333 -85.5 259s-82.666 95.334 -144.999 116.001s-151.833 31 -268.5 31v-619c1.33301 -117.333 10 -200.666 26 -249.999s48.167 -82.5 96.5 -99.5s131.5 -28.833 249.5 -35.5v-147c-136 8 -340.667 12 -614 12
c-72 -1.33301 -181 -2.33301 -327 -3s-255.333 -2.33398 -328 -5.00098z" />
    <glyph glyph-name="G" unicode="G" horiz-adv-x="2994" 
d="M1671 1024l1114 0.000976562v-143c-87.333 0 -152.166 -14.833 -194.499 -44.5s-63.5 -84.5 -63.5 -164.5v-484h-16c-76 0 -149.5 -9.5 -220.5 -28.5s-155.667 -46.5 -254 -82.5s-175.166 -61.667 -230.499 -77c-125.333 -38 -264.333 -57 -417 -57
c-102.667 0 -204 11.167 -304 33.5s-195 55.5 -285 99.5s-173.5 99.167 -250.5 165.5s-144.167 142.833 -201.5 229.5c-122.667 198.667 -184 415.667 -184 651c0 224 52.167 438.667 156.5 644s247.5 369 429.5 491c179.333 120 384 180 614 180
c130.667 0 262.5 -20.667 395.5 -62s255.167 -98.333 366.5 -171l57 192h160l24 -749h-159c-80.667 300 -232.334 487 -455.001 561c-65.333 24.667 -143 37 -233 37c-112 0 -216 -27.333 -312 -82s-173.667 -134 -233 -238c-34 -57.333 -65 -130 -93 -218
s-49.5 -180.833 -64.5 -278.5s-22.5 -195.5 -22.5 -293.5c0 -158.667 19.667 -308.834 59 -450.501s101.666 -260.667 186.999 -357s193 -156.5 323 -180.5c54.667 -10.667 98.334 -16 131.001 -16c89.333 0 173.666 16.333 252.999 49s134.333 80.667 165 144
c30 56 45 131 45 225v82c0 98 -22.167 164.167 -66.5 198.5s-117.833 51.5 -220.5 51.5v143z" />
    <glyph glyph-name="H" unicode="H" horiz-adv-x="3219" 
d="M172 -8l0.00292969 143.004c97.333 4 168.333 15.167 213 33.5s75 50 91 95s24 116.833 24 215.5v1442c0 128 -19 212.5 -57 253.5s-116 61.5 -234 61.5h-37v148c44.667 -0.666992 106.667 -2.16699 186 -4.5s158.333 -4.16602 237 -5.49902s141 -2 187 -2
c44 0 106.167 0.833008 186.5 2.5s160.166 3.5 239.499 5.5s142.333 3.33301 189 4v-148h-17c-114 0 -195 -23.833 -243 -71.5s-72 -128.834 -72 -243.501v-614h1053v614c0 92.667 -8.83301 160.5 -26.5 203.5s-49.334 72 -95.001 87s-115.834 23.167 -210.501 24.5v148
c78 -1.33301 192.833 -4.5 344.5 -9.5s277.167 -7.5 376.5 -7.5c103.333 0 271.333 5.66699 504 17v-148c-126 0 -212.167 -21.333 -258.5 -64s-69.5 -126.334 -69.5 -251.001v-1442c0 -86.667 9.5 -154.334 28.5 -203.001s51.5 -83.5 97.5 -104.5
s113.333 -33.167 202 -36.5v-143c-273.333 5.33301 -478.333 8 -615 8c-133.333 0 -336.666 -2.66699 -609.999 -8v143c101.333 7.33301 174.166 19.666 218.499 36.999s74.333 48.166 90 92.499s23.5 115.833 23.5 214.5v647h-1053v-647c0 -92 10 -161.167 30 -207.5
s53.333 -78.833 100 -97.5s114 -31.667 202 -39v-143c-273.333 5.33301 -478.333 8 -615 8c-138.667 -0 -342 -2.66699 -610 -8z" />
    <glyph glyph-name="I" unicode="I" horiz-adv-x="1626" 
d="M193 -8l0.000976562 143c96.667 4 168 14.833 214 32.5s77.667 49.5 95 95.5s26 118 26 216v1442c0 89.333 -8.83301 156 -26.5 200s-48.334 74.167 -92.001 90.5s-107.834 24.5 -192.501 24.5h-24v148c48.667 -0.666992 116.334 -2 203.001 -4
s173.5 -3.83301 260.5 -5.5s154.833 -2.5 203.5 -2.5c42 0 101 0.666992 177 2s152.167 3.16602 228.5 5.5c76.333 2.33301 135.166 3.83301 176.499 4.5v-148h-17c-115.333 0 -197.333 -23 -246 -69s-73 -128 -73 -246v-1442c0 -92 10 -161 30 -207s53.333 -78.5 100 -97.5
s115.334 -32.167 206.001 -39.5v-143c-278.667 5.33301 -487.667 8 -627 8c-142.667 -0 -350 -2.66699 -622 -8z" />
    <glyph glyph-name="J" unicode="J" horiz-adv-x="1933" 
d="M848 -385l-0.00488281 2273c0 94 -8.66699 164.333 -26 211s-51.333 81 -102 103s-126.667 35 -228 39v147c238 -14 444 -21 618 -21c178.667 0 387.667 7 627 21v-147c-93.333 -7.33301 -162.166 -20.333 -206.499 -39s-75 -50.667 -92 -96s-25.5 -115.333 -25.5 -210
v-1818c0 -239.333 -21.667 -439.5 -65 -600.5s-144.666 -279.167 -303.999 -354.5c-125.333 -62.667 -272.666 -94 -441.999 -94c-161.333 0 -295 31.333 -401 94c-53.333 30 -96 70.667 -128 122s-48 102.333 -48 153c0 51.333 17.5 96.166 52.5 134.499
s82.833 60.5 143.5 66.5c2.66699 0 7 0.666992 13 2s10 2 12 2c64.667 0 110.834 -18.333 138.501 -55s55.334 -92 83.001 -166s54.834 -122 81.501 -144c23.333 -19.333 50.666 -29 81.999 -29c51.333 0 96.333 16.667 135 50c54.667 50.667 82 147.334 82 290.001v66z" />
    <glyph glyph-name="K" unicode="K" horiz-adv-x="2994" 
d="M164 -12l-0.000976562 147c85.333 1.33301 151.166 11 197.499 29s79.5 49.333 99.5 94s31.667 109 35 193v1491c0 116.667 -24.333 195.667 -73 237s-135 67.333 -259 78v135c218 -13.333 417.333 -20 598 -20c133.333 0 331.333 5.33301 594 16v-139h-21
c-115.333 0 -191.166 -28.167 -227.499 -84.5s-54.5 -148.5 -54.5 -276.5v-778l327 373c300.667 332.667 452.334 545.667 455.001 639v4c0 76.667 -86 119 -258 127v131c226.667 -11.333 389 -17 487 -17c116.667 0 256 7 418 21v-135
c-96.667 -9.33301 -176.667 -32.833 -240 -70.5s-130.666 -97.5 -202 -179.5l-443 -512l893 -1155c93.333 -117.333 196 -183 308 -197v-151c-208.667 8 -420.334 12 -635.001 12c-188 0 -376.667 -4 -566 -12v147h17c66.667 0 122.834 9.5 168.501 28.5
s68.5 47.833 68.5 86.5c0 40.667 -19 85.667 -57 135l-541 717l-200 -238v-397c0 -94.667 7.5 -164.167 22.5 -208.5s44.5 -75 88.5 -92s114.667 -27.5 212 -31.5v-147c-289.333 10.667 -509 16 -659 16c-208.667 0 -393 -5.33301 -553 -16z" />
    <glyph glyph-name="L" unicode="L" horiz-adv-x="2535" 
d="M160 -12l0.00292969 147c133.333 0 221.166 24.5 263.499 73.5s63.5 143.5 63.5 283.5v1470c0 114 -24.833 188.5 -74.5 223.5s-133.834 53.5 -252.501 55.5v143c44 -0.666992 106.333 -2 187 -4s161 -3.83301 241 -5.5s142 -2.5 186 -2.5c46 0 109 0.666992 189 2
s160 3.16602 240 5.5c80 2.33301 143.333 3.83301 190 4.5v-143c-93.333 -3.33301 -162.5 -11.333 -207.5 -24s-78.333 -39.5 -100 -80.5s-32.5 -105.833 -32.5 -194.5v-1303c1.33301 -118.667 14.166 -211.334 38.499 -278.001s68.5 -114.834 132.5 -144.501
s155.667 -44.5 275 -44.5c1.33301 0 3.33301 -0.666992 6 -2s4.66699 -2 6 -2c188 0 336.167 43.333 444.5 130s184.166 222.334 227.5 407.001h144l-13 -709c-88 0 -220.333 0.666992 -397 2s-307.667 2 -393 2c-152 0 -380 -1.66699 -684 -5
s-530.667 -5.66602 -680 -6.99902z" />
    <glyph glyph-name="M" unicode="M" horiz-adv-x="3449" 
d="M184 -8l0.00195312 142.997c98.667 5.33301 170.5 30.333 215.5 75s72.667 99.834 83 165.501s16.166 156.167 17.499 271.5v1487c-39.333 42.667 -82.833 71.334 -130.5 86.001s-110.834 25.667 -189.501 33v131c185.333 -11.333 318 -17 398 -17
c89.333 0 238 5.66699 446 17l696 -1651l656 1651c55.333 -2 112.166 -4.5 170.5 -7.5c58.333 -3 111.833 -4.5 160.5 -4.5c28.667 0 65.334 0.5 110 1.5c44.667 1 92.5 2.5 143.5 4.5s95 3.83301 132 5.5s84.833 3.16699 143.5 4.5v-139
c-95.333 0 -168.166 -10.667 -218.5 -32c-50.333 -21.333 -85.166 -57.5 -104.5 -108.5c-19.333 -51 -29 -123.167 -29 -216.5v-1450c0 -85.333 12.167 -149.666 36.5 -192.999s60.833 -73.166 109.5 -89.499s117.334 -27.166 206 -32.499v-139
c-80.667 1.33301 -202.334 3.66602 -365 6.99902c-162.667 3.33301 -284 5 -364 5c-109.333 0 -270.666 -2.66699 -484 -8v139c98 12.667 168.5 28.167 211.5 46.5s71.833 49.333 86.5 93s22 114.5 22 212.5v1303l-725 -1790h-168l-762 1839v-1188
c0 -121.333 5.5 -213.833 16.5 -277.5s39.833 -116.667 86.5 -159s121.667 -68.833 225 -79.5v-143c-53.333 1.33301 -134 3.66602 -242 6.99902s-188.667 5 -242 5c-73.333 -0 -189.333 -2.66699 -348 -8z" />
    <glyph glyph-name="N" unicode="N" horiz-adv-x="3031" 
d="M180 -12l0.00292969 147.001c92.667 14.667 162.167 37.667 208.5 69s77.166 74.666 92.499 129.999s23 132.333 23 231v1495c-57.333 72.667 -106.833 120.167 -148.5 142.5s-106.834 36.5 -195.501 42.5v139c156 -11.333 268 -17 336 -17
c86.667 0 225.667 5.66699 417 17l1418 -1622v1065c-2 143.333 -24.167 247 -66.5 311s-130.833 99.667 -265.5 107v139c31.333 -0.666992 74.833 -2 130.499 -4c55.667 -2 111.167 -3.83301 166.5 -5.5s98.333 -2.5 129 -2.5c29.333 0 71.666 0.833008 127 2.5
c55.333 1.66699 110.333 3.5 165 5.5s98 3.33301 130 4v-139c-131.333 -5.33301 -218.833 -43.666 -262.5 -115c-43.667 -71.333 -65.5 -179.333 -65.5 -324v-1859h-201l-1618 1888v-1270c3.33301 -135.333 27.833 -239.5 73.5 -312.5s130.5 -112.167 254.5 -117.5v-143
c-213.333 5.33301 -377 8 -491 8c-118.667 0 -237.667 -4 -357 -12z" />
    <glyph glyph-name="O" unicode="O" horiz-adv-x="3068" 
d="M2879 1192c0 -177.333 -35.334 -344.167 -106.001 -500.5s-168.667 -293.166 -294 -410.499s-269.333 -208.5 -432 -273.5s-331.667 -97.5 -507 -97.5c-177.333 0 -348.166 30.5 -512.499 91.5s-310.833 147.667 -439.5 260s-229.5 245.166 -302.5 398.499
s-109.5 318.333 -109.5 495c0 236 59.333 455.167 178 657.5s279.667 362.5 483 480.5s425.333 177 666 177c175.333 0 345.833 -31.167 511.5 -93.5s313.5 -150.833 443.5 -265.5s232.667 -251 308 -409s113 -328 113 -510zM998.999 2028
c-125.333 -168 -188.001 -430.334 -188.001 -787.001c0 -8 0.666992 -19.333 2 -34s2 -25 2 -31c0 -184.667 20.333 -356 61 -514s114.834 -288.667 222.501 -392s253.5 -155 437.5 -155c270.667 0 453 101 547 303s142.333 458.667 145 770
c0 263.333 -42.167 495.833 -126.5 697.5s-235.833 322.834 -454.5 363.501c-44.667 8 -94 12 -148 12c-100.667 0 -194.667 -19.5 -282 -58.5s-160 -97.167 -218 -174.5z" />
    <glyph glyph-name="P" unicode="P" horiz-adv-x="2499" 
d="M184 -8l0.00292969 143c115.333 12 196.166 36.167 242.499 72.5s69.5 107.833 69.5 214.5v1540c0 110 -21.667 181.333 -65 214s-125.666 54.334 -246.999 65v139c43.333 -1.33301 108.166 -3.83301 194.499 -7.5s159.5 -5.5 219.5 -5.5c54 0 132 1.5 234 4.5
s190.667 4.5 266 4.5h135c219.333 0 407.333 -17.5 564 -52.5s284 -111.833 382 -230.5c74 -92.667 111 -210 111 -352c0 -92 -17.667 -180.167 -53 -264.5s-86 -153.166 -152 -206.499c-100 -80.667 -217.333 -134.334 -352 -161.001s-290.334 -40 -467.001 -40
c-25.333 0 -61 0.666992 -107 2s-80 2 -102 2v-647c0 -117.333 28.167 -195.166 84.5 -233.499s148.166 -57.5 275.499 -57.5v-143c-77.333 1.33301 -196 3.66602 -356 6.99902s-278.667 5 -356 5c-175.333 0 -349 -4 -521 -12zM1057 2109v-864h69
c166 0 291.667 24.667 377 74c63.333 34.667 110 88.667 140 162s45 154.333 45 243c0 64 -7 127 -21 189c-22.667 96.667 -72.667 170 -150 220s-168 75 -272 75h-24c-109.333 0 -164 -31.333 -164 -94v-5z" />
    <glyph glyph-name="Q" unicode="Q" horiz-adv-x="3142" 
d="M1249 -283c8 0 18.9951 0.663086 32.9951 1.99609s23.667 2 29 2c184.667 0 324.834 -10.833 420.501 -32.5s257.167 -73.5 484.5 -155.5c104.667 -35.333 196 -53 274 -53c8.66699 0 21.667 0.666992 39 2s29 2 35 2c103.333 14 190.666 63 262 147
c41.333 46.667 71.333 70 90 70c27.333 0 41 -30 41 -90c-8.66699 -144 -60.334 -272.333 -155 -385c-106 -136.667 -260.333 -205 -463 -205c-114.667 0 -214.834 21 -300.5 63c-85.667 42 -184.667 107.167 -297 195.5s-205.166 155.333 -278.499 201
s-158.333 75.5 -255 89.5c-64 8 -96.667 12 -98 12c-70 0 -128.667 -9.33301 -176 -28s-102.333 -45 -165 -79s-107.334 -51.667 -134.001 -53h-4c-32.667 0 -58 9 -76 27s-27 39.333 -27 64c0 23.333 9.33301 47.333 28 72s42.334 43 71.001 55
c43.333 17.333 115.833 41.333 217.5 72s181.834 57 240.501 79c100 37.333 206.667 88 320 152c-168 8 -326.833 42.333 -476.5 103s-282.167 145.334 -397.5 254.001s-204.666 236.334 -267.999 383.001s-95 306.667 -95 480c2.66699 0 4 4.33301 4 13
c0.666992 188.667 37.5 360.667 110.5 516s173 288 300 398s271.333 194 433 252s329.834 87 504.501 87c156.667 0 300 -19 430 -57c180 -48.667 340.667 -132.334 482 -251c141.333 -118.667 250.5 -259.167 327.5 -421.5s115.5 -332.833 115.5 -511.5
c0 -122.667 -19 -247 -57 -373c-51.333 -159.333 -132 -296.666 -242 -411.999s-234.5 -211.166 -373.5 -287.499s-291 -146 -456 -209zM814.995 1155c1.33301 -168 25 -333.169 71 -495.502s122.5 -297.666 229.5 -405.999s245.833 -162.833 416.5 -163.5
c466.667 0 700 371.333 700 1114c0 128 -11.167 253.667 -33.5 377s-59.5 236.333 -111.5 339s-125 185.834 -219 249.501s-208.667 95.5 -344 95.5h-33c-164.667 -7.33301 -298 -66.333 -400 -177s-174.167 -246.167 -216.5 -406.5s-63.5 -324.833 -63.5 -493.5
c0 -4 0.666992 -10 2 -18s2 -13 2 -15z" />
    <glyph glyph-name="R" unicode="R" horiz-adv-x="2916" 
d="M135 -8l-0.00488281 147.001c100 3.33301 175.167 13.5 225.5 30.5s86.166 49.167 107.499 96.5s32 119.666 32 216.999v1483c0 121.333 -26.167 197.666 -78.5 229c-52.333 31.333 -147.833 48 -286.5 50v143c76.667 -2 155.334 -4.5 236.001 -7.5s155 -4.5 223 -4.5
c30 0 77 1.33301 141 4s111.333 4 142 4c26.667 0.666992 93.834 2.83398 201.501 6.50098s190.5 5.5 248.5 5.5c391.333 0 664.333 -71 819 -213c106.667 -102 160 -235.667 160 -401c0 -110.667 -27.333 -210.334 -82 -299.001c-95.333 -156 -266 -254.333 -512 -295
c60.667 -35.333 110.834 -77.666 150.501 -126.999s94.834 -124.333 165.501 -225l344 -484c96 -131.333 206.333 -209 331 -233v-131c-46 1.33301 -116.667 3.66602 -212 6.99902s-166.666 5 -214 5c-64.667 -0 -165.667 -2.66699 -303 -8l-569 819
c-58 84 -97.167 138.5 -117.5 163.5s-50.5 47.667 -90.5 68s-91 30.5 -153 30.5v-610c0 -92.667 11.667 -161.667 35 -207s58.333 -75.333 105 -90s116.334 -23.667 209.001 -27v-147c-322.667 5.33301 -565.667 8 -729 8c-123.333 -0 -299.666 -2.66699 -528.999 -8z
M1044 2089l0.00292969 -852.001c9.33301 0 24.666 -0.666992 45.999 -2s37.666 -2 48.999 -2c119.333 0 220.166 12.5 302.499 37.5s146.5 78.167 192.5 159.5c46.667 84 70 183.667 70 299c0 120.667 -24.667 224.334 -74 311.001c-70.667 122.667 -205.667 184 -405 184
h-82c-66 -6.66699 -99 -51.667 -99 -135z" />
    <glyph glyph-name="S" unicode="S" horiz-adv-x="2081" 
d="M0 0l180.002 -0.00683594c8.66699 133.333 13 259 13 377c0 116.667 -4.33301 243.667 -13 381h164c46.667 -186.667 119.667 -339.834 219 -459.501s231 -179.5 395 -179.5c41.333 0 71.666 1.33301 90.999 4c107.333 11.333 193.5 53.333 258.5 126s97.5 155 97.5 247
c0 118.667 -50.667 218.334 -152 299.001c-72.667 54.667 -180.5 113 -323.5 175s-252.833 114 -329.5 156s-151 105 -223 189c-106.667 123.333 -160 273.333 -160 450c0 152.667 39.667 285.334 119 398.001c138 182.667 347 274 627 274
c201.333 0 385.666 -61.333 552.999 -184l45 151h168c0 -219.333 4 -441.666 12 -666.999h-160c-57.333 210.667 -153 359.334 -287 446.001c-84.667 52 -187 78 -307 78c-43.333 0 -76 -1.33301 -98 -4c-76 -16 -138 -52.667 -186 -110s-72 -124.333 -72 -201
c0 -129.333 86 -234.666 258 -315.999l259 -113c82 -35.333 161.5 -73.666 238.5 -114.999s148 -87.666 213 -138.999s120.167 -110.666 165.5 -177.999c76.667 -110 115 -241 115 -393c0 -122.667 -28.667 -241.334 -86 -356.001
c-72 -130.667 -177.667 -228.167 -317 -292.5s-289 -96.5 -449 -96.5h-16c-128.667 0 -239.667 17.333 -333 52s-190 92.334 -290 173.001l-41 -172h-348z" />
    <glyph glyph-name="T" unicode="T" horiz-adv-x="2687" 
d="M1024 422v1761c-138 0 -243.667 -3.33301 -317 -10s-139.166 -24.334 -197.499 -53c-58.333 -28.667 -107 -75.5 -146 -140.5s-70.167 -158.167 -93.5 -279.5h-143l29 684c293.333 -14 649.666 -21 1069 -21c241.333 0 652.333 5.66699 1233 17l32 -680h-139
c-28.667 146 -70.167 253.167 -124.5 321.5s-122.333 112.333 -204 132s-193.167 29.5 -334.5 29.5h-99v-1761c0 -84 13.5 -146.167 40.5 -186.5s64.667 -66.666 113 -78.999s118.833 -20.833 211.5 -25.5v-143c-67.333 1.33301 -167.666 3.66602 -300.999 6.99902
s-232.333 5 -297 5c-76 -0 -190 -1.66699 -342 -5s-264.667 -5.66602 -338 -6.99902v143c87.333 6 154.666 15.5 201.999 28.5s83.5 39.167 108.5 78.5s37.5 100.666 37.5 183.999z" />
    <glyph glyph-name="U" unicode="U" horiz-adv-x="3068" 
d="M479 963v867.999c0 106.667 -6.66699 186.334 -20 239.001s-42.833 92.5 -88.5 119.5s-120.167 45.5 -223.5 55.5v139c42 -0.666992 101 -2.16699 177 -4.5s152 -4.16602 228 -5.5c76 -1.33301 135 -2 177 -2c144.667 0 361.667 5.33301 651 16v-143
c-101.333 -10.667 -175.333 -27.167 -222 -49.5s-78.667 -58.833 -96 -109.5s-26 -127.667 -26 -231v-925c0 -160 16.5 -294.333 49.5 -403s93.5 -194.334 181.5 -257.001s211.667 -94 371 -94l9 4c190.667 2.66699 337 37.167 439 103.5s171 160.333 207 282
s54 277.167 54 466.5v815c0 141.333 -21.5 240 -64.5 296s-130.833 92.667 -263.5 110v131c210 -11.333 357.667 -17 443 -17c82 0 215.667 5.66699 401 17v-139c-92 -18 -159.833 -40.333 -203.5 -67s-73.667 -64.5 -90 -113.5s-26.166 -121.5 -29.499 -217.5v-815
c0 -122 -4.33301 -226.5 -13 -313.5s-28.667 -173.333 -60 -259s-78 -162.5 -140 -230.5c-170 -193.333 -442 -290 -816 -290c-370.667 0 -646.334 95.333 -827.001 286c-84 84.667 -139.167 187.834 -165.5 309.501s-39.5 264.5 -39.5 428.5z" />
    <glyph glyph-name="V" unicode="V" horiz-adv-x="2765" 
d="M41 2380c54 -1.33301 128 -3.83301 222 -7.5s175.667 -5.5 245 -5.5c70.667 0 324.667 7 762 21v-152c-106.667 0 -183.834 -11.333 -231.501 -34s-71.5 -61.667 -71.5 -117c0 -48 17.667 -113.667 53 -197l467 -1237l385 979c73.333 170 110 312 110 426v25
c-2 65.333 -32.167 107.5 -90.5 126.5s-129.166 28.5 -212.499 28.5v148c152 -8 302.333 -12 451 -12c151.333 0 303 4 455 12v-148c-86.667 -6.66699 -155.167 -25 -205.5 -55s-90.5 -69.5 -120.5 -118.5s-63.333 -118.167 -100 -207.5l-779 -1908h-176l-811 2031
c-36.667 98.667 -78.5 165.334 -125.5 200c-47 34.667 -122.5 54 -226.5 58v144z" />
    <glyph glyph-name="W" unicode="W" horiz-adv-x="3674" 
d="M90 2388c225.333 -14 421.999 -20.999 589.999 -20.999c114 0 310.667 5.66699 590 17v-135c-103.333 -6 -177.666 -21.5 -222.999 -46.5s-68 -65.5 -68 -121.5c0 -16.667 16.333 -83.667 49 -201l348 -1118l529 1622h172l553 -1622l286 917
c49.333 169.333 74 282.666 74 339.999c0 144 -97 218 -291 222v143c66 -2 133.333 -4.5 202 -7.5s132.334 -4.5 191 -4.5c88 0 219.333 5.33301 394 16v-147c-70 -13.333 -122.333 -33 -157 -59s-58.334 -53.167 -71 -81.5c-12.667 -28.333 -36.334 -93.5 -71 -195.5
l-647 -1958h-181l-544 1597l-525 -1597h-184l-688 2040c-29.333 90 -67.333 152.5 -114 187.5s-118 59.833 -214 74.5v139z" />
    <glyph glyph-name="X" unicode="X" horiz-adv-x="2916" 
d="M156 -8l-0.000976562 139.001c182 30 358 147.333 528 352l487 590l-589 803c-76 107.333 -148 191.833 -216 253.499c-68 61.667 -150.333 101.5 -247 119.5v139c228.667 -14 425.334 -21 590.001 -21c126.667 0 343.667 5.66699 651 17v-135
c-172 -11.333 -258 -53.666 -258 -126.999c0 -35.333 19 -77.666 57 -126.999l361 -500l303 369c79.333 94.667 119 173.667 119 237c0 86 -89 135.333 -267 148v139c168 -14 311.333 -21 430 -21c98.667 0 258.667 5.66699 480 17v-135c-88 -7.33301 -166 -33 -234 -77
s-123.167 -91 -165.5 -141s-108.5 -133 -198.5 -249l-361 -434l754 -1012c48.667 -66.667 96.667 -113.834 144 -141.501s111.333 -46.167 192 -55.5v-147c-252 5.33301 -444.667 8 -578 8c-156 0 -386.667 -2.66699 -692 -8v147c94 0 166.667 6.83301 218 20.5
s77 42.5 77 86.5c0 47.333 -26 104.666 -78 171.999l-381 508l-373 -459c-62.667 -76 -94 -137.333 -94 -184c0 -85.333 90 -134.666 270 -147.999v-143c-62 1.33301 -153 3.66602 -273 6.99902s-209 5 -267 5c-132 0 -261.667 -4 -389 -12z" />
    <glyph glyph-name="Y" unicode="Y" horiz-adv-x="2728" 
d="M680 -8l-0.000976562 143c93.333 4.66699 163.166 14 209.499 28s81 42.167 104 84.5s34.5 108.5 34.5 198.5v480l-565 1024c-42 74.667 -74.667 128.5 -98 161.5s-54.166 60.667 -92.499 83s-92.166 40.5 -161.499 54.5v135
c38.667 -0.666992 93.334 -2.16699 164.001 -4.5s141 -4.16602 211 -5.5c70 -1.33301 125 -2 165 -2c45.333 0 108.5 0.666992 189.5 2s162.167 3.16602 243.5 5.5c81.333 2.33301 144.666 3.83301 189.999 4.5v-139c-180 -12 -270 -58.667 -270 -140
c0 -21.333 5.83301 -46.166 17.5 -74.5c11.667 -28.333 33.167 -72 64.5 -131s50.333 -95.5 57 -109.5l348 -635l352 578c92.667 145.333 139 258.666 139 339.999c0 35.333 -5.33301 64 -16 86c-22.667 34 -54 55.333 -94 64s-89.333 14.667 -148 18v139
c37.333 -1.33301 89.333 -3.83301 156 -7.5s124 -5.5 172 -5.5c68.667 0 150 1.83301 244 5.5s165.667 6.16699 215 7.5v-139c-118 -24 -209.667 -88.333 -275 -193l-651 -1077v-508c0.666992 -92.667 12.334 -161.667 35.001 -207s57.667 -75.666 105 -90.999
s119.666 -25.333 216.999 -30v-143c-301.333 5.33301 -528 8 -680 8c-137.333 -0 -331.333 -2.66699 -582 -8z" />
    <glyph glyph-name="Z" unicode="Z" horiz-adv-x="2273" 
d="M102 152l1303 2043c-23.333 0 -64.5 0.833008 -123.5 2.5s-116.167 2.5 -171.5 2.5c-233.333 0 -398.666 -23.333 -495.999 -70c-127.333 -61.333 -212 -195 -254 -401h-131v643h1823v-152l-1302 -2032h467c133.333 0 246.833 17.833 340.5 53.5s169.5 93 227.5 172
s99.333 182.833 124 311.5h139l-37 -725h-1909v152z" />
    <glyph glyph-name="bracketleft" unicode="[" horiz-adv-x="1286" 
d="M270 -700v3072h811v-140h-450v-2789h450v-143h-811z" />
    <glyph glyph-name="backslash" unicode="\" horiz-adv-x="1319" 
d="M45 2433h176l893 -2761h-168z" />
    <glyph glyph-name="bracketright" unicode="]" horiz-adv-x="1171" 
d="M967 -700h-811v143h446v2789h-446v140h811v-3072z" />
    <glyph glyph-name="asciicircum" unicode="^" horiz-adv-x="1626" 
d="M410 1798l397 602h229l398 -602h-131l-381 336l-385 -336h-127z" />
    <glyph glyph-name="underscore" unicode="_" horiz-adv-x="2007" 
d="M41 -479h1774v-357h-1774v357z" />
    <glyph glyph-name="grave" unicode="`" horiz-adv-x="1434" 
d="M1225 1798h-127l-520 316c-98.667 56 -148 118.667 -148 188c0 32 11.5 58.5 34.5 79.5s52.5 31.5 88.5 31.5c73.333 0 137.333 -33 192 -99z" />
    <glyph glyph-name="a" unicode="a" horiz-adv-x="2007" 
d="M1053 176c-85.333 -69.333 -164.998 -123.003 -238.998 -161.003s-152.667 -58 -236 -60h-29c-186.667 0 -312.334 68.333 -377.001 205c-30 73.333 -45 136 -45 188c0 72.667 19 143.334 57 212.001s90 125 156 169c85.333 56 213.666 116 384.999 180l153.5 53
c59.667 20.667 93.167 34.667 100.5 42c57.333 26.667 86 74.334 86 143.001v65c0 132.667 -41 213.334 -123 242.001c-26.667 5.33301 -51.334 8 -74.001 8c-77.333 0 -138.666 -27.333 -183.999 -82c-19.333 -21.333 -39.833 -58 -61.5 -110s-38.834 -89.667 -51.501 -113
s-35 -44.333 -67 -63c-43.333 -24.667 -81.666 -37 -114.999 -37c-50.667 0 -94.667 21.833 -132 65.5s-56 92.834 -56 147.501c0 57.333 20.333 110.666 61 159.999c49.333 51.333 131.166 93.5 245.499 126.5s237.5 49.5 369.5 49.5c184.667 0 340.667 -37.5 468 -112.5
s191 -193.167 191 -354.5v-836c0 -68 19 -102 57 -102c24 0 65 17.667 123 53l74 -94c-45.333 -63.333 -106.666 -113.333 -183.999 -150s-155.333 -55 -234 -55c-87.333 0 -155 16.667 -203 50s-86.667 90.333 -116 171zM680.002 302.997
c28 -43.333 68.998 -64.999 122.998 -64.999c58.667 0 114.334 24.667 167.001 74s79 105 79 167v389c-94 -28 -175.167 -61.833 -243.5 -101.5s-117.166 -93.167 -146.499 -160.5c-18.667 -64 -28 -114.333 -28 -151c0 -64.667 16.333 -115.334 49 -152.001z" />
    <glyph glyph-name="b" unicode="b" horiz-adv-x="2122" 
d="M754 1446c134.667 106.667 279.333 159.999 434 159.999c123.333 0 240.166 -34.5 350.499 -103.5s198.333 -164.333 264 -286s98.5 -258.167 98.5 -409.5c-2 -145.333 -29.333 -279.166 -82 -401.499s-130.5 -223.5 -233.5 -303.5s-225.833 -127.667 -368.5 -143h-115
c-193.333 0 -347.666 56 -462.999 168l-373 -172v2179c0 60 -17.167 98.167 -51.5 114.5s-86.833 27.166 -157.5 32.5v132c308 26.667 540.333 64.667 697 114v-1081zM736.999 445.999c0 -86.667 22 -158.166 66 -214.499s109.333 -84.5 196 -84.5
c256.667 0 385 216 385 648c0 147.333 -26.333 283.166 -79 407.499s-139.667 186.5 -261 186.5c-16.667 0 -46.667 -3 -90 -9c-94.667 -23.333 -154.5 -72.833 -179.5 -148.5s-37.5 -176.167 -37.5 -301.5v-484z" />
    <glyph glyph-name="c" unicode="c" horiz-adv-x="1851" 
d="M1544 410l115 -110.999c-114.667 -148.667 -248.667 -248.334 -402 -299.001c-97.333 -30 -202.333 -45 -315 -45c-114.667 0 -213 15 -295 45c-104 39.333 -192.167 97 -264.5 173s-126.833 163.167 -163.5 261.5s-55 200.5 -55 306.5c0 122 23.333 240 70 354
s113.334 209 200.001 285c159.333 148 362.666 222 609.999 222c44.667 0 113 -5.66699 205 -17c222 -34 351.667 -121.333 389 -262c6 -37.333 9 -60.666 9 -69.999c0 -55.333 -18 -101.833 -54 -139.5s-83.667 -56.5 -143 -56.5h-8c-52 0 -92.333 14.667 -121 44
s-56 74.5 -82 135.5s-43 98.167 -51 111.5c-47.333 70.667 -107.333 106 -180 106c-46 0 -90.667 -15.833 -134 -47.5s-75.333 -71.834 -96 -120.501c-62.667 -147.333 -94 -308.333 -94 -483c0 -143.333 23.5 -271.5 70.5 -384.5s119.167 -186.833 216.5 -221.5
c51.333 -19.333 97.666 -29 138.999 -29c79.333 0 156.833 22.333 232.5 67s142.834 103 201.501 175z" />
    <glyph glyph-name="d" unicode="d" horiz-adv-x="2347" 
d="M1458 -41l-36.998 283c-138.667 -191.333 -313.334 -287 -524.001 -287c-52.667 0 -106 4 -160 12c-123.333 18 -228.333 66.833 -315 146.5s-151.834 177.167 -195.501 292.5s-67.167 235.333 -70.5 360c0 1.33301 -0.666992 4 -2 8s-2 6.66699 -2 8
c0 159.333 36 302 108 428s167.167 224.167 285.5 294.5s242.5 105.5 372.5 105.5c188 0 353 -71 495 -213v729c0 74 -21.833 120.5 -65.5 139.5s-113.167 31.167 -208.5 36.5v127c330 15.333 584 48 762 98v-2162c0 -58 20.833 -95.667 62.5 -113s99.834 -29 174.501 -35
v-123c-228.667 -28 -455.334 -73 -680.001 -135zM1405 1012c0 103.333 -30.5 190.501 -91.5 261.501s-142.5 106.5 -244.5 106.5h-4c-138 -3.33301 -234.667 -64.833 -290 -184.5s-83 -260.167 -83 -421.5c0 -6 0.666992 -17.333 2 -34s2 -28.334 2 -35.001
c2.66699 -130 31 -245.167 85 -345.5s137.667 -150.5 251 -150.5c1.33301 0 5 0.666992 11 2s9.33301 2 10 2c118.667 4 206.5 44 263.5 120s86.5 175.333 88.5 298v381z" />
    <glyph glyph-name="e" unicode="e" horiz-adv-x="1929" 
d="M1589 410l119.001 -107.001c-82.667 -116.667 -186.667 -204.5 -312 -263.5s-256 -88.5 -392 -88.5c-146.667 0 -285.834 32.667 -417.501 98s-237.834 160 -318.501 284s-121 268.333 -121 433v61c10.667 159.333 57 297.5 139 414.5s188.667 206.333 320 268
s273.333 92.5 426 92.5c52 0 90.333 -1.66699 115 -5c104.667 -10 202.334 -43 293.001 -99s161 -129.333 211 -220c52 -93.333 80.667 -236.666 86 -429.999h-1045c0 -2 -0.666992 -8.33301 -2 -19s-2 -18 -2 -22c0 -383.333 132.333 -595 397 -635
c7.33301 0 18.333 -0.666992 33 -2s25.667 -2 33 -2c145.333 0 291.333 80.667 438 242zM1004 1458c-102.667 0 -180.333 -45.5 -233 -136.5s-79 -192.833 -79 -305.5h582c0 292 -90 439.333 -270 442z" />
    <glyph glyph-name="f" unicode="f" horiz-adv-x="1778" 
d="M98 -12l0.00390625 123.002c100 4 169.667 23.333 209 58s60 100 62 196v1032h-258v168h258c0 20 -0.666992 51.667 -2 95s-2 75.666 -2 96.999c0 244.667 45 425 135 541c122 152.667 307.667 229 557 229c83.333 0 159.666 -8 228.999 -24
c91.333 -16.667 160.666 -51.5 207.999 -104.5s71 -109.833 71 -170.5c0 -52 -16.667 -95.667 -50 -131s-78.333 -53 -135 -53c-72 0 -120.333 15.333 -145 46s-50.5 79.167 -77.5 145.5s-57.833 108.833 -92.5 127.5c-18 6 -34.333 9 -49 9
c-46.667 0 -82.334 -19.333 -107.001 -58c-35.333 -52 -53 -149 -53 -291v-458h438v-168h-430v-1032c2 -107.333 29.667 -175.333 83 -204s141.666 -45.334 264.999 -50.001v-119c-245.333 5.33301 -431 8 -557 8c-186 0 -371.667 -4 -557 -12z" />
    <glyph glyph-name="g" unicode="g" horiz-adv-x="2159" 
d="M573 537c-106 38 -189.832 103.165 -251.499 195.498s-92.5 192.166 -92.5 299.499c0 122 35.667 228.667 107 320c63.333 84.667 144.333 147.5 243 188.5s206 61.5 322 61.5c182.667 0 345.334 -39.667 488.001 -119c126.667 100.667 241.334 151 344.001 151
c32.667 0 55.667 -1.33301 69 -4c44 -6 82.333 -27.5 115 -64.5s49 -78.167 49 -123.5c0 -28 -5.33301 -51.333 -16 -70c-27.333 -57.333 -74 -86 -140 -86c-26.667 0 -53.667 9.66699 -81 29c-78 62.667 -130 94 -156 94c-28.667 0 -57.334 -9.66699 -86.001 -29
c87.333 -104.667 131 -226 131 -364c0 -109.333 -30 -206.333 -90 -291c-53.333 -76 -118.666 -131 -195.999 -165s-163.833 -54.833 -259.5 -62.5s-177.667 -13.834 -246 -18.501s-118.5 -17 -150.5 -37c-54.667 -34 -82 -79 -82 -135c0 -27.333 12.333 -53.333 37 -78
c24 -19.333 118.333 -31.666 283 -36.999s300 -13.666 406 -24.999s197 -41 273 -89c142 -86.667 213 -224.667 213 -414c0 -69.333 -11.167 -137.666 -33.5 -204.999s-55.333 -128.5 -99 -183.5s-94.834 -97.5 -153.501 -127.5c-160 -84.667 -370.333 -127 -631 -127
c-150 0 -285.333 20.5 -406 61.5s-209.334 103.833 -266.001 188.5c-35.333 54.667 -53 113.334 -53 176.001c0 70.667 26.333 132 79 184s109.667 78 171 78c32.667 0 64.834 -10.333 96.501 -31s54.167 -48.667 67.5 -84c-74 -22.667 -111 -67.667 -111 -135
c0 -42 16.167 -85 48.5 -129s70.833 -76 115.5 -96c84 -38 190.333 -57 319 -57c88 0 170.5 11 247.5 33s141 57.5 192 106.5s79.5 111.5 85.5 187.5v25c0 80.667 -34 138 -102 172s-165.5 54.167 -292.5 60.5s-243.333 11.5 -349 15.5s-189.834 17 -252.501 39
c-74.667 26.667 -134.334 70.5 -179.001 131.5s-67 127.5 -67 199.5c0 79.333 29 155.333 87 228s142.333 126.667 253 162zM709.001 1044c0 -120 12.167 -221 36.5 -303s81.833 -123 172.5 -123c1.33301 0 3.16602 0.833008 5.49902 2.5s4.5 2.5 6.5 2.5
c86.667 3.33301 143.167 39.5 169.5 108.5s39.5 156.833 39.5 263.5v74c0 114.667 -13.167 211 -39.5 289s-84.166 117 -173.499 117c-94.667 0 -154.5 -41.167 -179.5 -123.5s-37.5 -184.833 -37.5 -307.5z" />
    <glyph glyph-name="h" unicode="h" horiz-adv-x="2310" 
d="M127 -4v122.998c83.333 4.66699 142.5 19.334 177.5 44.001s53.5 78.334 55.5 161.001v1740c0 84.667 -14 140.334 -42 167c-28 26.667 -85 42 -171 46v123c270 28 505 70.333 705 127v-1200c164 183.333 348.333 275 553 275c21.333 0 59.666 -3 114.999 -9
c144.667 -25.333 244.334 -89.833 299.001 -193.5s82 -235.5 82 -395.5v-746c0 -60.667 15 -98.334 45 -113.001s81.667 -24.667 155 -30v-119c-73.333 2.66699 -185.333 4 -336 4c-128.667 0 -318.334 -2.66699 -569.001 -8v123c85.333 6 140.166 22.167 164.499 48.5
s36.5 82.5 36.5 168.5v672c0 108.667 -15 192.334 -45 251.001s-93 88 -189 88h-8c-103.333 -4 -179.666 -48 -228.999 -132s-74 -180.333 -74 -289v-557c0 -2 -0.666992 -7 -2 -15s-2 -12.667 -2 -14c0 -78 13 -133.333 39 -166s77 -51 153 -55v-123
c-229.333 5.33301 -406.666 8 -531.999 8c-169.333 0 -296.333 -1.33301 -381 -4z" />
    <glyph glyph-name="i" unicode="i" horiz-adv-x="1286" 
d="M147 -8l0.00195312 131.001c88 6.66699 147.667 20.5 179 41.5s47 69.833 47 146.5v840c0 83.333 -15.667 138.666 -47 165.999s-91 43 -179 47v123c174.667 20 342.667 46 504 78c22.667 4.66699 50.167 11.834 82.5 21.501s59.166 16.667 80.499 21s42.333 6.5 63 6.5
v-1303c0 -77.333 15.667 -126.333 47 -147s90.666 -34.334 177.999 -41.001v-127c-52 0 -131.333 0.666992 -238 2s-185.667 2 -237 2c-106.667 -0 -266.667 -2.66699 -480 -8zM762.002 2462c79.333 -54.667 119 -135.333 119 -241.999c0 -25.333 -5.66699 -60.666 -17 -106
c-22.667 -50.667 -59.334 -92.834 -110.001 -126.501s-104 -50.5 -160 -50.5c-5.33301 0 -12.666 0.833008 -21.999 2.5s-17 2.5 -23 2.5c-66 12 -121.5 45.5 -166.5 100.5s-67.5 115.5 -67.5 181.5c0 13.333 7 49 21 107c22.667 54.667 57.5 97 104.5 127s99.5 45 157.5 45
c57.333 0 112 -13.667 164 -41z" />
    <glyph glyph-name="j" unicode="j" horiz-adv-x="1438" 
d="M729 -545l-0.00488281 1594c-1.33301 81.333 -8.66602 141.166 -21.999 179.499s-38.666 65.666 -75.999 81.999s-94.666 27.166 -171.999 32.499v119c162 19.333 302.667 41.333 422 66c14.667 2.66699 63.167 15.667 145.5 39s145.833 35 190.5 35v-1876
c0 -72 -10.5 -144.5 -31.5 -217.5s-51.5 -140.667 -91.5 -203s-88 -113.5 -144 -153.5c-114 -90 -265.333 -135 -454 -135c-112.667 0 -211 19 -295 57c-62 28 -109 64.333 -141 109s-48 89 -48 133c0 46 15.333 86.667 46 122s71.334 56 122.001 62
c6.66699 0 15 0.666992 25 2s16.667 2 20 2c58.667 0 100.167 -15.167 124.5 -45.5s50.333 -77.333 78 -141s55.834 -103.834 84.501 -120.501c18 -10.667 40 -16 66 -16c48 0 85.167 31.167 111.5 93.5s39.5 122.5 39.5 180.5zM863.995 1954
c-67.333 12 -123 45.1689 -167 99.502s-66 115.166 -66 182.499c0 27.333 8 63 24 107c20.667 52 54.834 93.667 102.501 125s99.5 47 155.5 47c63.333 0 118 -13.667 164 -41c79.333 -54 119 -134.667 119 -242c0 -46 -5.33301 -81.333 -16 -106
c-20 -50.667 -55.667 -93.334 -107 -128.001s-106 -52 -164 -52c-4 0 -11.333 1.33301 -22 4s-18.334 4 -23.001 4z" />
    <glyph glyph-name="k" unicode="k" horiz-adv-x="2195" 
d="M123 -4l0.000976562 122.998c82.667 6.66699 140.167 22.167 172.5 46.5s48.5 72.833 48.5 145.5v1737c0 78.667 -16.333 132.5 -49 161.5s-90 43.5 -172 43.5v131c243.333 8 479.333 55.667 708 143v-1736l320 319c117.333 112.667 176 193.334 176 242.001
c0 60.667 -68.333 94.667 -205 102v115c186.667 -5.33301 326 -8 418 -8c82 0 205 2.66699 369 8v-115c-166 -35.333 -297 -99.333 -393 -192l-263 -271l607 -798c8.66699 -20 27.334 -36.667 56.001 -50s55 -20 79 -20v-131c-142.667 5.33301 -250.667 8 -324 8
c-100.667 0 -174.334 -2.66699 -221.001 -8l-500 696l-119 -110c0 -41.333 -2 -90 -6 -146s-6 -92 -6 -108c0 -65.333 15.167 -112.5 45.5 -141.5s91.833 -50.167 184.5 -63.5v-127c-109.333 10.667 -236.333 16 -381 16c-61.333 0 -153.333 -1.66699 -276 -5
s-212.334 -5.66602 -269.001 -6.99902z" />
    <glyph glyph-name="l" unicode="l" horiz-adv-x="1319" 
d="M139 -8v126.999c87.333 2 148.833 14.833 184.5 38.5s53.5 74.834 53.5 153.501v1819c0 49.333 -19.667 82 -59 98s-93.333 27 -162 33v127c224.667 7.33301 462 53.666 712 139v-2216c0 -70.667 20 -119.167 60 -145.5s99.333 -41.833 178 -46.5v-127
c-229.333 10.667 -404 16 -524 16c-167.333 0 -315 -5.33301 -443 -16z" />
    <glyph glyph-name="m" unicode="m" horiz-adv-x="3256" 
d="M135 -8l0.00390625 131.001c80 10.667 134.833 28.667 164.5 54s44.5 75.666 44.5 150.999v815c0 78.667 -14 134.667 -42 168s-82.333 51 -163 53v123c124.667 13.333 271 39.333 439 78c16 3.33301 39.5 9.5 70.5 18.5s57.167 15.667 78.5 20s42.666 6.5 63.999 6.5
l24 -320c145.333 203.333 329.666 307.333 552.999 312h21c212.667 0 360 -99.667 442 -299c151.333 202 333 303 545 303c49.333 0 113.333 -9.66699 192 -29c117.333 -39.333 194.5 -101.5 231.5 -186.5s55.5 -197.5 55.5 -337.5v-693c0 -2.66699 -0.666992 -8 -2 -16
s-2 -13.333 -2 -16c0 -80.667 13.333 -133.5 40 -158.5s84.334 -40.5 173 -46.5v-131c-192 5.33301 -341 8 -447 8c-98.667 -0 -246 -2.66699 -442 -8v127c83.333 8 137.166 27.667 161.499 59s37.5 92 39.5 182v717c0 183.333 -68.333 275 -205 275h-12
c-105.333 -5.33301 -184.333 -55.166 -237 -149.499s-79 -198.833 -79 -313.5v-520c0 -90.667 10.167 -152.5 30.5 -185.5s71.833 -53.167 154.5 -60.5v-131c-208 5.33301 -366.667 8 -476 8c-84.667 0 -214.334 -2.66699 -389.001 -8v131c56 4.66699 97.333 13.667 124 27
s44.667 34 54 62s15.666 72 18.999 132v750c0 172 -65.667 258 -197 258h-20c-102.667 -3.33301 -181 -52.833 -235 -148.5s-81 -200.5 -81 -314.5v-520c0 -56.667 4 -101.334 12 -134.001s25.833 -58.5 53.5 -77.5s68.834 -30.5 123.501 -34.5v-131
c-197.333 5.33301 -345 8 -443 8c-94.667 -0 -240.667 -2.66699 -438 -8z" />
    <glyph glyph-name="n" unicode="n" horiz-adv-x="2310" 
d="M135 -8v127.001c89.333 4 148 17.5 176 40.5s43 76.167 45 159.5v791c0 93.333 -14.667 154.333 -44 183s-88.333 47 -177 55v131c111.333 6.66699 246.666 27 405.999 61c121.333 35.333 207.333 53 258 53l20 -303c166.667 208 362 312 586 312
c24.667 0 61.667 -3 111 -9c256.667 -45.333 385 -231 385 -557v-717c0 -81.333 13.167 -132.833 39.5 -154.5s82.5 -36.834 168.5 -45.501v-127c-196 5.33301 -347.333 8 -454 8c-103.333 -0 -253.666 -2.66699 -450.999 -8v127c79.333 0 132.666 13.333 159.999 40
s41 80 41 160v717c0 88.667 -16.833 162 -50.5 220s-86.5 87 -158.5 87c-13.333 0 -36.666 -2.66699 -69.999 -8c-94 -20 -163.833 -72.667 -209.5 -158s-68.5 -180 -68.5 -284v-557c-2.66699 0 -4 -4 -4 -12c0 -73.333 16.5 -125.833 49.5 -157.5s87.5 -47.5 163.5 -47.5
v-127c-202.667 5.33301 -355.667 8 -459 8c-106 -0 -260.333 -2.66699 -463 -8z" />
    <glyph glyph-name="o" unicode="o" horiz-adv-x="2081" 
d="M1896 782c0 -153.333 -38.9961 -297.667 -116.996 -433s-183.5 -243 -316.5 -323s-276.5 -120 -430.5 -120c-156.667 0 -304.834 39.167 -444.501 117.5s-251.334 185.5 -335.001 321.5s-125.5 284.667 -125.5 446c0 153.333 40.5 295 121.5 425
s188.5 232.833 322.5 308.5s278.333 113.5 433 113.5c155.333 0 301.666 -38 438.999 -114s247.166 -179.667 329.499 -311s123.5 -275 123.5 -431zM1020 1454c-104 -0.666992 -182.333 -37.832 -235 -111.499s-86 -158.834 -100 -255.501s-21 -205 -21 -325
c0 -9.33301 -0.833008 -19.833 -2.5 -31.5s-2.5 -20.167 -2.5 -25.5c0 -404.667 116.333 -607 349 -607c151.333 2 247.833 69.667 289.5 203s62.5 299.333 62.5 498c0 178.667 -21.167 332.5 -63.5 461.5s-134.5 193.5 -276.5 193.5z" />
    <glyph glyph-name="p" unicode="p" horiz-adv-x="2273" 
d="M98 -991l0.00195312 123.002c73.333 9.33301 127 19.666 161 30.999s59.333 32.833 76 64.5s25 81.5 25 149.5v1667c0 102.667 -15.333 179.667 -46 231s-95.667 77 -195 77v139c72 6 170.333 17 295 33c41.333 6.66699 90.666 17.5 147.999 32.5s103.333 26.333 138 34
s73 11.5 115 11.5v-304c78.667 90.667 153 160.834 223 210.501s151.333 79.167 244 88.5c7.33301 0 17.666 0.833008 30.999 2.5s26.333 2.5 39 2.5c115.333 0 223.833 -27.5 325.5 -82.5s187.167 -130.667 256.5 -227s114 -202.166 134 -317.499
c11.333 -88 17 -155 17 -201c0 -152.667 -32.5 -291.834 -97.5 -417.501s-152.667 -224.667 -263 -297s-230.5 -108.5 -360.5 -108.5c-182 0 -355.333 67 -520 201v-746c0 -74.667 7.33301 -129.834 22 -165.501s40.167 -60.834 76.5 -75.501s93.5 -25.667 171.5 -33v-123
c-168 8 -337.333 12 -508 12c-166.667 0 -336 -4 -508 -12zM844.002 918.002l-0.000976562 -365c0 -112 26.5 -203.5 79.5 -274.5s132.833 -106.5 239.5 -106.5l8 4c248 6 375 195.667 381 569v46c0 142 -24.167 268.167 -72.5 378.5s-133.166 169.833 -254.499 178.5h-33
c-110 0 -195.5 -42.833 -256.5 -128.5s-91.5 -186.167 -91.5 -301.5z" />
    <glyph glyph-name="q" unicode="q" horiz-adv-x="2007" 
d="M1036 -991l-0.000976562 131.002c81.333 6.66699 137.833 13.167 169.5 19.5s57.667 23.5 78 51.5s30.833 74 31.5 138v819c-154 -144.667 -307 -217 -459 -217c-69.333 0 -136.333 9.66699 -201 29c-108 28 -200.167 81 -276.5 159s-134 169.833 -173 275.5
s-58.5 213.167 -58.5 322.5c0 2.66699 0.833008 7.66699 2.5 15s2.5 13.333 2.5 18c4 125.333 28.333 239.5 73 342.5s104.334 190.833 179.001 263.5s159.5 128.5 254.5 167.5s194.833 58.5 299.5 58.5c186 0 359.667 -56 521 -168l254 168h69v-2253
c0 -0.666992 -0.666992 -4.33398 -2 -11.001s-2 -11.334 -2 -14.001c0 -66 16.167 -112.667 48.5 -140s85.833 -42 160.5 -44v-131c-172 8 -349.333 12 -532 12c-144.667 0 -291 -4 -439 -12zM1315 610.002v430c0 115.333 -16.5 209.833 -49.5 283.5
s-99.833 113.167 -200.5 118.5h-25c-96 0 -171.5 -35 -226.5 -105s-92.333 -153.667 -112 -251s-29.5 -195.666 -29.5 -294.999c0 -4 -0.666992 -10.333 -2 -19s-2 -13.334 -2 -14.001c0 -385.333 113.333 -578 340 -578c119.333 2 200.333 42 243 120s64 181.333 64 310z
" />
    <glyph glyph-name="r" unicode="r" horiz-adv-x="1778" 
d="M147 -4l0.00195312 127.004c148 16 222 74.667 222 176v733c0 112 -12.833 193.167 -38.5 243.5s-86.834 77.166 -183.501 80.499v127c96 10.667 204 25.667 324 45c21.333 4 72 18 152 42s142.667 36 188 36l29 -308c139.333 196.667 290.666 295 453.999 295
c54 0 102 -9.33301 144 -28c43.333 -19.333 76.666 -51 99.999 -95s35 -90.333 35 -139s-13 -91.834 -39 -129.501s-65 -62.834 -117 -75.501c-40 -8 -60.333 -12 -61 -12c-46.667 0 -80.167 9.16699 -100.5 27.5s-49 49.833 -86 94.5s-67.833 67 -92.5 67
c-62.667 0 -113.167 -39 -151.5 -117s-57.5 -151 -57.5 -219v-668c0 -75.333 19.667 -122.833 59 -142.5s103 -30.834 191 -33.501v-127c-55.333 0 -137 0.666992 -245 2s-188.667 2 -242 2c-55.333 -0 -136.666 -0.666992 -243.999 -2s-187.333 -2 -240 -2z" />
    <glyph glyph-name="s" unicode="s" horiz-adv-x="1667" 
d="M209 -25c5.33301 114.667 8.00293 202.337 8.00293 263.004c0 60 -2.66699 147.333 -8 262h127c36 -106 98.833 -199.5 188.5 -280.5s186.5 -121.5 290.5 -121.5c41.333 0 79.666 7 114.999 21c112 32.667 168 91.334 168 176.001c0 44.667 -17 88 -51 130
s-80 73.667 -138 95c-18.667 7.33301 -68.334 24.666 -149.001 51.999s-150.334 53.833 -209.001 79.5s-111.167 56 -157.5 91s-83.166 76.833 -110.499 125.5c-36 72 -54 144.333 -54 217c0 114 31.667 218 95 312c42.667 68.667 105 120.667 187 156s171 53 267 53
c168 0 303.333 -45.333 406 -136l65 119h135c-2.66699 -52 -4 -131 -4 -237c0 -104 1.33301 -182 4 -234h-135c-33.333 89.333 -91.5 168.333 -174.5 237s-170.833 103 -263.5 103c-40.667 0 -81.667 -8 -123 -24c-33.333 -12.667 -61.5 -34.334 -84.5 -65.001
s-34.5 -62.334 -34.5 -95.001c0 -0.666992 0.666992 -4.33398 2 -11.001s2 -11.334 2 -14.001c9.33301 -58 35.833 -98.667 79.5 -122s111.5 -48 203.5 -74c123.333 -40.667 226 -80.667 308 -120s148.667 -92.333 200 -159c65.333 -80 98 -182.333 98 -307
c0 -107.333 -26 -200.333 -78 -279c-50 -77.333 -124 -136.833 -222 -178.5s-201.333 -62.5 -310 -62.5c-190.667 0 -342.334 51.667 -455.001 155l-53 -127h-135z" />
    <glyph glyph-name="t" unicode="t" horiz-adv-x="1434" 
d="M303 438v963.001h-180v139c136 30.667 244 88.667 324 174s149.333 200.666 208 345.999h136v-495h368v-164h-368v-1032c0 -59.333 10.167 -104.333 30.5 -135s45.5 -46 75.5 -46c31.333 0 67 13.667 107 41s74 61.666 102 102.999l119 -103
c-123.333 -182.667 -295.333 -274 -516 -274c-152.667 0 -259.167 38.833 -319.5 116.5s-90.5 191.834 -90.5 342.501c0 1.33301 0.666992 5.33301 2 12s2 10.667 2 12z" />
    <glyph glyph-name="u" unicode="u" horiz-adv-x="2273" 
d="M336 455l0.00195312 700.005c0 77.333 -3.16699 132.5 -9.5 165.5s-23.833 59 -52.5 78s-77.667 33.5 -147 43.5v123c308.667 0 540.667 2.66699 696 8v-1094c0 -74 16.167 -136.833 48.5 -188.5s81.833 -77.5 148.5 -77.5c3.33301 0 11.666 1.33301 24.999 4
s22.666 4 27.999 4c122 18.667 203 79.5 243 182.5s60 229.167 60 378.5v394c0 72.667 -4.5 125.667 -13.5 159s-28.333 57.666 -58 72.999s-78.167 26.666 -145.5 33.999v123c156.667 1.33301 289 2.16602 397 2.49902s210.667 2.16602 308 5.49902v-1208
c0 -64.667 16.5 -106.167 49.5 -124.5s83.167 -27.5 150.5 -27.5c1.33301 0 4.33301 0.666992 9 2s7.33398 2 8.00098 2v-123c-160.667 -22 -305.334 -48 -434.001 -78c-133.333 -27.333 -210 -41 -230 -41l-28 291c-73.333 -94.667 -159 -169.5 -257 -224.5
s-202.333 -82.5 -313 -82.5h-53c-151.333 14.667 -260.833 63.167 -328.5 145.5s-101.5 199.166 -101.5 350.499z" />
    <glyph glyph-name="v" unicode="v" horiz-adv-x="2007" 
d="M836 -20l-553.002 1232c-30.667 72 -62.667 126 -96 162s-82 58.667 -146 68v123c52.667 0 116.334 -1.5 191.001 -4.5s132.667 -4.5 174 -4.5c80.667 0 176.834 1.83301 288.501 5.5s196.834 6.16699 255.501 7.5v-123
c-62.667 -7.33301 -110.334 -18.166 -143.001 -32.499s-49 -39.166 -49 -74.499c0 -21.333 8 -48.666 24 -81.999l303 -708l123.5 262.5c41 87.667 77 174.334 108 260.001s50.833 165.5 59.5 239.5v16c0 43.333 -15.5 71.666 -46.5 84.999s-78.167 24.666 -141.5 33.999
v123c98.667 -5.33301 175 -8 229 -8c42 0 106.667 1.33301 194 4s152.333 4 195 4v-123c-110 -18.667 -193.333 -92.334 -250 -221.001l-569 -1245h-151z" />
    <glyph glyph-name="w" unicode="w" horiz-adv-x="2765" 
d="M754 -16l-466.998 1200c-35.333 89.333 -67 152 -95 188s-78.333 62 -151 78v119c90 -2.66699 228 -4 414 -4c229.333 0 400 1.33301 512 4v-119c-150.667 -8.66699 -226 -51 -226 -127c0 -4 9.66699 -42.333 29 -115l225 -590l398 951h139l369 -1008l200 508
c44 100 66 178 66 234c0 24 -1.33301 40.333 -4 49c-8.66699 37.333 -29.834 61.5 -63.501 72.5s-84.834 22.167 -153.501 33.5v115c136 -5.33301 241 -8 315 -8s179 2.66699 315 8v-123c-62 -10 -110.667 -34.167 -146 -72.5s-65.333 -87 -90 -146l-71 -174.5l-446 -1073
h-152l-385 921l-373 -921h-159z" />
    <glyph glyph-name="x" unicode="x" horiz-adv-x="2273" 
d="M160 -8l0.00195312 127.001c155.333 16.667 282.333 82 381 196l323 369l-512 627c-60 71.333 -128.333 112.333 -205 123v131c66 0 144.833 -1.5 236.5 -4.5s163.167 -4.5 214.5 -4.5c73.333 0 161.833 1.83301 265.5 5.5s184.5 6.16699 242.5 7.5v-127
c-43.333 0 -81.5 -6.33301 -114.5 -19s-49.5 -31 -49.5 -55c0 -21.333 11 -44.666 33 -69.999l233 -270l104 101.5c38.667 38.333 73.334 78.833 104.001 121.5s46 79 46 109v4c-0.666992 23.333 -11.167 40.333 -31.5 51s-49 17.667 -86 21s-57.833 5.33301 -62.5 6v123
c46 0 101.667 -1.5 167 -4.5s114.666 -4.5 147.999 -4.5c40.667 0 98.667 1.5 174 4.5s140.333 4.5 195 4.5v-119c-77.333 -9.33301 -144.166 -33.5 -200.499 -72.5s-117.833 -95.5 -184.5 -169.5l-278 -303l507 -639c50.667 -66 135.334 -113.667 254.001 -143v-127
c-196 5.33301 -346 8 -450 8c-123.333 0 -305 -2.66699 -545 -8v127c117.333 0 176 23 176 69c0 27.333 -15 57.666 -45 90.999l-242 278l-97 -101c-44.667 -46.667 -83.334 -92.834 -116.001 -138.501s-49 -84.5 -49 -116.5h4c3.33301 -20 10.666 -35.5 21.999 -46.5
s26.666 -19.5 45.999 -25.5s38.5 -10 57.5 -12s34.5 -4 46.5 -6v-119c-157.333 5.33301 -276 8 -356 8c-78.667 -0 -197.334 -2.66699 -356.001 -8z" />
    <glyph glyph-name="y" unicode="y" horiz-adv-x="2081" 
d="M909 -12l-531.996 1229c-32 72.667 -53.333 118.667 -64 138s-28.334 36.833 -53.001 52.5s-65 28.5 -121 38.5v127c156 -8 315.667 -12 479 -12c146 0 291 4 435 12v-127c-70 -4.66699 -119.667 -13 -149 -25s-44 -35 -44 -69c0 -28 11 -67.667 33 -119l270 -701
l213 467c57.333 138.667 86 241.334 86 308.001c0 32.667 -1.33301 55.667 -4 69c-16 46.667 -78.667 70 -188 70v127c141.333 -5.33301 246.333 -8 315 -8s171 2.66699 307 8v-127c-50.667 -4.66699 -96.334 -27.334 -137.001 -68.001s-76.334 -90.667 -107.001 -150
s-62.167 -130.166 -94.5 -212.499s-53.166 -132.833 -62.499 -151.5l-573 -1253l-81.5 -176c-31.667 -68.667 -65 -131.834 -100 -189.501s-75.333 -107.5 -121 -149.5s-96.5 -68.333 -152.5 -79c-6.66699 0 -16.334 -0.666992 -29.001 -2s-20.667 -2 -24 -2
c-54.667 0 -102 16.333 -142 49s-61 75 -63 127c0 2.66699 -0.666992 7.33398 -2 14.001s-2 11.667 -2 15c0 70.667 29.167 126.167 87.5 166.5s127.5 65.166 207.5 74.499c81.333 11.333 135.666 33.333 162.999 66c29.333 30.667 58 71 86 121s61.167 117.167 99.5 201.5
s59.833 131.166 64.5 140.499z" />
    <glyph glyph-name="z" unicode="z" horiz-adv-x="1741" 
d="M0 0h111v119l827 1294h-123c-103.333 0 -185.166 -7 -245.499 -21s-112.5 -46.833 -156.5 -98.5s-78 -130.5 -102 -236.5h-147l37 508h1306v-131l-815 -1278c24.667 0 57 -0.666992 97 -2s69.333 -2 88 -2c100 0 180.833 8.5 242.5 25.5s114.167 53.5 157.5 109.5
s77.666 142 102.999 258h140l-33 -545h-1487z" />
    <glyph glyph-name="braceleft" unicode="{" horiz-adv-x="1700" 
d="M1516 2630l0.00195312 -107.001c-106.667 -4.66699 -186.5 -25 -239.5 -61s-87.167 -82.833 -102.5 -140.5s-23 -135.167 -23 -232.5c0 -13.333 0.666992 -36 2 -68s2 -55.667 2 -71v-201c0 -124 -9 -224.833 -27 -302.5s-58 -145.5 -120 -203.5s-157.667 -105 -287 -141
c128 -36 223.333 -83.167 286 -141.5s103 -126.5 121 -204.5s27 -178.333 27 -301v-201c0 -17.333 -0.666992 -44.333 -2 -81s-2 -63 -2 -79c0 -91.333 8 -165 24 -221s50.5 -100.333 103.5 -133s132.167 -51 237.5 -55v-103c-166.667 2 -296.667 15.333 -390 40
s-162.166 64.667 -206.499 120s-72.833 127.166 -85.5 215.499s-19 217.166 -19 386.499v115c0 135.333 -8.83301 238.833 -26.5 310.5s-59.834 129.334 -126.501 173.001s-171.334 74.834 -314.001 93.501v131c143.333 17.333 248.166 48.5 314.499 93.5
s108.333 104.333 126 178s26.5 179.834 26.5 318.501v103c0 220 13.667 379.833 41 479.5s89.5 171.5 186.5 215.5s254.833 69 473.5 75z" />
    <glyph glyph-name="bar" unicode="|" horiz-adv-x="1319" 
d="M750 2716h360v-3552h-360v3552z" />
    <glyph glyph-name="braceright" unicode="}" horiz-adv-x="1700" 
d="M336 2630c219.333 -6 377.833 -31.002 475.5 -75.002s160.834 -116.333 189.501 -217s43 -260 43 -478c0 -12.667 -0.666992 -32 -2 -58s-2 -45 -2 -57c0 -137.333 9 -242 27 -314s60.5 -129.667 127.5 -173s172.5 -73.666 316.5 -90.999v-131
c-143.333 -18.667 -248.333 -49.334 -315 -92.001s-109.334 -99 -128.001 -169s-28 -171.333 -28 -304c0 -12 0.666992 -32.333 2 -61s2 -50.667 2 -66c0 -219.333 -13.833 -378.833 -41.5 -478.5s-90.167 -171 -187.5 -214s-257 -66.167 -479 -69.5v103
c106 4 185.5 22.167 238.5 54.5s87.167 76 102.5 131s23 129.5 23 223.5v160c0 24.667 -0.666992 59.334 -2 104.001s-2 77 -2 97c0 123.333 9.5 223.833 28.5 301.5s60 145.667 123 204s158.833 105.5 287.5 141.5c-130 36 -226.167 82.833 -288.5 140.5
s-103 125.5 -122 203.5s-28.5 179 -28.5 303c0 18 0.666992 50.333 2 97s2 81.334 2 104.001v151c0 94 -7.83301 169.167 -23.5 225.5s-49.667 101.5 -102 135.5s-131.833 54.333 -238.5 61v107z" />
    <glyph glyph-name="asciitilde" unicode="~" horiz-adv-x="1626" 
d="M1409 2347c-58.667 -264.667 -169.332 -397 -331.999 -397c-42.667 0 -105.667 11.5 -189 34.5s-143 34.5 -179 34.5c-88 0 -148.333 -51.667 -181 -155h-98c58 264.667 168.667 397 332 397c46.667 0 112.667 -11 198 -33s143.666 -33 174.999 -33
c87.333 0 146 50.667 176 152h98z" />
    <glyph glyph-name="bullet" horiz-adv-x="1475" 
d="M565 1016c0 94 33.167 174.167 99.5 240.5s146.5 99.5 240.5 99.5c96.667 0 178.834 -33.167 246.501 -99.5s101.5 -146.5 101.5 -240.5s-33.833 -174.167 -101.5 -240.5s-149.834 -99.5 -246.501 -99.5c-94 0 -174.167 33.167 -240.5 99.5s-99.5 146.5 -99.5 240.5z" />
    <glyph glyph-name="nonbreakingspace" unicode="&#xa0;" horiz-adv-x="1434" 
 />
    <glyph glyph-name="exclamdown" unicode="&#xa1;" horiz-adv-x="2728" 
d="M1323 578l-741.001 1298c-146.667 248.667 -301 373 -463 373v139c228.667 -14 425.334 -21 590.001 -21c126.667 0 343.667 5.66699 651 17v-135c-73.333 -4.66699 -137.5 -22.334 -192.5 -53.001s-82.5 -69 -82.5 -115c0 -18 8.33301 -40 25 -66l483 -868l344 778
c38.667 109.333 58 176.333 58 201c0 70.667 -79.333 111.667 -238 123v139c168 -14 289.667 -21 365 -21c46 0 179.667 5.66699 401 17v-119c-79.333 0 -145.5 -19.667 -198.5 -59s-95.333 -86.5 -127 -141.5s-71.834 -136.833 -120.5 -245.5l-668 -1434
c-75.333 -153.333 -161.333 -262.666 -258 -327.999s-208.667 -98 -336 -98c-70 0 -133.833 20.5 -191.5 61.5s-86.5 99.833 -86.5 176.5c0 74.667 22.833 134.167 68.5 178.5s99.167 66.5 160.5 66.5c47.333 0 82.5 -7 105.5 -21s53.167 -35.833 90.5 -65.5
s69 -44.5 95 -44.5c38 0 75.5 12.5 112.5 37.5s62.167 52.167 75.5 81.5zM1311 2736c-88.667 0 -173.666 18.5 -254.999 55.5s-148 93 -200 168s-78 165.833 -78 272.5h168c0 -144.667 121.667 -217 365 -217c272.667 0 409 71 409 213v4h168
c0 -105.333 -29.333 -195.833 -88 -271.5s-132.334 -132 -221.001 -169s-178 -55.5 -268 -55.5z" />
    <glyph glyph-name="cent" unicode="&#xa2;" horiz-adv-x="2081" 
d="M909 -12l-531.996 1229c-32 72.667 -53.333 118.667 -64 138s-28.334 36.833 -53.001 52.5s-65 28.5 -121 38.5v127c156 -8 315.667 -12 479 -12c146 0 291 4 435 12v-127c-70 -4.66699 -119.667 -13 -149 -25s-44 -35 -44 -69c0 -28 11 -67.667 33 -119l270 -701
l213 467c57.333 138.667 86 241.334 86 308.001c0 32.667 -1.33301 55.667 -4 69c-16 46.667 -78.667 70 -188 70v127c141.333 -5.33301 246.333 -8 315 -8s171 2.66699 307 8v-127c-50.667 -4.66699 -96.334 -27.334 -137.001 -68.001s-76.334 -90.667 -107.001 -150
s-62.167 -130.166 -94.5 -212.499s-53.166 -132.833 -62.499 -151.5l-573 -1253l-81.5 -176c-31.667 -68.667 -65 -131.834 -100 -189.501s-75.333 -107.5 -121 -149.5s-96.5 -68.333 -152.5 -79c-6.66699 0 -16.334 -0.666992 -29.001 -2s-20.667 -2 -24 -2
c-54.667 0 -102 16.333 -142 49s-61 75 -63 127c0 2.66699 -0.666992 7.33398 -2 14.001s-2 11.667 -2 15c0 70.667 29.167 126.167 87.5 166.5s127.5 65.166 207.5 74.499c81.333 11.333 135.666 33.333 162.999 66c29.333 30.667 58 71 86 121s61.167 117.167 99.5 201.5
s59.833 131.166 64.5 140.499zM1118 1753c-139.333 0 -262.833 43.166 -370.5 129.499s-161.5 208.5 -161.5 366.5h168c0 -144.667 121.333 -217 364 -217c273.333 0 410 69.667 410 209v8h172c0 -105.333 -29.667 -195.666 -89 -271
c-59.333 -75.333 -134 -131.666 -224 -168.999s-179.667 -56 -269 -56z" />
    <glyph glyph-name="sterling" unicode="&#xa3;" horiz-adv-x="2081" 
d="M201 1372h1683v-229h-1683v229zM1040 2064c50 0 93.333 -18.333 130 -55s55 -79.667 55 -129s-18.667 -92.333 -56 -129s-80.333 -55 -129 -55c-48 0 -90.667 18.667 -128 56s-56 80 -56 128s18.333 90.667 55 128s79.667 56 129 56zM1040 815
c50.667 0 93.5 -17.833 128.5 -53.5s52.5 -79.167 52.5 -130.5c0 -50 -18 -93.333 -54 -130s-78.333 -55 -127 -55c-48 0 -90.667 18.667 -128 56s-56 80.333 -56 129c0 50.667 17.667 94 53 130s79 54 131 54z" />
    <glyph glyph-name="currency" unicode="&#xa4;" horiz-adv-x="2462" 
d="M201 340l340.002 340c-117.333 186 -176 366.333 -176 541c0 156.667 55.667 334 167 532l-335 340l151 156l344 -344c162.667 114.667 341.667 172 537 172c158 0 335.333 -58.667 532 -176l353 352l155 -156l-356 -352c109.333 -192.667 164 -374.334 164 -545.001
c0 -149.333 -54.667 -318.666 -164 -507.999l348 -352l-152 -156l-344 348c-188.667 -114.667 -367.334 -172 -536.001 -172c-172.667 0 -350.334 54.667 -533.001 164l-340 -340zM1753 1217c0 93.333 -23.333 180.5 -70 261.5s-110.334 145.667 -191.001 194
s-167 72.5 -259 72.5c-95.333 0 -184 -23.833 -266 -71.5s-147 -112.167 -195 -193.5s-72 -169 -72 -263c0 -94.667 24.333 -182.667 73 -264s114 -145.833 196 -193.5s170 -71.5 264 -71.5c92 0 178.333 24.167 259 72.5s144.334 113 191.001 194s70 168.5 70 262.5z" />
    <glyph glyph-name="yen" unicode="&#xa5;" horiz-adv-x="1475" 
d="M565 1016c0 94 33.167 174.167 99.5 240.5s146.5 99.5 240.5 99.5c96.667 0 178.834 -33.167 246.501 -99.5s101.5 -146.5 101.5 -240.5s-33.833 -174.167 -101.5 -240.5s-149.834 -99.5 -246.501 -99.5c-94 0 -174.167 33.167 -240.5 99.5s-99.5 146.5 -99.5 240.5z" />
    <glyph glyph-name="brokenbar" unicode="&#xa6;" horiz-adv-x="1094" 
d="M590 2367h303v-1232h-303v1232zM590 545h303v-1139h-303v1139z" />
    <glyph glyph-name="section" unicode="&#xa7;" horiz-adv-x="1966" 
d="M1458 283c106.667 -110.667 160.004 -240.333 160.004 -389c0 -114 -34.833 -215.667 -104.5 -305s-158.334 -157.833 -266.001 -205.5s-217.5 -71.5 -329.5 -71.5c-204 0 -370.667 52 -500 156c-106.667 90 -160 170.333 -160 241c0 40 27.167 72.5 81.5 97.5
s105.166 38.833 152.499 41.5c32 0 73.167 -39.5 123.5 -118.5s97.5 -141 141.5 -186s108.333 -67.5 193 -67.5c52.667 0 100.167 13 142.5 39s75.666 60.833 99.999 104.5s36.5 91.167 36.5 142.5c0 110 -39.333 200 -118 270s-202.5 156.833 -371.5 260.5
s-296.333 202 -382 295s-128.5 209.833 -128.5 350.5c0 116.667 26.333 220 79 310s129 173.667 229 251c-93.333 92.667 -140 207.334 -140 344.001c0 117.333 33 217.666 99 300.999s151.5 146.166 256.5 188.499s214.5 63.5 328.5 63.5c67.333 0 143.166 -16 227.499 -48
s157 -76.5 218 -133.5s91.5 -120.833 91.5 -191.5c0 -38 -29.167 -68.667 -87.5 -92s-109.833 -35 -154.5 -35c-23.333 0 -54.166 35.5 -92.499 106.5s-75.333 127.667 -111 170s-87.834 63.5 -156.501 63.5c-68 0 -125.333 -23.333 -172 -70s-70 -103.667 -70 -171
c0 -99.333 37.5 -181.5 112.5 -246.5s196.333 -149 364 -252s294.667 -202.167 381 -297.5s129.5 -213.666 129.5 -354.999c0 -226.667 -101 -413.667 -303 -561zM631.004 1405c-87.333 -62.667 -130.999 -140.666 -130.999 -233.999c0 -86 28.667 -159.667 86 -221
c50.667 -57.333 115.5 -115 194.5 -173s184.833 -130.833 317.5 -218.5s222.667 -149.5 270 -185.5c79.333 82.667 119 168.667 119 258c0 83.333 -32.667 159.666 -98 228.999c-51.333 55.333 -118.333 113 -201 173s-183.334 128.333 -302.001 205z" />
    <glyph glyph-name="dieresis" unicode="&#xa8;" horiz-adv-x="2462" 
d="M164 -12l0.00390625 146.999c107.333 4 184.166 20.333 230.499 49s74.833 70.5 85.5 125.5s16 144.5 16 268.5v1347c0 123.333 -24 209 -72 257s-134.667 73 -260 75v139c318.667 -13.333 608 -20 868 -20c152 0 326.833 2.33301 524.5 7l569.5 13v-622h-148
c-31.333 114.667 -69.333 202.834 -114 264.501s-102.334 104.5 -173.001 128.5s-168.667 37.667 -294 41c-6 0 -29.667 0.666992 -71 2s-75 2 -101 2c-88 0 -140 -9.66699 -156 -29c-10.667 -14 -16 -33 -16 -57c0 -2.66699 0.666992 -7.33398 2 -14
c1.33301 -6.66699 2 -10.334 2 -11v-778c2.66699 0 8.66699 -0.666992 18 -2s15.666 -2 18.999 -2c105.333 0 186.166 11.5 242.499 34.5s100.166 62.667 131.499 119s59.333 138.833 84 247.5h152c-10.667 -201.333 -16 -355.666 -16 -462.999
c0 -116.667 5.33301 -281.667 16 -495h-143c-23.333 110.667 -53 193.667 -89 249s-85.333 93.5 -148 114.5s-151.667 32.167 -267 33.5v-639c0 -232 132.333 -348 397 -348h33c202.667 4 351.5 44.667 446.5 122s161.833 215.666 200.5 414.999h131v-721
c-180 4 -334 7.83301 -462 11.5s-263 6.66699 -405 9s-257 3.5 -345 3.5c-297.333 0 -593.666 -8 -888.999 -24zM1401 2847c0 82 29.334 152.333 88.001 211s129 88 211 88s153 -29.333 213 -88s90 -129 90 -211c0 -83.333 -29.833 -154 -89.5 -212
s-130.834 -87 -213.501 -87c-82 0 -152.333 29 -211 87s-88 128.667 -88 212zM631.005 2847c0 82 29.333 152.333 88 211s129 88 211 88c84 0 156.167 -29.333 216.5 -88s90.5 -129 90.5 -211c0 -83.333 -30 -154 -90 -212s-132.333 -87 -217 -87c-82 0 -152.333 29 -211 87
s-88 128.667 -88 212z" />
    <glyph glyph-name="copyright" unicode="&#xa9;" horiz-adv-x="2765" 
d="M1864 1860l-0.000976562 -426h-58c-28 92 -75.5 168.167 -142.5 228.5s-146.5 90.5 -238.5 90.5c-90.667 0 -165.167 -28.5 -223.5 -85.5s-100.5 -128.833 -126.5 -215.5s-39 -174.667 -39 -264c0 -154 29.333 -286 88 -396s157.667 -165 297 -165
c172 0 325 102.333 459 307v-152c-139.333 -174.667 -311.333 -262 -516 -262c-124.667 0 -238.5 26.833 -341.5 80.5s-183.833 129.5 -242.5 227.5s-88 209.667 -88 335c0 129.333 29 246.5 87 351.5s138.333 187.333 241 247s217.334 89.5 344.001 89.5
c59.333 0 128.333 -13.667 207 -41s131.334 -41 158.001 -41c29.333 0 53.666 28.667 72.999 86zM1348 -45c-222 0 -427.667 55.335 -617 166.002s-339.333 260.667 -450 450s-166 395 -166 617c0 220 55.333 424.333 166 613s260.5 338.5 449.5 449.5
s394.833 166.5 617.5 166.5c219.333 0 423.5 -55.333 612.5 -166s338.833 -260.334 449.5 -449.001s166 -393.334 166 -614.001c0 -222.667 -55.333 -428.5 -166 -617.5s-260.5 -338.833 -449.5 -449.5s-393.167 -166 -612.5 -166zM1348 94.002
c146.667 0 286.669 28.334 420.002 85.001s250.666 136 351.999 238s180.166 219.167 236.499 351.5s84.5 272.166 84.5 419.499c0 194.667 -49.333 376.167 -148 544.5s-232.167 301.833 -400.5 400.5s-349.833 148 -544.5 148c-148.667 0 -289.5 -28.167 -422.5 -84.5
s-250.167 -135.333 -351.5 -237s-180 -219 -236 -352s-84 -272.833 -84 -419.5c0 -197.333 49 -379.833 147 -547.5s231 -300.667 399 -399s350.667 -147.5 548 -147.5z" />
    <glyph glyph-name="ordfeminine" unicode="&#xaa;" horiz-adv-x="2613" 
d="M2404 831l0.00390625 -831h-143l-78 201c-134.667 -88 -262.834 -153 -384.501 -195s-252.834 -63 -393.501 -63c-65.333 0 -114.666 1.33301 -147.999 4c-208 18.667 -393.167 82 -555.5 190s-288.5 249.333 -378.5 424s-135 366 -135 574l5 8l-5 4
c0 185.333 33.667 357.5 101 516.5s160 296.5 278 412.5s252.167 205.167 402.5 267.5s305.166 93.5 464.499 93.5c251.333 0 486 -76.333 704 -229l62 196h155l21 -766h-148c-32.667 112.667 -79.334 215.334 -140 308.001c-60.667 92.667 -136.5 167 -227.5 223
s-193.833 84 -308.5 84c-158 0 -288.333 -46.167 -391 -138.5s-179.334 -209.833 -230.001 -352.5s-81 -294.334 -91 -455.001h966v-181h-975c4.66699 -162.667 30.5 -318 77.5 -466s122.667 -270 227 -366s239.166 -145 404.499 -147h8c354.667 0 591 228 709 684h147z" />
    <glyph glyph-name="guillemotleft" unicode="&#xab;" horiz-adv-x="1741" 
d="M979 291l-82 -49l-557 483v82l557 491l82 -53l-307 -483zM1528 291l-90 -49l-553 483v82l553 491l90 -53l-311 -483z" />
    <glyph glyph-name="logicalnot" unicode="&#xac;" horiz-adv-x="1929" 
d="M1217 0v737h-1057v213h1552v-950h-495z" />
    <glyph glyph-name="minus" unicode="&#xad;" horiz-adv-x="1245" 
d="M201 578v421h852v-421h-852z" />
    <glyph glyph-name="registered" unicode="&#xae;" horiz-adv-x="2843" 
d="M1782 541l-352 613.999h-181v-414c0 -47.333 8.16699 -81.666 24.5 -102.999s47.833 -32 94.5 -32h62v-65h-652v65c65.333 0 110.333 8.16699 135 24.5s37 53.166 37 110.499v889c0 48.667 -8.16699 83.334 -24.5 104.001s-47.833 31 -94.5 31h-65v70h668
c352 0 528 -118.667 528 -356c0 -146 -83.333 -254 -250 -324l275 -463c30 -57.333 81.667 -86 155 -86v-65h-360zM1249 1217h140c90.667 0 157.667 20.5 201 61.5s65 107.833 65 200.5c0 117.333 -33.667 190.333 -101 219s-169 43 -305 43v-524zM1405 -45.001
c-222 0 -427.667 55.335 -617 166.002s-339.333 260.667 -450 450s-166 395 -166 617c0 220 55.333 424.333 166 613s260.5 338.5 449.5 449.5s394.833 166.5 617.5 166.5c220 0 424.333 -55.333 613 -166s338.5 -260.334 449.5 -449.001s166.5 -393.334 166.5 -614.001
c0 -222.667 -55.5 -428.5 -166.5 -617.5s-260.833 -338.833 -449.5 -449.5s-393 -166 -613 -166zM1405 94.001c196 0 377.835 49.002 545.502 147.002s301 231.167 400 399.5s148.5 350.833 148.5 547.5c0 195.333 -49.5 377.166 -148.5 545.499
s-232.833 301.666 -401.5 399.999s-350 147.5 -544 147.5c-148.667 0 -289.334 -28 -422.001 -84s-250.167 -135 -352.5 -237s-181.833 -219.5 -238.5 -352.5s-85 -272.833 -85 -419.5c0 -196.667 49.5 -379 148.5 -547s232.667 -301.167 401 -399.5
s351.166 -147.5 548.499 -147.5z" />
    <glyph glyph-name="macron" unicode="&#xaf;" horiz-adv-x="1626" 
d="M193 -8l0.000976562 143c96.667 4 168 14.833 214 32.5s77.667 49.5 95 95.5s26 118 26 216v1442c0 89.333 -8.83301 156 -26.5 200s-48.334 74.167 -92.001 90.5s-107.834 24.5 -192.501 24.5h-24v148c48.667 -0.666992 116.334 -2 203.001 -4
s173.5 -3.83301 260.5 -5.5s154.833 -2.5 203.5 -2.5c42 0 101 0.666992 177 2s152.167 3.16602 228.5 5.5c76.333 2.33301 135.166 3.83301 176.499 4.5v-148h-17c-115.333 0 -197.333 -23 -246 -69s-73 -128 -73 -246v-1442c0 -92 10 -161 30 -207s53.333 -78.5 100 -97.5
s115.334 -32.167 206.001 -39.5v-143c-278.667 5.33301 -487.667 8 -627 8c-142.667 -0 -350 -2.66699 -622 -8zM926.001 2847c0 82 29.333 152.333 88 211s129 88 211 88c84 0 156.167 -29.333 216.5 -88s90.5 -129 90.5 -211c0 -83.333 -30 -154 -90 -212
s-132.333 -87 -217 -87c-82 0 -152.333 29 -211 87s-88 128.667 -88 212zM160.001 2847c0 82 29.333 152.333 88 211s129 88 211 88c84 0 155.5 -29.167 214.5 -87.5s88.5 -128.833 88.5 -211.5c0 -84 -29.5 -154.833 -88.5 -212.5s-130.5 -86.5 -214.5 -86.5
c-82 0 -152.333 29 -211 87s-88 128.667 -88 212z" />
    <glyph glyph-name="degree" unicode="&#xb0;" horiz-adv-x="1171" 
d="M594 2261l41 0.000976562c92.667 0 173.167 -35.5 241.5 -106.5s102.5 -152.833 102.5 -245.5c0 -84.667 -27.833 -158.5 -83.5 -221.5s-126.167 -98.5 -211.5 -106.5c-105.333 0 -196.5 30.833 -273.5 92.5s-115.5 144.167 -115.5 247.5
c0 83.333 28.833 157.833 86.5 223.499c57.667 65.667 128.5 104.5 212.5 116.5zM446 1917c0 -50.667 18.332 -95.501 54.999 -134.501s81.334 -58.5 134.001 -58.5c52 0 99.167 18 141.5 54s63.5 79.667 63.5 131c0 54.667 -21.5 103.834 -64.5 147.501
s-92.5 65.5 -148.5 65.5c-51.333 0 -94.333 -21.5 -129 -64.5s-52 -89.833 -52 -140.5z" />
    <glyph glyph-name="plusminus" unicode="&#xb1;" horiz-adv-x="2081" 
d="M193 1393h720v704h238v-704h725v-230h-725v-680h-238v680h-720v230zM193 336h1683v-230h-1683v230z" />
    <glyph glyph-name="twosuperior" unicode="&#xb2;" horiz-adv-x="1626" 
d="M193 -8l0.000976562 143c96.667 4 168 14.833 214 32.5s77.667 49.5 95 95.5s26 118 26 216v1442c0 89.333 -8.83301 156 -26.5 200s-48.334 74.167 -92.001 90.5s-107.834 24.5 -192.501 24.5h-24v148c48.667 -0.666992 116.334 -2 203.001 -4
s173.5 -3.83301 260.5 -5.5s154.833 -2.5 203.5 -2.5c42 0 101 0.666992 177 2s152.167 3.16602 228.5 5.5c76.333 2.33301 135.166 3.83301 176.499 4.5v-148h-17c-115.333 0 -197.333 -23 -246 -69s-73 -128 -73 -246v-1442c0 -92 10 -161 30 -207s53.333 -78.5 100 -97.5
s115.334 -32.167 206.001 -39.5v-143c-278.667 5.33301 -487.667 8 -627 8c-142.667 -0 -350 -2.66699 -622 -8zM528.001 2847c0 82 29.667 152.333 89 211s129.333 88 210 88c84 0 156.333 -29.333 217 -88s91 -129 91 -211c0 -83.333 -30.333 -154 -91 -212
s-133 -87 -217 -87c-81.333 0 -151.5 29 -210.5 87s-88.5 128.667 -88.5 212z" />
    <glyph glyph-name="threesuperior" unicode="&#xb3;" horiz-adv-x="1286" 
d="M147 -8l0.00195312 131.001c88 6.66699 147.667 20.5 179 41.5s47 69.833 47 146.5v840c0 83.333 -15.667 138.666 -47 165.999s-91 43 -179 47v123c174.667 20 342.667 46 504 78c22.667 4.66699 50.167 11.834 82.5 21.501s59.166 16.667 80.499 21s42.333 6.5 63 6.5
v-1303c0 -77.333 15.667 -126.333 47 -147s90.666 -34.334 177.999 -41.001v-127c-52 0 -131.333 0.666992 -238 2s-185.667 2 -237 2c-106.667 -0 -266.667 -2.66699 -480 -8zM762.002 2462c79.333 -54.667 119 -135.333 119 -241.999c0 -25.333 -5.66699 -60.666 -17 -106
c-22.667 -50.667 -59.334 -92.834 -110.001 -126.501s-104 -50.5 -160 -50.5c-5.33301 0 -12.666 0.833008 -21.999 2.5s-17 2.5 -23 2.5c-66 12 -121.5 45.5 -166.5 100.5s-67.5 115.5 -67.5 181.5c0 13.333 7 49 21 107c22.667 54.667 57.5 97 104.5 127s99.5 45 157.5 45
c57.333 0 112 -13.667 164 -41z" />
    <glyph glyph-name="acute" unicode="&#xb4;" horiz-adv-x="1475" 
d="M565 1016c0 94 33.167 174.167 99.5 240.5s146.5 99.5 240.5 99.5c96.667 0 178.834 -33.167 246.501 -99.5s101.5 -146.5 101.5 -240.5s-33.833 -174.167 -101.5 -240.5s-149.834 -99.5 -246.501 -99.5c-94 0 -174.167 33.167 -240.5 99.5s-99.5 146.5 -99.5 240.5z" />
    <glyph glyph-name="mu" unicode="&#xb5;" horiz-adv-x="2273" 
d="M1823 1618l0.000976562 -1176c0 -77.333 8 -139 24 -185s54.333 -69 115 -69c11.333 0 26.5 1.5 45.5 4.5s36.5 4.5 52.5 4.5v-78l-549 -160h-36c-96 0 -164.333 71 -205 213c-106 -142.667 -229 -217.667 -369 -225c-101.333 0 -181.5 22.333 -240.5 67
s-111.167 116.334 -156.5 215.001c-5.33301 -13.333 -8 -32.333 -8 -57c0 -54.667 9 -109.334 27 -164.001s43.833 -118.167 77.5 -190.5s59.5 -132.5 77.5 -180.5s27 -92.333 27 -133c0 -64 -28.167 -115.5 -84.5 -154.5s-118.5 -58.5 -186.5 -58.5
c-199.333 0 -299 80.667 -299 242c0 46 12.333 122.333 37 229c79.333 338 119 679.333 119 1024v832h598v-1016l8 -172c0 -58.667 9.16699 -112.167 27.5 -160.5s50.166 -72.5 95.499 -72.5c38 0 68.667 9.5 92 28.5s61 54.5 113 106.5v1286h598z" />
    <glyph glyph-name="paragraph" unicode="&#xb6;" horiz-adv-x="1929" 
d="M913 -373v1467c-130 0 -249.333 26.167 -358 78.5s-194.167 128.5 -256.5 228.5s-93.5 217.333 -93.5 352c0 214 70.667 378.167 212 492.5s320.333 171.5 537 171.5h770v-144h-172v-2646h-172v2646h-295v-2646h-172z" />
    <glyph glyph-name="periodcentered" unicode="&#xb7;" horiz-adv-x="1130" 
d="M672 1028c70 0 129.834 -24.166 179.501 -72.499s74.5 -107.5 74.5 -177.5c0 -71.333 -24.667 -132.833 -74 -184.5s-109.333 -77.5 -180 -77.5s-131.334 25.667 -182.001 77s-76 111.666 -76 180.999c0 68.667 26 128.167 78 178.5s112 75.5 180 75.5z" />
    <glyph glyph-name="cedilla" unicode="&#xb8;" horiz-adv-x="1929" 
d="M1589 410l118.999 -107.001c-82.667 -116.667 -186.667 -204.5 -312 -263.5s-256 -88.5 -392 -88.5c-108 0 -213.5 18.667 -316.5 56s-195.333 91.5 -277 162.5s-146 157.5 -193 259.5s-70.5 214.333 -70.5 337v61c10.667 159.333 57 297.5 139 414.5
s188.667 206.333 320 268s273.333 92.5 426 92.5c52 0 90.333 -1.66699 115 -5c104.667 -10 202.334 -43 293.001 -99s161 -129.333 211 -220c52 -93.333 80.667 -236.666 86 -429.999h-1045c0 -2 -0.666992 -8.33301 -2 -19s-2 -18 -2 -22
c0 -383.333 132.333 -595 397 -635c7.33301 0 18.333 -0.666992 33 -2s25.667 -2 33 -2c145.333 0 291.333 80.667 438 242zM691.999 1016h582.001c0 292 -90 439.333 -270 442c-102.667 0 -180.334 -45.5 -233.001 -136.5s-79 -192.833 -79 -305.5zM1487 2462
c79.333 -54.667 119.001 -135.333 119.001 -241.999c0 -25.333 -5.66699 -60.666 -17 -106c-22.667 -50.667 -59.334 -92.834 -110.001 -126.501s-104 -50.5 -160 -50.5c-4.66699 0 -12 0.833008 -22 2.5s-19 2.5 -27 2.5c-64.667 12 -119.167 45.5 -163.5 100.5
s-66.5 115.5 -66.5 181.5c0 13.333 7 49 21 107c22.667 54.667 57.5 97 104.5 127s99.5 45 157.5 45c57.333 0 112 -13.667 164 -41zM774.001 2462c82 -56.667 123 -137.334 123 -242c0 -35.333 -6.66699 -70.666 -20 -105.999c-20.667 -50.667 -57 -92.834 -109 -126.501
s-106 -50.5 -162 -50.5c-3.33301 0 -9.33301 0.833008 -18 2.5s-17.667 2.5 -27 2.5c-66.667 12 -121.5 45.5 -164.5 100.5s-64.5 115.5 -64.5 181.5c0 34.667 6.66699 70.334 20 107c20.667 53.333 54.5 95.333 101.5 126s99.167 46 156.5 46c61.333 0 116 -13.667 164 -41
z" />
    <glyph glyph-name="onesuperior" unicode="&#xb9;" horiz-adv-x="3715" 
d="M180 -12l0.00292969 147.001c92.667 14.667 162.167 37.667 208.5 69s77.166 74.666 92.499 129.999s23 132.333 23 231v1495c-57.333 72.667 -106.833 120.167 -148.5 142.5s-106.834 36.5 -195.501 42.5v139c156 -11.333 268 -17 336 -17
c86.667 0 225.667 5.66699 417 17l1418 -1622v1065c-2 143.333 -24.167 247 -66.5 311s-130.833 99.667 -265.5 107v139c31.333 -0.666992 74.833 -2 130.499 -4c55.667 -2 111.167 -3.83301 166.5 -5.5s98.333 -2.5 129 -2.5c29.333 0 71.666 0.833008 127 2.5
c55.333 1.66699 110.333 3.5 165 5.5s98 3.33301 130 4v-139c-131.333 -5.33301 -218.833 -43.666 -262.5 -115c-43.667 -71.333 -65.5 -179.333 -65.5 -324v-1859h-201l-1618 1888v-1270c3.33301 -135.333 27.833 -239.5 73.5 -312.5s130.5 -112.167 254.5 -117.5v-143
c-213.333 5.33301 -377 8 -491 8c-118.667 0 -237.667 -4 -357 -12zM3174 1618c93.333 0 169.333 -32.168 228 -96.501s88 -144.166 88 -239.499s-28.667 -175.833 -86 -241.5s-134 -98.5 -230 -98.5c-94 0 -169.333 33.5 -226 100.5s-85 149.5 -85 247.5
c0 90.667 28.833 168 86.5 232s132.5 96 224.5 96zM3174 1569c-120 0 -180 -95.667 -180 -287c0 -194 60 -291 180 -291c123.333 0 185 97 185 291c0 191.333 -61.667 287 -185 287zM3518 799v-70h-684v70h684z" />
    <glyph glyph-name="ordmasculine" unicode="&#xba;" horiz-adv-x="1892" 
d="M1692 299c-112.667 -146.667 -246.668 -246.337 -402.001 -299.004c-101.333 -30 -206.333 -45 -315 -45c-114.667 0 -213 15 -295 45c-103.333 39.333 -191.166 96.833 -263.499 172.5s-127 162.834 -164 261.501s-55.5 201 -55.5 307c0 122 23.333 240 70 354
s113.334 209 200.001 285c159.333 148 362.666 222 609.999 222c44.667 0 113 -5.66699 205 -17c222 -34 351.667 -121.333 389 -262c0 -8.66699 0.666992 -20.667 2 -36s2 -26.666 2 -33.999c0 -55.333 -17.167 -101.833 -51.5 -139.5s-81.166 -56.5 -140.499 -56.5h-8
c-52.667 0 -93.334 14.5 -122.001 43.5s-55.667 73 -81 132s-43.666 97.5 -54.999 115.5c-44.667 70.667 -103.667 106 -177 106c-46 0 -90.333 -15.667 -133 -47s-74.667 -71.666 -96 -120.999c-48 -104 -74 -237.667 -78 -401h455v-144h-451
c16.667 -307.333 105.667 -488.666 267 -543.999c51.333 -19.333 97.666 -29 138.999 -29c157.333 0 302 80.667 434 242z" />
    <glyph glyph-name="guillemotright" unicode="&#xbb;" horiz-adv-x="1700" 
d="M844 1249l86 49l557 -483v-78l-557 -495l-86 57l311 479zM299 1249l86 49l553 -483v-78l-553 -495l-86 57l307 479z" />
    <glyph glyph-name="onequarter" unicode="&#xbc;" horiz-adv-x="1892" 
d="M434 1962l537 -541l540 545l164 -168l-540 -541l536 -536l-160 -164l-536 541l-541 -545l-168 168l545 541l-537 536z" />
    <glyph glyph-name="onehalf" unicode="&#xbd;" horiz-adv-x="3068" 
d="M1028 1860c-180 0 -314.002 -7.66797 -402.002 -23.001s-162.167 -57.333 -222.5 -126s-104.833 -180.334 -133.5 -335.001h-143l29 684c318 -13.333 606 -20 864 -20c-9.33301 78 -41 129.833 -95 155.5s-137 40.834 -249 45.5l24 151
c66.667 -2.66699 168.5 -13.167 305.5 -31.5s242.833 -28.166 317.5 -29.5c70.667 0 169.167 8.16699 295.5 24.5s224.5 25.833 294.5 28.5l29 -143c-208 0 -327 -67 -357 -201c194 0 485 5.33301 873 16l32 -680h-139c-28.667 144.667 -70.834 251.334 -126.5 320.001
c-55.667 68.667 -124.5 113.167 -206.5 133.5s-193.667 30.5 -335 30.5h-106v-517c346 0 615.333 -32.667 808 -98s331.667 -159.333 417 -282c54.667 -84.667 82 -186 82 -304c0 -160 -43.667 -288.333 -131 -385c-99.333 -111.333 -224.166 -186.166 -374.5 -224.499
c-150.333 -38.333 -323.166 -57.5 -518.499 -57.5h-123c-246.667 5.33301 -433.667 8 -561 8c-162.667 0 -324 -4 -484 -12v151c130.667 7.33301 219.334 32 266.001 74s70 126.667 70 254v1393zM2200 941.999c-40.667 90.667 -103.166 151.498 -187.499 182.498
s-185.833 46.5 -304.5 46.5h-131v-593c0 -95.333 7.66699 -175.666 23 -240.999s51.333 -110.666 108 -135.999c47.333 -22 98 -33 152 -33c113.333 0 203.333 32.667 269.999 98c84.667 84.667 127 211.667 127 381c0 114 -19 212.333 -57 295z" />
    <glyph glyph-name="threequarters" unicode="&#xbe;" horiz-adv-x="2462" 
d="M848 1565l-0.00390625 327.002c-2.66699 73.333 -30 199 -82 377l184 53c47.333 -98.667 94 -213.334 140 -344c49.333 162 82 274 98 336l188 -33c-4.66699 -43.333 -14 -114.833 -28 -214.5s-21 -157.834 -21 -174.501v-327h664l37 -508h-148
c-30 140.667 -78.833 237.5 -146.5 290.5s-159.5 81.833 -275.5 86.5c-75.333 -8 -115 -76.333 -119 -205v-316h37c154.667 0 283.334 -8.33301 386.001 -25s190.5 -44.667 263.5 -84s139.167 -94.333 198.5 -165c27.333 -38.667 41 -105.667 41 -201
c0 -136.667 -30 -233.667 -90 -291c-119.333 -103.333 -303.666 -155 -552.999 -155h-74c-201.333 5.33301 -355.666 8 -462.999 8c-104 0 -256.667 -2.66699 -458 -8v127c70.667 4 118.334 8.66699 143.001 14s43.667 20.166 57 44.499s20.333 64.833 21 121.5v971
c-2 62 -11 103.833 -27 125.5s-44 34.5 -84 38.5c-116.667 -4 -209 -32.5 -277 -85.5s-117.667 -150.167 -149 -291.5h-147l37 508h647zM1339 373.002c0 -51.333 8 -103.169 24 -155.502s39.667 -83.833 71 -94.5c9.33301 -1.33301 25.166 -4.5 47.499 -9.5
s40.5 -7.5 54.5 -7.5c58 0 116.667 19.333 176 58c71.333 44.667 107 122.334 107 233.001c0 78.667 -16.667 148.334 -50 209.001c-32.667 60.667 -84.667 101.167 -156 121.5s-162.666 30.5 -273.999 30.5v-385z" />
    <glyph glyph-name="questiondown" unicode="&#xbf;" horiz-adv-x="1585" 
d="M1278 2462c82 -56.667 123 -137.334 123 -242c0 -36 -7 -71.333 -21 -106c-20.667 -50 -56.834 -92 -108.501 -126s-105.5 -51 -161.5 -51c-3.33301 0 -9.66602 0.833008 -18.999 2.5s-18 2.5 -26 2.5c-66.667 12 -121.5 45.5 -164.5 100.5s-64.5 115.5 -64.5 181.5
c0 34.667 6.66699 70.334 20 107c20.667 53.333 54.5 95.333 101.5 126s99.167 46 156.5 46c61.333 0 116 -13.667 164 -41zM569 2462c79.333 -54.667 118.999 -135.332 118.999 -241.999c0 -42 -5.33301 -77.333 -16 -106c-20.667 -50.667 -57 -92.834 -109 -126.501
s-106 -50.5 -162 -50.5c-4 0 -10.667 0.833008 -20 2.5s-17.666 2.5 -24.999 2.5c-66.667 12 -122.167 45.5 -166.5 100.5s-66.5 115.5 -66.5 181.5c0 27.333 8 63 24 107c20.667 53.333 54.5 95.333 101.5 126s99.5 46 157.5 46c60.667 0 115 -13.667 163 -41z
M318.999 -7.99805l0.000976562 131.002c86.667 6.66699 146 20.667 178 42s48 70 48 146v840c0 83.333 -15.667 138.666 -47 165.999s-91 43 -179 47v123c176 20.667 342.667 46.667 500 78c21.333 4 49.666 11.167 84.999 21.5s63.333 17.5 84 21.5s41 6 61 6v-1303
c0 -77.333 15.5 -126.333 46.5 -147s89.167 -34.334 174.5 -41.001v-127c-52 0 -131.333 0.666992 -238 2s-185.667 2 -237 2c-104 0 -262.667 -2.66699 -476 -8z" />
    <glyph glyph-name="Agrave" unicode="&#xc0;" horiz-adv-x="2765" 
d="M791 909h655l-311 828zM877 -8c-186.667 5.33301 -328.666 7.99414 -425.999 7.99414c-90.667 0 -231.334 -2.66699 -422.001 -8v143c164 20 281.333 113 352 279l856 2015h176l799 -2011c13.333 -14 31 -47.167 53 -99.5s53.833 -93.666 95.5 -123.999
s112.167 -50.166 211.5 -59.499v-143c-300 5.33301 -525.333 8 -676 8c-125.333 0 -308 -2.66699 -548 -8v143c92 4 165 12.333 219 25s82 45.334 84 98.001v25c0 40.667 -8 87.834 -24 141.501s-33.667 105 -53 154l-63 158.5h-794l-70.5 -166
c-19 -45.333 -34.5 -88.166 -46.5 -128.499s-18 -77.166 -18 -110.499c0 -124 98.333 -189.667 295 -197v-143z" />
    <glyph glyph-name="Agrave" unicode="&#x410;" horiz-adv-x="2765" 
d="M791 909h655l-311 828zM877 -8c-186.667 5.33301 -328.666 7.99414 -425.999 7.99414c-90.667 0 -231.334 -2.66699 -422.001 -8v143c164 20 281.333 113 352 279l856 2015h176l799 -2011c13.333 -14 31 -47.167 53 -99.5s53.833 -93.666 95.5 -123.999
s112.167 -50.166 211.5 -59.499v-143c-300 5.33301 -525.333 8 -676 8c-125.333 0 -308 -2.66699 -548 -8v143c92 4 165 12.333 219 25s82 45.334 84 98.001v25c0 40.667 -8 87.834 -24 141.501s-33.667 105 -53 154l-63 158.5h-794l-70.5 -166
c-19 -45.333 -34.5 -88.166 -46.5 -128.499s-18 -77.166 -18 -110.499c0 -124 98.333 -189.667 295 -197v-143z" />
    <glyph glyph-name="Aacute" unicode="&#xc1;" horiz-adv-x="2576" 
d="M180 2392c341.333 -16.667 667.666 -25.002 978.999 -25.002c267.333 0 592.333 7 975 21l20 -623h-143c-32.667 135.333 -79 234.333 -139 297s-133 102.334 -219 119.001s-207 25.667 -363 27h-73c-50.667 0 -90 -8.5 -118 -25.5s-42 -50.833 -42 -101.5v-738
c632.667 -4 1040.67 -137.667 1224 -401c54.667 -81.333 82 -181 82 -299c0 -148 -42.333 -271 -127 -369c-68 -76.667 -150 -135.667 -246 -177s-197.167 -69.166 -303.5 -83.499s-220.833 -21.5 -343.5 -21.5h-126c-246.667 5.33301 -434 8 -562 8
c-158 0 -319 -4 -483 -12v151c130.667 7.33301 219.334 32 266.001 74s70 126.667 70 254v1487c0 81.333 -10.833 142 -32.5 182s-55 67.333 -100 82s-110.167 23.667 -195.5 27v147zM1610 265.998c84.667 80.667 127.002 207.666 127.002 380.999
c0 115.333 -19.333 213.666 -58 294.999c-38.667 90.667 -100.334 151.5 -185.001 182.5s-185.334 46.5 -302.001 46.5h-135v-593c0 -95.333 7.83301 -175.666 23.5 -240.999s52.834 -110.666 111.501 -135.999c47.333 -22 97.666 -33 150.999 -33
c111.333 0 200.333 32.667 267 98z" />
    <glyph glyph-name="Aacute" unicode="&#x411;" horiz-adv-x="2576" 
d="M180 2392c341.333 -16.667 667.666 -25.002 978.999 -25.002c267.333 0 592.333 7 975 21l20 -623h-143c-32.667 135.333 -79 234.333 -139 297s-133 102.334 -219 119.001s-207 25.667 -363 27h-73c-50.667 0 -90 -8.5 -118 -25.5s-42 -50.833 -42 -101.5v-738
c632.667 -4 1040.67 -137.667 1224 -401c54.667 -81.333 82 -181 82 -299c0 -148 -42.333 -271 -127 -369c-68 -76.667 -150 -135.667 -246 -177s-197.167 -69.166 -303.5 -83.499s-220.833 -21.5 -343.5 -21.5h-126c-246.667 5.33301 -434 8 -562 8
c-158 0 -319 -4 -483 -12v151c130.667 7.33301 219.334 32 266.001 74s70 126.667 70 254v1487c0 81.333 -10.833 142 -32.5 182s-55 67.333 -100 82s-110.167 23.667 -195.5 27v147zM1610 265.998c84.667 80.667 127.002 207.666 127.002 380.999
c0 115.333 -19.333 213.666 -58 294.999c-38.667 90.667 -100.334 151.5 -185.001 182.5s-185.334 46.5 -302.001 46.5h-135v-593c0 -95.333 7.83301 -175.666 23.5 -240.999s52.834 -110.666 111.501 -135.999c47.333 -22 97.666 -33 150.999 -33
c111.333 0 200.333 32.667 267 98z" />
    <glyph glyph-name="Acircumflex" unicode="&#xc2;" horiz-adv-x="2576" 
d="M172 -12v150.998c130.667 7.33301 219.334 32 266.001 74s70 126.667 70 254v1487c0 81.333 -10.833 142 -32.5 182s-55 67.333 -100 82s-110.167 23.667 -195.5 27v147c216.667 -16.667 368.334 -25 455.001 -25c55.333 0 121.5 1.83301 198.5 5.5
s135.167 6.16699 174.5 7.5c24 0 63.667 0.666992 119 2s98.666 2 129.999 2c184 0 347.5 -16.167 490.5 -48.5s256.833 -94.166 341.5 -185.499c79.333 -87.333 119 -197.666 119 -330.999c0 -96 -24.667 -180.667 -74 -254
c-56.667 -88.667 -130.834 -152.5 -222.501 -191.5s-208.5 -72.167 -350.5 -99.5c159.333 -19.333 301.5 -53.833 426.5 -103.5s222.833 -125.834 293.5 -228.501c54.667 -81.333 82 -181 82 -299c0 -148 -42.333 -271 -127 -369c-68 -76.667 -150 -135.667 -246 -177
s-197.167 -69.166 -303.5 -83.499s-220.833 -21.5 -343.5 -21.5h-126c-246.667 5.33301 -434 8 -562 8c-158 0 -319 -4 -483 -12zM1057 1343c8.66699 0 23.334 -0.666016 44.001 -1.99902s36 -2 46 -2c316.667 0 475 147.667 475 443c0 7.33301 -0.666992 21.666 -2 42.999
s-2 37 -2 47c-6 106 -42.5 187.667 -109.5 245s-154.833 89 -263.5 95h-69c-24.667 0 -56.334 -2.66699 -95.001 -8c-16 -7.33301 -24 -21 -24 -41v-820zM1679 941.999c-40.667 90.667 -105.167 151.499 -193.5 182.499s-194.5 46.5 -318.5 46.5h-110v-593
c0 -95.333 7.83301 -175.666 23.5 -240.999s52.834 -110.666 111.501 -135.999c47.333 -22 97.666 -33 150.999 -33c111.333 0 200.333 32.667 267 98c84.667 80.667 127 207.667 127 381c0 115.333 -19.333 213.666 -58 294.999z" />
    <glyph glyph-name="Acircumflex" unicode="&#x412;" horiz-adv-x="2576" 
d="M172 -12v150.998c130.667 7.33301 219.334 32 266.001 74s70 126.667 70 254v1487c0 81.333 -10.833 142 -32.5 182s-55 67.333 -100 82s-110.167 23.667 -195.5 27v147c216.667 -16.667 368.334 -25 455.001 -25c55.333 0 121.5 1.83301 198.5 5.5
s135.167 6.16699 174.5 7.5c24 0 63.667 0.666992 119 2s98.666 2 129.999 2c184 0 347.5 -16.167 490.5 -48.5s256.833 -94.166 341.5 -185.499c79.333 -87.333 119 -197.666 119 -330.999c0 -96 -24.667 -180.667 -74 -254
c-56.667 -88.667 -130.834 -152.5 -222.501 -191.5s-208.5 -72.167 -350.5 -99.5c159.333 -19.333 301.5 -53.833 426.5 -103.5s222.833 -125.834 293.5 -228.501c54.667 -81.333 82 -181 82 -299c0 -148 -42.333 -271 -127 -369c-68 -76.667 -150 -135.667 -246 -177
s-197.167 -69.166 -303.5 -83.499s-220.833 -21.5 -343.5 -21.5h-126c-246.667 5.33301 -434 8 -562 8c-158 0 -319 -4 -483 -12zM1057 1343c8.66699 0 23.334 -0.666016 44.001 -1.99902s36 -2 46 -2c316.667 0 475 147.667 475 443c0 7.33301 -0.666992 21.666 -2 42.999
s-2 37 -2 47c-6 106 -42.5 187.667 -109.5 245s-154.833 89 -263.5 95h-69c-24.667 0 -56.334 -2.66699 -95.001 -8c-16 -7.33301 -24 -21 -24 -41v-820zM1679 941.999c-40.667 90.667 -105.167 151.499 -193.5 182.499s-194.5 46.5 -318.5 46.5h-110v-593
c0 -95.333 7.83301 -175.666 23.5 -240.999s52.834 -110.666 111.501 -135.999c47.333 -22 97.666 -33 150.999 -33c111.333 0 200.333 32.667 267 98c84.667 80.667 127 207.667 127 381c0 115.333 -19.333 213.666 -58 294.999z" />
    <glyph glyph-name="Atilde" unicode="&#xc3;" horiz-adv-x="2310" 
d="M1049 2081l-0.00292969 -1561c1.33301 -117.333 10 -200.666 26 -249.999s48.167 -82.5 96.5 -99.5s131.5 -28.833 249.5 -35.5v-147c-136 8 -340.667 12 -614 12c-72 -1.33301 -181 -2.33301 -327 -3s-255.333 -2.33398 -328 -5.00098v143
c106 6 182.833 20.333 230.5 43s79.834 60 96.501 112s25 131.333 25 238v1364c-1.33301 92.667 -12 163.5 -32 212.5s-54.667 83.833 -104 104.5s-121.333 32.667 -216 36v147c340.667 -16.667 660 -25 958 -25c259.333 0 580.333 7 963 21l20 -623h-147
c-33.333 136 -76 235.167 -128 297.5s-117.167 101.833 -195.5 118.5s-193.166 25.667 -344.499 27h-70c-53.333 0 -93.166 -8 -119.499 -24s-39.5 -50.333 -39.5 -103z" />
    <glyph glyph-name="Atilde" unicode="&#x413;" horiz-adv-x="2310" 
d="M1049 2081l-0.00292969 -1561c1.33301 -117.333 10 -200.666 26 -249.999s48.167 -82.5 96.5 -99.5s131.5 -28.833 249.5 -35.5v-147c-136 8 -340.667 12 -614 12c-72 -1.33301 -181 -2.33301 -327 -3s-255.333 -2.33398 -328 -5.00098v143
c106 6 182.833 20.333 230.5 43s79.834 60 96.501 112s25 131.333 25 238v1364c-1.33301 92.667 -12 163.5 -32 212.5s-54.667 83.833 -104 104.5s-121.333 32.667 -216 36v147c340.667 -16.667 660 -25 958 -25c259.333 0 580.333 7 963 21l20 -623h-147
c-33.333 136 -76 235.167 -128 297.5s-117.167 101.833 -195.5 118.5s-193.166 25.667 -344.499 27h-70c-53.333 0 -93.166 -8 -119.499 -24s-39.5 -50.333 -39.5 -103z" />
    <glyph glyph-name="Adieresis" unicode="&#xc4;" horiz-adv-x="2953" 
d="M496 217c168 144 288.169 348.168 360.502 612.501s119.833 599.5 142.5 1005.5v25c0 111.333 -32.5 201.833 -97.5 271.499c-65 69.667 -157.833 104.5 -278.5 104.5h-17v148c52 -0.666992 93.5 -1.66699 124.5 -3s86.833 -3.16602 167.5 -5.5
c80.667 -2.33301 133.667 -3.5 159 -3.5c24 0 75.667 1.16699 155 3.5s135.333 4.16602 168 5.5c32.667 1.33301 75 2.33301 127 3c79.333 -1.33301 194.666 -4.5 345.999 -9.5s276.333 -7.5 374.999 -7.5c98 0 266 5.66699 504 17v-148
c-127.333 0 -214.5 -21.333 -261.5 -64s-70.5 -126.334 -70.5 -251.001v-1442c0 -87.333 9.66699 -155 29 -203s52.666 -82.667 100 -104c47.333 -21.333 115 -33.666 203 -36.999l37 -692h-139c-31.333 156 -74.166 273.833 -128.499 353.5s-125.333 133.5 -213 161.5
s-206.167 42 -355.5 42h-905c-160 0 -285.833 -13.5 -377.5 -40.5s-165.834 -80.333 -222.501 -160s-99.667 -198.5 -129 -356.5h-143l28 684c132 0 236 30 312 90zM651.002 135.001l855.999 0.000976562c100 7.33301 172 19.666 216 36.999s73.667 48.166 89 92.499
s23 115.833 23 214.5v1442c0 94 -8.5 162.333 -25.5 205s-48 71.334 -93 86.001s-114.833 22.667 -209.5 24h-16c-114 0 -198.167 -25 -252.5 -75s-83.5 -131.333 -87.5 -244c-12 -241.333 -31 -455 -57 -641s-59.667 -352.333 -101 -499s-90.166 -272.5 -146.499 -377.5
s-121.5 -193.167 -195.5 -264.5z" />
    <glyph glyph-name="Adieresis" unicode="&#x414;" horiz-adv-x="2953" 
d="M496 217c168 144 288.169 348.168 360.502 612.501s119.833 599.5 142.5 1005.5v25c0 111.333 -32.5 201.833 -97.5 271.499c-65 69.667 -157.833 104.5 -278.5 104.5h-17v148c52 -0.666992 93.5 -1.66699 124.5 -3s86.833 -3.16602 167.5 -5.5
c80.667 -2.33301 133.667 -3.5 159 -3.5c24 0 75.667 1.16699 155 3.5s135.333 4.16602 168 5.5c32.667 1.33301 75 2.33301 127 3c79.333 -1.33301 194.666 -4.5 345.999 -9.5s276.333 -7.5 374.999 -7.5c98 0 266 5.66699 504 17v-148
c-127.333 0 -214.5 -21.333 -261.5 -64s-70.5 -126.334 -70.5 -251.001v-1442c0 -87.333 9.66699 -155 29 -203s52.666 -82.667 100 -104c47.333 -21.333 115 -33.666 203 -36.999l37 -692h-139c-31.333 156 -74.166 273.833 -128.499 353.5s-125.333 133.5 -213 161.5
s-206.167 42 -355.5 42h-905c-160 0 -285.833 -13.5 -377.5 -40.5s-165.834 -80.333 -222.501 -160s-99.667 -198.5 -129 -356.5h-143l28 684c132 0 236 30 312 90zM651.002 135.001l855.999 0.000976562c100 7.33301 172 19.666 216 36.999s73.667 48.166 89 92.499
s23 115.833 23 214.5v1442c0 94 -8.5 162.333 -25.5 205s-48 71.334 -93 86.001s-114.833 22.667 -209.5 24h-16c-114 0 -198.167 -25 -252.5 -75s-83.5 -131.333 -87.5 -244c-12 -241.333 -31 -455 -57 -641s-59.667 -352.333 -101 -499s-90.166 -272.5 -146.499 -377.5
s-121.5 -193.167 -195.5 -264.5z" />
    <glyph glyph-name="Aring" unicode="&#xc5;" horiz-adv-x="2462" 
d="M164 -12l0.00390625 146.999c107.333 4 184.166 20.333 230.499 49s74.833 70.5 85.5 125.5s16 144.5 16 268.5v1347c0 123.333 -24 209 -72 257s-134.667 73 -260 75v139c318.667 -13.333 608 -20 868 -20c152 0 326.833 2.33301 524.5 7l569.5 13v-622h-148
c-31.333 114.667 -69.333 202.834 -114 264.501s-102.334 104.5 -173.001 128.5s-168.667 37.667 -294 41c-6 0 -29.667 0.666992 -71 2s-75 2 -101 2c-88 0 -140 -9.66699 -156 -29c-10.667 -14 -16 -33 -16 -57c0 -2.66699 0.666992 -7.33398 2 -14
c1.33301 -6.66699 2 -10.334 2 -11v-778c2.66699 0 8.66699 -0.666992 18 -2s15.666 -2 18.999 -2c105.333 0 186.166 11.5 242.499 34.5s100.166 62.667 131.499 119s59.333 138.833 84 247.5h152c-10.667 -201.333 -16 -355.666 -16 -462.999
c0 -116.667 5.33301 -281.667 16 -495h-143c-23.333 110.667 -53 193.667 -89 249s-85.333 93.5 -148 114.5s-151.667 32.167 -267 33.5v-639c0 -232 132.333 -348 397 -348h33c202.667 4 351.5 44.667 446.5 122s161.833 215.666 200.5 414.999h131v-721
c-180 4 -334 7.83301 -462 11.5s-263 6.66699 -405 9s-257 3.5 -345 3.5c-297.333 0 -593.666 -8 -888.999 -24z" />
    <glyph glyph-name="Aring" unicode="&#x415;" horiz-adv-x="2462" 
d="M164 -12l0.00390625 146.999c107.333 4 184.166 20.333 230.499 49s74.833 70.5 85.5 125.5s16 144.5 16 268.5v1347c0 123.333 -24 209 -72 257s-134.667 73 -260 75v139c318.667 -13.333 608 -20 868 -20c152 0 326.833 2.33301 524.5 7l569.5 13v-622h-148
c-31.333 114.667 -69.333 202.834 -114 264.501s-102.334 104.5 -173.001 128.5s-168.667 37.667 -294 41c-6 0 -29.667 0.666992 -71 2s-75 2 -101 2c-88 0 -140 -9.66699 -156 -29c-10.667 -14 -16 -33 -16 -57c0 -2.66699 0.666992 -7.33398 2 -14
c1.33301 -6.66699 2 -10.334 2 -11v-778c2.66699 0 8.66699 -0.666992 18 -2s15.666 -2 18.999 -2c105.333 0 186.166 11.5 242.499 34.5s100.166 62.667 131.499 119s59.333 138.833 84 247.5h152c-10.667 -201.333 -16 -355.666 -16 -462.999
c0 -116.667 5.33301 -281.667 16 -495h-143c-23.333 110.667 -53 193.667 -89 249s-85.333 93.5 -148 114.5s-151.667 32.167 -267 33.5v-639c0 -232 132.333 -348 397 -348h33c202.667 4 351.5 44.667 446.5 122s161.833 215.666 200.5 414.999h131v-721
c-180 4 -334 7.83301 -462 11.5s-263 6.66699 -405 9s-257 3.5 -345 3.5c-297.333 0 -593.666 -8 -888.999 -24z" />
    <glyph glyph-name="AE" unicode="&#xc6;" horiz-adv-x="3830" 
d="M2298 -12c-73.333 1.33301 -164.504 3.66309 -273.504 6.99609s-187.167 5 -234.5 5c-121.333 0 -266 -4 -434 -12v143c56 3.33301 98.667 14 128 32s50.833 50.167 64.5 96.5s20.5 115.5 20.5 207.5v516l-103 115l-491 -717c-38 -54.667 -57 -99.667 -57 -135
c0 -40 20.5 -69.833 61.5 -89.5s91.167 -29.5 150.5 -29.5c2 0 5 0.666992 9 2s6.66699 2 8 2v-143c-57.333 1.33301 -144.666 3.66602 -261.999 6.99902s-204.666 5 -261.999 5c-64.667 0 -162.667 -1.66699 -294 -5s-227.333 -5.66602 -288 -6.99902v147
c106 14.667 200.333 81.667 283 201l823 1151l-406 512c-60.667 80.667 -121.167 140 -181.5 178s-136.166 62 -227.499 72v135c148 -14 276.333 -21 385 -21c94.667 0 243.334 5.66699 446.001 17v-131c-152.667 -9.33301 -229 -51.666 -229 -127l4 -4
c0 -63.333 45 -157.666 135 -282.999s183 -244 279 -356l217 -303v712c0 118.667 -14 207.167 -42 265.501c-28 58.333 -75.667 87.5 -143 87.5h-12v143c158.667 -11.333 298 -17 418 -17c44 0 207.667 5.66699 491 17v-143h-20c-64 0 -109.333 -29 -136 -87
s-40 -146.667 -40 -266v-721l217 312c120 146 219.833 273.333 299.5 382s120.5 194.334 122.5 257.001v4c0 76.667 -79.333 119 -238 127v131c215.333 -11.333 367 -17 455 -17c106.667 0 236.334 7 389 21v-135c-92 -9.33301 -167.667 -32.833 -227 -70.5
s-121.666 -97.5 -187 -179.5l-413 -512l831 -1151c87.333 -120 184.333 -187 291 -201v-147c-67.333 1.33301 -166.333 3.66602 -297 6.99902s-228.334 5 -293 5c-58.667 0 -147 -1.66699 -265 -5s-207 -5.66602 -267 -6.99902v143h16c147.333 0 221 38.333 221 115
c0 33.333 -17.667 78.333 -53 135l-504 717l-94 -111l-4 -520c0 -131.333 15.667 -219.166 47 -263.499s86.666 -68.5 166 -72.5v-143z" />
    <glyph glyph-name="AE" unicode="&#x416;" horiz-adv-x="3830" 
d="M2298 -12c-73.333 1.33301 -164.504 3.66309 -273.504 6.99609s-187.167 5 -234.5 5c-121.333 0 -266 -4 -434 -12v143c56 3.33301 98.667 14 128 32s50.833 50.167 64.5 96.5s20.5 115.5 20.5 207.5v516l-103 115l-491 -717c-38 -54.667 -57 -99.667 -57 -135
c0 -40 20.5 -69.833 61.5 -89.5s91.167 -29.5 150.5 -29.5c2 0 5 0.666992 9 2s6.66699 2 8 2v-143c-57.333 1.33301 -144.666 3.66602 -261.999 6.99902s-204.666 5 -261.999 5c-64.667 0 -162.667 -1.66699 -294 -5s-227.333 -5.66602 -288 -6.99902v147
c106 14.667 200.333 81.667 283 201l823 1151l-406 512c-60.667 80.667 -121.167 140 -181.5 178s-136.166 62 -227.499 72v135c148 -14 276.333 -21 385 -21c94.667 0 243.334 5.66699 446.001 17v-131c-152.667 -9.33301 -229 -51.666 -229 -127l4 -4
c0 -63.333 45 -157.666 135 -282.999s183 -244 279 -356l217 -303v712c0 118.667 -14 207.167 -42 265.501c-28 58.333 -75.667 87.5 -143 87.5h-12v143c158.667 -11.333 298 -17 418 -17c44 0 207.667 5.66699 491 17v-143h-20c-64 0 -109.333 -29 -136 -87
s-40 -146.667 -40 -266v-721l217 312c120 146 219.833 273.333 299.5 382s120.5 194.334 122.5 257.001v4c0 76.667 -79.333 119 -238 127v131c215.333 -11.333 367 -17 455 -17c106.667 0 236.334 7 389 21v-135c-92 -9.33301 -167.667 -32.833 -227 -70.5
s-121.666 -97.5 -187 -179.5l-413 -512l831 -1151c87.333 -120 184.333 -187 291 -201v-147c-67.333 1.33301 -166.333 3.66602 -297 6.99902s-228.334 5 -293 5c-58.667 0 -147 -1.66699 -265 -5s-207 -5.66602 -267 -6.99902v143h16c147.333 0 221 38.333 221 115
c0 33.333 -17.667 78.333 -53 135l-504 717l-94 -111l-4 -520c0 -131.333 15.667 -219.166 47 -263.499s86.666 -68.5 166 -72.5v-143z" />
    <glyph glyph-name="Ccedilla" unicode="&#xc7;" horiz-adv-x="2388" 
d="M1135 2253c-300 0 -507.667 -204.996 -623 -614.996h-152l25 766h156l61 -196c224.667 160.667 448.667 241 672 241h33c266.667 -18 474 -105.333 622 -262c76.667 -84.667 115 -196.667 115 -336c0 -116.667 -28.667 -220.334 -86 -311.001
c-38 -58 -87 -104.5 -147 -139.5s-115.167 -58.833 -165.5 -71.5s-137.5 -31 -261.5 -55c358 -44.667 598.333 -155.334 721 -332.001c54.667 -81.333 82 -181 82 -299c0 -152.667 -42.333 -275.667 -127 -369c-62.667 -70.667 -136.334 -130.834 -221.001 -180.501
s-174.334 -87 -269.001 -112s-192 -39.167 -292 -42.5c-136 2 -264 24.333 -384 67s-244.667 107.667 -374 195l-78 -201h-143v831h147c38.667 -144.667 82.334 -266.667 131.001 -366s116.667 -179.833 204 -241.5s198.333 -92.5 333 -92.5c126 0 231.333 42.333 316 127
c87.333 91.333 131 223.666 131 396.999c0 110.667 -18 206.334 -54 287.001c-32 69.333 -70.167 122.166 -114.5 158.499s-93.833 60.666 -148.5 72.999s-117 18.5 -187 18.5h-66v164c11.333 0 27.666 -0.666992 48.999 -2s36.333 -2 45 -2
c140.667 0 242.834 31 306.501 93s95.5 164.667 95.5 308c0 54.667 -1.33301 94.334 -4 119.001c-8 110 -42.667 199 -104 267s-142.666 106 -243.999 114z" />
    <glyph glyph-name="Ccedilla" unicode="&#x417;" horiz-adv-x="2388" 
d="M1135 2253c-300 0 -507.667 -204.996 -623 -614.996h-152l25 766h156l61 -196c224.667 160.667 448.667 241 672 241h33c266.667 -18 474 -105.333 622 -262c76.667 -84.667 115 -196.667 115 -336c0 -116.667 -28.667 -220.334 -86 -311.001
c-38 -58 -87 -104.5 -147 -139.5s-115.167 -58.833 -165.5 -71.5s-137.5 -31 -261.5 -55c358 -44.667 598.333 -155.334 721 -332.001c54.667 -81.333 82 -181 82 -299c0 -152.667 -42.333 -275.667 -127 -369c-62.667 -70.667 -136.334 -130.834 -221.001 -180.501
s-174.334 -87 -269.001 -112s-192 -39.167 -292 -42.5c-136 2 -264 24.333 -384 67s-244.667 107.667 -374 195l-78 -201h-143v831h147c38.667 -144.667 82.334 -266.667 131.001 -366s116.667 -179.833 204 -241.5s198.333 -92.5 333 -92.5c126 0 231.333 42.333 316 127
c87.333 91.333 131 223.666 131 396.999c0 110.667 -18 206.334 -54 287.001c-32 69.333 -70.167 122.166 -114.5 158.499s-93.833 60.666 -148.5 72.999s-117 18.5 -187 18.5h-66v164c11.333 0 27.666 -0.666992 48.999 -2s36.333 -2 45 -2
c140.667 0 242.834 31 306.501 93s95.5 164.667 95.5 308c0 54.667 -1.33301 94.334 -4 119.001c-8 110 -42.667 199 -104 267s-142.666 106 -243.999 114z" />
    <glyph glyph-name="Egrave" unicode="&#xc8;" horiz-adv-x="3219" 
d="M172 -8l0.00292969 143.004c97.333 4 168.333 15.167 213 33.5s75 50 91 95s24 116.833 24 215.5v1442c0 128 -19 212.5 -57 253.5s-116 61.5 -234 61.5h-37v148c44.667 -0.666992 106.667 -2.16699 186 -4.5s158.333 -4.16602 237 -5.49902s141 -2 187 -2
c44 0 106.167 0.833008 186.5 2.5s160.166 3.5 239.499 5.5s142.333 3.33301 189 4v-148h-17c-114 0 -195 -23.833 -243 -71.5s-72 -128.834 -72 -243.501v-1106l1053 1020v86c0 92.667 -8.83301 160.5 -26.5 203.5s-49.334 72 -95.001 87s-115.834 23.167 -210.501 24.5
v148c78 -1.33301 192.833 -4.5 344.5 -9.5s277.167 -7.5 376.5 -7.5c103.333 0 271.333 5.66699 504 17v-148c-126 0 -212.167 -21.333 -258.5 -64s-69.5 -126.334 -69.5 -251.001v-1442c0 -86.667 9.5 -154.334 28.5 -203.001s51.5 -83.5 97.5 -104.5
s113.333 -33.167 202 -36.5v-143c-273.333 5.33301 -478.333 8 -615 8c-133.333 0 -336.666 -2.66699 -609.999 -8v143c101.333 7.33301 174.166 19.666 218.499 36.999s74.333 48.166 90 92.499s23.5 115.833 23.5 214.5v1151l-1053 -1028v-123
c0 -92 10 -161.167 30 -207.5s53.333 -78.833 100 -97.5s114 -31.667 202 -39v-143c-273.333 5.33301 -478.333 8 -615 8c-138.667 -0 -342 -2.66699 -610 -8z" />
    <glyph glyph-name="Egrave" unicode="&#x418;" horiz-adv-x="3219" 
d="M172 -8l0.00292969 143.004c97.333 4 168.333 15.167 213 33.5s75 50 91 95s24 116.833 24 215.5v1442c0 128 -19 212.5 -57 253.5s-116 61.5 -234 61.5h-37v148c44.667 -0.666992 106.667 -2.16699 186 -4.5s158.333 -4.16602 237 -5.49902s141 -2 187 -2
c44 0 106.167 0.833008 186.5 2.5s160.166 3.5 239.499 5.5s142.333 3.33301 189 4v-148h-17c-114 0 -195 -23.833 -243 -71.5s-72 -128.834 -72 -243.501v-1106l1053 1020v86c0 92.667 -8.83301 160.5 -26.5 203.5s-49.334 72 -95.001 87s-115.834 23.167 -210.501 24.5
v148c78 -1.33301 192.833 -4.5 344.5 -9.5s277.167 -7.5 376.5 -7.5c103.333 0 271.333 5.66699 504 17v-148c-126 0 -212.167 -21.333 -258.5 -64s-69.5 -126.334 -69.5 -251.001v-1442c0 -86.667 9.5 -154.334 28.5 -203.001s51.5 -83.5 97.5 -104.5
s113.333 -33.167 202 -36.5v-143c-273.333 5.33301 -478.333 8 -615 8c-133.333 0 -336.666 -2.66699 -609.999 -8v143c101.333 7.33301 174.166 19.666 218.499 36.999s74.333 48.166 90 92.499s23.5 115.833 23.5 214.5v1151l-1053 -1028v-123
c0 -92 10 -161.167 30 -207.5s53.333 -78.833 100 -97.5s114 -31.667 202 -39v-143c-273.333 5.33301 -478.333 8 -615 8c-138.667 -0 -342 -2.66699 -610 -8z" />
    <glyph glyph-name="Eacute" unicode="&#xc9;" horiz-adv-x="3219" 
d="M1610 2744c68 0 121.668 24.833 161.001 74.5s60.666 95.834 63.999 138.5c11.333 63.333 55 95 131 95c65.333 0 98 -50.667 98 -152c0 -72 -46.833 -134.333 -140.5 -187s-198.167 -79 -313.5 -79c-116.667 0 -221 26.167 -313 78.5s-138 114.833 -138 187.5
c0 101.333 32.667 152 98 152c76.667 0 119 -31.667 127 -95c8 -46.667 30.833 -93.834 68.5 -141.5c37.667 -47.667 90.167 -71.5 157.5 -71.5zM172.001 -8l0.00390625 143.004c97.333 4 168.333 15.167 213 33.5s75 50 91 95s24 116.833 24 215.5v1442
c0 128 -19 212.5 -57 253.5s-116 61.5 -234 61.5h-37v148c44.667 -0.666992 106.667 -2.16699 186 -4.5s158.333 -4.16602 237 -5.49902s141 -2 187 -2c44 0 106.167 0.833008 186.5 2.5s160.166 3.5 239.499 5.5s142.333 3.33301 189 4v-148h-17
c-114 0 -195 -23.833 -243 -71.5s-72 -128.834 -72 -243.501v-1106l1053 1020v86c0 92.667 -8.83301 160.5 -26.5 203.5s-49.334 72 -95.001 87s-115.834 23.167 -210.501 24.5v148c78 -1.33301 192.833 -4.5 344.5 -9.5s277.167 -7.5 376.5 -7.5
c103.333 0 271.333 5.66699 504 17v-148c-126 0 -212.167 -21.333 -258.5 -64s-69.5 -126.334 -69.5 -251.001v-1442c0 -86.667 9.5 -154.334 28.5 -203.001s51.5 -83.5 97.5 -104.5s113.333 -33.167 202 -36.5v-143c-273.333 5.33301 -478.333 8 -615 8
c-133.333 0 -336.666 -2.66699 -610 -8v143c101.333 7.33301 174.166 19.666 218.499 36.999s74.333 48.166 90 92.499s23.5 115.833 23.5 214.5v1151l-1053 -1028v-123c0 -92 10 -161.167 30 -207.5s53.333 -78.833 100 -97.5s114 -31.667 202 -39v-143
c-273.333 5.33301 -478.333 8 -615 8c-138.667 -0 -342 -2.66699 -610 -8z" />
    <glyph glyph-name="Eacute" unicode="&#x419;" horiz-adv-x="3219" 
d="M1610 2744c68 0 121.668 24.833 161.001 74.5s60.666 95.834 63.999 138.5c11.333 63.333 55 95 131 95c65.333 0 98 -50.667 98 -152c0 -72 -46.833 -134.333 -140.5 -187s-198.167 -79 -313.5 -79c-116.667 0 -221 26.167 -313 78.5s-138 114.833 -138 187.5
c0 101.333 32.667 152 98 152c76.667 0 119 -31.667 127 -95c8 -46.667 30.833 -93.834 68.5 -141.5c37.667 -47.667 90.167 -71.5 157.5 -71.5zM172.001 -8l0.00390625 143.004c97.333 4 168.333 15.167 213 33.5s75 50 91 95s24 116.833 24 215.5v1442
c0 128 -19 212.5 -57 253.5s-116 61.5 -234 61.5h-37v148c44.667 -0.666992 106.667 -2.16699 186 -4.5s158.333 -4.16602 237 -5.49902s141 -2 187 -2c44 0 106.167 0.833008 186.5 2.5s160.166 3.5 239.499 5.5s142.333 3.33301 189 4v-148h-17
c-114 0 -195 -23.833 -243 -71.5s-72 -128.834 -72 -243.501v-1106l1053 1020v86c0 92.667 -8.83301 160.5 -26.5 203.5s-49.334 72 -95.001 87s-115.834 23.167 -210.501 24.5v148c78 -1.33301 192.833 -4.5 344.5 -9.5s277.167 -7.5 376.5 -7.5
c103.333 0 271.333 5.66699 504 17v-148c-126 0 -212.167 -21.333 -258.5 -64s-69.5 -126.334 -69.5 -251.001v-1442c0 -86.667 9.5 -154.334 28.5 -203.001s51.5 -83.5 97.5 -104.5s113.333 -33.167 202 -36.5v-143c-273.333 5.33301 -478.333 8 -615 8
c-133.333 0 -336.666 -2.66699 -610 -8v143c101.333 7.33301 174.166 19.666 218.499 36.999s74.333 48.166 90 92.499s23.5 115.833 23.5 214.5v1151l-1053 -1028v-123c0 -92 10 -161.167 30 -207.5s53.333 -78.833 100 -97.5s114 -31.667 202 -39v-143
c-273.333 5.33301 -478.333 8 -615 8c-138.667 -0 -342 -2.66699 -610 -8z" />
    <glyph glyph-name="Ecircumflex" unicode="&#xca;" horiz-adv-x="2994" 
d="M164 -12l-0.000976562 147c85.333 1.33301 151.166 11 197.499 29s79.5 49.333 99.5 94s31.667 109 35 193v1491c0 116.667 -24.333 195.667 -73 237s-135 67.333 -259 78v135c218 -13.333 417.333 -20 598 -20c133.333 0 331.333 5.33301 594 16v-139h-21
c-115.333 0 -191.166 -28.167 -227.499 -84.5s-54.5 -148.5 -54.5 -276.5v-778l327 373c300.667 332.667 452.334 545.667 455.001 639v4c0 76.667 -86 119 -258 127v131c226.667 -11.333 389 -17 487 -17c116.667 0 256 7 418 21v-135
c-96.667 -9.33301 -176.667 -32.833 -240 -70.5s-130.666 -97.5 -202 -179.5l-443 -512l893 -1155c93.333 -117.333 196 -183 308 -197v-151c-208.667 8 -420.334 12 -635 12c-188 0 -376.667 -4 -566 -12v147c2 0 5 -0.666992 9 -2s6.66699 -2 8 -2
c155.333 0 233 39.667 233 119c0 44 -17.667 89 -53 135l-541 717l-200 -238v-397c0 -94.667 7.5 -164.167 22.5 -208.5s44.5 -75 88.5 -92s114.667 -27.5 212 -31.5v-147c-289.333 10.667 -509 16 -659 16c-208.667 0 -393 -5.33301 -553 -16z" />
    <glyph glyph-name="Ecircumflex" unicode="&#x41a;" horiz-adv-x="2994" 
d="M164 -12l-0.000976562 147c85.333 1.33301 151.166 11 197.499 29s79.5 49.333 99.5 94s31.667 109 35 193v1491c0 116.667 -24.333 195.667 -73 237s-135 67.333 -259 78v135c218 -13.333 417.333 -20 598 -20c133.333 0 331.333 5.33301 594 16v-139h-21
c-115.333 0 -191.166 -28.167 -227.499 -84.5s-54.5 -148.5 -54.5 -276.5v-778l327 373c300.667 332.667 452.334 545.667 455.001 639v4c0 76.667 -86 119 -258 127v131c226.667 -11.333 389 -17 487 -17c116.667 0 256 7 418 21v-135
c-96.667 -9.33301 -176.667 -32.833 -240 -70.5s-130.666 -97.5 -202 -179.5l-443 -512l893 -1155c93.333 -117.333 196 -183 308 -197v-151c-208.667 8 -420.334 12 -635 12c-188 0 -376.667 -4 -566 -12v147c2 0 5 -0.666992 9 -2s6.66699 -2 8 -2
c155.333 0 233 39.667 233 119c0 44 -17.667 89 -53 135l-541 717l-200 -238v-397c0 -94.667 7.5 -164.167 22.5 -208.5s44.5 -75 88.5 -92s114.667 -27.5 212 -31.5v-147c-289.333 10.667 -509 16 -659 16c-208.667 0 -393 -5.33301 -553 -16z" />
    <glyph glyph-name="Edieresis" unicode="&#xcb;" horiz-adv-x="3068" 
d="M1139 1835c0 114 -41.1621 209.335 -123.495 286.002s-187.5 115 -315.5 115h-16v148c63.333 -1.33301 113.666 -2.5 150.999 -3.5s76.333 -2.16699 117 -3.5s78 -2.5 112 -3.5s67 -1.5 99 -1.5c34 0 68.5 0.5 103.5 1.5l109.5 3c38 1 76.833 2.16699 116.5 3.5
s91.167 2.66602 154.5 4c78 -1.33301 192.833 -4.5 344.5 -9.5s276.834 -7.5 375.5 -7.5c98 0 266 5.66699 504 17v-148c-128 0 -215.167 -21.167 -261.5 -63.5s-69.5 -126.166 -69.5 -251.499v-1442c0 -86.667 9.5 -154.334 28.5 -203.001s51.833 -83.5 98.5 -104.5
s114.667 -33.167 204 -36.5v-143c-278.667 5.33301 -483.334 8 -614 8c-140 0 -343.333 -2.66699 -610 -8v143c98.667 7.33301 170.167 19.666 214.5 36.999s74.166 48.166 89.499 92.499s23 115.833 23 214.5v1442c0 92 -8.66699 159.667 -26 203s-48.333 72.5 -93 87.5
s-114 23.167 -208 24.5h-17c-114 0 -198.167 -25 -252.5 -75s-83.5 -131.333 -87.5 -244c-53.333 -1072 -265 -1707 -635 -1905c-62.667 -35.333 -156.667 -53 -282 -53c-70 0 -134 20.5 -192 61.5s-87 99.833 -87 176.5c0 75.333 22.667 135 68 179s99.333 66 162 66
c48 0 83.167 -7 105.5 -21s52.166 -35.833 89.499 -65.5s69 -44.5 95 -44.5c46 0 88.333 15 127 45c133.333 101.333 230.666 287.333 291.999 558s96.666 577.667 105.999 921z" />
    <glyph glyph-name="Edieresis" unicode="&#x41b;" horiz-adv-x="3068" 
d="M1139 1835c0 114 -41.1621 209.335 -123.495 286.002s-187.5 115 -315.5 115h-16v148c63.333 -1.33301 113.666 -2.5 150.999 -3.5s76.333 -2.16699 117 -3.5s78 -2.5 112 -3.5s67 -1.5 99 -1.5c34 0 68.5 0.5 103.5 1.5l109.5 3c38 1 76.833 2.16699 116.5 3.5
s91.167 2.66602 154.5 4c78 -1.33301 192.833 -4.5 344.5 -9.5s276.834 -7.5 375.5 -7.5c98 0 266 5.66699 504 17v-148c-128 0 -215.167 -21.167 -261.5 -63.5s-69.5 -126.166 -69.5 -251.499v-1442c0 -86.667 9.5 -154.334 28.5 -203.001s51.833 -83.5 98.5 -104.5
s114.667 -33.167 204 -36.5v-143c-278.667 5.33301 -483.334 8 -614 8c-140 0 -343.333 -2.66699 -610 -8v143c98.667 7.33301 170.167 19.666 214.5 36.999s74.166 48.166 89.499 92.499s23 115.833 23 214.5v1442c0 92 -8.66699 159.667 -26 203s-48.333 72.5 -93 87.5
s-114 23.167 -208 24.5h-17c-114 0 -198.167 -25 -252.5 -75s-83.5 -131.333 -87.5 -244c-53.333 -1072 -265 -1707 -635 -1905c-62.667 -35.333 -156.667 -53 -282 -53c-70 0 -134 20.5 -192 61.5s-87 99.833 -87 176.5c0 75.333 22.667 135 68 179s99.333 66 162 66
c48 0 83.167 -7 105.5 -21s52.166 -35.833 89.499 -65.5s69 -44.5 95 -44.5c46 0 88.333 15 127 45c133.333 101.333 230.666 287.333 291.999 558s96.666 577.667 105.999 921z" />
    <glyph glyph-name="Igrave" unicode="&#xcc;" horiz-adv-x="3449" 
d="M184 -8l0.00195312 142.997c98.667 5.33301 170.5 30.333 215.5 75s72.667 99.834 83 165.501s16.166 156.167 17.499 271.5v1487c-39.333 42.667 -82.833 71.334 -130.5 86.001s-110.834 25.667 -189.501 33v131c185.333 -11.333 318 -17 398 -17
c89.333 0 238 5.66699 446 17l696 -1651l656 1651c55.333 -2 112.166 -4.5 170.5 -7.5c58.333 -3 111.833 -4.5 160.5 -4.5c28.667 0 65.334 0.5 110 1.5c44.667 1 92.5 2.5 143.5 4.5s95 3.83301 132 5.5s84.833 3.16699 143.5 4.5v-139
c-95.333 0 -168.166 -10.667 -218.5 -32c-50.333 -21.333 -85.166 -57.5 -104.5 -108.5c-19.333 -51 -29 -123.167 -29 -216.5v-1450c0 -85.333 12.167 -149.666 36.5 -192.999s60.833 -73.166 109.5 -89.499s117.334 -27.166 206 -32.499v-139
c-80.667 1.33301 -202.334 3.66602 -365 6.99902c-162.667 3.33301 -284 5 -364 5c-109.333 0 -270.666 -2.66699 -484 -8v139c98 12.667 168.5 28.167 211.5 46.5s71.833 49.333 86.5 93s22 114.5 22 212.5v1303l-725 -1790h-168l-762 1839v-1188
c0 -121.333 5.5 -213.833 16.5 -277.5s39.833 -116.667 86.5 -159s121.667 -68.833 225 -79.5v-143c-53.333 1.33301 -134 3.66602 -242 6.99902s-188.667 5 -242 5c-73.333 -0 -189.333 -2.66699 -348 -8z" />
    <glyph glyph-name="Igrave" unicode="&#x41c;" horiz-adv-x="3449" 
d="M184 -8l0.00195312 142.997c98.667 5.33301 170.5 30.333 215.5 75s72.667 99.834 83 165.501s16.166 156.167 17.499 271.5v1487c-39.333 42.667 -82.833 71.334 -130.5 86.001s-110.834 25.667 -189.501 33v131c185.333 -11.333 318 -17 398 -17
c89.333 0 238 5.66699 446 17l696 -1651l656 1651c55.333 -2 112.166 -4.5 170.5 -7.5c58.333 -3 111.833 -4.5 160.5 -4.5c28.667 0 65.334 0.5 110 1.5c44.667 1 92.5 2.5 143.5 4.5s95 3.83301 132 5.5s84.833 3.16699 143.5 4.5v-139
c-95.333 0 -168.166 -10.667 -218.5 -32c-50.333 -21.333 -85.166 -57.5 -104.5 -108.5c-19.333 -51 -29 -123.167 -29 -216.5v-1450c0 -85.333 12.167 -149.666 36.5 -192.999s60.833 -73.166 109.5 -89.499s117.334 -27.166 206 -32.499v-139
c-80.667 1.33301 -202.334 3.66602 -365 6.99902c-162.667 3.33301 -284 5 -364 5c-109.333 0 -270.666 -2.66699 -484 -8v139c98 12.667 168.5 28.167 211.5 46.5s71.833 49.333 86.5 93s22 114.5 22 212.5v1303l-725 -1790h-168l-762 1839v-1188
c0 -121.333 5.5 -213.833 16.5 -277.5s39.833 -116.667 86.5 -159s121.667 -68.833 225 -79.5v-143c-53.333 1.33301 -134 3.66602 -242 6.99902s-188.667 5 -242 5c-73.333 -0 -189.333 -2.66699 -348 -8z" />
    <glyph glyph-name="Iacute" unicode="&#xcd;" horiz-adv-x="3219" 
d="M172 -8l0.00292969 143.004c97.333 4 168.333 15.167 213 33.5s75 50 91 95s24 116.833 24 215.5v1442c0 128 -19 212.5 -57 253.5s-116 61.5 -234 61.5h-37v148c44.667 -0.666992 106.667 -2.16699 186 -4.5s158.333 -4.16602 237 -5.49902s141 -2 187 -2
c44 0 106.167 0.833008 186.5 2.5s160.166 3.5 239.499 5.5s142.333 3.33301 189 4v-148h-17c-114 0 -195 -23.833 -243 -71.5s-72 -128.834 -72 -243.501v-614h1053v614c0 92.667 -8.83301 160.5 -26.5 203.5s-49.334 72 -95.001 87s-115.834 23.167 -210.501 24.5v148
c78 -1.33301 192.833 -4.5 344.5 -9.5s277.167 -7.5 376.5 -7.5c103.333 0 271.333 5.66699 504 17v-148c-126 0 -212.167 -21.333 -258.5 -64s-69.5 -126.334 -69.5 -251.001v-1442c0 -86.667 9.5 -154.334 28.5 -203.001s51.5 -83.5 97.5 -104.5
s113.333 -33.167 202 -36.5v-143c-273.333 5.33301 -478.333 8 -615 8c-133.333 0 -336.666 -2.66699 -609.999 -8v143c101.333 7.33301 174.166 19.666 218.499 36.999s74.333 48.166 90 92.499s23.5 115.833 23.5 214.5v647h-1053v-647c0 -92 10 -161.167 30 -207.5
s53.333 -78.833 100 -97.5s114 -31.667 202 -39v-143c-273.333 5.33301 -478.333 8 -615 8c-138.667 -0 -342 -2.66699 -610 -8z" />
    <glyph glyph-name="Iacute" unicode="&#x41d;" horiz-adv-x="3219" 
d="M172 -8l0.00292969 143.004c97.333 4 168.333 15.167 213 33.5s75 50 91 95s24 116.833 24 215.5v1442c0 128 -19 212.5 -57 253.5s-116 61.5 -234 61.5h-37v148c44.667 -0.666992 106.667 -2.16699 186 -4.5s158.333 -4.16602 237 -5.49902s141 -2 187 -2
c44 0 106.167 0.833008 186.5 2.5s160.166 3.5 239.499 5.5s142.333 3.33301 189 4v-148h-17c-114 0 -195 -23.833 -243 -71.5s-72 -128.834 -72 -243.501v-614h1053v614c0 92.667 -8.83301 160.5 -26.5 203.5s-49.334 72 -95.001 87s-115.834 23.167 -210.501 24.5v148
c78 -1.33301 192.833 -4.5 344.5 -9.5s277.167 -7.5 376.5 -7.5c103.333 0 271.333 5.66699 504 17v-148c-126 0 -212.167 -21.333 -258.5 -64s-69.5 -126.334 -69.5 -251.001v-1442c0 -86.667 9.5 -154.334 28.5 -203.001s51.5 -83.5 97.5 -104.5
s113.333 -33.167 202 -36.5v-143c-273.333 5.33301 -478.333 8 -615 8c-133.333 0 -336.666 -2.66699 -609.999 -8v143c101.333 7.33301 174.166 19.666 218.499 36.999s74.333 48.166 90 92.499s23.5 115.833 23.5 214.5v647h-1053v-647c0 -92 10 -161.167 30 -207.5
s53.333 -78.833 100 -97.5s114 -31.667 202 -39v-143c-273.333 5.33301 -478.333 8 -615 8c-138.667 -0 -342 -2.66699 -610 -8z" />
    <glyph glyph-name="Icircumflex" unicode="&#xce;" horiz-adv-x="3068" 
d="M2879 1192c0 -177.333 -35.334 -344.167 -106.001 -500.5s-168.667 -293.166 -294 -410.499s-269.333 -208.5 -432 -273.5s-331.667 -97.5 -507 -97.5c-177.333 0 -348.166 30.5 -512.499 91.5s-310.833 147.667 -439.5 260s-229.5 245.166 -302.5 398.499
s-109.5 318.333 -109.5 495c0 236 59.333 455.167 178 657.5s279.667 362.5 483 480.5s425.333 177 666 177c175.333 0 345.833 -31.167 511.5 -93.5s313.5 -150.833 443.5 -265.5s232.667 -251 308 -409s113 -328 113 -510zM998.999 2028
c-125.333 -168 -188.002 -430.335 -188.002 -787.002c0 -8 0.666992 -19.333 2 -34s2 -25 2 -31c0 -184.667 20.333 -356 61 -514s114.834 -288.667 222.501 -392s253.5 -155 437.5 -155c270.667 0 453 101 547 303s142.333 458.667 145 770
c0 160.667 -16.333 317.334 -49 470.001s-92.167 285.834 -178.5 399.501s-204.166 184.167 -353.499 211.5c-44.667 8 -90 12 -136 12c-214 0 -384.667 -84.333 -512 -253z" />
    <glyph glyph-name="Icircumflex" unicode="&#x41e;" horiz-adv-x="3068" 
d="M2879 1192c0 -177.333 -35.334 -344.167 -106.001 -500.5s-168.667 -293.166 -294 -410.499s-269.333 -208.5 -432 -273.5s-331.667 -97.5 -507 -97.5c-177.333 0 -348.166 30.5 -512.499 91.5s-310.833 147.667 -439.5 260s-229.5 245.166 -302.5 398.499
s-109.5 318.333 -109.5 495c0 236 59.333 455.167 178 657.5s279.667 362.5 483 480.5s425.333 177 666 177c175.333 0 345.833 -31.167 511.5 -93.5s313.5 -150.833 443.5 -265.5s232.667 -251 308 -409s113 -328 113 -510zM998.999 2028
c-125.333 -168 -188.002 -430.335 -188.002 -787.002c0 -8 0.666992 -19.333 2 -34s2 -25 2 -31c0 -184.667 20.333 -356 61 -514s114.834 -288.667 222.501 -392s253.5 -155 437.5 -155c270.667 0 453 101 547 303s142.333 458.667 145 770
c0 160.667 -16.333 317.334 -49 470.001s-92.167 285.834 -178.5 399.501s-204.166 184.167 -353.499 211.5c-44.667 8 -90 12 -136 12c-214 0 -384.667 -84.333 -512 -253z" />
    <glyph glyph-name="Idieresis" unicode="&#xcf;" horiz-adv-x="3219" 
d="M172 -8l0.000976562 143.004c97.333 4 168.333 15.167 213 33.5s75 50 91 95s24 116.833 24 215.5v1442c0 128 -19 212.5 -57 253.5s-116 61.5 -234 61.5h-37v148c224 -5.33301 418 -8 582 -8c63.333 0 149.5 0.666992 258.5 2s219.833 3.16602 332.5 5.5
c112.667 2.33301 191.334 3.83301 236.001 4.5c75.333 -1.33301 213 -5.16602 413 -11.5c200 -6.33301 365.333 -9.5 496 -9.5c137.333 0 311 5.66699 521 17v-148c-126 0 -212.167 -21.333 -258.5 -64s-69.5 -126.334 -69.5 -251.001v-1442
c0 -86.667 9.5 -154.334 28.5 -203.001s51.5 -83.5 97.5 -104.5s113.333 -33.167 202 -36.5v-143c-273.333 5.33301 -478.333 8 -615 8c-133.333 0 -336.666 -2.66699 -610 -8v143c101.333 7.33301 174.166 19.666 218.499 36.999s74.333 48.166 90 92.499
s23.5 115.833 23.5 214.5v1442c0 92 -6.16699 160 -18.5 204s-34.333 73.5 -66 88.5s-78.834 22.5 -141.501 22.5h-626c-78 0 -131 -22 -159 -66s-42 -127 -42 -249v-1442c0 -92 10 -161.167 30 -207.5s53.333 -78.833 100 -97.5s114 -31.667 202 -39v-143
c-273.333 5.33301 -478.333 8 -615 8c-138.667 -0 -342 -2.66699 -610 -8z" />
    <glyph glyph-name="Idieresis" unicode="&#x41f;" horiz-adv-x="3219" 
d="M172 -8l0.000976562 143.004c97.333 4 168.333 15.167 213 33.5s75 50 91 95s24 116.833 24 215.5v1442c0 128 -19 212.5 -57 253.5s-116 61.5 -234 61.5h-37v148c224 -5.33301 418 -8 582 -8c63.333 0 149.5 0.666992 258.5 2s219.833 3.16602 332.5 5.5
c112.667 2.33301 191.334 3.83301 236.001 4.5c75.333 -1.33301 213 -5.16602 413 -11.5c200 -6.33301 365.333 -9.5 496 -9.5c137.333 0 311 5.66699 521 17v-148c-126 0 -212.167 -21.333 -258.5 -64s-69.5 -126.334 -69.5 -251.001v-1442
c0 -86.667 9.5 -154.334 28.5 -203.001s51.5 -83.5 97.5 -104.5s113.333 -33.167 202 -36.5v-143c-273.333 5.33301 -478.333 8 -615 8c-133.333 0 -336.666 -2.66699 -610 -8v143c101.333 7.33301 174.166 19.666 218.499 36.999s74.333 48.166 90 92.499
s23.5 115.833 23.5 214.5v1442c0 92 -6.16699 160 -18.5 204s-34.333 73.5 -66 88.5s-78.834 22.5 -141.501 22.5h-626c-78 0 -131 -22 -159 -66s-42 -127 -42 -249v-1442c0 -92 10 -161.167 30 -207.5s53.333 -78.833 100 -97.5s114 -31.667 202 -39v-143
c-273.333 5.33301 -478.333 8 -615 8c-138.667 -0 -342 -2.66699 -610 -8z" />
    <glyph glyph-name="Eth" unicode="&#xd0;" horiz-adv-x="2499" 
d="M184 -8l0.00390625 143c115.333 12 196.166 36.167 242.499 72.5s69.5 107.833 69.5 214.5v1540c0 110 -21.667 181.333 -65 214s-125.666 54.334 -246.999 65v139c43.333 -1.33301 108.166 -3.83301 194.499 -7.5s159.5 -5.5 219.5 -5.5c54 0 132 1.5 234 4.5
s190.667 4.5 266 4.5h135c219.333 0 407.333 -17.5 564 -52.5s284 -111.833 382 -230.5c74 -92.667 111 -210 111 -352c0 -92 -17.667 -180.167 -53 -264.5s-86 -153.166 -152 -206.499c-100 -80.667 -217.333 -134.334 -352 -161.001s-290.334 -40 -467.001 -40
c-25.333 0 -61.333 0.666992 -108 2s-80.334 2 -101.001 2v-647c0 -117.333 28.167 -195.166 84.5 -233.499s148.166 -57.5 275.499 -57.5v-143c-77.333 1.33301 -196 3.66602 -356 6.99902s-278.667 5 -356 5c-175.333 0 -349 -4 -521 -12zM1057 1245h69
c166 0 291.667 24.667 377 74c63.333 34.667 110 88.667 140 162s45 154.333 45 243c0 64 -7 127 -21 189c-22.667 96.667 -72.667 170 -150 220s-168 75 -272 75h-24c-109.333 0 -164 -31.333 -164 -94v-869z" />
    <glyph glyph-name="Eth" unicode="&#x420;" horiz-adv-x="2499" 
d="M184 -8l0.00390625 143c115.333 12 196.166 36.167 242.499 72.5s69.5 107.833 69.5 214.5v1540c0 110 -21.667 181.333 -65 214s-125.666 54.334 -246.999 65v139c43.333 -1.33301 108.166 -3.83301 194.499 -7.5s159.5 -5.5 219.5 -5.5c54 0 132 1.5 234 4.5
s190.667 4.5 266 4.5h135c219.333 0 407.333 -17.5 564 -52.5s284 -111.833 382 -230.5c74 -92.667 111 -210 111 -352c0 -92 -17.667 -180.167 -53 -264.5s-86 -153.166 -152 -206.499c-100 -80.667 -217.333 -134.334 -352 -161.001s-290.334 -40 -467.001 -40
c-25.333 0 -61.333 0.666992 -108 2s-80.334 2 -101.001 2v-647c0 -117.333 28.167 -195.166 84.5 -233.499s148.166 -57.5 275.499 -57.5v-143c-77.333 1.33301 -196 3.66602 -356 6.99902s-278.667 5 -356 5c-175.333 0 -349 -4 -521 -12zM1057 1245h69
c166 0 291.667 24.667 377 74c63.333 34.667 110 88.667 140 162s45 154.333 45 243c0 64 -7 127 -21 189c-22.667 96.667 -72.667 170 -150 220s-168 75 -272 75h-24c-109.333 0 -164 -31.333 -164 -94v-869z" />
    <glyph glyph-name="Ntilde" unicode="&#xd1;" horiz-adv-x="2576" 
d="M2232 831l147.996 0.00195312v-831h-144l-82 201c-132 -88 -258.667 -153 -380 -195s-252.666 -63 -393.999 -63c-65.333 0 -114.333 1.33301 -147 4c-208.667 18.667 -394.167 82 -556.5 190s-288.333 249.333 -378 424s-134.5 366 -134.5 574l4 8l-4 4
c0 185.333 33.833 357.833 101.5 517.5s159.834 297.167 276.501 412.5s250 204.166 400 266.499s304.333 93.5 463 93.5c254 0 490.333 -76.333 709 -229l61 196h156l20 -766h-147c-34.667 114 -82 217 -142 309s-135.167 166 -225.5 222s-193.166 84 -308.499 84
c-130 0 -242.167 -32.667 -336.5 -98s-170.5 -151.166 -228.5 -257.499s-99.833 -220.666 -125.5 -342.999s-38.5 -244.5 -38.5 -366.5c0 -1.33301 0.666992 -3.33301 2 -6s2 -4.66699 2 -6c0 -123.333 12 -243.833 36 -361.5s63.833 -227.334 119.5 -329.001
s129.334 -182.834 221.001 -243.501s202.167 -92.334 331.5 -95.001h13c354 0 590 228 708 684z" />
    <glyph glyph-name="Ntilde" unicode="&#x421;" horiz-adv-x="2576" 
d="M2232 831l147.996 0.00195312v-831h-144l-82 201c-132 -88 -258.667 -153 -380 -195s-252.666 -63 -393.999 -63c-65.333 0 -114.333 1.33301 -147 4c-208.667 18.667 -394.167 82 -556.5 190s-288.333 249.333 -378 424s-134.5 366 -134.5 574l4 8l-4 4
c0 185.333 33.833 357.833 101.5 517.5s159.834 297.167 276.501 412.5s250 204.166 400 266.499s304.333 93.5 463 93.5c254 0 490.333 -76.333 709 -229l61 196h156l20 -766h-147c-34.667 114 -82 217 -142 309s-135.167 166 -225.5 222s-193.166 84 -308.499 84
c-130 0 -242.167 -32.667 -336.5 -98s-170.5 -151.166 -228.5 -257.499s-99.833 -220.666 -125.5 -342.999s-38.5 -244.5 -38.5 -366.5c0 -1.33301 0.666992 -3.33301 2 -6s2 -4.66699 2 -6c0 -123.333 12 -243.833 36 -361.5s63.833 -227.334 119.5 -329.001
s129.334 -182.834 221.001 -243.501s202.167 -92.334 331.5 -95.001h13c354 0 590 228 708 684z" />
    <glyph glyph-name="Ograve" unicode="&#xd2;" horiz-adv-x="2687" 
d="M1024 422v1761c-138 0 -243.667 -3.33301 -317 -10s-139.166 -24.334 -197.499 -53c-58.333 -28.667 -107 -75.5 -146 -140.5s-70.167 -158.167 -93.5 -279.5h-143l29 684c293.333 -14 649.666 -21 1069 -21c241.333 0 652.333 5.66699 1233 17l32 -680h-139
c-28.667 146 -70.167 253.167 -124.5 321.5s-122.333 112.333 -204 132s-193.167 29.5 -334.5 29.5h-99v-1761c0 -84 13.5 -146.167 40.5 -186.5s64.667 -66.666 113 -78.999s118.833 -20.833 211.5 -25.5v-143c-67.333 1.33301 -167.666 3.66602 -300.999 6.99902
s-232.333 5 -297 5c-76 -0 -190 -1.66699 -342 -5s-264.667 -5.66602 -338 -6.99902v143c87.333 6 154.666 15.5 201.999 28.5s83.5 39.167 108.5 78.5s37.5 100.666 37.5 183.999z" />
    <glyph glyph-name="Ograve" unicode="&#x422;" horiz-adv-x="2687" 
d="M1024 422v1761c-138 0 -243.667 -3.33301 -317 -10s-139.166 -24.334 -197.499 -53c-58.333 -28.667 -107 -75.5 -146 -140.5s-70.167 -158.167 -93.5 -279.5h-143l29 684c293.333 -14 649.666 -21 1069 -21c241.333 0 652.333 5.66699 1233 17l32 -680h-139
c-28.667 146 -70.167 253.167 -124.5 321.5s-122.333 112.333 -204 132s-193.167 29.5 -334.5 29.5h-99v-1761c0 -84 13.5 -146.167 40.5 -186.5s64.667 -66.666 113 -78.999s118.833 -20.833 211.5 -25.5v-143c-67.333 1.33301 -167.666 3.66602 -300.999 6.99902
s-232.333 5 -297 5c-76 -0 -190 -1.66699 -342 -5s-264.667 -5.66602 -338 -6.99902v143c87.333 6 154.666 15.5 201.999 28.5s83.5 39.167 108.5 78.5s37.5 100.666 37.5 183.999z" />
    <glyph glyph-name="Oacute" unicode="&#xd3;" horiz-adv-x="2728" 
d="M1323 578l-741.001 1298c-146.667 248.667 -301 373 -463 373v139c228.667 -14 425.334 -21 590.001 -21c126.667 0 343.667 5.66699 651 17v-135c-73.333 -4.66699 -137.5 -22.334 -192.5 -53.001s-82.5 -69 -82.5 -115c0 -18 8.33301 -40 25 -66l483 -868l344 778
c38.667 109.333 58 176.333 58 201c0 70.667 -79.333 111.667 -238 123v139c168 -14 289.667 -21 365 -21c46 0 179.667 5.66699 401 17v-119c-79.333 0 -145.5 -19.667 -198.5 -59s-95.333 -86.5 -127 -141.5s-71.834 -136.833 -120.5 -245.5l-668 -1434
c-75.333 -153.333 -161.333 -262.666 -258 -327.999s-208.667 -98 -336 -98c-70 0 -133.833 20.5 -191.5 61.5s-86.5 99.833 -86.5 176.5c0 74.667 22.833 134.167 68.5 178.5s99.167 66.5 160.5 66.5c47.333 0 82.5 -7 105.5 -21s53.167 -35.833 90.5 -65.5
s69 -44.5 95 -44.5c38 0 75.5 12.5 112.5 37.5s62.167 52.167 75.5 81.5z" />
    <glyph glyph-name="Oacute" unicode="&#x423;" horiz-adv-x="2728" 
d="M1323 578l-741.001 1298c-146.667 248.667 -301 373 -463 373v139c228.667 -14 425.334 -21 590.001 -21c126.667 0 343.667 5.66699 651 17v-135c-73.333 -4.66699 -137.5 -22.334 -192.5 -53.001s-82.5 -69 -82.5 -115c0 -18 8.33301 -40 25 -66l483 -868l344 778
c38.667 109.333 58 176.333 58 201c0 70.667 -79.333 111.667 -238 123v139c168 -14 289.667 -21 365 -21c46 0 179.667 5.66699 401 17v-119c-79.333 0 -145.5 -19.667 -198.5 -59s-95.333 -86.5 -127 -141.5s-71.834 -136.833 -120.5 -245.5l-668 -1434
c-75.333 -153.333 -161.333 -262.666 -258 -327.999s-208.667 -98 -336 -98c-70 0 -133.833 20.5 -191.5 61.5s-86.5 99.833 -86.5 176.5c0 74.667 22.833 134.167 68.5 178.5s99.167 66.5 160.5 66.5c47.333 0 82.5 -7 105.5 -21s53.167 -35.833 90.5 -65.5
s69 -44.5 95 -44.5c38 0 75.5 12.5 112.5 37.5s62.167 52.167 75.5 81.5z" />
    <glyph glyph-name="Ocircumflex" unicode="&#xd4;" horiz-adv-x="2879" 
d="M2023 -8c-277.333 5.33301 -485.999 8.00391 -625.999 8.00391c-139.333 0 -348.333 -2.66699 -627 -8v143c86.667 6.66699 151.834 17.167 195.501 31.5s76.834 38.666 99.501 72.999s37.667 85.5 45 153.5c-27.333 -2.66699 -68.333 -4 -123 -4
c-154.667 0 -298 29.667 -430 89s-238 148.833 -318 268.5s-120 264.167 -120 433.5c0 168.667 42.5 313.334 127.5 434.001s196.167 211.5 333.5 272.5s282.666 91.5 435.999 91.5c6 0 18 0.666992 36 2s30.667 2 38 2h20c-9.33301 97.333 -39.5 164 -90.5 200
s-134.167 54 -249.5 54v148c48.667 -0.666992 116.5 -2 203.5 -4s174 -3.83301 261 -5.5s154.833 -2.5 203.5 -2.5c42.667 0 102.167 0.666992 178.5 2s152.833 3.16602 229.5 5.49902s135.667 3.83301 177 4.5v-148c-113.333 0 -195.5 -18.167 -246.5 -54.5
s-80.5 -102.833 -88.5 -199.5h12c7.33301 0 20.666 -0.666992 39.999 -2s33.333 -2 42 -2c153.333 0 298.5 -30.5 435.5 -91.5s248.167 -151.833 333.5 -272.5s128 -265.334 128 -434.001s-40 -312.834 -120 -432.501s-186.5 -209.334 -319.5 -269.001
s-277.5 -89.5 -433.5 -89.5c-51.333 0 -90.666 1.33301 -117.999 4c4.66699 -67.333 18.667 -118.333 42 -153s56.666 -59.167 99.999 -73.5s107.666 -24.833 192.999 -31.5v-143zM1769 1827l-37.999 7c-18 3.33301 -32.333 5 -43 5v-1290
c111.333 0 201.666 32.833 270.999 98.5s118.5 148 147.5 247s43.5 202.167 43.5 309.5c0 151.333 -30 287.5 -90 408.5s-157 192.5 -291 214.5zM1028 1827c-134 -22 -231 -94.0029 -291 -216.003s-90 -257.667 -90 -407c0 -107.333 14.333 -210.666 43 -309.999
s77.667 -181.666 147 -246.999s160.333 -98 273 -98v1290c-11.333 0 -25.333 -1.66699 -42 -5s-30 -5.66602 -40 -6.99902z" />
    <glyph glyph-name="Ocircumflex" unicode="&#x424;" horiz-adv-x="2879" 
d="M2023 -8c-277.333 5.33301 -485.999 8.00391 -625.999 8.00391c-139.333 0 -348.333 -2.66699 -627 -8v143c86.667 6.66699 151.834 17.167 195.501 31.5s76.834 38.666 99.501 72.999s37.667 85.5 45 153.5c-27.333 -2.66699 -68.333 -4 -123 -4
c-154.667 0 -298 29.667 -430 89s-238 148.833 -318 268.5s-120 264.167 -120 433.5c0 168.667 42.5 313.334 127.5 434.001s196.167 211.5 333.5 272.5s282.666 91.5 435.999 91.5c6 0 18 0.666992 36 2s30.667 2 38 2h20c-9.33301 97.333 -39.5 164 -90.5 200
s-134.167 54 -249.5 54v148c48.667 -0.666992 116.5 -2 203.5 -4s174 -3.83301 261 -5.5s154.833 -2.5 203.5 -2.5c42.667 0 102.167 0.666992 178.5 2s152.833 3.16602 229.5 5.49902s135.667 3.83301 177 4.5v-148c-113.333 0 -195.5 -18.167 -246.5 -54.5
s-80.5 -102.833 -88.5 -199.5h12c7.33301 0 20.666 -0.666992 39.999 -2s33.333 -2 42 -2c153.333 0 298.5 -30.5 435.5 -91.5s248.167 -151.833 333.5 -272.5s128 -265.334 128 -434.001s-40 -312.834 -120 -432.501s-186.5 -209.334 -319.5 -269.001
s-277.5 -89.5 -433.5 -89.5c-51.333 0 -90.666 1.33301 -117.999 4c4.66699 -67.333 18.667 -118.333 42 -153s56.666 -59.167 99.999 -73.5s107.666 -24.833 192.999 -31.5v-143zM1769 1827l-37.999 7c-18 3.33301 -32.333 5 -43 5v-1290
c111.333 0 201.666 32.833 270.999 98.5s118.5 148 147.5 247s43.5 202.167 43.5 309.5c0 151.333 -30 287.5 -90 408.5s-157 192.5 -291 214.5zM1028 1827c-134 -22 -231 -94.0029 -291 -216.003s-90 -257.667 -90 -407c0 -107.333 14.333 -210.666 43 -309.999
s77.667 -181.666 147 -246.999s160.333 -98 273 -98v1290c-11.333 0 -25.333 -1.66699 -42 -5s-30 -5.66602 -40 -6.99902z" />
    <glyph glyph-name="Otilde" unicode="&#xd5;" horiz-adv-x="2916" 
d="M156 -8l-0.000976562 139.001c182 30 358 147.333 528 352l487 590l-589 803c-76 107.333 -148 191.833 -216 253.499c-68 61.667 -150.333 101.5 -247 119.5v139c228.667 -14 425.334 -21 590.001 -21c126.667 0 343.667 5.66699 651 17v-135
c-172 -11.333 -258 -53.666 -258 -126.999c0 -35.333 19 -77.666 57 -126.999l361 -500l303 369c79.333 94.667 119 173.667 119 237c0 86 -89 135.333 -267 148v139c168 -14 311.333 -21 430 -21c98.667 0 258.667 5.66699 480 17v-135c-88 -7.33301 -166 -33 -234 -77
s-123.167 -91 -165.5 -141s-108.5 -133 -198.5 -249l-361 -434l754 -1012c48.667 -66.667 96.667 -113.834 144 -141.501s111.333 -46.167 192 -55.5v-147c-252 5.33301 -444.667 8 -578 8c-156 0 -386.667 -2.66699 -692 -8v147c94 0 166.667 6.83301 218 20.5
s77 42.5 77 86.5c0 47.333 -26 104.666 -78 171.999l-381 508l-373 -459c-62.667 -76 -94 -137.333 -94 -184c0 -85.333 90 -134.666 270 -147.999v-143c-62 1.33301 -153 3.66602 -273 6.99902s-209 5 -267 5c-132 0 -261.667 -4 -389 -12z" />
    <glyph glyph-name="Otilde" unicode="&#x425;" horiz-adv-x="2916" 
d="M156 -8l-0.000976562 139.001c182 30 358 147.333 528 352l487 590l-589 803c-76 107.333 -148 191.833 -216 253.499c-68 61.667 -150.333 101.5 -247 119.5v139c228.667 -14 425.334 -21 590.001 -21c126.667 0 343.667 5.66699 651 17v-135
c-172 -11.333 -258 -53.666 -258 -126.999c0 -35.333 19 -77.666 57 -126.999l361 -500l303 369c79.333 94.667 119 173.667 119 237c0 86 -89 135.333 -267 148v139c168 -14 311.333 -21 430 -21c98.667 0 258.667 5.66699 480 17v-135c-88 -7.33301 -166 -33 -234 -77
s-123.167 -91 -165.5 -141s-108.5 -133 -198.5 -249l-361 -434l754 -1012c48.667 -66.667 96.667 -113.834 144 -141.501s111.333 -46.167 192 -55.5v-147c-252 5.33301 -444.667 8 -578 8c-156 0 -386.667 -2.66699 -692 -8v147c94 0 166.667 6.83301 218 20.5
s77 42.5 77 86.5c0 47.333 -26 104.666 -78 171.999l-381 508l-373 -459c-62.667 -76 -94 -137.333 -94 -184c0 -85.333 90 -134.666 270 -147.999v-143c-62 1.33301 -153 3.66602 -273 6.99902s-209 5 -267 5c-132 0 -261.667 -4 -389 -12z" />
    <glyph glyph-name="Odieresis" unicode="&#xd6;" horiz-adv-x="3256" 
d="M3011 135l49.0039 -691.998h-140c-30.667 156 -73.334 273.833 -128 353.5c-54.667 79.667 -125.667 133.5 -213 161.5s-205.666 42 -354.999 42h-553c-616.667 0 -1116.33 -2.66699 -1499 -8v143c97.333 4 168.333 15.167 213 33.5s75 50 91 95s24 116.833 24 215.5
v1442c0 128 -19 212.5 -57 253.5s-116 61.5 -234 61.5h-37v148c44.667 -0.666992 106.667 -2.16699 186 -4.5s158.333 -4.16602 237 -5.49902s141 -2 187 -2c44 0 106.167 0.833008 186.5 2.5s160.166 3.5 239.499 5.5s142.333 3.33301 189 4v-148h-17
c-114 0 -195 -23.833 -243 -71.5s-72 -128.834 -72 -243.501v-1442c0 -128.667 18.667 -218.167 56 -268.5s104.666 -75.5 201.999 -75.5h569c67.333 0 116.833 9 148.5 27s52.5 50.5 62.5 97.5s15 120.167 15 219.5v1442c0 92.667 -8.83301 160.5 -26.5 203.5
s-49.334 72 -95.001 87s-115.834 23.167 -210.501 24.5v148c78 -1.33301 192.833 -4.5 344.5 -9.5s277.167 -7.5 376.5 -7.5c103.333 0 271.333 5.66699 504 17v-148c-126 0 -212.167 -21.333 -258.5 -64s-69.5 -126.334 -69.5 -251.001v-1442
c0 -86.667 9.5 -154.334 28.5 -203.001s51.5 -83.5 97.5 -104.5s113.333 -33.167 202 -36.5z" />
    <glyph glyph-name="Odieresis" unicode="&#x426;" horiz-adv-x="3256" 
d="M3011 135l49.0039 -691.998h-140c-30.667 156 -73.334 273.833 -128 353.5c-54.667 79.667 -125.667 133.5 -213 161.5s-205.666 42 -354.999 42h-553c-616.667 0 -1116.33 -2.66699 -1499 -8v143c97.333 4 168.333 15.167 213 33.5s75 50 91 95s24 116.833 24 215.5
v1442c0 128 -19 212.5 -57 253.5s-116 61.5 -234 61.5h-37v148c44.667 -0.666992 106.667 -2.16699 186 -4.5s158.333 -4.16602 237 -5.49902s141 -2 187 -2c44 0 106.167 0.833008 186.5 2.5s160.166 3.5 239.499 5.5s142.333 3.33301 189 4v-148h-17
c-114 0 -195 -23.833 -243 -71.5s-72 -128.834 -72 -243.501v-1442c0 -128.667 18.667 -218.167 56 -268.5s104.666 -75.5 201.999 -75.5h569c67.333 0 116.833 9 148.5 27s52.5 50.5 62.5 97.5s15 120.167 15 219.5v1442c0 92.667 -8.83301 160.5 -26.5 203.5
s-49.334 72 -95.001 87s-115.834 23.167 -210.501 24.5v148c78 -1.33301 192.833 -4.5 344.5 -9.5s277.167 -7.5 376.5 -7.5c103.333 0 271.333 5.66699 504 17v-148c-126 0 -212.167 -21.333 -258.5 -64s-69.5 -126.334 -69.5 -251.001v-1442
c0 -86.667 9.5 -154.334 28.5 -203.001s51.5 -83.5 97.5 -104.5s113.333 -33.167 202 -36.5z" />
    <glyph glyph-name="multiply" unicode="&#xd7;" horiz-adv-x="3142" 
d="M500 1544l0.00390625 377.002c0 128 -19 212.5 -57 253.5s-116 61.5 -234 61.5h-37v148c44.667 -0.666992 106.667 -2.16699 186 -4.5s158.333 -4.16602 237 -5.5c78.667 -1.33301 141 -2 187 -2c44 0 106.167 0.833008 186.5 2.5s160.166 3.5 239.499 5.5
s142.333 3.33301 189 4v-148h-17c-114 0 -195 -23.833 -243 -71.5s-72 -128.834 -72 -243.501v-385c0 -135.333 54.667 -229.666 164 -282.999c82.667 -38 163 -57 241 -57c170.667 0 359.334 73.667 566.001 221v504c0 92.667 -8.83301 160.5 -26.5 203.5
s-49.334 72 -95.001 87s-115.834 23.167 -210.501 24.5v148c80.667 -1.33301 196.167 -4.5 346.5 -9.5s275.166 -7.5 374.499 -7.5c100.667 0 270 5.66699 508 17v-148c-127.333 0 -214.5 -21.333 -261.5 -64s-70.5 -126.334 -70.5 -251.001v-1442
c0 -87.333 9.66699 -155.166 29 -203.499s52.333 -83 99 -104s114.667 -33.167 204 -36.5v-143c-278.667 5.33301 -485 8 -619 8c-133.333 0 -336.666 -2.66699 -609.999 -8v143c101.333 7.33301 174.166 19.666 218.499 36.999s74.333 48.166 90 92.499
s23.5 115.833 23.5 214.5v750c-286 -240.667 -555 -361 -807 -361c-164.667 0 -328.667 54.667 -492 164c-70.667 47.333 -127.834 116.5 -171.501 207.5s-65.5 192.5 -65.5 304.5z" />
    <glyph glyph-name="multiply" unicode="&#x427;" horiz-adv-x="3142" 
d="M500 1544l0.00390625 377.002c0 128 -19 212.5 -57 253.5s-116 61.5 -234 61.5h-37v148c44.667 -0.666992 106.667 -2.16699 186 -4.5s158.333 -4.16602 237 -5.5c78.667 -1.33301 141 -2 187 -2c44 0 106.167 0.833008 186.5 2.5s160.166 3.5 239.499 5.5
s142.333 3.33301 189 4v-148h-17c-114 0 -195 -23.833 -243 -71.5s-72 -128.834 -72 -243.501v-385c0 -135.333 54.667 -229.666 164 -282.999c82.667 -38 163 -57 241 -57c170.667 0 359.334 73.667 566.001 221v504c0 92.667 -8.83301 160.5 -26.5 203.5
s-49.334 72 -95.001 87s-115.834 23.167 -210.501 24.5v148c80.667 -1.33301 196.167 -4.5 346.5 -9.5s275.166 -7.5 374.499 -7.5c100.667 0 270 5.66699 508 17v-148c-127.333 0 -214.5 -21.333 -261.5 -64s-70.5 -126.334 -70.5 -251.001v-1442
c0 -87.333 9.66699 -155.166 29 -203.499s52.333 -83 99 -104s114.667 -33.167 204 -36.5v-143c-278.667 5.33301 -485 8 -619 8c-133.333 0 -336.666 -2.66699 -609.999 -8v143c101.333 7.33301 174.166 19.666 218.499 36.999s74.333 48.166 90 92.499
s23.5 115.833 23.5 214.5v750c-286 -240.667 -555 -361 -807 -361c-164.667 0 -328.667 54.667 -492 164c-70.667 47.333 -127.834 116.5 -171.501 207.5s-65.5 192.5 -65.5 304.5z" />
    <glyph glyph-name="Oslash" unicode="&#xd8;" horiz-adv-x="3752" 
d="M172 -8l-0.000976562 143c97.333 4 168.333 15.167 213 33.5s75 50 91 95s24 116.833 24 215.5v1442c0 128 -19 212.5 -57 253.5s-116 61.5 -234 61.5h-37v148c224 -5.33301 371.333 -8 442 -8c39.333 0 98 0.833008 176 2.5s154 3.5 228 5.5s140.333 3.33301 199 4v-152
h-21c-54.667 0 -90.167 -21.833 -106.5 -65.5s-24.5 -126.834 -24.5 -249.501v-1442c0 -144.667 8.33301 -237.667 25 -279s59 -63 127 -65h200c46.667 1.33301 80.834 11.333 102.501 30s36 51.167 43 97.5s10.5 118.5 10.5 216.5v1442
c0 120.667 -9.16699 203.334 -27.5 248.001s-55.5 67 -111.5 67h-17v148c51.333 -0.666992 94 -1.66699 128 -3s88.333 -3.16602 163 -5.5c74.667 -2.33301 123.667 -3.5 147 -3.5c22 0 69.667 1.16699 143 3.5s127.5 4.16602 162.5 5.49902s78.167 2.33301 129.5 3v-148
h-17c-56 0 -92.5 -20.333 -109.5 -61s-25.5 -120 -25.5 -238v-1462c0 -96.667 3.33301 -168 10 -214s20.667 -78.167 42 -96.5s54.666 -28.166 100 -29.499h209c46.667 1.33301 80 11.166 100 29.499s32.833 49.833 38.5 94.5s8.5 118 8.5 220v1442
c0 122.667 -8.33301 205.834 -25 249.501s-53.334 65.5 -110 65.5h-12v152c54.667 -0.666992 119.167 -2 193.5 -4s149.666 -3.83301 226 -5.5c76.333 -1.66699 134.166 -2.5 173.5 -2.5c71.333 0 221.666 2.66699 451 8v-148h-45c-118.667 0 -196.167 -20.333 -232.5 -61
s-54.5 -125.334 -54.5 -254v-1442c0 -98.667 8 -170.5 24 -215.5s46.667 -76.667 92 -95s117.333 -29.5 216 -33.5v-143c-388 5.33301 -646 8 -774 8h-664c-120.667 -0 -371.667 -2.66699 -753 -8c-273.333 5.33301 -470 8 -590 8c-125.333 -0 -322 -2.66699 -590 -8z" />
    <glyph glyph-name="Oslash" unicode="&#x428;" horiz-adv-x="3752" 
d="M172 -8l-0.000976562 143c97.333 4 168.333 15.167 213 33.5s75 50 91 95s24 116.833 24 215.5v1442c0 128 -19 212.5 -57 253.5s-116 61.5 -234 61.5h-37v148c224 -5.33301 371.333 -8 442 -8c39.333 0 98 0.833008 176 2.5s154 3.5 228 5.5s140.333 3.33301 199 4v-152
h-21c-54.667 0 -90.167 -21.833 -106.5 -65.5s-24.5 -126.834 -24.5 -249.501v-1442c0 -144.667 8.33301 -237.667 25 -279s59 -63 127 -65h200c46.667 1.33301 80.834 11.333 102.501 30s36 51.167 43 97.5s10.5 118.5 10.5 216.5v1442
c0 120.667 -9.16699 203.334 -27.5 248.001s-55.5 67 -111.5 67h-17v148c51.333 -0.666992 94 -1.66699 128 -3s88.333 -3.16602 163 -5.5c74.667 -2.33301 123.667 -3.5 147 -3.5c22 0 69.667 1.16699 143 3.5s127.5 4.16602 162.5 5.49902s78.167 2.33301 129.5 3v-148
h-17c-56 0 -92.5 -20.333 -109.5 -61s-25.5 -120 -25.5 -238v-1462c0 -96.667 3.33301 -168 10 -214s20.667 -78.167 42 -96.5s54.666 -28.166 100 -29.499h209c46.667 1.33301 80 11.166 100 29.499s32.833 49.833 38.5 94.5s8.5 118 8.5 220v1442
c0 122.667 -8.33301 205.834 -25 249.501s-53.334 65.5 -110 65.5h-12v152c54.667 -0.666992 119.167 -2 193.5 -4s149.666 -3.83301 226 -5.5c76.333 -1.66699 134.166 -2.5 173.5 -2.5c71.333 0 221.666 2.66699 451 8v-148h-45c-118.667 0 -196.167 -20.333 -232.5 -61
s-54.5 -125.334 -54.5 -254v-1442c0 -98.667 8 -170.5 24 -215.5s46.667 -76.667 92 -95s117.333 -29.5 216 -33.5v-143c-388 5.33301 -646 8 -774 8h-664c-120.667 -0 -371.667 -2.66699 -753 -8c-273.333 5.33301 -470 8 -590 8c-125.333 -0 -322 -2.66699 -590 -8z" />
    <glyph glyph-name="Ugrave" unicode="&#xd9;" horiz-adv-x="3789" 
d="M3543 135l44.998 -692h-139c-29.333 155.333 -71.666 273 -127 353c-55.333 80 -127.666 134 -217 162c-89.333 28 -209.666 42 -360.999 42h-168c4 0 8.5 0.5 13.5 1.5s8.83301 1.83301 11.5 2.5c-5.33301 -0.666992 -20 -1.5 -44 -2.5s-62.667 -1.5 -116 -1.5h-336
c-120.667 -0 -371.667 -2.66699 -753 -8c-273.333 5.33301 -470 8 -590 8c-125.333 -0 -322 -2.66699 -590 -8v143c97.333 4 168.333 15.167 213 33.5s75 50 91 95s24 116.833 24 215.5v1442c0 128 -19 212.5 -57 253.5s-116 61.5 -234 61.5h-37v148
c224 -5.33301 371.333 -8 442 -8c39.333 0 98 0.833008 176 2.5s154 3.5 228 5.5s140.333 3.33301 199 4v-152h-21c-54.667 0 -90.167 -21.833 -106.5 -65.5s-24.5 -126.834 -24.5 -249.501v-1442c0 -144.667 8.33301 -237.667 25 -279s59 -63 127 -65h200
c46.667 1.33301 80.834 11.333 102.501 30s36 51.167 43 97.5s10.5 118.5 10.5 216.5v1442c0 120.667 -9.16699 203.334 -27.5 248.001s-55.5 67 -111.5 67h-17v148c51.333 -0.666992 94 -1.66699 128 -3s88.333 -3.16602 163 -5.5c74.667 -2.33301 123.667 -3.5 147 -3.5
c22 0 69.667 1.16699 143 3.5s127.5 4.16602 162.5 5.49902s78.167 2.33301 129.5 3v-148h-17c-56 0 -92.5 -20.333 -109.5 -61s-25.5 -120 -25.5 -238v-1462c0 -96.667 3.33301 -168 10 -214s20.667 -78.167 42 -96.5s54.666 -28.166 100 -29.499h209
c46.667 1.33301 80 11.166 100 29.499s32.833 49.833 38.5 94.5s8.5 118 8.5 220v1442c0 122.667 -8.33301 205.834 -25 249.501s-53.334 65.5 -110 65.5h-12v152c54.667 -0.666992 119.167 -2 193.5 -4s149.666 -3.83301 226 -5.5c76.333 -1.66699 134.166 -2.5 173.5 -2.5
c71.333 0 221.666 2.66699 451 8v-148h-45c-118.667 0 -196.167 -20.333 -232.5 -61s-54.5 -125.334 -54.5 -254v-1442c0 -98.667 8 -170.5 24 -215.5s46.667 -76.667 92 -95s117.333 -29.5 216 -33.5z" />
    <glyph glyph-name="Ugrave" unicode="&#x429;" horiz-adv-x="3789" 
d="M3543 135l44.998 -692h-139c-29.333 155.333 -71.666 273 -127 353c-55.333 80 -127.666 134 -217 162c-89.333 28 -209.666 42 -360.999 42h-168c4 0 8.5 0.5 13.5 1.5s8.83301 1.83301 11.5 2.5c-5.33301 -0.666992 -20 -1.5 -44 -2.5s-62.667 -1.5 -116 -1.5h-336
c-120.667 -0 -371.667 -2.66699 -753 -8c-273.333 5.33301 -470 8 -590 8c-125.333 -0 -322 -2.66699 -590 -8v143c97.333 4 168.333 15.167 213 33.5s75 50 91 95s24 116.833 24 215.5v1442c0 128 -19 212.5 -57 253.5s-116 61.5 -234 61.5h-37v148
c224 -5.33301 371.333 -8 442 -8c39.333 0 98 0.833008 176 2.5s154 3.5 228 5.5s140.333 3.33301 199 4v-152h-21c-54.667 0 -90.167 -21.833 -106.5 -65.5s-24.5 -126.834 -24.5 -249.501v-1442c0 -144.667 8.33301 -237.667 25 -279s59 -63 127 -65h200
c46.667 1.33301 80.834 11.333 102.501 30s36 51.167 43 97.5s10.5 118.5 10.5 216.5v1442c0 120.667 -9.16699 203.334 -27.5 248.001s-55.5 67 -111.5 67h-17v148c51.333 -0.666992 94 -1.66699 128 -3s88.333 -3.16602 163 -5.5c74.667 -2.33301 123.667 -3.5 147 -3.5
c22 0 69.667 1.16699 143 3.5s127.5 4.16602 162.5 5.49902s78.167 2.33301 129.5 3v-148h-17c-56 0 -92.5 -20.333 -109.5 -61s-25.5 -120 -25.5 -238v-1462c0 -96.667 3.33301 -168 10 -214s20.667 -78.167 42 -96.5s54.666 -28.166 100 -29.499h209
c46.667 1.33301 80 11.166 100 29.499s32.833 49.833 38.5 94.5s8.5 118 8.5 220v1442c0 122.667 -8.33301 205.834 -25 249.501s-53.334 65.5 -110 65.5h-12v152c54.667 -0.666992 119.167 -2 193.5 -4s149.666 -3.83301 226 -5.5c76.333 -1.66699 134.166 -2.5 173.5 -2.5
c71.333 0 221.666 2.66699 451 8v-148h-45c-118.667 0 -196.167 -20.333 -232.5 -61s-54.5 -125.334 -54.5 -254v-1442c0 -98.667 8 -170.5 24 -215.5s46.667 -76.667 92 -95s117.333 -29.5 216 -33.5z" />
    <glyph glyph-name="Uacute" unicode="&#xda;" horiz-adv-x="2994" 
d="M1815 2384v-148.002h-17c-113.333 0 -193.5 -23.667 -240.5 -71s-70.5 -128.666 -70.5 -243.999v-578c328 -2 592 -35.833 792 -101.5s341.333 -158.5 424 -278.5c57.333 -85.333 86 -189.333 86 -312c0 -153.333 -42.333 -279 -127 -377
c-68 -76.667 -150 -135.667 -246 -177s-197.167 -69.166 -303.5 -83.499s-220.833 -21.5 -343.5 -21.5h-122c-252 5.33301 -439.333 8 -562 8c-162 0 -323 -4 -483 -12v151c128.667 7.33301 216.167 32 262.5 74s69.5 126.667 69.5 254v1475c0 158 -47.667 237 -143 237h-5
c-154.667 -4 -271 -39.167 -349 -105.5s-133.667 -190.833 -167 -373.5h-143l29 684c386 -14 631.667 -21 737 -21c94 0 227.167 2.66699 399.5 8s346.5 9.66602 522.5 13zM2036 265.998c84.667 80.667 127.003 207.666 127.003 380.999
c0 115.333 -19.333 213.666 -58 294.999c-38.667 90.667 -100.334 151.5 -185.001 182.5s-185.334 46.5 -302.001 46.5h-131v-593c0 -95.333 7.66699 -175.666 23 -240.999s51.333 -110.666 108 -135.999c47.333 -22 97.666 -33 150.999 -33
c111.333 0 200.333 32.667 267 98z" />
    <glyph glyph-name="Uacute" unicode="&#x42a;" horiz-adv-x="2994" 
d="M1815 2384v-148.002h-17c-113.333 0 -193.5 -23.667 -240.5 -71s-70.5 -128.666 -70.5 -243.999v-578c328 -2 592 -35.833 792 -101.5s341.333 -158.5 424 -278.5c57.333 -85.333 86 -189.333 86 -312c0 -153.333 -42.333 -279 -127 -377
c-68 -76.667 -150 -135.667 -246 -177s-197.167 -69.166 -303.5 -83.499s-220.833 -21.5 -343.5 -21.5h-122c-252 5.33301 -439.333 8 -562 8c-162 0 -323 -4 -483 -12v151c128.667 7.33301 216.167 32 262.5 74s69.5 126.667 69.5 254v1475c0 158 -47.667 237 -143 237h-5
c-154.667 -4 -271 -39.167 -349 -105.5s-133.667 -190.833 -167 -373.5h-143l29 684c386 -14 631.667 -21 737 -21c94 0 227.167 2.66699 399.5 8s346.5 9.66602 522.5 13zM2036 265.998c84.667 80.667 127.003 207.666 127.003 380.999
c0 115.333 -19.333 213.666 -58 294.999c-38.667 90.667 -100.334 151.5 -185.001 182.5s-185.334 46.5 -302.001 46.5h-131v-593c0 -95.333 7.66699 -175.666 23 -240.999s51.333 -110.666 108 -135.999c47.333 -22 97.666 -33 150.999 -33
c111.333 0 200.333 32.667 267 98z" />
    <glyph glyph-name="Ucircumflex" unicode="&#xdb;" horiz-adv-x="3789" 
d="M1057 1913v-570.002c234 0 432.167 -14.667 594.5 -44s292.5 -71.166 390.5 -125.499s175 -121.833 231 -202.5c57.333 -85.333 86 -192 86 -320c0 -155.333 -41 -281 -123 -377c-68 -76.667 -150 -135.667 -246 -177s-197.167 -69.166 -303.5 -83.499
s-220.833 -21.5 -343.5 -21.5h-126c-246.667 5.33301 -434 8 -562 8c-158 0 -319 -4 -483 -12v151c130.667 7.33301 219.334 32 266.001 74s70 126.667 70 254v1487c0 81.333 -10.833 142 -32.5 182s-55 67.333 -100 82s-110.167 23.667 -195.5 27v147
c86.667 -1.33301 157.667 -2.83301 213 -4.5s122 -3.5 200 -5.5s149.667 -3.5 215 -4.5s119.666 -1.5 162.999 -1.5c92 0 234 2.66699 426 8v-148h-17c-114.667 0 -197.167 -24.833 -247.5 -74.5s-75.5 -132.5 -75.5 -248.5zM2343 2384
c82 -1.33301 197.833 -4.49805 347.5 -9.49805s274.167 -7.5 373.5 -7.5c100.667 0 270 5.66699 508 17v-148c-127.333 0 -214.5 -21.333 -261.5 -64s-70.5 -126.334 -70.5 -251.001v-1442c0 -87.333 9.66699 -155.166 29 -203.499s52.333 -83 99 -104
s114.667 -33.167 204 -36.5v-143c-278.667 5.33301 -483.667 8 -615 8c-136 -0 -340.667 -2.66699 -614 -8v143c101.333 7.33301 174.166 19.666 218.5 36.999c44.333 17.333 74.333 48.166 90 92.499s23.5 115.833 23.5 214.5v1442c0 92.667 -8.83301 160.5 -26.5 203.5
s-49.334 72 -95 87c-45.667 15 -115.834 23.167 -210.5 24.5v148zM1192 201c47.333 -22 97.668 -33.001 151.001 -33.001c111.333 0 200.333 32.667 267 98c84.667 80.667 127 207.667 127 381c0 115.333 -19.333 213.666 -58 294.999
c-38.667 90.667 -100.334 151.5 -185.001 182.5s-185.334 46.5 -302.001 46.5h-135v-593c0 -95.333 7.83301 -175.666 23.5 -240.999s52.834 -110.666 111.501 -135.999z" />
    <glyph glyph-name="Ucircumflex" unicode="&#x42b;" horiz-adv-x="3789" 
d="M1057 1913v-570.002c234 0 432.167 -14.667 594.5 -44s292.5 -71.166 390.5 -125.499s175 -121.833 231 -202.5c57.333 -85.333 86 -192 86 -320c0 -155.333 -41 -281 -123 -377c-68 -76.667 -150 -135.667 -246 -177s-197.167 -69.166 -303.5 -83.499
s-220.833 -21.5 -343.5 -21.5h-126c-246.667 5.33301 -434 8 -562 8c-158 0 -319 -4 -483 -12v151c130.667 7.33301 219.334 32 266.001 74s70 126.667 70 254v1487c0 81.333 -10.833 142 -32.5 182s-55 67.333 -100 82s-110.167 23.667 -195.5 27v147
c86.667 -1.33301 157.667 -2.83301 213 -4.5s122 -3.5 200 -5.5s149.667 -3.5 215 -4.5s119.666 -1.5 162.999 -1.5c92 0 234 2.66699 426 8v-148h-17c-114.667 0 -197.167 -24.833 -247.5 -74.5s-75.5 -132.5 -75.5 -248.5zM2343 2384
c82 -1.33301 197.833 -4.49805 347.5 -9.49805s274.167 -7.5 373.5 -7.5c100.667 0 270 5.66699 508 17v-148c-127.333 0 -214.5 -21.333 -261.5 -64s-70.5 -126.334 -70.5 -251.001v-1442c0 -87.333 9.66699 -155.166 29 -203.499s52.333 -83 99 -104
s114.667 -33.167 204 -36.5v-143c-278.667 5.33301 -483.667 8 -615 8c-136 -0 -340.667 -2.66699 -614 -8v143c101.333 7.33301 174.166 19.666 218.5 36.999c44.333 17.333 74.333 48.166 90 92.499s23.5 115.833 23.5 214.5v1442c0 92.667 -8.83301 160.5 -26.5 203.5
s-49.334 72 -95 87c-45.667 15 -115.834 23.167 -210.5 24.5v148zM1192 201c47.333 -22 97.668 -33.001 151.001 -33.001c111.333 0 200.333 32.667 267 98c84.667 80.667 127 207.667 127 381c0 115.333 -19.333 213.666 -58 294.999
c-38.667 90.667 -100.334 151.5 -185.001 182.5s-185.334 46.5 -302.001 46.5h-135v-593c0 -95.333 7.83301 -175.666 23.5 -240.999s52.834 -110.666 111.501 -135.999z" />
    <glyph glyph-name="Udieresis" unicode="&#xdc;" horiz-adv-x="2576" 
d="M1057 1913v-570.003c642 0 1051.67 -126.667 1229 -380c54 -83.333 81 -184.666 81 -303.999c0 -155.333 -43.667 -283.666 -131 -384.999c-68 -76.667 -150 -135.667 -246 -177s-197.167 -69.166 -303.5 -83.499s-220.833 -21.5 -343.5 -21.5h-126
c-246.667 5.33301 -434 8 -562 8c-158 0 -319 -4 -483 -12v151c130.667 7.33301 219.334 32 266.001 74s70 126.667 70 254v1487c0 81.333 -10.833 142 -32.5 182s-55 67.333 -100 82s-110.167 23.667 -195.5 27v147c86.667 -1.33301 157.667 -2.83301 213 -4.5
s122 -3.5 200 -5.5s149.667 -3.5 215 -4.5s119.666 -1.5 162.999 -1.5c92 0 234 2.66699 426 8v-148h-17c-114.667 0 -197.167 -24.833 -247.5 -74.5s-75.5 -132.5 -75.5 -248.5zM1679 941.997c-38.667 90.667 -100.332 151.499 -184.999 182.499
s-185.334 46.5 -302.001 46.5h-135v-593c0 -95.333 7.83301 -175.666 23.5 -240.999s52.834 -110.666 111.501 -135.999c47.333 -22 97.666 -33 150.999 -33c111.333 0 200.333 32.667 267 98c84.667 80.667 127 207.667 127 381c0 115.333 -19.333 213.666 -58 294.999z
" />
    <glyph glyph-name="Udieresis" unicode="&#x42c;" horiz-adv-x="2576" 
d="M1057 1913v-570.003c642 0 1051.67 -126.667 1229 -380c54 -83.333 81 -184.666 81 -303.999c0 -155.333 -43.667 -283.666 -131 -384.999c-68 -76.667 -150 -135.667 -246 -177s-197.167 -69.166 -303.5 -83.499s-220.833 -21.5 -343.5 -21.5h-126
c-246.667 5.33301 -434 8 -562 8c-158 0 -319 -4 -483 -12v151c130.667 7.33301 219.334 32 266.001 74s70 126.667 70 254v1487c0 81.333 -10.833 142 -32.5 182s-55 67.333 -100 82s-110.167 23.667 -195.5 27v147c86.667 -1.33301 157.667 -2.83301 213 -4.5
s122 -3.5 200 -5.5s149.667 -3.5 215 -4.5s119.666 -1.5 162.999 -1.5c92 0 234 2.66699 426 8v-148h-17c-114.667 0 -197.167 -24.833 -247.5 -74.5s-75.5 -132.5 -75.5 -248.5zM1679 941.997c-38.667 90.667 -100.332 151.499 -184.999 182.499
s-185.334 46.5 -302.001 46.5h-135v-593c0 -95.333 7.83301 -175.666 23.5 -240.999s52.834 -110.666 111.501 -135.999c47.333 -22 97.666 -33 150.999 -33c111.333 0 200.333 32.667 267 98c84.667 80.667 127 207.667 127 381c0 115.333 -19.333 213.666 -58 294.999z
" />
    <glyph glyph-name="Yacute" unicode="&#xdd;" horiz-adv-x="2765" 
d="M336 831l151.003 0.000976562c114 -456 349 -684 705 -684h12c164.667 2 299.167 51 403.5 147s180.166 218 227.499 366s73.333 303.333 78 466h-975v181h967c-11.333 161.333 -42 313.166 -92 455.499s-126.5 259.666 -229.5 351.999s-233.5 138.5 -391.5 138.5
c-116 0 -219.667 -28 -311 -84s-167 -130.167 -227 -222.5s-106 -195.166 -138 -308.499h-151l24 766h156l57 -196c218 152.667 453 229 705 229c159.333 0 314.166 -31.333 464.499 -94s284.333 -151.667 401.999 -267c117.667 -115.333 210.167 -252.5 277.5 -411.5
s101 -331.5 101 -517.5v-12c0 -209.333 -44.5 -401 -133.5 -575s-214.5 -315 -376.5 -423s-347 -171.333 -555 -190c-35.333 -2.66699 -86 -4 -152 -4c-140 0 -271 21 -393 63s-249 107 -381 195l-78 -201h-147v831z" />
    <glyph glyph-name="Yacute" unicode="&#x42d;" horiz-adv-x="2765" 
d="M336 831l151.003 0.000976562c114 -456 349 -684 705 -684h12c164.667 2 299.167 51 403.5 147s180.166 218 227.499 366s73.333 303.333 78 466h-975v181h967c-11.333 161.333 -42 313.166 -92 455.499s-126.5 259.666 -229.5 351.999s-233.5 138.5 -391.5 138.5
c-116 0 -219.667 -28 -311 -84s-167 -130.167 -227 -222.5s-106 -195.166 -138 -308.499h-151l24 766h156l57 -196c218 152.667 453 229 705 229c159.333 0 314.166 -31.333 464.499 -94s284.333 -151.667 401.999 -267c117.667 -115.333 210.167 -252.5 277.5 -411.5
s101 -331.5 101 -517.5v-12c0 -209.333 -44.5 -401 -133.5 -575s-214.5 -315 -376.5 -423s-347 -171.333 -555 -190c-35.333 -2.66699 -86 -4 -152 -4c-140 0 -271 21 -393 63s-249 107 -381 195l-78 -201h-147v831z" />
    <glyph glyph-name="Thorn" unicode="&#xde;" horiz-adv-x="3752" 
d="M1315 1126l-249.997 0.00195312v-647c0 -92 10 -161.167 30 -207.5s53.333 -78.833 100 -97.5s114 -31.667 202 -39v-143c-273.333 5.33301 -478.333 8 -615 8c-138.667 0 -342 -2.66699 -610 -8v143c97.333 4 168.333 15.167 213 33.5s75 50 91 95s24 116.833 24 215.5
v1442c0 128 -19 212.5 -57 253.5s-116 61.5 -234 61.5h-37v148c44.667 -0.666992 106.667 -2.16699 186 -4.5s158.333 -4.16602 237 -5.5c78.667 -1.33301 141 -2 187 -2c44 0 106.167 0.833008 186.5 2.5s160.166 3.5 239.499 5.5s142.333 3.33301 189 4v-148h-17
c-114 0 -195 -23.833 -243 -71.5s-72 -128.834 -72 -243.501v-614h254c20 215.333 81.167 411.666 183.5 588.999s234.333 317.333 396 420s337.167 154 526.5 154c145.333 0 286.666 -31 424 -93c137.333 -62 260.333 -150.5 369 -265.5s194.167 -251.667 256.5 -410
s93.5 -328.166 93.5 -509.499c0 -236 -51.333 -452.333 -154 -649s-239.334 -351.334 -410 -464.001c-170.667 -112.667 -354 -169 -550 -169c-146 0 -286.5 29.333 -421.5 88s-256.833 143.5 -365.5 254.5s-193.834 241 -255.501 390s-93.834 310.167 -96.501 483.5z
M2036 2028c-96 -168.667 -143.998 -427 -143.998 -775c0 -7.33301 0.666992 -20 2 -38s2 -31 2 -39c7.33301 -707.333 191.666 -1061 552.999 -1061c210 0 350.667 99.667 422 299s109.666 457.333 114.999 774c0 263.333 -33 496 -99 698s-183.333 323 -352 363
c-32 8 -70 12 -114 12c-164.667 0 -293 -77.667 -385 -233z" />
    <glyph glyph-name="Thorn" unicode="&#x42e;" horiz-adv-x="3752" 
d="M1315 1126l-249.997 0.00195312v-647c0 -92 10 -161.167 30 -207.5s53.333 -78.833 100 -97.5s114 -31.667 202 -39v-143c-273.333 5.33301 -478.333 8 -615 8c-138.667 0 -342 -2.66699 -610 -8v143c97.333 4 168.333 15.167 213 33.5s75 50 91 95s24 116.833 24 215.5
v1442c0 128 -19 212.5 -57 253.5s-116 61.5 -234 61.5h-37v148c44.667 -0.666992 106.667 -2.16699 186 -4.5s158.333 -4.16602 237 -5.5c78.667 -1.33301 141 -2 187 -2c44 0 106.167 0.833008 186.5 2.5s160.166 3.5 239.499 5.5s142.333 3.33301 189 4v-148h-17
c-114 0 -195 -23.833 -243 -71.5s-72 -128.834 -72 -243.501v-614h254c20 215.333 81.167 411.666 183.5 588.999s234.333 317.333 396 420s337.167 154 526.5 154c145.333 0 286.666 -31 424 -93c137.333 -62 260.333 -150.5 369 -265.5s194.167 -251.667 256.5 -410
s93.5 -328.166 93.5 -509.499c0 -236 -51.333 -452.333 -154 -649s-239.334 -351.334 -410 -464.001c-170.667 -112.667 -354 -169 -550 -169c-146 0 -286.5 29.333 -421.5 88s-256.833 143.5 -365.5 254.5s-193.834 241 -255.501 390s-93.834 310.167 -96.501 483.5z
M2036 2028c-96 -168.667 -143.998 -427 -143.998 -775c0 -7.33301 0.666992 -20 2 -38s2 -31 2 -39c7.33301 -707.333 191.666 -1061 552.999 -1061c210 0 350.667 99.667 422 299s109.666 457.333 114.999 774c0 263.333 -33 496 -99 698s-183.333 323 -352 363
c-32 8 -70 12 -114 12c-164.667 0 -293 -77.667 -385 -233z" />
    <glyph glyph-name="germandbls" unicode="&#xdf;" horiz-adv-x="2843" 
d="M2646 -8c-229.333 5.33301 -406.664 7.99902 -531.997 7.99902c-162 0 -403.667 -2.66699 -725 -8v147c92 3.33301 161.333 12.333 208 27s81.667 44.834 105 90.501s35 114.5 35 206.5v610c-88 0 -151.333 -17.333 -190 -52s-94.334 -104.667 -167.001 -210l-573 -819
c-130.667 5.33301 -233 8 -307 8c-47.333 -0 -118.333 -1.66699 -213 -5s-164.334 -5.66602 -209.001 -6.99902v131c124 23.333 234.667 101 332 233l344 484c75.333 107.333 131.333 183.666 168 228.999s85.667 86.333 147 123c-244.667 40 -415.334 138.333 -512.001 295
c-57.333 93.333 -86 193 -86 299c0 163.333 54.667 297 164 401c154.667 142 427.667 213 819 213c56 0 138.333 -1.83301 247 -5.5s176.667 -5.83398 204 -6.5c30 0 76.333 -1.33301 139 -4s109 -4 139 -4c34 0 81 0.666992 141 2s120 3.16602 180 5.49902
s107.333 3.83301 142 4.5v-143c-92 -1.33301 -163.167 -7.5 -213.5 -18.5s-88.833 -36 -115.5 -75s-40 -100.833 -40 -185.5c0 -1.33301 0.666992 -3.33301 2 -6s2 -4.66699 2 -6v-1471c0 -97.333 10.667 -169.666 32 -216.999s57.166 -79.5 107.5 -96.5
c50.333 -17 125.5 -27.167 225.5 -30.5v-147zM1737 1237l0.00195312 852.001c0 83.333 -33 128.333 -99 135h-86c-196.667 0 -330.334 -61.333 -401.001 -184c-52 -91.333 -78 -195 -78 -311c0 -110.667 24.667 -210.334 74 -299.001
c46 -81.333 110.167 -134.5 192.5 -159.5s183.166 -37.5 302.499 -37.5c9.33301 0 25 0.666992 47 2s38 2 48 2z" />
    <glyph glyph-name="germandbls" unicode="&#x42f;" horiz-adv-x="2843" 
d="M2646 -8c-229.333 5.33301 -406.664 7.99902 -531.997 7.99902c-162 0 -403.667 -2.66699 -725 -8v147c92 3.33301 161.333 12.333 208 27s81.667 44.834 105 90.501s35 114.5 35 206.5v610c-88 0 -151.333 -17.333 -190 -52s-94.334 -104.667 -167.001 -210l-573 -819
c-130.667 5.33301 -233 8 -307 8c-47.333 -0 -118.333 -1.66699 -213 -5s-164.334 -5.66602 -209.001 -6.99902v131c124 23.333 234.667 101 332 233l344 484c75.333 107.333 131.333 183.666 168 228.999s85.667 86.333 147 123c-244.667 40 -415.334 138.333 -512.001 295
c-57.333 93.333 -86 193 -86 299c0 163.333 54.667 297 164 401c154.667 142 427.667 213 819 213c56 0 138.333 -1.83301 247 -5.5s176.667 -5.83398 204 -6.5c30 0 76.333 -1.33301 139 -4s109 -4 139 -4c34 0 81 0.666992 141 2s120 3.16602 180 5.49902
s107.333 3.83301 142 4.5v-143c-92 -1.33301 -163.167 -7.5 -213.5 -18.5s-88.833 -36 -115.5 -75s-40 -100.833 -40 -185.5c0 -1.33301 0.666992 -3.33301 2 -6s2 -4.66699 2 -6v-1471c0 -97.333 10.667 -169.666 32 -216.999s57.166 -79.5 107.5 -96.5
c50.333 -17 125.5 -27.167 225.5 -30.5v-147zM1737 1237l0.00195312 852.001c0 83.333 -33 128.333 -99 135h-86c-196.667 0 -330.334 -61.333 -401.001 -184c-52 -91.333 -78 -195 -78 -311c0 -110.667 24.667 -210.334 74 -299.001
c46 -81.333 110.167 -134.5 192.5 -159.5s183.166 -37.5 302.499 -37.5c9.33301 0 25 0.666992 47 2s38 2 48 2z" />
    <glyph glyph-name="agrave" unicode="&#xe0;" horiz-adv-x="2007" 
d="M1053 176c-85.333 -69.333 -164.998 -123.002 -238.998 -161.002s-152.667 -58 -236 -60h-29c-186.667 0 -312.334 68.333 -377.001 205c-30 73.333 -45 136 -45 188c0 72.667 19 143.334 57 212.001s90 125 156 169c85.333 56 213.666 116 384.999 180l153.5 53
c59.667 20.667 93.167 34.667 100.5 42c57.333 26.667 86 74.334 86 143.001v65c0 132.667 -41 213.334 -123 242.001c-26.667 5.33301 -51.334 8 -74.001 8c-77.333 0 -138.666 -27.333 -183.999 -82c-19.333 -21.333 -39.833 -58 -61.5 -110s-38.834 -89.667 -51.501 -113
s-35 -44.333 -67 -63c-43.333 -24.667 -81.666 -37 -114.999 -37c-51.333 0 -95.5 21.5 -132.5 64.5s-55.5 92.5 -55.5 148.5c0 57.333 20.333 110.666 61 159.999c49.333 51.333 131.166 93.5 245.499 126.5s237.5 49.5 369.5 49.5c184.667 0 340.667 -37.5 468 -112.5
s191 -193.167 191 -354.5v-836c0 -68 19 -102 57 -102c24 0 65 17.667 123 53l74 -94c-45.333 -63.333 -106.666 -113.333 -183.999 -150s-155.333 -55 -234 -55c-87.333 0 -155 16.667 -203 50s-86.667 90.333 -116 171zM1049 478.998l-0.00195312 389.001
c-94 -28 -175.167 -61.833 -243.5 -101.5s-117.166 -93.167 -146.499 -160.5c-18.667 -64 -28 -114.333 -28 -151c0 -64.667 16.333 -115.334 49 -152.001c28 -43.333 69 -65 123 -65c58.667 0 114.334 24.667 167.001 74s79 105 79 167z" />
    <glyph glyph-name="agrave" unicode="&#x430;" horiz-adv-x="2007" 
d="M1053 176c-85.333 -69.333 -164.998 -123.002 -238.998 -161.002s-152.667 -58 -236 -60h-29c-186.667 0 -312.334 68.333 -377.001 205c-30 73.333 -45 136 -45 188c0 72.667 19 143.334 57 212.001s90 125 156 169c85.333 56 213.666 116 384.999 180l153.5 53
c59.667 20.667 93.167 34.667 100.5 42c57.333 26.667 86 74.334 86 143.001v65c0 132.667 -41 213.334 -123 242.001c-26.667 5.33301 -51.334 8 -74.001 8c-77.333 0 -138.666 -27.333 -183.999 -82c-19.333 -21.333 -39.833 -58 -61.5 -110s-38.834 -89.667 -51.501 -113
s-35 -44.333 -67 -63c-43.333 -24.667 -81.666 -37 -114.999 -37c-51.333 0 -95.5 21.5 -132.5 64.5s-55.5 92.5 -55.5 148.5c0 57.333 20.333 110.666 61 159.999c49.333 51.333 131.166 93.5 245.499 126.5s237.5 49.5 369.5 49.5c184.667 0 340.667 -37.5 468 -112.5
s191 -193.167 191 -354.5v-836c0 -68 19 -102 57 -102c24 0 65 17.667 123 53l74 -94c-45.333 -63.333 -106.666 -113.333 -183.999 -150s-155.333 -55 -234 -55c-87.333 0 -155 16.667 -203 50s-86.667 90.333 -116 171zM1049 478.998l-0.00195312 389.001
c-94 -28 -175.167 -61.833 -243.5 -101.5s-117.166 -93.167 -146.499 -160.5c-18.667 -64 -28 -114.333 -28 -151c0 -64.667 16.333 -115.334 49 -152.001c28 -43.333 69 -65 123 -65c58.667 0 114.334 24.667 167.001 74s79 105 79 167z" />
    <glyph glyph-name="aacute" unicode="&#xe1;" horiz-adv-x="2081" 
d="M311 1249c74 128.667 176.335 225.666 307.002 290.999s268.667 98 414 98c113.333 0 222.166 -21.833 326.499 -65.5s197 -104.667 278 -183s144.5 -169.333 190.5 -273s69 -215.167 69 -334.5c0 -153.333 -39 -297.666 -117 -432.999s-183.5 -243 -316.5 -323
s-276.5 -120 -430.5 -120c-157.333 0 -305.833 39.667 -445.5 119s-251.167 187 -334.5 323s-125 283.667 -125 443c0 1.33301 -0.666992 5.33301 -2 12s-2 10.667 -2 12c0 258 14.667 474.833 44 650.5s80.833 321.667 154.5 438s176.334 206.166 308.001 269.499
s300.167 102.333 505.5 117c121.333 7.33301 220.166 31.833 296.499 73.5s120.833 82.5 133.5 122.5h151c0 -374.667 -183 -576.667 -549 -606c-192 -16.667 -345.5 -42.5 -460.5 -77.5s-200.833 -78.5 -257.5 -130.5s-93.834 -110.667 -111.501 -176
s-26.5 -147.666 -26.5 -246.999zM664.002 761.999c0 -9.33301 -0.833008 -19.8311 -2.5 -31.498s-2.5 -20.167 -2.5 -25.5c0 -404.667 116.333 -607 349 -607c151.333 2 247.833 69.667 289.5 203s62.5 299.333 62.5 498c0 178.667 -21.167 332.5 -63.5 461.5
s-134.5 193.5 -276.5 193.5c-104 -0.666992 -182.333 -37.834 -235 -111.501s-86 -158.834 -100 -255.501s-21 -205 -21 -325z" />
    <glyph glyph-name="aacute" unicode="&#x431;" horiz-adv-x="2081" 
d="M311 1249c74 128.667 176.335 225.666 307.002 290.999s268.667 98 414 98c113.333 0 222.166 -21.833 326.499 -65.5s197 -104.667 278 -183s144.5 -169.333 190.5 -273s69 -215.167 69 -334.5c0 -153.333 -39 -297.666 -117 -432.999s-183.5 -243 -316.5 -323
s-276.5 -120 -430.5 -120c-157.333 0 -305.833 39.667 -445.5 119s-251.167 187 -334.5 323s-125 283.667 -125 443c0 1.33301 -0.666992 5.33301 -2 12s-2 10.667 -2 12c0 258 14.667 474.833 44 650.5s80.833 321.667 154.5 438s176.334 206.166 308.001 269.499
s300.167 102.333 505.5 117c121.333 7.33301 220.166 31.833 296.499 73.5s120.833 82.5 133.5 122.5h151c0 -374.667 -183 -576.667 -549 -606c-192 -16.667 -345.5 -42.5 -460.5 -77.5s-200.833 -78.5 -257.5 -130.5s-93.834 -110.667 -111.501 -176
s-26.5 -147.666 -26.5 -246.999zM664.002 761.999c0 -9.33301 -0.833008 -19.8311 -2.5 -31.498s-2.5 -20.167 -2.5 -25.5c0 -404.667 116.333 -607 349 -607c151.333 2 247.833 69.667 289.5 203s62.5 299.333 62.5 498c0 178.667 -21.167 332.5 -63.5 461.5
s-134.5 193.5 -276.5 193.5c-104 -0.666992 -182.333 -37.834 -235 -111.501s-86 -158.834 -100 -255.501s-21 -205 -21 -325z" />
    <glyph glyph-name="acircumflex" unicode="&#xe2;" horiz-adv-x="2007" 
d="M1278 844c226.667 -28 383.666 -103.332 470.999 -225.999c24.667 -39.333 37 -98 37 -176c0 -136 -34.333 -234.333 -103 -295c-115.333 -103.333 -298 -155 -548 -155h-78c-202.667 5.33301 -355.667 8 -459 8c-106 0 -260.333 -2.66699 -463 -8v127
c72.667 4 121.5 8.66699 146.5 14s44.167 20.166 57.5 44.499s20.333 64.833 21 121.5v971c-0.666992 54.667 -7.66699 93.667 -21 117s-32.166 37.333 -56.499 42s-73.5 9 -147.5 13v123c40.667 0 97.667 -0.666992 171 -2s128.333 -2 165 -2c114 0 297 2.66699 549 8h139
c208 0 361 -50.667 459 -152c40.667 -44.667 61 -113 61 -205c0 -94.667 -21.667 -165.667 -65 -213c-50.667 -52.667 -98.5 -88.167 -143.5 -106.5s-109.167 -34.5 -192.5 -48.5zM847.999 885.001c264.667 0 397.001 95.333 397.001 286v46
c-7.33301 76.667 -38 134.667 -92 174s-121.667 59 -203 59c-18.667 0 -47.334 -2.66699 -86.001 -8c-13.333 -4.66699 -20 -11.667 -20 -21c0 -1.33301 0.666992 -4 2 -8s2 -6.66699 2 -8v-520zM1221 164.001c70.667 44.667 105.999 122.332 105.999 232.999
c0 79.333 -16.333 149 -49 209c-34 60.667 -86.5 101.167 -157.5 121.5s-161.833 30.5 -272.5 30.5v-385c0 -51.333 8.16699 -103.166 24.5 -155.499s40.833 -83.833 73.5 -94.5c11.333 -1.33301 27.333 -4.5 48 -9.5s37.334 -7.5 50.001 -7.5
c57.333 0 116.333 19.333 177 58z" />
    <glyph glyph-name="acircumflex" unicode="&#x432;" horiz-adv-x="2007" 
d="M1278 844c226.667 -28 383.666 -103.332 470.999 -225.999c24.667 -39.333 37 -98 37 -176c0 -136 -34.333 -234.333 -103 -295c-115.333 -103.333 -298 -155 -548 -155h-78c-202.667 5.33301 -355.667 8 -459 8c-106 0 -260.333 -2.66699 -463 -8v127
c72.667 4 121.5 8.66699 146.5 14s44.167 20.166 57.5 44.499s20.333 64.833 21 121.5v971c-0.666992 54.667 -7.66699 93.667 -21 117s-32.166 37.333 -56.499 42s-73.5 9 -147.5 13v123c40.667 0 97.667 -0.666992 171 -2s128.333 -2 165 -2c114 0 297 2.66699 549 8h139
c208 0 361 -50.667 459 -152c40.667 -44.667 61 -113 61 -205c0 -94.667 -21.667 -165.667 -65 -213c-50.667 -52.667 -98.5 -88.167 -143.5 -106.5s-109.167 -34.5 -192.5 -48.5zM847.999 885.001c264.667 0 397.001 95.333 397.001 286v46
c-7.33301 76.667 -38 134.667 -92 174s-121.667 59 -203 59c-18.667 0 -47.334 -2.66699 -86.001 -8c-13.333 -4.66699 -20 -11.667 -20 -21c0 -1.33301 0.666992 -4 2 -8s2 -6.66699 2 -8v-520zM1221 164.001c70.667 44.667 105.999 122.332 105.999 232.999
c0 79.333 -16.333 149 -49 209c-34 60.667 -86.5 101.167 -157.5 121.5s-161.833 30.5 -272.5 30.5v-385c0 -51.333 8.16699 -103.166 24.5 -155.499s40.833 -83.833 73.5 -94.5c11.333 -1.33301 27.333 -4.5 48 -9.5s37.334 -7.5 50.001 -7.5
c57.333 0 116.333 19.333 177 58z" />
    <glyph glyph-name="atilde" unicode="&#xe3;" horiz-adv-x="1778" 
d="M131 1569l1413 -0.000976562l45 -512h-151c-30.667 138.667 -82.834 235 -156.501 289s-169.167 83.333 -286.5 88c-100.667 0 -151 -71 -151 -213c0 -0.666992 0.666992 -2.66699 2 -6s2 -5.66602 2 -6.99902v-872c-2.66699 0 -4 -4 -4 -12
c0 -73.333 16.5 -125.833 49.5 -157.5s87.5 -47.5 163.5 -47.5v-127c-202.667 5.33301 -355.667 8 -459 8c-106 -0 -260.333 -2.66699 -463 -8v127c89.333 4 148 17.5 176 40.5s43 76.167 45 159.5v906c-2 84.667 -17 138.5 -45 161.5s-86.667 37.5 -176 43.5z" />
    <glyph glyph-name="atilde" unicode="&#x433;" horiz-adv-x="1778" 
d="M131 1569l1413 -0.000976562l45 -512h-151c-30.667 138.667 -82.834 235 -156.501 289s-169.167 83.333 -286.5 88c-100.667 0 -151 -71 -151 -213c0 -0.666992 0.666992 -2.66699 2 -6s2 -5.66602 2 -6.99902v-872c-2.66699 0 -4 -4 -4 -12
c0 -73.333 16.5 -125.833 49.5 -157.5s87.5 -47.5 163.5 -47.5v-127c-202.667 5.33301 -355.667 8 -459 8c-106 -0 -260.333 -2.66699 -463 -8v127c89.333 4 148 17.5 176 40.5s43 76.167 45 159.5v906c-2 84.667 -17 138.5 -45 161.5s-86.667 37.5 -176 43.5z" />
    <glyph glyph-name="adieresis" unicode="&#xe4;" horiz-adv-x="2159" 
d="M135 119c60 0 106.33 12.332 138.997 36.999c115.333 88 199.833 217.833 253.5 389.5s88.167 385.834 103.5 642.501v12c0 70.667 -23 128.667 -69 174s-110.333 68 -193 68h-13v123c92.667 0 172.667 -1.5 240 -4.5s115.666 -4.5 144.999 -4.5
c14 0 40.5 0.833008 79.5 2.5s80.833 2.5 125.5 2.5c43.333 0 91.833 -0.833008 145.5 -2.5s96.834 -2.5 129.501 -2.5c79.333 0 192 1.5 338 4.5s266.667 4.5 362 4.5v-123c-61.333 -6.66699 -105.333 -14.667 -132 -24s-46.167 -26.666 -58.5 -51.999
s-18.5 -67 -18.5 -125v-922c0 -56.667 6.16699 -97.834 18.5 -123.501s31.166 -42.667 56.499 -51s70 -16.833 134 -25.5l41 -508h-152c-26.667 126.667 -58.667 217.167 -96 271.5s-84.666 87.5 -141.999 99.5s-151.333 18 -282 18h-553
c-129.333 0 -220.666 -6 -273.999 -18s-96.166 -44.333 -128.499 -97s-63.166 -144 -92.499 -274h-148zM1217 318.999l0.000976562 922c0 134 -37 201 -111 201h-229c-64.667 0 -103 -65.667 -115 -197c-16.667 -214 -37.5 -391.5 -62.5 -532.5s-58 -259 -99 -354
s-93.833 -174.833 -158.5 -239.5h574c79.333 0 132.666 13.333 159.999 40s41 80 41 160z" />
    <glyph glyph-name="adieresis" unicode="&#x434;" horiz-adv-x="2159" 
d="M135 119c60 0 106.33 12.332 138.997 36.999c115.333 88 199.833 217.833 253.5 389.5s88.167 385.834 103.5 642.501v12c0 70.667 -23 128.667 -69 174s-110.333 68 -193 68h-13v123c92.667 0 172.667 -1.5 240 -4.5s115.666 -4.5 144.999 -4.5
c14 0 40.5 0.833008 79.5 2.5s80.833 2.5 125.5 2.5c43.333 0 91.833 -0.833008 145.5 -2.5s96.834 -2.5 129.501 -2.5c79.333 0 192 1.5 338 4.5s266.667 4.5 362 4.5v-123c-61.333 -6.66699 -105.333 -14.667 -132 -24s-46.167 -26.666 -58.5 -51.999
s-18.5 -67 -18.5 -125v-922c0 -56.667 6.16699 -97.834 18.5 -123.501s31.166 -42.667 56.499 -51s70 -16.833 134 -25.5l41 -508h-152c-26.667 126.667 -58.667 217.167 -96 271.5s-84.666 87.5 -141.999 99.5s-151.333 18 -282 18h-553
c-129.333 0 -220.666 -6 -273.999 -18s-96.166 -44.333 -128.499 -97s-63.166 -144 -92.499 -274h-148zM1217 318.999l0.000976562 922c0 134 -37 201 -111 201h-229c-64.667 0 -103 -65.667 -115 -197c-16.667 -214 -37.5 -391.5 -62.5 -532.5s-58 -259 -99 -354
s-93.833 -174.833 -158.5 -239.5h574c79.333 0 132.666 13.333 159.999 40s41 80 41 160z" />
    <glyph glyph-name="aring" unicode="&#xe5;" horiz-adv-x="1929" 
d="M1589 410l118.999 -107.001c-82.667 -116.667 -186.667 -204.5 -312 -263.5s-256 -88.5 -392 -88.5c-108 0 -213.5 18.667 -316.5 56s-195.333 91.5 -277 162.5s-146 157.5 -193 259.5s-70.5 214.333 -70.5 337v61c10.667 159.333 57 297.5 139 414.5
s188.667 206.333 320 268s273.333 92.5 426 92.5c52 0 90.333 -1.66699 115 -5c104.667 -10 202.334 -43 293.001 -99s161 -129.333 211 -220c52 -93.333 80.667 -236.666 86 -429.999h-1045c0 -2 -0.666992 -8.33301 -2 -19s-2 -18 -2 -22
c0 -383.333 132.333 -595 397 -635c7.33301 0 18.333 -0.666992 33 -2s25.667 -2 33 -2c145.333 0 291.333 80.667 438 242zM691.999 1016h582.001c0 292 -90 439.333 -270 442c-102.667 0 -180.334 -45.5 -233.001 -136.5s-79 -192.833 -79 -305.5z" />
    <glyph glyph-name="aring" unicode="&#x435;" horiz-adv-x="1929" 
d="M1589 410l118.999 -107.001c-82.667 -116.667 -186.667 -204.5 -312 -263.5s-256 -88.5 -392 -88.5c-108 0 -213.5 18.667 -316.5 56s-195.333 91.5 -277 162.5s-146 157.5 -193 259.5s-70.5 214.333 -70.5 337v61c10.667 159.333 57 297.5 139 414.5
s188.667 206.333 320 268s273.333 92.5 426 92.5c52 0 90.333 -1.66699 115 -5c104.667 -10 202.334 -43 293.001 -99s161 -129.333 211 -220c52 -93.333 80.667 -236.666 86 -429.999h-1045c0 -2 -0.666992 -8.33301 -2 -19s-2 -18 -2 -22
c0 -383.333 132.333 -595 397 -635c7.33301 0 18.333 -0.666992 33 -2s25.667 -2 33 -2c145.333 0 291.333 80.667 438 242zM691.999 1016h582.001c0 292 -90 439.333 -270 442c-102.667 0 -180.334 -45.5 -233.001 -136.5s-79 -192.833 -79 -305.5z" />
    <glyph glyph-name="ae" unicode="&#xe6;" horiz-adv-x="3109" 
d="M1753 602c0 -36 -1.33203 -81 -3.99902 -135s-4 -89.667 -4 -107c0 -52 5.66699 -93.5 17 -124.5s33.833 -56 67.5 -75s81.834 -32.833 144.501 -41.5v-127c-98 10.667 -214 16 -348 16c-64 0 -160.5 -2.33301 -289.5 -7s-223.5 -7.66699 -283.5 -9v127
c92.667 13.333 153.334 37 182.001 71s43 90.667 43 170c0 17.333 -0.666992 53 -2 107s-2 99 -2 135l-90 86l-500 -696c-46.667 5.33301 -120.334 8 -221.001 8c-73.333 -0 -181.333 -2.66699 -324 -8v131c24 0 50.167 6.5 78.5 19.5s47.166 29.833 56.499 50.5l607 798
l-263 271c-56.667 54.667 -115 96.167 -175 124.5s-131.333 50.833 -214 67.5v115c158.667 -5.33301 272 -8 340 -8c76 0 207.333 2.66699 394 8v-115c-139.333 -7.33301 -209 -34.666 -209 -81.999c0 -34 69.667 -125.333 209 -274l307 -307v462c0 71.333 -11 122 -33 152
s-67 45 -135 45v123c201.333 -5.33301 337.666 -8 408.999 -8c74.667 0 212.667 2.66699 414 8v-123c-67.333 0 -112.833 -15.167 -136.5 -45.5s-35.5 -80.833 -35.5 -151.5v-462l311 307c136.667 146 205 237.333 205 274c0 47.333 -68.333 74.666 -205 81.999v115
c186.667 -5.33301 316.667 -8 390 -8c70.667 0 185.334 2.66699 344 8v-115c-162 -34 -292 -98 -390 -192l-262 -271l607 -798c6.66699 -20 24.667 -36.667 54 -50s56.333 -20 81 -20v-131c-142.667 5.33301 -252 8 -328 8c-98 -0 -170.333 -2.66699 -217 -8l-500 696z" />
    <glyph glyph-name="ae" unicode="&#x436;" horiz-adv-x="3109" 
d="M1753 602c0 -36 -1.33203 -81 -3.99902 -135s-4 -89.667 -4 -107c0 -52 5.66699 -93.5 17 -124.5s33.833 -56 67.5 -75s81.834 -32.833 144.501 -41.5v-127c-98 10.667 -214 16 -348 16c-64 0 -160.5 -2.33301 -289.5 -7s-223.5 -7.66699 -283.5 -9v127
c92.667 13.333 153.334 37 182.001 71s43 90.667 43 170c0 17.333 -0.666992 53 -2 107s-2 99 -2 135l-90 86l-500 -696c-46.667 5.33301 -120.334 8 -221.001 8c-73.333 -0 -181.333 -2.66699 -324 -8v131c24 0 50.167 6.5 78.5 19.5s47.166 29.833 56.499 50.5l607 798
l-263 271c-56.667 54.667 -115 96.167 -175 124.5s-131.333 50.833 -214 67.5v115c158.667 -5.33301 272 -8 340 -8c76 0 207.333 2.66699 394 8v-115c-139.333 -7.33301 -209 -34.666 -209 -81.999c0 -34 69.667 -125.333 209 -274l307 -307v462c0 71.333 -11 122 -33 152
s-67 45 -135 45v123c201.333 -5.33301 337.666 -8 408.999 -8c74.667 0 212.667 2.66699 414 8v-123c-67.333 0 -112.833 -15.167 -136.5 -45.5s-35.5 -80.833 -35.5 -151.5v-462l311 307c136.667 146 205 237.333 205 274c0 47.333 -68.333 74.666 -205 81.999v115
c186.667 -5.33301 316.667 -8 390 -8c70.667 0 185.334 2.66699 344 8v-115c-162 -34 -292 -98 -390 -192l-262 -271l607 -798c6.66699 -20 24.667 -36.667 54 -50s56.333 -20 81 -20v-131c-142.667 5.33301 -252 8 -328 8c-98 -0 -170.333 -2.66699 -217 -8l-500 696z" />
    <glyph glyph-name="ccedilla" unicode="&#xe7;" horiz-adv-x="1851" 
d="M311 410c55.333 -69.333 128.334 -126.332 219.001 -170.999s177.667 -67 261 -67c26.667 0 64.667 5.33301 114 16c73.333 22 130.666 63.833 171.999 125.5s62 125.167 62 190.5c0 54 -8.33301 92 -25 114c-26.667 49.333 -51.834 80.833 -75.501 94.5
s-63.834 20.5 -120.501 20.5h-87v160c105.333 0 184.333 24.833 237 74.5s79 114.834 79 195.501v54c-7.33301 88 -36.666 157 -87.999 207s-109.333 75 -174 75c-96 0 -172.667 -46.333 -230 -139c-10 -14 -27.667 -50.667 -53 -110s-52.333 -106.333 -81 -141
s-65.667 -52 -111 -52c-61.333 0 -110.166 19 -146.499 57s-54.5 84.333 -54.5 139c0 10 1.5 21.167 4.5 33.5s5.5 24.5 7.5 36.5c18 72 60.833 125.833 128.5 161.5s153.167 69.167 256.5 100.5c102.667 27.333 216 41 340 41c123.333 0 237.166 -13.667 341.499 -41
s178.833 -68.333 223.5 -123c66 -68.667 99 -150.334 99 -245.001c0 -74.667 -23.333 -139 -70 -193c-82 -92.667 -196.667 -151.334 -344 -176.001c83.333 -10 160.333 -33.167 231 -69.5s123.334 -77.5 158.001 -123.5c46.667 -58 70 -130.333 70 -217
c0 -128 -49.333 -225 -148 -291c-178.667 -120 -391.667 -180 -639 -180c-91.333 0 -180 11 -266 33c-144 38 -277.667 137.667 -401 299z" />
    <glyph glyph-name="ccedilla" unicode="&#x437;" horiz-adv-x="1851" 
d="M311 410c55.333 -69.333 128.334 -126.332 219.001 -170.999s177.667 -67 261 -67c26.667 0 64.667 5.33301 114 16c73.333 22 130.666 63.833 171.999 125.5s62 125.167 62 190.5c0 54 -8.33301 92 -25 114c-26.667 49.333 -51.834 80.833 -75.501 94.5
s-63.834 20.5 -120.501 20.5h-87v160c105.333 0 184.333 24.833 237 74.5s79 114.834 79 195.501v54c-7.33301 88 -36.666 157 -87.999 207s-109.333 75 -174 75c-96 0 -172.667 -46.333 -230 -139c-10 -14 -27.667 -50.667 -53 -110s-52.333 -106.333 -81 -141
s-65.667 -52 -111 -52c-61.333 0 -110.166 19 -146.499 57s-54.5 84.333 -54.5 139c0 10 1.5 21.167 4.5 33.5s5.5 24.5 7.5 36.5c18 72 60.833 125.833 128.5 161.5s153.167 69.167 256.5 100.5c102.667 27.333 216 41 340 41c123.333 0 237.166 -13.667 341.499 -41
s178.833 -68.333 223.5 -123c66 -68.667 99 -150.334 99 -245.001c0 -74.667 -23.333 -139 -70 -193c-82 -92.667 -196.667 -151.334 -344 -176.001c83.333 -10 160.333 -33.167 231 -69.5s123.334 -77.5 158.001 -123.5c46.667 -58 70 -130.333 70 -217
c0 -128 -49.333 -225 -148 -291c-178.667 -120 -391.667 -180 -639 -180c-91.333 0 -180 11 -266 33c-144 38 -277.667 137.667 -401 299z" />
    <glyph glyph-name="egrave" unicode="&#xe8;" horiz-adv-x="2310" 
d="M1405 950l-552.999 -556.996l-4 -57c-2.66699 0 -4 -4 -4 -12c0 -73.333 16.5 -125.833 49.5 -157.5s87.5 -47.5 163.5 -47.5v-127c-202.667 5.33301 -355.667 8 -459 8c-106 0 -260.333 -2.66699 -463 -8v127c89.333 4 148 17.5 176 40.5s43 76.167 45 159.5v906
c-2 84.667 -17 138.5 -45 161.5s-86.667 37.5 -176 43.5v122c202.667 -5.33301 357 -8 463 -8c103.333 0 256.333 2.66699 459 8v-122c-75.333 0 -129.666 -16.833 -162.999 -50.5s-50 -87.834 -50 -162.501c2.66699 0 4 -3 4 -9v-606l557 557v66
c0 80.667 -13.833 134.5 -41.5 161.5s-80.834 41.5 -159.501 43.5v122c197.333 -5.33301 347.666 -8 450.999 -8c106.667 0 258 2.66699 454 8v-122c-86 -10.667 -142.167 -26.834 -168.5 -48.501s-39.5 -73.834 -39.5 -156.501v-906c0 -81.333 13.167 -132.833 39.5 -154.5
s82.5 -36.834 168.5 -45.501v-127c-196 5.33301 -347.333 8 -454 8c-103.333 -0 -253.666 -2.66699 -450.999 -8v127c79.333 0 132.666 13.333 159.999 40s41 80 41 160v631z" />
    <glyph glyph-name="egrave" unicode="&#x438;" horiz-adv-x="2310" 
d="M1405 950l-552.999 -556.996l-4 -57c-2.66699 0 -4 -4 -4 -12c0 -73.333 16.5 -125.833 49.5 -157.5s87.5 -47.5 163.5 -47.5v-127c-202.667 5.33301 -355.667 8 -459 8c-106 0 -260.333 -2.66699 -463 -8v127c89.333 4 148 17.5 176 40.5s43 76.167 45 159.5v906
c-2 84.667 -17 138.5 -45 161.5s-86.667 37.5 -176 43.5v122c202.667 -5.33301 357 -8 463 -8c103.333 0 256.333 2.66699 459 8v-122c-75.333 0 -129.666 -16.833 -162.999 -50.5s-50 -87.834 -50 -162.501c2.66699 0 4 -3 4 -9v-606l557 557v66
c0 80.667 -13.833 134.5 -41.5 161.5s-80.834 41.5 -159.501 43.5v122c197.333 -5.33301 347.666 -8 450.999 -8c106.667 0 258 2.66699 454 8v-122c-86 -10.667 -142.167 -26.834 -168.5 -48.501s-39.5 -73.834 -39.5 -156.501v-906c0 -81.333 13.167 -132.833 39.5 -154.5
s82.5 -36.834 168.5 -45.501v-127c-196 5.33301 -347.333 8 -454 8c-103.333 -0 -253.666 -2.66699 -450.999 -8v127c79.333 0 132.666 13.333 159.999 40s41 80 41 160v631z" />
    </font>
</defs>
</svg>
