<?xml version="1.0" standalone="no"?>
<!DOCTYPE svg PUBLIC "-//W3C//DTD SVG 20010904//EN"
 "http://www.w3.org/TR/2001/REC-SVG-20010904/DTD/svg10.dtd">
<svg version="1.0" xmlns="http://www.w3.org/2000/svg"
 width="144.000000pt" height="144.000000pt" viewBox="0 0 144.000000 144.000000"
 preserveAspectRatio="xMidYMid meet">
<metadata>
Created by potrace 1.14, written by Peter Selinger 2001-2017
</metadata>
<g transform="translate(0.000000,144.000000) scale(0.100000,-0.100000)"
fill="#000000" stroke="none">
<path d="M8 1433 c7 -3 16 -2 19 1 4 3 -2 6 -13 5 -11 0 -14 -3 -6 -6z"/>
<path d="M45 1430 c3 -6 1 -10 -5 -10 -6 0 -8 -5 -4 -11 5 -8 1 -8 -14 0 -18
10 -20 8 -20 -25 0 -24 4 -34 12 -31 7 3 17 -3 23 -12 8 -13 7 -17 -8 -17 -9
0 -15 4 -13 8 3 4 0 8 -6 8 -7 0 -10 -62 -8 -195 1 -130 5 -195 12 -195 7 0 6
-3 -1 -8 -16 -10 -15 -244 1 -254 8 -6 7 -8 -1 -8 -15 0 -17 -46 -3 -55 6 -4
8 -11 4 -16 -3 -5 -7 -23 -9 -39 -3 -21 0 -28 10 -24 7 3 16 0 21 -7 4 -8 3
-10 -4 -5 -7 4 -12 2 -12 -4 0 -6 -4 -8 -10 -5 -5 3 -10 2 -10 -4 0 -5 8 -12
17 -14 13 -3 14 -5 3 -6 -12 -1 -16 -22 -17 -120 -3 -104 -1 -122 15 -133 9
-7 18 -20 20 -28 3 -12 0 -11 -15 2 -17 16 -18 15 -20 -13 -1 -16 1 -28 5 -25
4 2 8 -4 8 -14 0 -10 -4 -16 -8 -14 -5 3 -8 -17 -7 -45 1 -28 6 -48 11 -45 4
3 8 0 8 -5 0 -6 -4 -11 -10 -11 -5 0 -10 -4 -10 -10 0 -5 7 -7 15 -4 11 5 13
2 9 -10 -3 -9 -10 -13 -15 -10 -5 3 -9 0 -9 -5 0 -14 47 -14 55 -1 3 5 14 10
23 9 14 0 13 -2 -3 -9 -14 -6 -15 -9 -4 -9 8 -1 21 5 28 11 8 7 11 8 8 2 -4
-7 10 -11 39 -12 25 -1 43 2 40 6 -3 5 1 9 9 9 8 0 12 -4 10 -8 -3 -4 23 -6
58 -4 34 1 62 3 62 4 0 2 10 4 22 5 12 1 20 -1 17 -6 -3 -4 -1 -8 5 -8 5 0 12
6 14 13 4 10 6 10 6 0 1 -8 14 -13 32 -13 28 0 30 2 18 18 -13 16 -13 16 6 0
16 -13 40 -17 118 -16 53 0 97 4 97 9 0 5 8 9 18 9 15 0 15 -2 2 -10 -11 -8
-6 -10 20 -8 30 3 35 7 34 27 -1 22 0 22 12 7 9 -13 13 -14 17 -4 2 7 7 10 11
7 4 -4 0 -13 -8 -21 -12 -13 4 -15 125 -15 76 0 139 3 139 7 0 15 -14 19 -27
8 -11 -8 -12 -7 -7 6 4 10 12 15 20 12 7 -3 15 3 18 12 4 13 5 13 4 -3 -1 -46
-2 -45 101 -44 84 1 101 4 104 18 4 14 5 13 6 -2 1 -15 9 -17 53 -14 28 2 54
9 56 15 2 7 8 12 14 12 6 0 8 -6 5 -13 -3 -9 6 -14 29 -15 37 -3 39 0 24 29
-7 13 -7 19 0 19 5 0 10 18 10 40 0 25 -5 40 -12 40 -10 0 -10 2 -1 8 16 10
15 124 -1 134 -7 5 -6 8 4 8 13 0 13 1 0 10 -11 7 -11 10 -2 10 17 0 15 208
-2 229 -8 11 -8 13 0 8 8 -4 11 14 11 58 0 41 -4 65 -11 65 -6 0 -4 5 4 10 12
8 12 10 1 10 -11 0 -11 3 0 16 10 13 10 17 -2 25 -9 6 -10 9 -2 9 17 0 16 162
0 172 -20 12 -27 9 -21 -9 5 -17 5 -17 -6 -1 -6 10 -18 15 -28 12 -15 -5 -15
-4 1 6 9 6 14 16 11 22 -4 6 3 4 17 -5 13 -9 27 -17 31 -17 12 0 6 143 -6 159
-8 11 -8 13 1 8 14 -9 15 63 1 81 -7 8 -7 12 1 12 15 0 9 42 -9 58 -11 9 -12
12 -1 10 7 -2 15 5 16 15 2 9 -1 15 -6 11 -5 -3 -9 0 -9 5 0 6 5 11 10 11 6 0
10 4 10 10 0 5 -8 7 -17 4 -17 -5 -17 -5 0 9 17 15 25 73 7 62 -5 -3 -7 -12
-4 -19 3 -8 0 -17 -7 -22 -9 -5 -10 -2 -6 9 7 18 -8 24 -18 7 -15 -25 -27 -8
-21 30 4 25 2 40 -4 40 -5 0 -10 4 -10 8 0 4 11 8 23 8 22 0 23 -2 10 -25 -15
-31 -17 -65 -3 -56 6 4 7 11 4 17 -5 7 -1 9 9 5 22 -8 40 16 24 33 -9 9 -9 11
0 6 7 -4 11 1 10 13 -1 18 -8 20 -60 18 -54 -2 -58 -3 -52 -24 4 -17 2 -21 -9
-17 -7 3 -12 13 -9 23 5 20 -23 25 -44 8 -9 -6 -13 -6 -13 2 0 7 -5 9 -10 6
-6 -4 -7 -12 -3 -19 4 -7 1 -4 -8 5 -9 10 -22 17 -30 16 -24 -4 -40 -18 -33
-29 4 -6 10 -5 15 3 6 10 9 10 9 2 0 -22 -18 -23 -42 0 -28 26 -63 35 -55 15
2 -7 9 -12 15 -11 6 2 9 -4 6 -12 -4 -8 -13 -15 -21 -15 -8 0 -12 4 -9 9 4 5
3 16 0 25 -5 14 -9 14 -22 4 -11 -9 -14 -9 -9 -1 6 9 -33 12 -160 11 -142 -1
-169 -4 -175 -17 -6 -14 -7 -13 -7 2 -1 19 -18 22 -55 7 -15 -5 -26 -6 -26 -1
0 15 -74 7 -88 -9 -11 -13 -11 -13 -7 0 5 13 -9 15 -87 15 -51 0 -99 -4 -105
-8 -7 -5 -13 -4 -13 2 0 14 -30 7 -42 -10 -8 -11 -9 -11 -4 4 4 14 -1 17 -32
17 -21 0 -44 -6 -51 -12 -11 -10 -13 -10 -7 0 5 9 -6 12 -43 12 -28 0 -51 -4
-51 -10 0 -5 3 -9 8 -8 4 2 18 -5 32 -15 13 -9 19 -17 13 -17 -6 0 -16 7 -23
15 -9 10 -17 12 -23 6 -5 -5 -16 -7 -23 -4 -8 3 -14 0 -14 -6 0 -6 5 -11 10
-11 6 0 10 -4 10 -8 0 -5 -7 -9 -15 -9 -8 0 -13 3 -10 5 3 3 0 11 -6 19 -9 10
-8 13 0 13 7 0 9 4 6 10 -3 6 1 7 9 4 9 -3 16 -2 16 3 0 5 -11 10 -26 11 -14
1 -23 -2 -19 -8z m359 -12 c-5 -8 -1 -9 12 -4 14 5 16 4 7 -5 -6 -6 -16 -8
-22 -5 -14 9 -14 26 0 26 5 0 7 -5 3 -12z m60 -9 c-3 -5 -10 -7 -15 -3 -5 3
-7 10 -3 15 3 5 10 7 15 3 5 -3 7 -10 3 -15z m291 11 c3 -5 1 -10 -4 -10 -6 0
-11 5 -11 10 0 6 2 10 4 10 3 0 8 -4 11 -10z m133 -23 c15 1 22 1 16 -2 -7 -3
-10 -16 -8 -28 4 -20 4 -21 -4 -2 -5 11 -15 20 -23 20 -8 0 -14 9 -15 20 -1
12 1 14 3 4 3 -11 13 -15 31 -12z m-371 -17 c7 0 13 -5 13 -10 0 -7 -6 -7 -20
0 -11 6 -20 15 -20 21 0 6 -4 7 -10 4 -6 -4 -7 1 -3 11 6 16 8 15 16 -4 6 -12
16 -22 24 -22z m89 6 c2 -20 -1 -26 -10 -23 -8 3 -20 0 -27 -6 -7 -7 -6 -3 4
9 19 23 23 49 5 38 -7 -4 -8 -3 -4 5 12 19 29 7 32 -23z m364 22 c0 -3 -9 -6
-20 -5 -11 1 -20 5 -20 9 0 3 9 6 20 5 11 -1 20 -5 20 -9z m-280 -8 c12 -7 17
-16 13 -27 -5 -14 -8 -13 -15 6 -4 12 -12 19 -18 16 -5 -3 -10 -1 -10 4 0 14
6 14 30 1z m-577 -15 c-3 -9 -8 -14 -10 -11 -3 3 -2 9 2 15 9 16 15 13 8 -4z
m83 0 c13 -13 13 -15 1 -15 -8 0 -17 7 -21 15 -3 8 -3 15 0 15 3 0 12 -7 20
-15z m554 0 c0 -2 -6 -5 -13 -8 -8 -3 -14 1 -14 8 0 7 6 11 14 8 7 -3 13 -6
13 -8z m84 0 c-4 -8 -10 -12 -15 -9 -11 6 -2 24 11 24 5 0 7 -7 4 -15z m321 5
c3 -5 1 -10 -4 -10 -6 0 -11 5 -11 10 0 6 2 10 4 10 3 0 8 -4 11 -10z m125 -5
c0 -8 -2 -15 -4 -15 -2 0 -6 7 -10 15 -3 8 -1 15 4 15 6 0 10 -7 10 -15z m68
-22 c-1 -21 -3 -32 -6 -25 -2 7 -7 10 -12 7 -4 -2 -15 4 -25 15 -10 12 -13 20
-7 20 7 0 12 -4 12 -8 0 -5 7 -9 15 -9 8 0 15 9 15 19 0 10 2 18 5 18 2 0 4
-17 3 -37z m-1304 11 c5 -14 4 -15 -9 -4 -17 14 -19 20 -6 20 5 0 12 -7 15
-16z m232 1 c-1 -8 -5 -17 -8 -21 -5 -4 -4 16 1 34 3 9 9 -1 7 -13z m36 -5
c10 -10 14 -22 9 -24 -4 -3 -13 6 -19 19 -14 30 -12 31 10 5z m143 -2 c6 -4
-3 -8 -18 -8 -23 0 -26 2 -15 14 7 8 15 11 18 8 3 -4 10 -10 15 -14z m543 4
c2 -7 -1 -12 -8 -12 -6 0 -8 5 -5 10 3 6 1 10 -4 10 -15 0 -14 -11 4 -30 13
-15 13 -17 0 -17 -17 0 -30 31 -20 47 8 13 27 8 33 -8z m82 -5 c0 -2 -8 -3
-18 -3 -10 0 -19 6 -19 13 0 8 6 9 19 2 10 -5 18 -11 18 -12z m103 4 c-12 -10
-19 -22 -15 -26 4 -5 1 -5 -5 -1 -19 10 -16 20 10 32 32 17 35 16 10 -5z m72
9 c3 -5 1 -10 -4 -10 -6 0 -11 5 -11 10 0 6 2 10 4 10 3 0 8 -4 11 -10z
m-1015 -10 c-13 -9 -13 -11 0 -20 13 -8 12 -10 -2 -10 -10 0 -18 6 -18 13 0
17 10 27 24 27 6 0 4 -5 -4 -10z m710 6 c0 -3 -4 -8 -10 -11 -5 -3 -10 -1 -10
4 0 6 5 11 10 11 6 0 10 -2 10 -4z m-793 -12 c-3 -3 -12 -4 -19 -1 -8 3 -5 6
6 6 11 1 17 -2 13 -5z m234 -26 c6 -11 8 -23 4 -26 -3 -3 -8 4 -12 16 -3 12
-12 22 -19 22 -8 0 -14 4 -14 10 0 15 30 0 41 -22z m251 15 c-6 -3 -10 -9 -6
-14 3 -5 0 -9 -5 -9 -6 0 -11 4 -11 8 0 12 23 32 29 25 3 -3 0 -8 -7 -10z
m232 6 c-3 -6 0 -15 7 -20 22 -13 4 -20 -25 -10 -14 6 -26 16 -26 22 0 9 3 9
14 0 10 -9 15 -8 20 4 3 8 8 15 11 15 4 0 3 -5 -1 -11z m231 1 c-3 -5 2 -10
12 -11 16 0 16 -1 -1 -8 -16 -6 -17 -9 -4 -13 8 -4 18 -16 21 -28 4 -17 3 -19
-9 -9 -7 6 -11 15 -8 20 3 5 -1 9 -9 9 -9 0 -14 10 -14 25 0 14 4 25 9 25 5 0
6 -4 3 -10z m115 -10 c6 -11 8 -20 6 -20 -3 0 -10 9 -16 20 -6 11 -8 20 -6 20
3 0 10 -9 16 -20z m-1110 6 c0 -2 -7 -7 -16 -10 -8 -3 -12 -2 -9 4 6 10 25 14
25 6z m396 -5 c-6 -9 -46 -22 -46 -15 0 3 10 9 23 14 29 11 29 11 23 1z m781
3 c-3 -3 -12 -4 -19 -1 -8 3 -5 6 6 6 11 1 17 -2 13 -5z m-1141 -30 c1 -9 0
-13 -4 -10 -3 4 -7 14 -8 22 -1 9 0 13 4 10 3 -4 7 -14 8 -22z m31 4 c-3 -8
-6 -5 -6 6 -1 11 2 17 5 13 3 -3 4 -12 1 -19z m418 12 c-3 -5 -1 -10 6 -10 7
0 10 -2 7 -5 -3 -3 -13 -2 -22 1 -14 5 -15 9 -4 15 17 11 20 11 13 -1z m100 0
c3 -5 2 -10 -4 -10 -5 0 -13 5 -16 10 -3 6 -2 10 4 10 5 0 13 -4 16 -10z m68
-8 c-4 -10 -8 -11 -13 -2 -6 9 -9 9 -13 -1 -4 -10 -6 -9 -6 3 -1 11 6 16 18
15 12 -1 17 -6 14 -15z m-643 4 c0 -2 -7 -7 -16 -10 -8 -3 -12 -2 -9 4 6 10
25 14 25 6z m704 -4 c3 -5 -1 -9 -9 -9 -8 0 -12 4 -9 9 3 4 7 8 9 8 2 0 6 -4
9 -8z m373 -7 c0 -8 -4 -12 -9 -9 -4 3 -8 9 -8 15 0 5 4 9 8 9 5 0 9 -7 9 -15z
m123 -2 c0 -3 -7 -3 -15 1 -8 3 -15 1 -15 -5 0 -6 -5 -7 -11 -3 -8 4 -7 9 2
14 12 8 39 3 39 -7z m-653 -13 c-3 -11 0 -20 6 -20 6 0 8 -3 4 -6 -11 -12 -25
6 -20 26 3 11 8 20 10 20 3 0 3 -9 0 -20z m263 10 c0 -5 -2 -10 -4 -10 -3 0
-8 5 -11 10 -3 6 -1 10 4 10 6 0 11 -4 11 -10z m230 0 c0 -5 -2 -10 -4 -10 -3
0 -8 5 -11 10 -3 6 -1 10 4 10 6 0 11 -4 11 -10z m-945 -10 c5 -8 11 -8 20 0
10 8 15 8 21 -1 4 -7 3 -9 -4 -5 -6 3 -13 2 -17 -4 -3 -5 -1 -10 6 -10 7 0 10
-3 6 -6 -3 -4 -18 3 -33 15 -15 11 -22 21 -16 21 6 0 14 -5 17 -10z m223 2
c15 11 15 11 5 -3 -10 -12 -10 -18 0 -29 10 -12 9 -12 -4 -2 -9 6 -18 10 -20
7 -3 -2 -5 6 -6 18 0 12 1 16 4 9 4 -10 8 -10 21 0z m77 -10 c-3 -3 -11 0 -18
7 -9 10 -8 11 6 5 10 -3 15 -9 12 -12z m381 -22 c0 -15 -4 -16 -18 -9 -15 8
-18 6 -19 -13 -1 -20 -2 -19 -10 6 -4 17 -6 32 -4 35 3 2 5 -1 5 -8 0 -7 4
-10 10 -6 5 3 6 13 3 21 -5 14 -3 14 13 4 11 -7 20 -20 20 -30z m118 19 c-6
-11 -24 -2 -24 11 0 5 7 7 15 4 8 -4 12 -10 9 -15z m260 -21 c-9 -14 -23 1
-21 23 1 19 2 19 14 3 7 -9 10 -21 7 -26z m115 24 c0 -10 -3 -12 -5 -5 -7 16
-34 5 -34 -14 0 -8 -4 -11 -10 -8 -14 9 9 41 31 42 12 1 19 -5 18 -15z m-1094
-2 c3 -5 -1 -10 -10 -10 -9 0 -13 5 -10 10 3 6 8 10 10 10 2 0 7 -4 10 -10z
m49 -2 c-3 -5 -10 -5 -16 -2 -7 5 -9 1 -5 -9 3 -9 2 -19 -3 -22 -10 -6 -14 27
-5 37 9 8 34 5 29 -4z m464 -5 c-2 -10 3 -18 11 -18 8 0 16 -7 18 -15 4 -13 3
-13 -6 0 -6 8 -11 11 -11 6 0 -15 -23 11 -26 29 -1 8 2 15 7 15 6 0 9 -8 7
-17z m-759 -49 c-6 -7 -8 -19 -4 -26 4 -7 0 -5 -8 4 -8 10 -17 16 -20 13 -4
-3 -4 -2 -1 3 3 4 10 7 15 7 5 0 9 3 9 8 0 4 0 12 0 18 0 8 -5 8 -15 -1 -17
-14 -18 -10 -8 16 6 15 8 15 25 -6 14 -17 16 -26 7 -36z m115 35 c-3 -6 5 -7
23 -4 l28 6 -25 -16 c-23 -15 -24 -15 -2 -10 33 9 27 -1 -8 -14 -17 -5 -28 -6
-25 -2 2 5 -1 14 -9 20 -11 9 -15 9 -18 0 -2 -7 -9 -5 -18 6 -13 15 -11 17 15
14 21 -3 29 0 27 9 -1 8 2 11 8 7 6 -3 8 -11 4 -16z m1034 12 c11 -7 10 -9 -3
-14 -10 -5 -14 -3 -9 5 5 7 0 9 -14 6 -12 -4 -22 -2 -22 3 0 11 31 11 48 0z
m-683 -11 c-3 -5 -14 -10 -23 -9 -14 0 -13 2 3 9 27 11 27 11 20 0z m224 -17
c1 19 16 23 27 5 4 -6 3 -8 -3 -5 -6 4 -13 0 -17 -8 -3 -8 -1 -17 5 -21 5 -3
9 -13 8 -22 -3 -32 1 -43 13 -36 6 4 8 3 4 -4 -3 -6 -2 -13 4 -17 5 -3 10 -11
10 -17 0 -14 -40 31 -41 46 -1 6 -2 20 -3 31 -1 14 -7 19 -21 18 -11 -1 -15 0
-9 3 6 2 10 17 8 32 l-4 27 9 -25 c6 -17 9 -20 10 -7z m271 12 c0 -12 -19 -12
-23 0 -4 9 -1 12 9 8 7 -3 14 -7 14 -8z m78 1 c-19 -14 -25 -32 -8 -21 6 3 7
-1 4 -9 -3 -9 -10 -16 -16 -16 -5 0 -6 5 -3 10 3 6 0 10 -7 10 -7 1 -3 9 11
20 13 11 26 20 30 20 3 0 -2 -7 -11 -14z m-508 -11 c0 -8 -2 -15 -4 -15 -2 0
-6 7 -10 15 -3 8 -1 15 4 15 6 0 10 -7 10 -15z m34 -1 c3 -8 2 -12 -4 -9 -6 3
-10 1 -10 -6 0 -7 -2 -10 -5 -7 -5 5 4 38 10 38 2 0 6 -7 9 -16z m31 -4 c-3
-4 0 -11 5 -13 6 -3 5 -4 -1 -3 -7 1 -13 10 -15 19 -1 9 2 15 7 11 5 -3 7 -9
4 -14z m295 0 c8 -15 6 -21 -10 -30 -18 -10 -19 -8 -10 14 5 13 6 27 3 30 -4
3 -3 6 0 6 3 0 11 -9 17 -20z m-536 1 c3 -5 -1 -14 -8 -20 -12 -10 -14 -9 -11
6 2 10 4 19 4 21 2 5 10 2 15 -7z m274 -16 c-3 -3 -9 2 -12 12 -6 14 -5 15 5
6 7 -7 10 -15 7 -18z m292 15 c0 -5 -5 -10 -11 -10 -5 0 -7 5 -4 10 3 6 8 10
11 10 2 0 4 -4 4 -10z m256 -8 c-2 -9 -10 -16 -18 -18 -10 -1 -14 4 -11 15 5
22 32 24 29 3z m74 2 c0 -8 -5 -12 -10 -9 -6 4 -8 11 -5 16 9 14 15 11 15 -7z
m-1210 -4 c0 -5 -2 -10 -4 -10 -3 0 -8 5 -11 10 -3 6 -1 10 4 10 6 0 11 -4 11
-10z m170 -10 c6 -11 8 -20 6 -20 -3 0 -10 9 -16 20 -6 11 -8 20 -6 20 3 0 10
-9 16 -20z m196 8 c4 -7 3 -8 -4 -4 -7 4 -12 2 -12 -3 0 -6 4 -11 9 -11 5 0
12 -8 15 -17 6 -16 6 -16 -12 0 -23 21 -39 22 -22 1 11 -12 11 -15 -1 -12 -8
2 -13 -4 -13 -13 1 -11 -5 -15 -18 -11 -14 3 -16 7 -7 18 6 8 8 14 5 14 -6 0
44 49 51 50 1 0 5 -5 9 -12z m29 3 c3 -5 1 -12 -5 -16 -5 -3 -10 1 -10 9 0 18
6 21 15 7z m411 -19 c-3 -2 -1 -14 5 -26 9 -19 9 -19 -4 -3 -15 18 -32 24 -22
7 3 -5 1 -10 -5 -10 -7 0 -9 7 -6 16 3 9 6 23 6 31 0 13 3 13 15 3 9 -7 13
-15 11 -18z m238 4 c11 -18 13 -27 4 -32 -6 -4 -8 -3 -4 4 3 6 -2 15 -11 21
-10 6 -13 11 -8 11 6 0 3 5 -5 10 -8 5 -10 10 -4 10 7 0 19 -11 28 -24z m269
7 c-5 -12 -25 -18 -48 -13 -5 1 -17 2 -27 3 -9 1 -15 4 -12 8 2 4 13 5 23 2
10 -3 22 0 25 5 9 16 45 10 39 -5z m-1055 -8 c-2 -6 -6 -9 -10 -7 -5 1 -8 -2
-8 -8 0 -5 -5 -10 -10 -10 -7 0 -7 7 0 21 11 20 35 23 28 4z m179 8 c-4 -3 0
-14 9 -24 14 -16 14 -17 -3 -15 -20 3 -32 46 -12 46 7 0 9 -3 6 -7z m493 -3
c0 -5 -4 -10 -10 -10 -5 0 -10 5 -10 10 0 6 5 10 10 10 6 0 10 -4 10 -10z
m246 -5 c-3 -23 -12 -26 -13 -5 -1 11 2 20 7 20 4 0 7 -7 6 -15z m-566 -4 c0
-5 -11 -11 -25 -13 -14 -3 -25 -3 -25 -1 0 3 34 19 48 22 1 1 2 -3 2 -8z m133
-19 c-3 -12 -9 -19 -14 -16 -5 3 -3 14 3 24 15 24 19 21 11 -8z m146 7 c1 8 3
12 6 9 3 -3 1 -16 -4 -29 -9 -24 -45 -36 -56 -19 -9 14 15 23 30 10 11 -9 13
-7 10 7 -1 10 -8 17 -16 15 -9 -2 -9 1 1 13 13 16 15 16 21 -2 5 -11 8 -13 8
-4z m207 -6 c-7 -7 -26 7 -26 19 0 6 6 6 15 -2 9 -7 13 -15 11 -17z m-1091 -8
c6 0 17 4 25 9 10 6 8 2 -4 -12 -15 -17 -21 -19 -36 -9 -10 6 -16 15 -13 20 3
5 8 5 12 0 3 -5 11 -8 16 -8z m149 6 c3 -5 0 -8 -7 -7 -6 0 -13 -3 -13 -9 -1
-5 2 -9 7 -7 5 1 9 -2 9 -8 0 -13 -30 -13 -50 0 -11 7 -11 10 -2 10 7 0 11 4
7 9 -4 8 9 15 37 20 4 0 9 -3 12 -8z m256 -1 c0 -5 -5 -10 -11 -10 -5 0 -7 5
-4 10 3 6 8 10 11 10 2 0 4 -4 4 -10z m287 -5 c0 -8 -4 -12 -9 -9 -5 3 -6 10
-3 15 9 13 12 11 12 -6z m332 -1 c3 -4 -2 -4 -11 -1 -21 7 -23 -4 -5 -22 10
-10 8 -11 -6 -5 -11 4 -25 0 -36 -10 -17 -15 -19 -15 -32 0 -11 14 -10 16 6
13 27 -5 45 8 39 26 -4 10 0 13 16 10 13 -2 25 -7 29 -11z m-431 -19 c-3 -3
-9 2 -12 12 -6 14 -5 15 5 6 7 -7 10 -15 7 -18z m532 21 c0 -2 -7 -7 -16 -10
-8 -3 -12 -2 -9 4 6 10 25 14 25 6z m176 -18 c10 -13 15 -20 10 -16 -5 4 -16
3 -25 -2 -11 -5 -23 -5 -32 2 -11 8 -11 9 4 4 15 -5 22 4 18 27 -2 12 5 8 25
-15z m-1040 -14 c-4 -9 -9 -15 -11 -12 -3 3 -3 13 1 22 4 9 9 15 11 12 3 -3 3
-13 -1 -22z m261 15 c-9 -6 -15 -14 -12 -20 3 -5 -1 -6 -10 -3 -14 6 -14 8 2
20 10 7 23 13 28 13 6 0 2 -4 -8 -10z m555 -7 c-6 -2 -15 -4 -19 -4 -5 -1 -14
-8 -21 -17 -10 -12 -12 -13 -6 -1 14 30 26 39 42 33 10 -4 12 -8 4 -11z
m-1091 -18 c16 2 32 -1 36 -7 3 -6 1 -7 -5 -3 -6 3 -14 0 -19 -7 -4 -8 -21
-22 -38 -31 -24 -14 -26 -15 -10 -2 16 14 18 20 7 36 -6 11 -11 25 -11 32 1 7
3 5 6 -4 3 -13 12 -17 34 -14z m459 22 c0 -3 -4 -8 -10 -11 -5 -3 -10 -1 -10
4 0 6 5 11 10 11 6 0 10 -2 10 -4z m343 -52 c-4 -11 0 -22 12 -30 10 -8 14
-14 8 -14 -7 0 -11 -9 -10 -20 1 -14 8 -20 26 -20 13 0 21 -3 17 -7 -9 -10
-76 -10 -76 -1 0 4 5 8 10 8 6 0 10 7 10 16 0 9 -5 13 -12 9 -7 -4 -5 0 4 8
10 8 15 17 11 21 -3 3 -13 0 -22 -8 -14 -13 -16 -12 -16 9 0 13 2 23 5 23 19
-1 23 4 10 12 -13 8 -12 10 5 10 15 0 16 3 7 12 -7 7 -12 17 -12 22 0 6 7 1
15 -11 8 -12 12 -29 8 -39z m-692 16 c-4 -3 -7 -13 -6 -22 2 -9 -3 -19 -11
-22 -12 -4 -12 -2 -4 14 8 15 8 20 -2 21 -11 0 -11 2 0 6 10 4 10 8 0 21 -12
14 -11 14 9 1 12 -7 19 -16 14 -19z m86 15 c0 -8 -4 -15 -9 -15 -10 0 -11 14
-1 23 9 10 10 9 10 -8z m173 -2 c-17 -12 -19 -17 -9 -25 11 -6 9 -8 -6 -6 -11
2 -20 -2 -20 -9 0 -6 -3 -14 -7 -18 -14 -14 -1 27 14 45 9 10 15 20 13 22 -2
2 5 5 17 5 21 2 21 2 -2 -14z m370 13 c0 -2 -7 -7 -16 -10 -8 -3 -12 -2 -9 4
6 10 25 14 25 6z m90 -6 c0 -5 -2 -10 -4 -10 -3 0 -8 5 -11 10 -3 6 -1 10 4
10 6 0 11 -4 11 -10z m298 -2 c-2 -7 2 -12 9 -11 7 2 10 -3 7 -11 -5 -12 -9
-12 -23 2 -11 11 -13 20 -7 24 15 10 16 10 14 -4z m77 -17 c-6 -5 -25 10 -25
20 0 5 6 4 14 -3 8 -7 12 -15 11 -17z m-652 0 c5 -21 -28 -37 -40 -19 -4 7 -1
8 6 4 8 -5 14 0 18 13 7 26 9 26 16 2z m22 9 c3 -5 1 -10 -4 -10 -6 0 -11 5
-11 10 0 6 2 10 4 10 3 0 8 -4 11 -10z m-435 -15 c-17 -20 -6 -30 12 -12 15
16 53 4 43 -13 -6 -10 29 -32 37 -24 3 3 8 -4 11 -16 7 -28 2 -26 -39 15 -32
33 -52 46 -40 27 6 -10 -30 -9 -40 1 -7 6 13 37 23 37 3 0 0 -7 -7 -15z m364
0 c-4 -8 -10 -12 -15 -9 -11 6 -2 24 11 24 5 0 7 -7 4 -15z m366 6 c0 -6 -4
-12 -8 -15 -5 -3 -9 1 -9 9 0 8 4 15 9 15 4 0 8 -4 8 -9z m-437 -22 c-6 -21
-25 -27 -20 -6 1 6 -4 11 -11 9 -8 -1 -11 1 -9 6 3 4 14 8 25 9 15 1 19 -3 15
-18z m625 -2 c17 -18 8 -38 -16 -36 -15 1 -15 2 1 6 27 7 14 28 -15 25 -15 -1
-28 4 -31 11 -7 19 41 14 61 -6z m262 19 c0 -2 -7 -7 -16 -10 -8 -3 -12 -2 -9
4 6 10 25 14 25 6z m-204 -40 c8 -3 14 -1 14 4 0 6 5 10 11 10 6 0 9 -7 5 -15
-7 -19 26 -38 43 -25 6 6 5 2 -3 -7 -13 -14 -17 -14 -32 -3 -9 8 -23 15 -32
17 -21 3 -43 33 -34 47 4 7 8 5 10 -6 2 -9 10 -19 18 -22z m72 26 c15 12 16
11 3 -4 -14 -19 -32 -15 -30 5 0 8 2 8 6 -1 4 -10 8 -10 21 0z m-938 -12 c-8
-5 -19 -10 -25 -10 -5 0 -3 5 5 10 8 5 20 10 25 10 6 0 3 -5 -5 -10z m375 0
c-3 -5 -1 -10 6 -10 7 0 10 -3 6 -6 -9 -9 -28 6 -22 17 4 5 8 9 11 9 3 0 2 -4
-1 -10z m65 5 c0 -2 -10 -10 -22 -16 -21 -11 -22 -11 -9 4 13 16 31 23 31 12z
m190 -7 c0 -5 -13 -8 -30 -8 -16 0 -30 3 -30 8 0 4 14 7 30 7 17 0 30 -3 30
-7z m433 0 c-4 -7 -8 -17 -8 -22 0 -5 -10 -12 -22 -17 -13 -5 -23 -6 -23 -3 0
2 10 9 23 14 16 6 17 9 5 9 -9 1 -20 6 -24 12 -4 7 0 9 14 5 11 -4 23 -2 27 4
3 5 8 10 11 10 3 0 2 -6 -3 -12z m-1259 -20 c-3 -5 -12 -4 -20 3 -19 16 -18
18 6 12 11 -3 17 -9 14 -15z m317 8 c-9 -10 -8 -16 4 -26 13 -11 13 -15 3 -22
-9 -7 -6 -8 10 -5 12 3 20 1 16 -4 -9 -16 -32 -10 -48 12 -8 12 -19 18 -25 15
-5 -4 -13 -1 -17 5 -4 7 -3 9 3 6 6 -4 22 2 34 13 28 23 36 25 20 6z m356 -8
c-3 -8 -6 -5 -6 6 -1 11 2 17 5 13 3 -3 4 -12 1 -19z m242 1 c-7 -4 -17 -5
-22 -2 -5 3 -3 9 4 14 7 4 17 5 22 2 5 -3 3 -9 -4 -14z m-382 -4 c0 -8 -4 -12
-9 -9 -5 3 -6 10 -3 15 9 13 12 11 12 -6z m-570 -17 c-3 -8 -6 -5 -6 6 -1 11
2 17 5 13 3 -3 4 -12 1 -19z m86 7 c-3 -9 -8 -14 -10 -11 -3 3 -2 9 2 15 9 16
15 13 8 -4z m773 3 c4 -7 4 -10 -1 -6 -4 4 -15 2 -24 -5 -14 -11 -14 -10 -2 6
16 20 18 21 27 5z m58 -22 c-3 -8 -13 -17 -22 -21 -13 -5 -13 -2 3 15 16 18
16 20 2 20 -10 0 -17 5 -17 10 0 7 6 7 20 0 11 -6 17 -17 14 -24z m-934 20 c0
-3 -4 -8 -10 -11 -5 -3 -10 -1 -10 4 0 6 5 11 10 11 6 0 10 -2 10 -4z m431
-14 c-7 -2 -18 1 -23 6 -8 8 -4 9 13 5 13 -4 18 -8 10 -11z m63 9 c3 -5 -1
-11 -9 -14 -9 -4 -12 -1 -8 9 6 16 10 17 17 5z m131 -1 c-3 -5 -11 -10 -16
-10 -6 0 -7 5 -4 10 3 6 11 10 16 10 6 0 7 -4 4 -10z m433 -8 c-22 -4 -23 -28
-3 -36 12 -4 13 -10 6 -25 -6 -10 -8 -21 -5 -24 3 -3 0 -8 -7 -13 -8 -4 -10
-3 -5 4 4 7 1 12 -9 12 -9 0 -14 -3 -12 -7 3 -5 -1 -14 -9 -21 -12 -11 -14
-10 -14 3 0 17 -16 20 -23 5 -3 -6 -4 -5 -3 2 2 7 11 13 22 13 23 0 26 34 4
53 -13 11 -11 11 8 2 12 -6 20 -15 17 -20 -9 -14 9 -19 22 -5 9 10 6 15 -13
26 -18 9 -21 15 -12 21 8 6 -1 7 -22 3 -34 -6 -34 -6 -10 7 14 8 39 12 55 9
19 -3 23 -6 13 -9z m175 -2 c-3 -11 -9 -17 -15 -14 -5 3 -4 12 3 20 16 19 18
18 12 -6z m-1093 -4 c0 -18 -27 -29 -36 -14 -4 7 -3 8 5 4 6 -4 14 0 17 8 8
20 14 21 14 2z m75 -7 c-3 -12 -1 -27 3 -33 11 -19 11 -36 -1 -43 -7 -3 -9 -3
-5 2 4 4 1 22 -6 39 -13 32 -11 56 4 56 5 0 7 -10 5 -21z m60 11 c3 -5 1 -10
-4 -10 -6 0 -11 5 -11 10 0 6 2 10 4 10 3 0 8 -4 11 -10z m315 -10 c8 -5 11
-10 5 -10 -5 0 -17 5 -25 10 -8 5 -10 10 -5 10 6 0 17 -5 25 -10z m125 0 c3
-6 -4 -10 -17 -10 -18 0 -20 2 -8 10 19 12 18 12 25 0z m179 -5 c-4 -8 -10
-15 -15 -15 -4 0 -6 7 -3 15 4 8 10 15 15 15 4 0 6 -7 3 -15z m-600 -15 c-6
-6 -15 -5 -24 1 -13 9 -12 10 3 5 9 -3 17 0 17 6 0 6 3 8 7 5 4 -4 2 -12 -3
-17z m35 6 c9 -11 9 -16 -1 -22 -7 -4 -10 -4 -6 1 4 4 3 14 -3 22 -6 7 -9 13
-6 13 2 0 10 -6 16 -14z m127 -15 c-4 -35 -13 -51 -31 -51 -7 0 -16 -6 -19
-12 -2 -7 -4 -2 -3 12 1 14 -3 24 -10 23 -6 -1 -14 4 -17 13 -4 12 -2 12 14 4
14 -8 20 -8 20 0 0 8 6 7 21 0 16 -9 20 -8 18 2 -2 19 0 38 6 38 2 0 3 -13 1
-29z m180 -6 c-1 -8 -5 -17 -8 -21 -4 -3 -5 2 -4 13 2 10 -2 25 -8 33 -9 13
-9 13 6 2 9 -7 15 -19 14 -27z m479 24 c-5 -7 3 -9 22 -6 21 3 30 1 30 -9 0
-7 -5 -10 -11 -6 -6 3 -20 6 -30 7 -20 0 -36 25 -16 25 6 0 8 -5 5 -11z m102
-29 c-1 -10 -5 -16 -9 -14 -5 3 -6 10 -2 15 3 5 0 18 -8 27 -12 15 -11 16 4 4
9 -7 16 -22 15 -32z m98 20 c8 -13 -5 -13 -25 0 -13 8 -13 10 2 10 9 0 20 -4
23 -10z m-345 -15 c-5 -7 -9 -14 -7 -16 1 -2 0 -3 -2 -1 -11 7 -7 29 5 29 9 0
11 -4 4 -12z m-1000 -4 c0 -6 -5 -13 -12 -17 -6 -4 -8 -3 -4 4 3 5 0 13 -6 15
-8 3 -6 6 5 6 9 1 17 -3 17 -8z m64 -6 c-4 -8 -9 -15 -13 -15 -4 0 -8 7 -8 15
0 8 6 15 13 15 8 0 11 -6 8 -15z m120 -2 c10 1 21 -4 23 -10 3 -7 0 -13 -7
-13 -6 0 -8 5 -5 10 3 6 1 10 -4 10 -6 0 -11 -5 -11 -11 0 -5 -5 -7 -11 -4 -6
4 -16 -1 -24 -11 -7 -11 -17 -16 -21 -11 -4 4 -2 7 4 7 7 0 12 5 12 11 0 5 -6
7 -12 3 -7 -4 -4 2 6 15 11 12 22 17 25 12 4 -5 15 -9 25 -8z m556 7 c0 -5 -2
-10 -4 -10 -3 0 -8 5 -11 10 -3 6 -1 10 4 10 6 0 11 -4 11 -10z m290 -10 c0
-5 -5 -10 -11 -10 -5 0 -7 5 -4 10 3 6 8 10 11 10 2 0 4 -4 4 -10z m-1015 -24
c-10 -7 -15 -18 -11 -24 4 -7 2 -12 -3 -12 -17 0 -13 32 6 46 10 7 20 10 22 8
3 -2 -4 -10 -14 -18z m85 18 c0 -8 -19 -13 -24 -6 -3 5 1 9 9 9 8 0 15 -2 15
-3z m230 -36 c0 -4 -9 0 -19 9 -11 9 -17 21 -14 26 6 10 33 -19 33 -35z m45
33 c3 -5 2 -12 -3 -15 -5 -3 -9 1 -9 9 0 17 3 19 12 6z m240 -1 c3 -5 1 -10
-4 -10 -6 0 -11 5 -11 10 0 6 2 10 4 10 3 0 8 -4 11 -10z m244 -18 c-1 -15 -2
-15 -6 1 -2 9 -9 15 -14 11 -5 -3 -7 -10 -4 -15 10 -15 -5 -10 -23 8 -16 16
-16 16 0 10 10 -3 20 -2 23 4 9 14 25 1 24 -19z m24 8 c-3 -12 -8 -19 -11 -16
-5 6 5 36 12 36 2 0 2 -9 -1 -20z m236 -22 c1 -5 -3 -8 -7 -8 -4 0 -8 12 -9
28 -1 23 -1 24 7 7 5 -11 9 -23 9 -27z m31 26 c0 -7 12 -14 28 -16 l27 -3 -27
-6 c-21 -5 -31 -1 -42 16 -12 19 -12 22 0 22 8 0 14 -6 14 -13z m121 -21 c-9
-16 -10 -14 -11 12 0 21 3 26 11 18 8 -8 8 -16 0 -30z m-514 12 c2 -6 -4 -20
-13 -30 -15 -19 -15 -19 -10 -1 4 10 1 25 -6 33 -10 13 -9 15 6 12 11 -2 21
-9 23 -14z m187 6 c3 -5 -1 -11 -9 -15 -9 -3 -15 0 -15 9 0 16 16 20 24 6z
m-253 -19 c-7 -2 -18 1 -23 6 -8 8 -4 9 13 5 13 -4 18 -8 10 -11z m99 -2 c0
-4 -7 -11 -16 -14 -13 -5 -14 -4 -6 7 7 8 8 18 4 22 -4 5 -1 5 6 1 6 -4 12
-11 12 -16z m555 10 c3 -5 -1 -10 -10 -10 -9 0 -13 5 -10 10 3 6 8 10 10 10 2
0 7 -4 10 -10z m-1241 -8 c3 -5 -1 -9 -9 -9 -8 0 -12 4 -9 9 3 4 7 8 9 8 2 0
6 -4 9 -8z m-21 -25 c4 3 7 -1 7 -10 0 -24 -17 -21 -25 3 -4 11 -11 17 -17 14
-7 -5 -8 -2 -3 6 6 10 11 10 20 -3 7 -9 15 -14 18 -10z m88 -13 c-18 -14 -31
-9 -31 11 0 18 22 24 36 11 8 -8 7 -14 -5 -22z m1147 15 c3 -12 2 -12 -6 0
-11 16 -32 6 -32 -15 0 -10 5 -12 13 -8 7 5 7 1 -3 -12 -22 -29 -24 -30 -17
-12 3 10 2 20 -4 24 -6 4 -4 13 7 25 19 21 36 21 42 -2z m-918 6 c0 -7 -30
-13 -34 -7 -3 4 4 9 15 9 10 1 19 0 19 -2z m31 -12 c13 -16 12 -17 -3 -4 -10
7 -18 15 -18 17 0 8 8 3 21 -13z m62 5 c-2 -5 -10 -8 -18 -8 -8 0 -16 3 -18 8
-3 4 5 7 18 7 13 0 21 -3 18 -7z m76 -11 c0 -9 -2 -8 -6 1 -2 6 -10 9 -15 6
-7 -4 -8 -2 -4 5 9 13 26 5 25 -12z m111 19 c0 -2 -7 -7 -16 -10 -8 -3 -12 -2
-9 4 6 10 25 14 25 6z m176 -16 c8 0 14 -4 14 -9 0 -5 8 -11 18 -13 11 -2 13
-6 6 -11 -12 -7 -65 32 -63 48 0 6 3 4 6 -2 2 -7 11 -13 19 -13z m54 16 c0 -2
-8 -10 -17 -17 -16 -13 -17 -12 -4 4 13 16 21 21 21 13z m72 -10 c6 4 9 1 6
-6 -8 -24 -28 -23 -27 2 0 13 3 17 6 10 2 -6 9 -9 15 -6z m152 0 c11 1 20 -5
23 -17 3 -10 9 -17 12 -14 4 2 8 -2 8 -10 0 -8 -4 -15 -9 -15 -4 0 -8 6 -8 13
0 8 -4 7 -10 -3 -8 -11 -9 -9 -5 11 5 19 2 26 -9 26 -11 0 -15 -7 -11 -21 5
-19 4 -18 -7 2 -11 22 -35 25 -31 4 2 -7 -4 -9 -14 -5 -11 4 -13 8 -5 11 7 2
12 10 12 18 0 11 5 12 18 6 9 -5 25 -8 36 -6z m96 -18 c0 -4 -6 -10 -12 -14
-7 -4 -10 -3 -5 1 4 5 -1 17 -10 28 -18 19 -17 19 5 6 12 -8 22 -17 22 -21z
m-966 7 c3 -9 0 -15 -9 -15 -9 0 -12 6 -9 15 4 8 7 15 9 15 2 0 5 -7 9 -15z
m66 -10 c0 -9 6 -12 18 -9 13 5 14 4 3 -4 -19 -14 -41 -4 -34 15 5 12 3 14 -7
8 -9 -5 -11 -4 -6 4 9 14 26 5 26 -14z m91 -2 c13 -16 12 -17 -3 -5 -9 8 -23
10 -29 6 -8 -4 -9 -3 -5 4 10 17 21 15 37 -5z m226 -3 c3 -10 2 -11 -4 -4 -4
6 -15 14 -23 17 -11 5 -9 6 4 4 11 -1 21 -9 23 -17z m116 8 c3 -8 -4 -13 -19
-13 -22 0 -23 1 -7 13 9 6 18 12 19 12 1 0 4 -6 7 -12z m181 -3 c-4 -8 -10
-15 -15 -15 -4 0 -6 7 -3 15 4 8 10 15 15 15 4 0 6 -7 3 -15z m-904 -9 c0 -8
6 -16 12 -18 7 -3 4 -7 -7 -10 -16 -4 -20 0 -20 19 0 12 3 23 8 23 4 0 7 -6 7
-14z m180 4 c0 -5 -2 -10 -4 -10 -3 0 -8 5 -11 10 -3 6 -1 10 4 10 6 0 11 -4
11 -10z m233 -10 c-3 -11 -10 -23 -16 -27 -5 -3 -8 -2 -5 3 3 5 8 17 11 27 9
24 16 22 10 -3z m379 -12 c-7 -7 -12 -8 -12 -2 0 14 12 26 19 19 2 -3 -1 -11
-7 -17z m202 13 c-3 -3 -17 -7 -32 -8 -20 -3 -23 -1 -13 6 15 10 54 11 45 2z
m-745 -17 c5 3 8 -2 7 -11 -4 -28 -41 -25 -41 3 0 16 3 20 12 12 7 -5 16 -7
22 -4z m267 -9 c-4 -36 -12 -40 -12 -5 0 17 3 30 7 30 4 0 6 -11 5 -25z m230
-2 c-10 -10 -19 5 -10 18 6 11 8 11 12 0 2 -7 1 -15 -2 -18z m282 13 c-2 -1
-12 -8 -22 -16 -18 -14 -18 -14 -6 7 8 12 18 19 23 16 4 -3 7 -6 5 -7z m-896
-32 c-8 -15 -9 -15 -15 0 -4 10 -3 15 3 11 6 -3 10 2 11 12 0 10 3 13 5 6 3
-7 1 -20 -4 -29z m61 29 c-7 -2 -19 -2 -25 0 -7 3 -2 5 12 5 14 0 19 -2 13 -5z
m279 -17 c6 4 8 3 4 -4 -3 -5 -1 -12 5 -14 7 -2 -6 -4 -27 -4 -21 -1 -31 1
-21 3 13 3 16 11 12 26 -5 19 -5 20 5 4 6 -9 16 -14 22 -11z m115 -3 c0 -16
-1 -20 -4 -10 -2 9 -9 15 -14 12 -5 -4 -9 -2 -9 4 0 5 6 12 13 14 6 3 12 6 12
6 0 1 1 -11 2 -26z m129 15 c5 4 6 3 2 -2 -4 -5 0 -15 10 -22 15 -12 15 -12
-5 -7 -13 3 -23 9 -23 14 0 5 -7 9 -16 9 -8 0 -12 5 -9 10 5 8 11 8 19 1 7 -6
17 -7 22 -3z m360 -11 c7 2 17 -10 22 -27 13 -36 6 -41 -8 -5 -6 15 -15 23
-23 19 -9 -3 -17 3 -20 18 -5 20 -4 21 6 7 7 -9 17 -14 23 -12z m-1140 -2 c-3
-8 0 -15 6 -15 6 0 9 -3 5 -6 -10 -11 -26 6 -20 21 3 8 7 15 10 15 3 0 3 -7
-1 -15z m359 5 c3 -5 1 -10 -4 -10 -6 0 -11 5 -11 10 0 6 2 10 4 10 3 0 8 -4
11 -10z m61 -5 c-1 -8 -5 -17 -8 -21 -5 -4 -4 16 1 34 3 9 9 -1 7 -13z m288 0
c-4 -8 -10 -12 -15 -9 -11 6 -2 24 11 24 5 0 7 -7 4 -15z m117 -8 c-10 -9 -11
-8 -5 6 3 10 9 15 12 12 3 -3 0 -11 -7 -18z m79 3 c0 -5 8 -11 18 -13 13 -4
11 -5 -5 -6 -13 0 -23 4 -23 10 0 5 -4 8 -9 5 -5 -3 -11 0 -14 8 -4 10 0 12
14 9 10 -3 19 -9 19 -13z m118 6 c-2 -1 -11 -7 -20 -14 -14 -11 -16 -10 -13 5
2 10 4 19 4 20 1 1 8 0 16 -4 9 -3 15 -6 13 -7z m-948 -6 c0 -5 -5 -10 -11
-10 -5 0 -7 5 -4 10 3 6 8 10 11 10 2 0 4 -4 4 -10z m54 1 c3 -5 -1 -14 -9
-21 -10 -9 -15 -9 -15 -1 0 6 6 11 13 11 8 0 7 4 -3 10 -9 6 -10 10 -3 10 6 0
14 -4 17 -9z m356 5 c0 -2 -8 -10 -17 -17 -16 -13 -17 -12 -4 4 13 16 21 21
21 13z m722 -8 c-19 -19 -14 -30 7 -18 14 7 22 7 26 0 4 -6 3 -10 -2 -9 -22 4
-35 -2 -30 -15 3 -8 1 -17 -6 -20 -7 -4 -2 -4 11 -2 18 4 22 1 18 -11 -5 -13
-4 -14 9 -3 12 10 13 15 3 28 -12 13 -10 14 9 1 19 -11 20 -15 8 -22 -9 -4
-13 -12 -10 -18 10 -14 -18 -11 -42 6 -12 9 -20 22 -17 29 3 8 1 23 -5 34 -11
21 -11 21 29 31 2 0 -1 -4 -8 -11z m58 -13 c14 -19 14 -19 -2 -6 -10 7 -18 18
-18 24 0 6 1 8 3 6 1 -2 9 -13 17 -24z m-1010 5 c0 -5 -2 -10 -4 -10 -3 0 -8
5 -11 10 -3 6 -1 10 4 10 6 0 11 -4 11 -10z m846 -14 c0 -26 -20 -25 -30 0 -3
8 -2 12 3 9 5 -3 12 -1 16 5 9 15 11 13 11 -14z m234 20 c0 -11 -19 -15 -25
-6 -3 5 1 10 9 10 9 0 16 -2 16 -4z m-609 -40 c-9 -19 -19 -29 -23 -22 -4 5
-3 15 2 22 6 6 6 15 2 19 -4 5 -2 5 5 1 6 -3 14 -2 18 4 14 22 12 8 -4 -24z
m-638 -2 c-3 -8 -8 -13 -11 -10 -2 3 -13 1 -23 -4 -14 -8 -17 -6 -16 10 1 12
5 16 10 11 12 -12 39 -2 30 12 -3 6 -1 7 5 3 6 -4 9 -13 5 -22z m48 13 c-6 -8
-8 -17 -4 -20 3 -4 1 -7 -5 -7 -15 0 -15 13 0 28 16 16 23 15 9 -1z m184 -17
c-5 -17 -10 -19 -21 -9 -8 6 -14 16 -14 21 0 6 7 5 15 -2 12 -10 15 -9 15 5 0
10 3 16 6 12 3 -3 3 -15 -1 -27z m-75 0 c-8 -5 -22 -9 -30 -9 -10 0 -8 3 5 9
27 12 43 12 25 0z m366 -2 c4 -7 4 -10 -1 -6 -4 4 -15 2 -24 -5 -14 -11 -14
-10 -2 6 16 20 18 21 27 5z m-400 -18 c8 0 14 -4 14 -10 0 -5 -4 -10 -8 -10
-12 0 -32 22 -31 35 0 5 3 4 6 -2 2 -7 11 -13 19 -13z m838 -22 c-3 -5 -10 -8
-15 -8 -6 0 -7 5 -4 10 3 6 2 10 -4 10 -6 0 -8 7 -5 15 6 14 8 13 19 -2 7 -10
11 -21 9 -25z m101 19 c1 -7 7 -11 13 -9 9 2 10 -3 4 -15 -5 -10 -7 -25 -4
-33 2 -8 2 -12 -2 -9 -4 4 -9 16 -11 29 -2 12 -9 28 -15 34 -5 7 -7 16 -3 19
8 8 18 -1 18 -16z m186 9 c5 3 9 0 9 -5 0 -6 -7 -11 -15 -11 -8 0 -15 8 -14
18 0 10 3 12 6 4 2 -6 9 -10 14 -6z m-826 -6 c13 -6 15 -9 5 -9 -8 0 -22 4
-30 9 -18 12 -2 12 25 0z m60 -4 c17 -17 10 -25 -16 -19 -20 5 -24 15 -12 26
9 10 13 9 28 -7z m125 -11 c14 -19 14 -19 -2 -6 -10 7 -18 18 -18 24 0 6 1 8
3 6 1 -2 9 -13 17 -24z m110 19 c0 -8 -19 -13 -24 -6 -3 5 1 9 9 9 8 0 15 -2
15 -3z m190 -8 c0 -8 -4 -17 -8 -20 -4 -2 -8 4 -8 15 0 10 4 19 8 19 4 0 8 -6
8 -14z m104 -12 c3 -8 2 -12 -4 -9 -6 3 -10 10 -10 16 0 14 7 11 14 -7z
m-1037 -36 c-16 -9 -27 0 -21 17 5 11 9 12 19 2 9 -8 10 -14 2 -19z m33 22 c8
-5 11 -10 5 -10 -5 0 -17 5 -25 10 -8 5 -10 10 -5 10 6 0 17 -5 25 -10z m50
-25 c14 -16 21 -27 16 -23 -5 4 -18 3 -29 -3 -14 -8 -18 -8 -13 0 4 6 1 11 -6
11 -10 0 -11 2 0 8 8 5 10 16 6 28 -4 10 -5 17 -3 14 2 -3 15 -18 29 -35z
m648 10 c-3 -3 -9 2 -12 12 -6 14 -5 15 5 6 7 -7 10 -15 7 -18z m339 -2 c0
-16 -1 -20 -4 -10 -3 10 -9 14 -16 10 -7 -4 -6 1 2 10 17 22 16 22 18 -10z
m-877 7 c3 0 -2 -5 -12 -10 -9 -6 -15 -18 -13 -28 2 -9 4 -21 4 -26 1 -5 7 -3
15 3 11 9 16 9 22 0 4 -7 3 -9 -4 -5 -6 3 -13 2 -17 -4 -4 -6 -11 -8 -16 -5
-5 4 -9 0 -9 -9 0 -8 6 -17 13 -19 7 -3 4 -6 -7 -6 -15 -1 -17 4 -13 26 3 16
-2 37 -11 52 -16 24 -16 25 2 18 13 -5 17 -3 13 7 -5 13 -1 14 33 6z m67 -15
c0 -20 -4 -19 -17 5 -8 15 -8 18 3 14 8 -3 14 -11 14 -19z m333 21 c0 -3 -4
-8 -10 -11 -5 -3 -10 -1 -10 4 0 6 5 11 10 11 6 0 10 -2 10 -4z m115 -6 c3 -5
1 -10 -4 -10 -6 0 -11 5 -11 10 0 6 2 10 4 10 3 0 8 -4 11 -10z m81 -2 c4 -7
2 -8 -4 -4 -7 4 -12 3 -12 -3 0 -6 -7 -8 -15 -5 -8 4 -15 9 -15 13 0 11 39 10
46 -1z m-343 -15 c-4 -10 -2 -14 5 -9 6 3 13 2 16 -3 4 -5 -1 -8 -9 -7 -20 3
-28 13 -20 25 10 17 15 13 8 -6z m60 -25 c-8 -14 -18 -8 -29 17 -12 24 -12 24
11 7 13 -9 21 -20 18 -24z m27 30 c0 -4 -7 -8 -15 -8 -8 0 -15 4 -15 8 0 5 7
9 15 9 8 0 15 -4 15 -9z m348 5 c-10 -2 -18 -8 -18 -12 0 -4 -7 -8 -16 -8 -14
0 -14 2 2 14 10 7 25 12 33 12 13 -1 12 -2 -1 -6z m294 -15 c-1 -9 2 -19 8
-23 5 -3 10 1 10 9 0 9 4 16 8 16 5 0 9 -7 9 -15 0 -17 -24 -28 -32 -14 -4 5
-11 6 -17 3 -7 -4 -8 -2 -4 5 4 6 0 14 -8 17 -20 8 -9 26 12 22 10 -2 16 -11
14 -20z m-542 8 c0 -3 -4 -8 -10 -11 -5 -3 -10 -1 -10 4 0 6 5 11 10 11 6 0
10 -2 10 -4z m295 -16 c-1 -11 -4 -22 -7 -25 -4 -5 -4 34 1 43 4 8 7 -1 6 -18z
m-218 -7 c0 -7 -3 -11 -5 -8 -10 10 -31 -17 -25 -33 4 -14 3 -15 -5 -2 -6 8
-9 17 -6 21 2 4 -2 10 -8 13 -7 3 -4 4 7 3 11 -1 19 3 18 9 -1 6 4 11 11 11 7
0 13 -6 13 -14z m52 8 c9 -6 10 -11 2 -15 -6 -4 -11 -3 -11 3 0 6 -7 7 -17 4
-11 -4 -14 -3 -9 5 8 14 16 15 35 3z m232 -14 c-10 -9 -11 -8 -5 6 3 10 9 15
12 12 3 -3 0 -11 -7 -18z m343 -16 c-5 -6 -34 20 -34 30 0 5 8 1 18 -8 10 -10
17 -20 16 -22z m-794 19 c0 -5 -2 -10 -4 -10 -3 0 -8 5 -11 10 -3 6 -1 10 4
10 6 0 11 -4 11 -10z m517 -22 c2 -17 0 -19 -7 -8 -5 8 -6 18 -4 22 8 12 10
10 11 -14z m80 16 c-3 -3 -12 -4 -19 -1 -8 3 -5 6 6 6 11 1 17 -2 13 -5z
m-1117 -16 c0 -4 -5 -8 -11 -8 -6 0 -8 -8 -5 -17 6 -17 5 -17 -7 -1 -10 13
-17 14 -25 6 -8 -8 -10 -5 -7 8 4 23 0 20 30 20 14 0 25 -4 25 -8z m120 8 c0
-2 -7 -6 -15 -10 -8 -3 -15 -1 -15 4 0 6 7 10 15 10 8 0 15 -2 15 -4z m187
-28 c-3 -7 -5 -2 -5 12 0 14 2 19 5 13 2 -7 2 -19 0 -25z m-57 13 c0 -6 -9 -9
-19 -8 -11 0 -17 5 -15 9 7 11 34 10 34 -1z m170 0 c0 -6 -4 -12 -8 -15 -5 -3
-9 1 -9 9 0 8 4 15 9 15 4 0 8 -4 8 -9z m40 6 c0 -2 -12 -14 -27 -28 -20 -17
-23 -18 -10 -3 9 11 14 24 10 27 -3 4 1 7 10 7 10 0 17 -1 17 -3z m37 -19 c-3
-8 -6 -5 -6 6 -1 11 2 17 5 13 3 -3 4 -12 1 -19z m337 -9 c12 -23 12 -28 2
-20 -12 11 -29 51 -21 51 2 0 10 -14 19 -31z m26 16 c-7 -9 -15 -13 -19 -10
-3 3 1 10 9 15 21 14 24 12 10 -5z m75 -3 c-3 -3 -11 0 -18 7 -9 10 -8 11 6 5
10 -3 15 -9 12 -12z m225 3 c6 -8 9 -18 6 -23 -3 -5 1 -9 9 -9 7 0 12 8 10 18
-3 13 1 16 13 12 11 -5 12 -8 4 -11 -9 -3 -10 -7 -2 -17 9 -10 4 -13 -20 -11
-34 2 -66 28 -56 45 10 15 21 14 36 -4z m-1140 -10 c0 -8 -4 -15 -10 -15 -5 0
-7 7 -4 15 4 8 8 15 10 15 2 0 4 -7 4 -15z m1068 -21 c-3 -14 -5 -12 -10 9 -3
19 -2 25 4 19 6 -6 8 -18 6 -28z m184 22 c7 4 8 2 4 -4 -11 -18 -26 -14 -25 6
0 10 3 12 6 4 2 -6 10 -9 15 -6z m-788 -12 c3 -8 2 -12 -4 -9 -6 3 -10 10 -10
16 0 14 7 11 14 -7z m51 -3 c-3 -6 -14 -10 -23 -10 -15 1 -15 2 1 6 9 2 17 9
17 15 0 6 3 9 6 5 3 -3 3 -10 -1 -16z m89 7 c-3 -4 -11 -5 -19 -1 -21 7 -19
12 4 10 11 0 18 -5 15 -9z m130 -7 c26 -29 2 -34 -24 -6 -18 19 -20 25 -8 25
8 0 23 -9 32 -19z m160 4 c3 -8 1 -15 -4 -15 -6 0 -10 7 -10 15 0 8 2 15 4 15
2 0 6 -7 10 -15z m74 7 c13 12 14 10 3 -9 -6 -13 -15 -23 -19 -23 -4 0 -8 10
-9 23 0 12 1 16 4 9 4 -10 8 -10 21 0z m40 -17 c-3 -3 -9 2 -12 12 -6 14 -5
15 5 6 7 -7 10 -15 7 -18z m-951 -1 c0 -7 -5 -11 -10 -7 -5 3 -6 -3 -2 -16 4
-14 2 -21 -6 -21 -7 0 -9 3 -6 7 4 3 2 12 -4 20 -9 10 -8 13 0 13 7 0 10 4 7
8 -3 5 1 9 8 9 7 0 13 -6 13 -13z m37 -9 c-4 -10 -2 -13 8 -10 9 4 15 0 15 -9
0 -11 -5 -13 -19 -5 -19 10 -23 21 -11 32 10 11 13 8 7 -8z m577 -16 c23 -2
23 -2 2 -6 -12 -2 -27 -11 -33 -19 -14 -16 -45 -20 -35 -4 4 6 10 8 15 5 5 -3
11 -1 15 5 3 5 -2 10 -12 10 -14 0 -15 2 -4 9 7 5 10 15 7 22 -4 8 -1 6 7 -3
8 -10 25 -19 38 -19z m-720 3 c-18 -2 -37 0 -42 5 -5 5 11 6 34 3 41 -4 41 -5
8 -8z m490 -5 c-10 -9 -11 -8 -5 6 3 10 9 15 12 12 3 -3 0 -11 -7 -18z m-287
-18 c-15 -16 -30 -26 -33 -23 -3 3 -1 8 5 12 6 4 10 14 9 22 -2 10 6 16 22 16
l25 2 -28 -29z m122 17 c-3 -19 -26 -46 -39 -46 -6 0 -2 7 9 15 10 8 15 15 10
15 -5 0 -3 7 4 15 15 19 19 19 16 1z m140 -7 c19 -22 19 -22 -1 -11 -11 6 -27
16 -35 22 -13 8 -13 10 1 10 9 0 24 -10 35 -21z m69 11 c3 -6 -1 -7 -9 -4 -18
7 -21 14 -7 14 6 0 13 -4 16 -10z m105 2 c0 -5 -7 -9 -15 -9 -8 0 -12 4 -9 9
3 4 9 8 15 8 5 0 9 -4 9 -8z m256 -8 c16 2 21 1 12 -1 -10 -2 -18 -8 -18 -13
0 -15 -32 -4 -43 16 -9 16 -8 17 5 6 8 -6 28 -10 44 -8z m204 1 c0 -2 -6 -5
-13 -8 -8 -3 -14 1 -14 8 0 7 6 11 14 8 7 -3 13 -6 13 -8z m-972 -20 c-3 -3
-9 2 -12 12 -6 14 -5 15 5 6 7 -7 10 -15 7 -18z m162 15 c0 -5 -2 -10 -4 -10
-3 0 -8 5 -11 10 -3 6 -1 10 4 10 6 0 11 -4 11 -10z m296 -6 c-9 -8 -16 -19
-16 -23 0 -4 -7 -8 -14 -8 -11 0 -9 7 7 23 12 13 26 24 30 24 5 0 1 -7 -7 -16z
m544 1 c0 -8 -2 -15 -4 -15 -2 0 -6 7 -10 15 -3 8 -1 15 4 15 6 0 10 -7 10
-15z m58 8 c-10 -2 -18 -9 -18 -15 0 -6 -3 -9 -6 -5 -10 10 6 27 24 26 15 -1
15 -2 0 -6z m-1139 -20 c-6 -7 -17 -13 -23 -12 -7 0 -6 2 2 6 6 2 10 8 8 12
-3 4 1 8 9 8 11 0 12 -4 4 -14z m741 -14 c0 -5 -7 -9 -15 -9 -9 0 -15 9 -15
21 0 18 2 19 15 9 8 -7 15 -16 15 -21z m-553 9 c0 -7 2 -20 4 -28 2 -8 -1 -14
-8 -13 -6 2 -15 -6 -18 -17 -4 -11 -11 -20 -16 -20 -5 0 -9 -10 -10 -22 0 -13
-3 -17 -6 -10 -2 6 -10 9 -16 5 -7 -4 -6 0 1 10 8 9 11 21 7 27 -3 5 -1 10 4
10 6 0 14 1 19 1 9 2 33 36 31 46 -2 11 0 23 4 23 2 0 4 -6 4 -12z m297 1 c-4
-7 -44 0 -44 7 0 2 11 3 24 2 14 -1 23 -5 20 -9z m83 5 c-3 -3 -12 -4 -19 -1
-8 3 -5 6 6 6 11 1 17 -2 13 -5z m123 2 c0 -2 -8 -10 -17 -17 -16 -13 -17 -12
-4 4 13 16 21 21 21 13z m276 -24 c-17 -16 -18 -16 -5 5 7 12 15 20 18 17 3
-2 -3 -12 -13 -22z m91 6 c-3 -8 -6 -5 -6 6 -1 11 2 17 5 13 3 -3 4 -12 1 -19z
m118 -1 c4 5 5 2 1 -5 -4 -7 -11 -10 -16 -7 -5 3 -11 1 -14 -4 -3 -5 1 -12 10
-15 9 -4 14 -13 10 -22 -3 -8 -2 -13 2 -10 4 2 14 1 22 -5 12 -7 11 -9 -5 -9
-11 0 -27 5 -35 10 -12 8 -13 12 -2 19 11 7 11 9 -2 14 -8 3 -17 3 -19 -1 -2
-4 -2 -1 -1 6 2 7 -6 17 -19 22 -16 6 -17 9 -5 9 9 1 20 -4 23 -9 4 -6 11 -8
16 -4 6 3 5 12 -3 22 -11 14 -9 14 8 -1 11 -9 24 -14 29 -10z m31 1 l19 -23
-25 20 c-14 11 -27 21 -29 22 -2 2 0 3 6 3 5 0 18 -10 29 -22z m-1138 -9 c3
-12 2 -12 -6 0 -8 11 -10 11 -15 0 -4 -10 -6 -8 -6 4 -1 21 21 18 27 -4z m225
-6 c-7 -3 -9 -12 -6 -21 4 -14 3 -14 -5 -3 -12 17 -4 43 11 34 8 -5 8 -8 0
-10z m130 -3 c-4 -17 -8 -18 -20 -8 -13 10 -13 13 4 19 10 4 19 8 20 8 0 1 -1
-8 -4 -19z m-463 0 c0 -5 -5 -10 -11 -10 -5 0 -7 5 -4 10 3 6 8 10 11 10 2 0
4 -4 4 -10z m25 0 c3 -5 1 -10 -4 -10 -6 0 -11 5 -11 10 0 6 2 10 4 10 3 0 8
-4 11 -10z m141 -17 c-7 -7 -26 7 -26 19 0 6 6 6 15 -2 9 -7 13 -15 11 -17z
m34 23 c0 -3 -4 -8 -10 -11 -5 -3 -10 -1 -10 4 0 6 5 11 10 11 6 0 10 -2 10
-4z m320 -6 c0 -5 -5 -10 -12 -10 -6 0 -21 -8 -32 -17 -20 -17 -20 -17 -7 0 7
9 10 17 5 18 -5 1 2 5 16 9 14 4 26 8 28 9 1 1 2 -3 2 -9z m84 -15 c3 -8 0
-17 -7 -21 -7 -4 -9 -3 -4 1 4 5 -1 17 -10 27 -15 17 -15 18 -1 13 9 -4 19
-13 22 -20z m326 10 c-7 -8 -16 -12 -21 -10 -4 3 -12 -2 -18 -12 -7 -14 -4
-21 14 -33 l24 -16 -29 -11 c-24 -9 -32 -8 -42 5 -11 13 -10 14 15 8 16 -4 27
-2 27 4 0 9 -14 14 -32 11 -5 0 -7 2 -7 7 3 18 -2 32 -12 32 -5 0 -7 -5 -3
-12 4 -7 3 -8 -5 -4 -9 6 -9 11 0 22 8 9 16 11 23 5 7 -6 18 -6 26 -1 8 5 17
7 21 4 4 -2 10 0 14 6 3 5 9 10 12 10 3 0 0 -7 -7 -15z m-640 -13 c0 -12 -3
-12 -15 -2 -8 7 -15 13 -15 15 0 1 7 2 15 2 8 0 15 -7 15 -15z m408 -2 c5 -13
3 -13 -11 -1 -16 13 -22 8 -17 -14 1 -5 -2 -6 -6 -2 -4 4 -9 14 -10 21 -3 18
38 15 44 -4z m89 -25 c0 -8 -4 -15 -9 -15 -5 0 -6 -6 -2 -12 5 -10 3 -10 -7 0
-8 7 -14 26 -14 42 0 25 2 27 16 14 9 -8 16 -21 16 -29z m340 23 c2 -18 0 -20
-7 -8 -12 18 -13 30 -2 30 4 0 9 -10 9 -22z m-587 -5 c0 -9 -3 -13 -6 -10 -4
3 -15 2 -25 -4 -13 -7 -19 -6 -19 1 0 8 25 24 48 29 1 1 2 -6 2 -16z m710 2
c0 -2 -6 -5 -13 -8 -8 -3 -14 1 -14 8 0 7 6 11 14 8 7 -3 13 -6 13 -8z m64 7
c3 -5 -1 -9 -9 -9 -8 0 -15 4 -15 9 0 4 4 8 9 8 6 0 12 -4 15 -8z m-1274 -16
c-15 -15 -12 -24 8 -29 9 -3 -10 -4 -43 -4 -38 0 -46 2 -22 4 32 4 41 11 39
34 -1 3 6 6 14 6 10 0 11 -4 4 -11z m83 -21 c-12 -24 -19 -31 -25 -23 -13 21
-9 41 6 35 8 -3 17 1 20 9 3 8 8 14 11 14 2 0 -3 -16 -12 -35z m448 12 c-10
-9 -11 -8 -5 6 3 10 9 15 12 12 3 -3 0 -11 -7 -18z m399 19 c0 -2 -7 -6 -15
-10 -8 -3 -15 -1 -15 4 0 6 7 10 15 10 8 0 15 -2 15 -4z m-673 -46 c2 -11 -2
-20 -7 -20 -5 0 -9 11 -8 25 3 27 10 25 15 -5z m137 18 c-5 -8 0 -9 15 -5 13
3 20 3 17 0 -3 -4 -1 -12 6 -20 8 -11 8 -17 -2 -26 -8 -8 -11 -8 -7 -1 8 15
-13 32 -34 29 -12 -2 -15 3 -12 16 3 10 10 19 15 19 5 0 6 -5 2 -12z m-197
-10 c-2 -7 2 -20 9 -28 9 -10 10 -20 4 -30 -5 -8 -10 -10 -10 -4 0 6 -11 10
-25 9 -14 -2 -28 2 -31 7 -5 7 2 9 19 4 34 -8 45 11 13 24 -31 11 -35 20 -6
13 11 -3 20 0 20 6 0 6 3 11 6 11 3 0 4 -6 1 -12z m868 2 c-3 -5 0 -10 8 -10
7 0 23 -9 35 -20 26 -24 30 -25 28 -3 0 10 7 19 18 21 11 2 16 0 12 -7 -12
-19 4 -34 20 -20 11 9 18 9 25 2 8 -8 6 -11 -6 -10 -20 2 -29 -29 -15 -52 8
-14 9 -14 10 1 0 11 5 15 15 12 15 -6 21 -25 8 -23 -20 3 -26 -2 -13 -11 9 -6
10 -10 3 -10 -6 0 -15 5 -18 10 -4 7 -12 7 -25 0 -22 -12 -28 -4 -25 28 1 14
-5 26 -14 30 -9 3 -24 14 -33 25 -9 10 -21 16 -26 13 -11 -7 -24 19 -15 28 10
10 15 7 8 -4z m198 -10 c3 -11 1 -18 -4 -14 -5 3 -9 12 -9 20 0 20 7 17 13 -6z
m-653 0 c0 -5 -8 -10 -17 -10 -15 0 -16 2 -3 10 19 12 20 12 20 0z m76 -8
c-10 -2 -22 0 -28 6 -6 6 0 7 19 4 21 -5 23 -7 9 -10z m-386 0 c0 -5 -10 -17
-22 -28 -23 -19 -23 -19 -5 2 9 11 14 24 10 27 -3 4 -1 7 5 7 7 0 12 -4 12 -8z
m170 -7 c1 16 30 -28 30 -44 -1 -9 -7 -2 -15 14 -7 17 -14 23 -14 15 -1 -13
-2 -13 -11 0 -5 8 -10 20 -10 25 0 6 5 3 10 -5 5 -8 10 -10 10 -5z m-86 -14
c3 -4 0 -13 -6 -21 -8 -12 -9 -12 -4 3 3 11 0 17 -9 17 -7 0 -16 4 -19 9 -4 5
3 7 14 4 11 -3 22 -8 24 -12z m143 13 c-3 -3 -12 -4 -19 -1 -8 3 -5 6 6 6 11
1 17 -2 13 -5z m251 -19 c-13 -13 -45 -12 -45 1 0 10 7 12 20 8 15 -5 18 -3
12 7 -6 11 -5 12 5 2 8 -7 11 -15 8 -18z m-881 -20 c2 -13 0 -26 -4 -28 -5 -3
-8 10 -8 28 -1 38 7 38 12 0z m198 25 c-3 -5 -14 -10 -23 -9 -14 0 -13 2 3 9
27 11 27 11 20 0z m905 1 c0 -5 -8 -15 -17 -22 -16 -13 -17 -12 -5 3 10 13 10
17 0 21 -8 4 -7 6 5 6 9 1 17 -3 17 -8z m68 -4 c6 3 12 0 12 -6 0 -12 -40 -5
-54 10 -8 9 -6 9 9 2 11 -6 26 -8 33 -6z m-533 -7 c3 -5 1 -10 -4 -10 -6 0
-11 5 -11 10 0 6 2 10 4 10 3 0 8 -4 11 -10z m130 -8 c-3 -3 -11 0 -18 7 -9
10 -8 11 6 5 10 -3 15 -9 12 -12z m160 8 c3 -5 1 -10 -4 -10 -6 0 -11 5 -11
10 0 6 2 10 4 10 3 0 8 -4 11 -10z m-699 -9 c5 -5 18 -11 29 -13 16 -3 17 -5
5 -10 -9 -3 -26 3 -39 13 -13 11 -19 19 -14 19 5 0 13 -4 19 -9z m318 -6 c-7
-18 -20 -19 -30 -3 -4 6 -3 8 4 4 6 -3 13 -2 17 4 9 15 15 12 9 -5z m135 -34
c0 -14 -1 -14 -6 -1 -3 8 -10 24 -15 35 -9 20 -9 20 6 1 9 -11 16 -27 15 -35z
m-569 35 c0 -3 -4 -8 -10 -11 -5 -3 -10 -1 -10 4 0 6 5 11 10 11 6 0 10 -2 10
-4z m70 -17 c0 -5 -4 -9 -10 -9 -5 0 -10 7 -10 16 0 8 5 12 10 9 6 -3 10 -10
10 -16z m851 -10 c-5 -13 -10 -19 -10 -12 -1 15 10 45 15 40 3 -2 0 -15 -5
-28z m-661 11 c0 -5 -4 -10 -9 -10 -6 0 -13 5 -16 10 -3 6 1 10 9 10 9 0 16
-4 16 -10z m210 7 c0 -2 -10 -12 -22 -23 -14 -12 -18 -13 -10 -3 6 9 9 19 5
22 -3 4 1 7 10 7 10 0 17 -2 17 -3z m163 -12 c4 -8 3 -16 -1 -19 -4 -3 -9 4
-9 15 -2 23 3 25 10 4z m152 -1 c-12 -9 -19 -24 -17 -37 2 -12 1 -19 -3 -15
-4 3 -7 10 -7 15 0 4 -5 15 -11 23 -6 8 -8 12 -3 8 5 -4 18 -1 30 7 27 20 37
19 11 -1z m80 0 c-11 -8 -19 -19 -18 -24 1 -4 -5 -14 -14 -22 -14 -11 -16 -11
-8 2 5 8 8 23 7 32 -2 10 5 18 20 21 13 2 25 5 28 5 3 1 -4 -6 -15 -14z m234
-6 c0 -13 -3 -17 -6 -10 -2 6 -9 10 -13 7 -5 -3 -12 0 -16 6 -4 8 -3 9 4 5 7
-4 12 -2 12 3 0 6 5 11 10 11 6 0 10 -10 9 -22z m-392 6 c-3 -3 -12 -4 -19 -1
-8 3 -5 6 6 6 11 1 17 -2 13 -5z m113 -4 c0 -5 -5 -10 -11 -10 -5 0 -7 5 -4
10 3 6 8 10 11 10 2 0 4 -4 4 -10z m423 -10 c3 -11 1 -18 -4 -14 -5 3 -9 12
-9 20 0 20 7 17 13 -6z m43 8 c4 -6 3 -8 -4 -4 -5 3 -13 0 -15 -6 -3 -8 -6 -6
-6 5 -1 19 14 23 25 5z m-1196 -22 c-17 -15 -27 -19 -32 -12 -13 19 -9 24 12
19 11 -3 20 0 20 6 0 6 6 11 12 11 7 0 1 -11 -12 -24z m395 14 c3 -5 1 -10 -4
-10 -6 0 -11 5 -11 10 0 6 2 10 4 10 3 0 8 -4 11 -10z m518 -5 c-3 -9 -8 -14
-10 -11 -3 3 -2 9 2 15 9 16 15 13 8 -4z m-997 -15 c0 -11 -7 -20 -16 -21 -8
0 -25 -2 -38 -3 -13 -2 -25 1 -28 6 -3 4 10 8 29 8 22 0 37 6 41 15 8 21 12
19 12 -5z m154 9 c12 -9 11 -10 -7 -6 -13 3 -26 1 -29 -4 -3 -5 3 -9 13 -9 15
0 16 -2 3 -10 -19 -12 -33 9 -18 27 13 16 18 16 38 2z m47 -21 c-3 -7 -5 -2
-5 12 0 14 2 19 5 13 2 -7 2 -19 0 -25z m67 17 c-4 -8 -11 -12 -16 -9 -6 4 -5
10 3 15 19 12 19 11 13 -6z m133 -1 c-3 -4 4 -15 16 -25 l22 -19 -27 11 c-28
12 -39 39 -16 39 6 0 9 -3 5 -6z m303 2 c0 -2 -7 -7 -16 -10 -8 -3 -12 -2 -9
4 6 10 25 14 25 6z m-807 -39 c-3 -5 -9 -3 -14 4 -7 12 -9 12 -9 0 0 -8 -3
-11 -6 -8 -4 4 -1 14 6 22 10 12 15 13 21 3 4 -6 5 -16 2 -21z m603 18 c5 -13
9 -13 22 -3 14 12 14 10 2 -11 l-12 -24 -12 22 c-7 12 -15 19 -19 15 -3 -4 0
-16 8 -28 22 -30 18 -46 -11 -46 -14 0 -23 4 -19 10 3 5 13 6 22 3 13 -5 15
-2 10 11 -4 10 -7 20 -7 22 0 3 -4 3 -8 0 -4 -2 -8 6 -8 20 0 27 23 33 32 9z
m384 9 c0 -8 -19 -13 -24 -6 -3 5 1 9 9 9 8 0 15 -2 15 -3z m-250 -20 c0 -2
-9 -4 -21 -4 -11 0 -18 4 -14 10 5 8 35 3 35 -6z m134 -5 c12 10 14 9 12 -4
-1 -8 -8 -21 -16 -28 -8 -8 -11 -8 -6 0 10 18 -17 22 -36 6 -15 -13 -16 -13
-13 4 1 10 8 17 15 15 8 -2 10 4 6 15 -5 16 -4 16 9 -1 11 -15 17 -17 29 -7z
m231 -22 c-8 -45 -13 -44 -12 2 1 22 5 38 9 35 4 -3 6 -19 3 -37z m-298 27
c-3 -3 -12 -4 -19 -1 -8 3 -5 6 6 6 11 1 17 -2 13 -5z m164 -11 c13 -16 12
-17 -3 -4 -11 8 -18 9 -18 3 0 -7 -8 -9 -17 -5 -16 6 -16 5 -4 -10 8 -10 11
-20 8 -23 -3 -3 -10 3 -16 15 -9 16 -8 22 6 30 25 14 29 14 44 -6z m245 3 c8
-8 14 -21 13 -28 0 -10 -2 -10 -6 1 -5 11 -7 11 -15 0 -8 -11 -9 -11 -5 2 3 9
0 22 -6 28 -6 6 -8 11 -3 11 4 0 14 -6 22 -14z m60 -7 c0 -8 -4 -20 -9 -26 -7
-9 -5 -13 6 -13 9 0 19 -9 22 -20 4 -11 11 -17 17 -14 6 4 8 2 4 -4 -3 -5 0
-13 6 -15 8 -3 6 -6 -4 -6 -10 -1 -18 3 -18 9 0 5 -6 7 -13 4 -17 -6 -41 21
-32 36 3 5 2 10 -4 10 -8 0 -9 38 -2 58 3 10 26 -7 27 -19z m-1015 -3 c5 3 8
0 7 -8 -2 -7 2 -12 8 -11 6 1 11 -5 11 -13 0 -8 -3 -12 -5 -9 -3 3 -11 0 -17
-5 -9 -7 -16 -6 -24 4 -10 12 -8 13 11 8 22 -5 22 -5 6 12 -10 10 -18 23 -17
29 0 8 2 8 6 -1 2 -6 9 -10 14 -6z m808 -20 c-3 -3 -11 5 -18 17 -13 21 -12
21 5 5 10 -10 16 -20 13 -22z m308 14 c-1 -12 -5 -16 -10 -11 -5 5 -6 14 -3
20 11 16 15 13 13 -9z m-724 -5 c-3 -9 -8 -14 -10 -11 -3 3 -2 9 2 15 9 16 15
13 8 -4z m33 0 c-23 -18 -14 -20 16 -4 16 8 19 8 13 -1 -4 -7 -1 -16 6 -21 9
-6 10 -9 2 -9 -6 0 -15 5 -18 11 -5 7 -13 5 -25 -6 -14 -12 -20 -13 -26 -4 -5
8 -3 10 6 4 10 -6 12 -4 7 7 -6 16 10 38 28 38 5 0 1 -7 -9 -15z m621 8 c-4
-3 -1 -13 6 -22 11 -14 10 -14 -5 -2 -16 12 -16 31 -1 31 4 0 3 -3 0 -7z
m-1294 -23 c3 -11 1 -18 -4 -14 -5 3 -9 12 -9 20 0 20 7 17 13 -6z m202 10 c7
-12 -2 -12 -30 0 -19 8 -19 9 2 9 12 1 25 -3 28 -9z m782 -12 c-3 -8 -6 -5 -6
6 -1 11 2 17 5 13 3 -3 4 -12 1 -19z m346 2 c-3 -11 -7 -20 -8 -20 -1 0 -5 9
-8 20 -3 12 0 20 8 20 8 0 11 -8 8 -20z m-1003 -13 c0 6 9 9 20 6 16 -4 18 -9
9 -19 -16 -20 -58 2 -59 30 0 6 7 1 15 -10 8 -10 15 -14 15 -7z m95 5 c-3 -3
-11 0 -18 7 -9 10 -8 11 6 5 10 -3 15 -9 12 -12z m116 4 c-10 -12 -8 -16 10
-21 17 -6 19 -9 8 -16 -9 -6 -18 -3 -25 6 -6 8 -15 11 -20 7 -5 -4 0 3 10 16
11 12 21 22 24 22 2 0 -1 -6 -7 -14z m613 -1 c-4 -8 -1 -22 5 -29 9 -11 9 -16
-1 -22 -7 -4 -10 -4 -6 1 4 4 3 14 -3 21 -10 13 -6 44 5 44 3 0 3 -7 0 -15z
m-987 -17 c-3 -8 -6 -5 -6 6 -1 11 2 17 5 13 3 -3 4 -12 1 -19z m-83 -9 c-3
-5 -10 -7 -15 -3 -5 3 -7 10 -3 15 3 5 10 7 15 3 5 -3 7 -10 3 -15z m676 12
c0 -17 -18 -21 -24 -6 -3 9 0 15 9 15 8 0 15 -4 15 -9z m63 -5 c4 -10 0 -12
-15 -8 -15 4 -17 7 -6 13 17 11 15 11 21 -5z m137 -7 c6 -11 5 -16 -5 -16 -8
0 -12 5 -8 10 3 5 -3 6 -16 2 -13 -4 -21 -2 -21 5 0 8 -6 7 -21 -1 -16 -8 -18
-13 -9 -19 9 -6 7 -10 -8 -14 -14 -5 -19 -12 -15 -24 7 -18 5 -17 -17 11 -7
10 -9 17 -4 16 19 -3 37 1 31 8 -4 3 0 14 8 23 19 22 73 21 85 -1z m73 1 c4 0
5 6 1 13 -4 7 -2 7 7 -2 11 -10 11 -15 1 -18 -6 -3 -10 -9 -6 -14 3 -5 3 -9 1
-9 -3 0 -13 12 -22 28 -10 15 -12 21 -4 15 7 -7 17 -13 22 -13z m-1016 -31
c-2 -36 -14 -38 -23 -4 -3 14 -10 22 -15 19 -5 -3 -6 -10 -3 -16 4 -7 2 -8 -5
-4 -16 10 2 31 28 33 16 1 20 -4 18 -28z m190 7 c-12 -13 -25 -22 -30 -19 -10
6 23 42 40 42 6 1 2 -10 -10 -23z m379 2 c-9 -5 -16 -14 -16 -21 0 -8 3 -7 9
2 10 16 41 8 40 -11 0 -10 -2 -10 -6 0 -4 10 -8 10 -19 1 -23 -19 -39 3 -23
29 7 11 17 18 22 15 5 -3 2 -10 -7 -15z m97 -10 c-2 -5 1 -17 9 -26 11 -15 11
-16 -3 -4 -9 7 -16 24 -16 38 0 18 2 22 8 13 4 -7 5 -17 2 -21z m437 28 c0 -3
-4 -8 -10 -11 -5 -3 -10 -1 -10 4 0 6 5 11 10 11 6 0 10 -2 10 -4z m-855 -16
c3 -5 1 -10 -4 -10 -6 0 -11 5 -11 10 0 6 2 10 4 10 3 0 8 -4 11 -10z m113
-12 c-17 -26 -59 -31 -65 -8 -4 12 -3 12 5 2 10 -15 44 -13 42 2 -2 8 18 25
29 26 2 0 -3 -10 -11 -22z m282 12 c0 -5 -5 -10 -11 -10 -5 0 -7 5 -4 10 3 6
8 10 11 10 2 0 4 -4 4 -10z m695 0 c3 -5 1 -10 -4 -10 -6 0 -11 5 -11 10 0 6
2 10 4 10 3 0 8 -4 11 -10z m-1118 -20 c1 -11 -1 -22 -5 -24 -4 -2 -8 7 -8 20
-1 13 1 24 5 24 4 0 7 -9 8 -20z m276 3 c-5 -12 -2 -15 10 -10 9 3 19 2 22 -3
3 -5 -10 -9 -30 -8 -40 1 -42 5 -17 24 22 17 23 17 15 -3z m287 2 c-10 -12
-10 -15 4 -15 9 0 16 -3 16 -7 0 -5 -25 -6 -55 -5 -30 2 -55 7 -55 12 0 4 11
5 24 3 14 -3 35 2 48 11 28 20 34 20 18 1z m143 -10 c-3 -9 -8 -14 -10 -11 -3
3 -2 9 2 15 9 16 15 13 8 -4z m45 -2 c15 -15 15 -16 1 -11 -9 4 -22 1 -28 -5
-8 -8 -11 -8 -11 1 0 7 5 12 11 12 5 0 7 5 4 10 -10 16 5 12 23 -7z m120 -8
c-3 -3 -9 2 -12 12 -6 14 -5 15 5 6 7 -7 10 -15 7 -18z m75 4 c-8 -8 -13 -7
-18 2 -5 8 -4 10 3 5 7 -4 12 -2 12 5 0 7 3 9 7 6 4 -4 2 -12 -4 -18z m-1098
2 c3 -5 1 -12 -5 -16 -5 -3 -10 -1 -10 5 0 7 -7 10 -15 7 -8 -4 -17 -2 -20 3
-4 6 5 10 19 10 14 0 27 -4 31 -9z m72 3 c-3 -3 -12 -4 -19 -1 -8 3 -5 6 6 6
11 1 17 -2 13 -5z m1106 -34 c2 -13 12 -27 23 -31 17 -7 17 -8 2 -8 -10 -1
-18 -6 -18 -12 0 -5 -5 -7 -12 -3 -9 6 -9 9 0 12 7 2 9 9 5 15 -9 14 -17 64
-9 56 3 -3 7 -16 9 -29z m22 7 c0 -7 5 -12 12 -12 6 0 14 -3 17 -6 3 -3 -2 -6
-11 -6 -10 0 -21 5 -25 11 -10 14 -10 41 0 32 4 -4 7 -13 7 -19z m30 13 c3 -5
1 -10 -4 -10 -6 0 -11 5 -11 10 0 6 2 10 4 10 3 0 8 -4 11 -10z m45 -16 c0 -9
5 -12 12 -8 6 4 8 3 5 -4 -10 -14 -40 -8 -45 9 -3 11 -1 11 8 -1 10 -12 11
-11 7 8 -3 12 -1 20 4 16 5 -3 9 -12 9 -20z m-1345 -3 c3 -5 2 -12 -3 -15 -5
-3 -9 1 -9 9 0 17 3 19 12 6z m50 -1 c3 -6 -1 -7 -9 -4 -18 7 -21 14 -7 14 6
0 13 -4 16 -10z m222 -4 c-3 -7 0 -19 6 -25 6 -6 8 -11 3 -11 -9 0 -36 26 -36
35 0 3 5 3 10 0 6 -3 10 -1 10 4 0 6 3 11 6 11 3 0 4 -6 1 -14z m123 10 c0 -2
-8 -10 -17 -17 -16 -13 -17 -12 -4 4 13 16 21 21 21 13z m275 -16 c-3 -4 0
-10 6 -12 5 -2 12 -15 13 -30 2 -20 0 -25 -13 -21 -11 4 -7 -4 9 -22 l25 -29
-32 25 c-35 26 -41 39 -18 39 8 0 15 5 15 11 0 5 -4 8 -9 5 -5 -3 -8 2 -7 12
1 11 -5 16 -16 14 -10 -2 -18 1 -18 7 0 10 30 20 43 14 4 -3 5 -8 2 -13z
m-557 -2 c-3 -14 -18 -28 -30 -28 -4 0 0 9 9 20 20 23 24 25 21 8z m82 1 c0
-5 -4 -7 -10 -4 -14 9 -13 -8 2 -23 7 -7 10 -12 7 -12 -3 0 -15 10 -27 23
l-21 23 24 2 c14 1 25 -3 25 -9z m410 -15 c0 -8 -9 -14 -19 -14 -11 0 -26 -3
-35 -6 -10 -4 -16 -1 -16 9 0 10 9 13 31 11 25 -3 30 -1 25 12 -3 8 -2 12 4 9
6 -3 10 -13 10 -21z m104 11 c-4 -8 -8 -15 -10 -15 -2 0 -4 7 -4 15 0 8 4 15
10 15 5 0 7 -7 4 -15z m176 11 c0 -2 -7 -6 -15 -10 -8 -3 -15 -1 -15 4 0 6 7
10 15 10 8 0 15 -2 15 -4z m50 -17 c0 -6 -4 -7 -10 -4 -5 3 -10 11 -10 16 0 6
5 7 10 4 6 -3 10 -11 10 -16z m60 11 c0 -5 -8 -10 -17 -10 -15 0 -16 2 -3 10
19 12 20 12 20 0z m134 -9 c-10 -10 -21 -16 -24 -14 -3 3 4 11 14 19 28 20 33
17 10 -5z m-806 0 c-2 -5 6 -16 17 -24 19 -14 19 -15 -7 -10 -23 4 -27 13 -19
41 3 7 11 0 9 -7z m117 -1 c-3 -5 -12 -10 -18 -10 -7 0 -6 4 3 10 19 12 23 12
15 0z m-205 -20 c0 -13 -6 -20 -17 -19 -11 0 -13 3 -5 6 6 2 12 11 12 19 0 8
2 14 5 14 3 0 5 -9 5 -20z m530 0 c0 -16 -17 -20 -28 -7 -8 10 -6 13 9 14 10
1 19 -2 19 -7z m60 -2 c0 -4 -7 -8 -15 -8 -8 0 -15 4 -15 8 0 5 7 9 15 9 8 0
15 -4 15 -9z m194 6 c9 -3 16 -10 16 -16 0 -5 -6 -6 -12 -1 -7 4 -19 8 -26 9
-8 2 -16 5 -20 8 -7 8 22 8 42 0z m200 -2 c2 -4 1 -14 -3 -21 -6 -9 -10 -7
-14 8 -5 20 7 29 17 13z m146 2 c0 -8 -19 -13 -24 -6 -3 5 1 9 9 9 8 0 15 -2
15 -3z m-1340 -25 c-12 -22 -31 -21 -38 1 -3 7 0 10 5 7 5 -3 15 -2 23 4 21
13 22 11 10 -12z m415 12 c3 -5 0 -13 -6 -17 -7 -4 -9 -3 -5 4 3 5 0 13 -6 15
-9 4 -10 6 -1 6 6 1 14 -3 18 -8z m412 -13 c-3 -8 -6 -5 -6 6 -1 11 2 17 5 13
3 -3 4 -12 1 -19z m83 12 c0 -5 -4 -10 -10 -10 -5 0 -10 5 -10 10 0 6 5 10 10
10 6 0 10 -4 10 -10z m-450 -4 c0 -2 -8 -10 -17 -17 -16 -13 -17 -12 -4 4 13
16 21 21 21 13z m90 0 c0 -2 -7 -7 -16 -10 -8 -3 -12 -2 -9 4 6 10 25 14 25 6z
m386 -21 c-9 -9 -16 -21 -16 -28 0 -6 6 -3 13 7 13 18 15 18 40 1 24 -16 40
-34 18 -20 -5 3 -12 1 -15 -4 -4 -5 4 -11 16 -13 21 -3 21 -4 -4 -9 -15 -4
-25 -2 -22 3 3 4 -3 11 -13 14 -34 10 -46 20 -49 38 -1 10 0 15 3 12 3 -3 12
2 20 10 9 8 18 13 20 10 3 -3 -2 -12 -11 -21z m164 21 c0 -3 -4 -8 -10 -11 -5
-3 -10 -1 -10 4 0 6 5 11 10 11 6 0 10 -2 10 -4z m40 -12 c0 -8 -5 -12 -10 -9
-6 4 -8 11 -5 16 9 14 15 11 15 -7z m140 5 c0 8 3 11 6 8 4 -4 0 -17 -8 -29
-8 -13 -14 -34 -12 -48 3 -21 1 -19 -15 10 -16 31 -16 37 -3 53 12 13 17 15
24 5 6 -10 8 -10 8 1z m-1187 -20 c-3 -11 -11 -15 -21 -12 -10 4 -13 2 -8 -5
3 -6 2 -13 -4 -17 -5 -3 -10 1 -10 10 0 8 7 18 15 21 8 4 13 9 10 13 -2 4 2 8
9 8 8 0 11 -8 9 -18z m166 -7 c13 -19 17 -33 10 -43 -6 -10 -9 -10 -10 -1 -1
6 -3 17 -4 22 -1 6 -3 14 -4 19 -2 16 -31 21 -31 5 0 -8 5 -12 10 -9 6 3 10 4
10 1 0 -3 -9 -10 -19 -15 -16 -9 -18 -8 -13 11 4 16 2 19 -9 14 -8 -4 -5 0 5
8 27 22 31 20 55 -12z m243 16 c-7 -7 -12 -15 -12 -19 0 -9 74 -4 89 6 6 3 11
1 11 -5 0 -6 4 -9 9 -6 5 3 14 -1 20 -8 9 -11 9 -14 -1 -12 -7 1 -19 5 -26 10
-21 13 -27 -2 -9 -22 20 -22 22 -42 5 -42 -6 0 -21 -8 -32 -17 -12 -10 -18
-14 -14 -9 4 5 1 14 -8 21 -14 10 -14 12 2 26 10 7 15 9 12 4 -4 -6 -3 -17 3
-25 6 -10 9 -11 9 -2 0 6 7 12 15 12 21 0 19 9 -8 34 -17 15 -34 21 -63 20
-53 -3 -61 5 -27 26 33 22 41 24 25 8z m363 2 c3 -5 1 -10 -4 -10 -6 0 -11 5
-11 10 0 6 2 10 4 10 3 0 8 -4 11 -10z m-901 -42 c-3 -4 -10 -6 -15 -3 -5 4
-9 0 -9 -7 0 -10 -3 -9 -9 1 -6 9 -6 22 1 35 10 19 11 19 24 1 7 -10 11 -22 8
-27z m206 38 c0 -3 -4 -8 -10 -11 -5 -3 -10 -1 -10 4 0 6 5 11 10 11 6 0 10
-2 10 -4z m856 -8 c4 -7 3 -8 -4 -4 -7 4 -12 2 -12 -4 0 -6 -5 -8 -11 -4 -8 4
-7 9 2 15 18 11 17 11 25 -3z m-697 -13 c13 0 26 -6 29 -13 5 -17 -47 -5 -68
16 -13 13 -13 14 0 6 8 -5 26 -9 39 -9z m81 11 c0 -2 -7 -9 -15 -16 -13 -11
-14 -10 -9 4 5 14 24 23 24 12z m380 -16 c11 0 24 -9 30 -19 7 -15 17 -18 37
-15 15 3 25 2 22 -1 -17 -16 -57 -14 -74 5 -14 15 -31 20 -68 20 -54 0 -60 11
-8 12 17 1 31 6 32 12 0 6 3 6 6 -1 2 -7 13 -13 23 -13z m377 0 c1 -11 -2 -20
-8 -20 -10 0 -12 23 -2 33 9 9 9 10 10 -13z m-1172 0 c3 -5 1 -10 -4 -10 -6 0
-11 5 -11 10 0 6 2 10 4 10 3 0 8 -4 11 -10z m45 6 c0 -11 -19 -15 -25 -6 -3
5 1 10 9 10 9 0 16 -2 16 -4z m1044 -4 c2 -4 -4 -8 -14 -8 -10 0 -16 4 -14 8
3 4 9 8 14 8 5 0 11 -4 14 -8z m253 -14 c2 -17 0 -19 -7 -8 -5 8 -6 18 -4 22
8 12 10 10 11 -14z m-1157 -2 c-7 -7 -13 -7 -20 0 -6 6 -3 10 10 10 13 0 16
-4 10 -10z m1023 -22 c-3 -8 -7 -14 -10 -14 -3 0 -3 6 0 14 3 7 0 20 -6 27
-10 11 -9 11 5 0 9 -7 14 -19 11 -27z m-55 0 c2 -1 -5 -5 -15 -8 -9 -4 -14 -4
-10 0 4 4 1 14 -6 23 -11 14 -10 15 8 1 11 -8 21 -15 23 -16z m98 -10 c2 -16
7 -36 10 -44 4 -12 1 -11 -12 2 -16 16 -18 16 -30 0 -10 -12 -13 -13 -14 -3 0
11 -3 11 -17 0 -17 -12 -17 -12 -2 5 9 9 25 18 37 19 18 1 21 6 16 31 -3 17
-2 28 1 24 3 -3 8 -18 11 -34z m74 10 c0 -20 -7 -17 -20 6 -9 16 -8 18 5 14 8
-4 15 -12 15 -20z m-1312 -6 c-6 -16 -21 -14 -24 4 -1 11 3 15 12 11 8 -3 13
-10 12 -15z m230 -8 c-7 -11 -14 -17 -17 -15 -2 3 1 11 7 18 7 8 8 18 4 22 -4
5 -1 5 5 1 10 -5 10 -11 1 -26z m152 20 c0 -5 -5 -10 -11 -10 -5 0 -7 5 -4 10
3 6 8 10 11 10 2 0 4 -4 4 -10z m150 6 c0 -3 -4 -8 -10 -11 -5 -3 -10 -1 -10
4 0 6 5 11 10 11 6 0 10 -2 10 -4z m110 0 c0 -2 -8 -10 -17 -17 -16 -13 -17
-12 -4 4 13 16 21 21 21 13z m95 -5 c3 -5 2 -12 -3 -15 -5 -3 -9 1 -9 9 0 17
3 19 12 6z m-559 -48 c-6 -6 -46 30 -46 41 0 5 11 -1 25 -14 14 -13 23 -25 21
-27z m131 32 c-4 -8 -2 -17 3 -20 6 -4 10 -1 10 5 0 6 5 8 11 4 8 -4 7 -9 -2
-15 -23 -14 -37 -10 -34 9 2 9 4 20 4 25 1 4 4 7 7 7 3 0 4 -7 1 -15z m390 9
c-3 -3 -12 -4 -19 -1 -8 3 -5 6 6 6 11 1 17 -2 13 -5z m223 -9 c0 -2 -9 -3
-19 -2 -11 0 -18 5 -15 9 4 6 34 0 34 -7z m166 -5 c0 -12 -4 -16 -9 -11 -5 5
-6 14 -3 20 10 15 12 14 12 -9z m-986 -3 c0 -8 -6 -14 -14 -14 -8 0 -12 6 -9
14 3 7 9 13 14 13 5 0 9 -6 9 -13z m335 3 c-26 -11 -35 -12 -35 -2 0 4 12 8
28 9 23 1 24 1 7 -7z m-395 -5 c0 -2 -6 -8 -13 -14 -10 -8 -14 -7 -14 2 0 8 6
14 14 14 7 0 13 -1 13 -2z m710 -19 c-6 -6 -18 -5 -32 2 -22 10 -21 11 9 9 21
-1 29 -5 23 -11z m57 -2 c-3 -3 -12 -4 -19 -1 -8 3 -5 6 6 6 11 1 17 -2 13 -5z
m206 -4 c3 6 4 5 3 -2 -2 -7 -9 -13 -17 -14 -21 -1 -30 6 -23 17 4 6 11 6 19
-1 9 -8 15 -8 18 0z m297 -10 c0 -5 -4 -10 -10 -10 -5 0 -10 5 -10 10 0 6 5
10 10 10 6 0 10 -4 10 -10z"/>
<path d="M436 1077 c3 -10 9 -15 12 -12 3 3 0 11 -7 18 -10 9 -11 8 -5 -6z"/>
<path d="M495 1000 c3 -5 11 -10 16 -10 6 0 7 5 4 10 -3 6 -11 10 -16 10 -6 0
-7 -4 -4 -10z"/>
<path d="M1240 680 c0 -13 18 -22 24 -11 3 5 -1 11 -9 15 -8 3 -15 1 -15 -4z"/>
<path d="M855 529 c-4 -6 -5 -12 -2 -15 2 -3 7 2 10 11 7 17 1 20 -8 4z"/>
<path d="M1273 469 c2 -8 5 -18 8 -24 3 -5 4 -20 4 -32 -2 -14 2 -20 11 -16
17 6 11 50 -9 70 -12 12 -15 13 -14 2z"/>
<path d="M1299 358 c-5 -18 -6 -38 -1 -34 7 8 12 36 6 36 -2 0 -4 -1 -5 -2z"/>
<path d="M1306 291 c-4 -5 -2 -12 3 -15 5 -4 12 -2 15 3 4 5 2 12 -3 15 -5 4
-12 2 -15 -3z"/>
<path d="M1030 111 c0 -5 7 -12 16 -15 14 -5 15 -4 4 9 -14 17 -20 19 -20 6z"/>
<path d="M1341 131 c-8 -6 -9 -11 -3 -15 6 -3 14 -1 17 5 9 14 2 20 -14 10z"/>
<path d="M27 117 c-3 -8 1 -14 8 -14 7 0 11 6 8 14 -3 7 -6 13 -8 13 -2 0 -5
-6 -8 -13z"/>
<path d="M1140 1430 c0 -5 5 -10 11 -10 5 0 7 5 4 10 -3 6 -8 10 -11 10 -2 0
-4 -4 -4 -10z"/>
</g>
</svg>
