<svg width="177" height="290" viewBox="0 0 177 290" fill="none" xmlns="http://www.w3.org/2000/svg">
<g clip-path="url(#clip0)">
<path d="M6.36987 141.18C6.78987 140.18 7.70987 139.67 8.49987 139.09C14.3299 134.78 19.2399 129.46 24.5299 124.56C25.9199 123.27 27.4199 122.11 28.9099 120.94C31.8699 118.65 35.1599 118.67 38.5699 119.48C39.7699 119.77 40.9799 120.05 42.0799 120.62C42.4699 120.82 42.8499 120.79 43.2499 120.77C45.2899 120.68 47.3299 120.88 49.3699 121C50.4499 121.07 51.3699 121.63 52.2799 122.17C54.8399 123.7 57.2499 125.46 59.9099 126.83C62.7899 128.32 65.6999 129.73 68.8699 130.46C71.5099 131.07 74.1499 130.9 76.7399 130.12C77.2499 129.97 77.7399 129.69 78.1999 129.4C79.3899 128.66 79.4799 128.01 78.5399 126.94C75.8499 123.85 72.7299 121.2 69.8399 118.32C65.5199 114.03 61.2299 109.71 57.4899 104.89C56.7099 103.89 55.3999 103.61 54.2399 103.23C51.9499 102.49 49.5799 102.5 47.2099 102.52C42.6199 102.56 38.0199 102.72 33.4299 102.56C31.5699 102.5 29.7199 102.4 27.8599 102.3C25.9299 102.2 24.4199 102.98 23.1399 104.37C20.7199 107.01 18.7599 110 16.6099 112.85C13.3099 117.21 10.0199 121.58 5.99987 125.33C5.70987 125.6 5.40987 125.87 5.09987 126.12C4.96987 126.22 4.78987 126.27 4.59987 126.36C4.23987 125.75 4.67987 125.43 4.93987 125.1C7.34987 122.13 9.81987 119.2 12.1699 116.19C14.9999 112.58 17.7099 108.87 20.5199 105.24C21.9099 103.45 23.3799 101.71 25.7399 101.15C26.8799 100.88 28.0399 100.73 29.1999 100.84C36.4099 101.51 43.6299 100.81 50.8399 101.07C50.9599 100.73 50.6899 100.69 50.5199 100.58C45.7899 97.37 40.8499 94.48 36.0099 91.44C34.7799 90.67 33.2699 90.86 31.8999 90.55C29.0599 89.91 26.1599 89.59 23.2699 89.27C20.4399 88.95 18.0099 89.42 16.1999 92.03C11.6899 98.55 6.79987 104.81 3.45987 112.08C2.26987 114.68 1.92987 117.26 2.41987 120.02C2.81987 122.32 2.93987 124.64 3.09987 127.06C3.45987 127.03 3.85987 126.54 4.20987 126.98C4.54987 127.42 4.25987 127.85 4.04987 128.2C2.52987 130.76 1.90987 133.53 2.17987 136.47C2.33987 138.17 2.59987 139.86 2.86987 141.55C3.04987 142.68 2.84987 143.71 2.37987 144.73C0.839872 148.11 1.25987 151.36 2.93987 154.57C4.94987 158.42 8.02987 161.28 11.4799 163.78C15.3199 166.57 18.5199 170.01 21.5599 173.6C22.9799 175.28 24.6599 176.68 26.2499 178.18C34.6399 186.13 43.0399 194.08 51.3999 202.07C54.5699 205.1 57.3599 208.47 59.8299 212.1C60.7499 213.45 61.0799 215.04 61.2599 216.64C61.8199 221.47 61.2799 226.25 60.5299 231.01C58.4899 243.97 55.4299 256.74 53.1199 269.66C51.8999 276.48 50.7599 283.34 48.7899 290.01C48.3599 291.45 48.3499 291.45 47.7799 292.02C47.2699 291.45 47.4599 290.77 47.5499 290.19C48.5099 283.61 49.8199 277.09 51.0599 270.56C52.2099 264.45 53.2899 258.33 54.5199 252.24C55.9399 245.26 57.4599 238.3 58.5799 231.26C59.2399 227.16 59.7199 223.04 59.7799 218.87C59.8299 215.32 58.8099 212.39 56.2799 209.72C50.5099 203.62 44.3299 197.96 38.2799 192.15C31.7099 185.83 25.2199 179.43 18.7099 173.05C17.7199 172.08 16.9399 170.93 16.1499 169.8C15.1599 168.39 13.6799 167.45 12.3599 166.37C9.70987 164.2 6.82987 162.31 4.61987 159.64C1.99987 156.49 -0.0901283 153.09 -0.000128304 148.77C0.0298717 147.53 0.159872 146.26 0.679872 145.15C1.43987 143.53 1.36987 141.92 1.04987 140.24C0.339872 136.46 0.199872 132.71 2.04987 129.16C2.19987 128.86 2.08987 128.61 2.06987 128.33C1.67987 124.25 0.779872 120.21 0.849872 116.08C0.869872 114.73 1.37987 113.53 1.89987 112.33C3.42987 108.78 5.22987 105.38 7.37987 102.17C7.88987 101.41 7.96987 100.65 7.83987 99.79C6.86987 93.5 5.63987 87.25 5.10987 80.91C4.81987 77.45 5.14987 74 6.82987 70.82C7.23987 70.04 7.73987 69.34 8.35987 68.71C12.1199 64.85 16.4999 61.76 20.7399 58.49C26.3999 54.14 31.9599 49.65 37.7599 45.47C40.2699 43.66 42.7399 41.79 45.3299 40.1C47.9099 38.42 48.6099 38.82 50.1099 41.61C50.6499 42.61 50.7699 43.75 50.8299 44.91C52.2299 44.54 53.5799 44.45 54.9599 44.77C55.5399 44.9 56.0499 44.85 56.4299 44.18C56.7199 43.65 57.3299 43.25 57.9599 43.23C59.9099 43.17 61.0899 41.79 62.2399 40.59C67.2199 35.41 71.7799 29.87 75.7399 23.86C80.5099 16.63 85.0299 9.24998 89.1099 1.60998C89.9599 0.0199763 90.8199 -0.330024 92.5999 0.279976C94.7999 1.04998 96.6699 2.34998 98.3099 3.99998C99.0899 4.77998 99.1299 5.93998 98.5299 6.86998C91.3799 17.86 85.5599 29.48 81.6399 42.03C80.7199 44.99 80.2499 48.03 80.1099 51.13C80.0599 52.25 79.9399 53.37 79.8399 54.55C81.6599 55.95 81.9099 57.11 80.6499 58.92C82.6299 61.98 82.7399 65.22 81.4299 68.53C84.3699 70.86 85.4499 74.18 86.4299 77.48C88.6199 84.83 90.1599 92.35 92.1599 99.74C94.0899 106.86 96.0199 113.97 98.9599 120.76C100.29 123.83 102.23 126.6 103.34 129.77C103.49 130.2 103.94 130.3 104.27 130.49C109.85 133.71 115.23 137.27 120.58 140.85C123.6 142.87 126.58 144.98 129.18 147.56C131.91 150.27 133.8 153.55 135.59 156.88C139.92 164.91 145.01 172.44 150.28 179.86C152.09 182.41 153.83 185.01 154.43 188.18C154.7 189.62 154.52 191.03 154.3 192.42C153.6 196.73 153.97 201.05 153.94 205.37C153.88 214.52 153.59 223.67 153.57 232.82C153.56 239.05 153.85 245.28 154.38 251.5C155.25 261.75 159 271.01 163.95 279.9C167.64 286.52 171.68 292.92 175.64 299.37C175.9 299.8 176.41 300.2 176.11 300.89C175.12 300.43 174.61 299.52 174.01 298.74C166.9 289.57 161.19 279.58 156.66 268.9C154.71 264.31 153.64 259.5 153.03 254.58C151.6 243.08 151.59 231.53 151.92 219.97C152.13 212.79 152.5 205.62 152.4 198.43C152.37 196.37 152.65 194.28 152.98 192.24C153.6 188.38 152.15 185.19 150.02 182.17C146.09 176.61 142.06 171.11 138.63 165.22C137.15 162.67 135.67 160.12 134.37 157.47C131.52 151.67 127.36 147.11 121.99 143.51C115.07 138.86 108.03 134.4 100.88 130.13C98.0999 128.47 95.4399 126.62 92.7199 124.85C91.8599 124.29 90.9899 123.77 89.9999 123.48C88.4799 123.04 87.2099 124.19 87.4399 125.75C87.8999 128.92 89.8699 131.25 91.8799 133.48C95.3499 137.33 98.9199 141.09 102.87 144.44C105.59 146.75 108.2 149.24 111.53 150.79C115.49 152.63 118.21 155.88 120.73 159.31C126.22 166.8 131.36 174.53 136.95 181.95C137.3 182.42 137.68 182.86 138.02 183.33C138.24 183.63 138.42 183.98 138.02 184.29C137.66 184.57 137.4 184.28 137.17 184.07C135.53 182.55 134.18 180.78 132.89 178.97C128.62 172.98 124.22 167.07 120.16 160.94C116.19 154.94 110.83 151.14 103.9 149.49C95.6399 147.53 87.4099 145.44 79.2699 142.99C78.1399 142.65 76.9499 142.32 75.7399 143C75.8199 144.02 76.1399 144.77 77.1299 145.36C82.7499 148.69 87.8799 152.73 93.1899 156.51C95.6499 158.26 98.0799 160.07 100.59 161.76C101.34 162.27 102.29 162.52 103.19 162.76C106.49 163.64 108.59 165.53 109.39 169.01C110.22 172.65 112.65 175.45 114.97 178.26C117.57 181.41 120.25 184.49 123.19 187.33C123.57 187.7 124.59 188.15 123.88 188.86C123.33 189.4 122.8 188.6 122.34 188.25C118.95 185.66 116.31 182.34 113.54 179.15C111.17 176.42 109.29 173.33 107.03 170.51C104.01 166.75 100.46 163.61 96.5099 160.88C90.5999 156.81 84.9399 152.39 78.9799 148.39C77.9799 147.72 76.9699 147.07 75.9499 146.44C75.3999 146.1 74.8099 145.79 74.2199 145.51C73.5499 145.19 72.7299 144.89 72.1499 145.37C71.5499 145.85 71.5699 146.73 71.6299 147.5C71.8299 150.47 73.2899 152.89 75.0199 155.17C79.1599 160.64 84.2099 165.22 89.3899 169.66C91.8099 171.73 94.0399 173.96 95.9999 176.48C97.3199 178.18 99.1599 179.39 100.67 180.92C106.17 186.5 111.05 192.54 114.77 199.47C114.87 199.66 115.02 199.84 115.09 200.04C115.19 200.35 115.32 200.7 114.98 200.94C114.6 201.21 114.34 200.9 114.16 200.65C113.63 199.96 113.12 199.25 112.65 198.52C108.5 192.06 103.8 186.04 98.1999 180.76C91.9899 174.9 85.3699 169.53 78.1999 164.88C77.4999 164.42 76.7799 164.03 75.9599 163.77C75.2299 163.54 74.9499 163.81 74.7999 164.47C74.5499 165.55 74.8499 166.56 75.1899 167.56C76.2299 170.56 78.0299 173.11 79.9199 175.61C81.6999 177.97 83.6299 180.2 85.7199 182.29C87.5699 184.14 88.9699 186.29 90.2499 188.55C93.2699 193.89 97.0099 198.73 100.71 203.59C101 203.97 101.25 204.38 101.57 204.72C103.03 206.29 102.95 208.27 103.08 210.2C103.22 212.31 103.28 214.42 103.5 216.52C103.93 220.61 104.66 224.64 105.93 228.56C107.11 232.19 107.34 235.91 106.82 239.67C106.41 242.62 106.59 245.57 106.84 248.51C107.24 253.25 107.81 257.98 109.19 262.57C110.77 267.84 113.19 272.63 117.03 276.64C117.62 277.25 118.26 277.76 119 278.18C121.76 279.75 123.89 281.95 125.45 284.71C129.55 291.98 133.12 299.48 135.34 307.57C135.52 308.24 135.54 308.24 135.4 308.96C134.8 308.63 134.6 308.05 134.35 307.53C131.66 301.73 129.06 295.87 126.12 290.19C125.47 288.93 124.77 287.69 124.19 286.4C123.17 284.13 121.37 282.68 119.49 281.11C115.66 277.92 112.3 274.23 110.15 269.58C107.72 264.31 106.43 258.76 105.71 253.04C105.53 251.56 105.37 250.08 105.14 248.58C104.29 253.95 102.94 259.21 101.77 264.51C100.6 269.78 99.4599 275.06 98.1399 280.3C97.5799 279.1 97.9599 277.93 98.1099 276.8C98.9899 270.22 100.11 263.67 101.62 257.2C102.77 252.28 103.34 247.25 104.65 242.37C105.96 237.49 105.65 232.74 104.18 227.98C102.52 222.59 101.89 217.03 101.78 211.41C101.75 210.17 101.64 208.94 101.54 207.71C101.49 207.13 101.27 206.64 100.89 206.15C96.2299 199.99 91.5299 193.87 87.7699 187.1C86.7299 185.23 85.1699 183.78 83.6999 182.26C80.3299 178.76 77.1899 175.07 74.9599 170.71C74.0899 169 73.2799 167.24 73.3099 165.23C73.3399 162.81 74.6899 161.81 76.9499 162.69C78.9299 163.46 80.5999 164.78 82.3199 166.01C83.2799 166.69 84.2399 167.38 85.2299 168.01C82.8799 165.06 79.7699 163.2 76.4099 161.67C70.9899 159.19 65.4099 157.14 59.8899 154.92C58.9099 154.52 57.9099 154.15 57.1599 153.3C64.1299 155.28 71.0099 157.48 77.8599 160.71C76.4799 159.07 75.2499 157.72 74.1299 156.27C72.3899 154.02 70.8599 151.64 70.3599 148.75C70.2099 147.91 70.1799 147.07 70.2699 146.25C70.4899 144.25 71.8499 143.35 73.8299 143.85C74.1299 143.92 74.4299 144.03 74.7599 144.13C74.4099 142.23 75.0499 141.46 76.9499 141.36C78.9199 141.26 80.7799 141.78 82.5999 142.39C89.8499 144.79 97.3499 146.18 104.72 148.12C104.75 148.13 104.78 148.09 104.82 148.06C104.78 147.64 104.42 147.51 104.16 147.28C98.1699 142.16 92.4399 136.78 87.7799 130.35C86.9099 129.15 86.3899 127.8 86.0899 126.37C85.8199 125.04 86.0099 123.82 87.0799 122.87C88.1399 121.93 89.3799 121.86 90.6599 122.27C92.5299 122.86 94.0599 124.06 95.6799 125.11C97.4299 126.25 99.1199 127.5 101.27 128.64C100.46 127.25 99.8099 126.14 99.1799 125.02C95.9199 119.25 94.0199 112.95 92.1399 106.64C89.4499 97.62 87.4599 88.43 85.1399 79.31C84.4299 76.52 83.5299 73.8 82.0599 71.3C81.8599 70.96 81.6099 70.64 81.3599 70.32C81.2499 70.18 81.0999 70.08 80.8899 69.89C80.0799 71.25 79.2999 72.55 78.5299 73.85C77.1499 76.17 75.7099 78.44 74.1199 80.62C73.7099 81.18 73.5399 81.74 73.5499 82.43C73.6199 86.45 74.3399 90.39 74.9199 94.35C75.7999 100.35 77.2799 106.28 77.2399 112.4C77.2399 113.21 77.2299 114.05 76.9599 114.77C76.6199 115.68 76.9399 116.26 77.4499 116.93C78.8199 118.72 80.1599 120.54 81.4699 122.38C81.8699 122.94 82.1899 123.57 82.4199 124.21C82.8999 125.57 82.4399 126.66 81.1399 127.29C80.7799 127.46 80.4899 127.57 80.5199 128.03C80.6199 129.44 79.7299 130.25 78.6599 130.88C75.9899 132.44 73.0499 132.63 70.0899 132.25C64.7099 131.56 60.1899 128.8 55.6899 126.03C54.2699 125.15 52.8499 124.26 51.4799 123.31C50.1899 122.41 48.6899 122.61 47.2799 122.34C46.7099 122.23 46.1299 122.21 45.4699 122.27C46.7499 123.02 48.0299 123.76 49.2899 124.53C52.9499 126.77 56.5999 129.03 60.2599 131.28C61.8599 132.27 62.2499 133.74 61.2299 135.35C59.8799 137.48 57.7299 138.23 55.3899 138.49C52.1399 138.85 49.0099 138.08 45.9599 137.09C44.3299 136.56 42.9599 136.71 41.5599 137.71C38.9099 139.59 36.4999 141.79 33.8399 143.63C31.6299 145.16 30.2099 146.81 29.9999 149.69C29.8299 152.02 28.5599 154.16 27.2099 156.12C26.8399 156.66 26.4499 157.29 25.6699 157.29C25.3999 156.98 25.6199 156.79 25.7499 156.58C27.5799 153.6 28.6999 150.36 29.0599 146.89C29.1699 145.83 29.5999 144.99 30.4199 144.39C33.7099 141.98 36.7699 139.26 40.0699 136.86C42.0699 135.41 44.0599 134.83 46.4999 135.64C49.1599 136.52 51.9199 137.1 54.7499 136.97C56.4099 136.9 57.9899 136.48 59.3199 135.42C59.6299 135.17 59.9399 134.89 60.1399 134.56C60.8699 133.39 60.7999 133.08 59.5899 132.44C54.7899 129.9 50.3499 126.77 45.6699 124.04C42.4899 122.18 39.1599 120.8 35.4799 120.43C33.4599 120.23 31.5999 120.73 29.9499 121.98C26.1899 124.82 22.8099 128.09 19.4799 131.42C15.8899 135.02 12.1499 138.4 7.67987 140.91C7.33987 141.09 6.96987 141.52 6.36987 141.18ZM72.8599 52.8C72.1199 52.71 72.1299 52.69 71.5799 52.4C67.7299 50.38 63.9799 48.11 59.7299 46.94C57.0299 46.2 55.1999 46.9 53.7699 49.31C52.6599 51.19 51.6199 53.11 50.7599 55.12C47.3399 63.11 42.8099 70.53 38.8599 78.25C38.6399 78.67 38.5099 79.28 37.7799 79.3C37.7299 78.87 37.8899 78.55 38.0399 78.24C38.8899 76.4 39.6899 74.53 40.6199 72.72C43.8099 66.52 47.0999 60.38 49.6999 53.9C50.8099 51.12 52.0899 48.36 54.3399 46.17C53.3199 45.85 52.3399 46.02 51.3799 46.16C50.8999 46.23 50.6099 46.5 50.5299 47.1C50.3699 48.17 50.0299 49.22 49.5899 50.22C47.4599 54.99 44.2199 58.93 40.5799 62.6C39.3299 63.86 37.8199 64.9 36.9799 66.52C35.0199 70.29 33.0799 74.07 31.1999 77.88C30.3499 79.6 29.5699 81.37 29.1999 83.28C28.8999 84.8 29.0499 85.13 30.3599 85.97C31.3099 86.58 32.2499 87.19 33.2099 87.8C39.0899 91.51 44.9599 95.22 50.8399 98.92C52.5899 100.02 54.2899 101.21 56.2099 102.03C57.0899 102.41 57.8099 102.29 58.4999 101.64C59.4599 100.73 60.2499 99.7 60.9299 98.57C62.9299 95.23 64.6299 91.72 66.8099 88.48C70.6399 82.81 74.8099 77.38 78.2699 71.46C80.5799 67.5 81.9399 63.6 79.1799 59.32C78.9399 58.95 78.9199 58.5 79.2699 58.22C79.9199 57.69 80.2899 57.02 79.7599 56.35C79.2799 55.74 79.3799 54.96 78.9299 54.39C77.9199 53.13 76.6899 52.11 75.3999 51.14C71.8099 48.45 68.1399 45.9 63.7999 44.52C61.9699 43.94 60.1399 43.73 58.2999 44.46C58.0699 44.55 57.7099 44.56 57.7099 44.95C63.4199 46.29 71.9399 50.67 72.8599 52.8ZM27.7999 88.32C27.6899 87.61 27.1899 87.12 27.0799 86.47C26.5199 83.1 25.8599 79.74 26.0199 76.3C26.0699 75.19 26.4799 74.26 27.2399 73.46C28.9099 71.68 30.6399 69.96 32.3999 68.26C36.0199 64.77 39.7799 61.41 42.9799 57.51C45.3099 54.67 47.5599 51.74 48.6699 48.15C49.4999 45.48 49.8599 42.84 47.8499 40.47C46.9199 40.73 46.1699 41.26 45.4399 41.79C43.1999 43.41 40.9799 45.07 38.7399 46.69C32.7699 50.99 27.0899 55.68 21.1899 60.06C17.2399 62.99 13.1899 65.78 9.71987 69.3C8.80987 70.22 8.09987 71.24 7.62987 72.45C6.17987 76.1 6.38987 79.87 6.89987 83.64C7.40987 87.38 7.99987 91.12 8.54987 94.85C8.75987 96.28 8.97987 97.72 9.22987 99.34C9.59987 98.85 9.81987 98.56 10.0399 98.27C12.0599 95.6 13.7999 92.73 15.9599 90.16C17.1799 88.72 18.6299 87.88 20.5699 87.86C21.5899 87.85 22.5999 87.75 23.6199 87.89C24.9799 88.07 26.3499 88.17 27.7999 88.32ZM63.6199 96.97C67.8999 102.47 71.1099 108.68 75.6499 113.99C75.5499 103.73 72.4699 93.87 72.1799 83.46C68.8499 87.89 65.9899 92.31 63.6199 96.97ZM58.3199 103.6C60.0499 106.12 62.1599 108.28 64.1799 110.52C69.0199 115.89 74.5499 120.56 79.4399 125.88C79.8599 126.34 80.1999 126.27 80.6799 126.03C81.2699 125.74 81.3599 125.28 81.1799 124.76C80.8899 123.93 80.3699 123.21 79.8399 122.52C74.8899 116.17 70.0799 109.73 65.8699 102.85C64.9499 101.34 64.0699 99.8 62.8699 98.33C61.6199 100.41 60.3599 102.35 58.3199 103.6ZM84.6499 12.96C82.1199 16.68 79.8999 20.61 77.2699 24.26C73.0899 30.06 69.5599 36.36 64.1199 41.18C63.8499 41.42 63.5499 41.71 63.8399 42.11C64.1399 42.52 64.5199 42.28 64.8099 42.1C66.1699 41.24 67.3799 40.19 68.4199 38.95C71.1799 35.65 73.5099 32.04 76.0199 28.55C79.5099 23.71 82.0699 18.33 84.6499 12.96ZM34.3199 68.81C32.1799 70.65 30.1599 72.58 28.2699 74.65C27.8199 75.15 27.5699 75.74 27.5799 76.44C27.6099 77.67 27.4799 78.91 27.7699 80.13C27.8799 80.57 27.6699 81.1 28.1199 81.57C29.6399 76.97 32.1399 72.98 34.3199 68.81ZM32.5799 89.18C31.2299 88.3 30.1199 87.59 28.9199 86.8C29.2399 88.78 29.3799 88.88 32.5799 89.18ZM107.94 168.89C107.28 166.92 106.52 165.4 104.36 164.93C105.57 166.28 106.66 167.49 107.94 168.89Z" fill="url(#paint0_linear)"/>
<path d="M96.2803 228.17C95.8103 226.32 95.8903 224.63 95.9503 222.93C96.0503 220.15 97.1403 217.63 98.0103 215.05C98.1403 214.67 98.3303 214.38 98.7803 214.43C99.2803 214.5 99.4203 214.86 99.3903 215.31C99.3603 215.67 99.3403 216.04 99.2303 216.38C98.1603 219.79 97.5503 223.29 96.9903 226.81C96.9103 227.27 96.8503 227.72 96.2803 228.17Z" fill="url(#paint1_linear)"/>
<path d="M126 193.97C126.85 194.19 127.18 194.89 127.55 195.46C129.65 198.68 131.3 202.09 131.7 205.98C131.76 206.54 131.64 207.07 131.59 207.61C131.56 207.95 131.38 208.19 131.04 208.15C130.74 208.12 130.53 207.87 130.5 207.54C130.45 207.07 130.44 206.59 130.37 206.13C129.86 202.37 128.42 198.95 126.61 195.65C126.34 195.16 125.88 194.7 126 193.97Z" fill="url(#paint2_linear)"/>
<path d="M29.2101 159.77C28.9601 159.1 29.4001 158.66 29.5501 158.17C30.2301 156.03 30.9101 153.9 31.6201 151.77C31.7601 151.36 31.8001 150.7 32.4601 150.86C33.0101 150.99 32.9101 151.56 32.8401 151.98C32.4101 154.67 31.3501 157.12 29.9201 159.41C29.8501 159.53 29.7201 159.62 29.5901 159.69C29.5201 159.73 29.4001 159.73 29.2101 159.77Z" fill="url(#paint3_linear)"/>
<path d="M120.46 217.43C120.45 214.66 119.92 212.05 119.53 209.41C119.47 209.04 119.44 208.65 119.92 208.53C120.41 208.41 120.71 208.72 120.81 209.13C121.39 211.61 121.65 214.12 121.29 216.66C121.23 217.02 121.08 217.34 120.46 217.43Z" fill="url(#paint4_linear)"/>
<path d="M34.3301 86.41C34.0001 85.49 34.5901 84.94 34.9701 84.34C35.0701 84.18 35.3001 84.2 35.4701 84.27C35.6701 84.35 35.7101 84.54 35.6801 84.72C35.5201 85.48 35.2301 86.14 34.3301 86.41Z" fill="url(#paint5_linear)"/>
<path d="M114.46 115.73C112.6 116.73 111.11 119.17 110.43 122.28C110.41 122.39 110.25 122.39 110.23 122.28C109.56 119.16 108.07 116.73 106.2 115.73C106.13 115.69 106.13 115.59 106.2 115.55C108.06 114.55 109.55 112.11 110.23 109C110.25 108.89 110.41 108.89 110.43 109C111.1 112.12 112.6 114.55 114.46 115.55C114.53 115.59 114.53 115.69 114.46 115.73Z" fill="url(#paint6_linear)"/>
<path d="M119.47 103.49C118.34 104.1 117.43 105.58 117.02 107.48C117.01 107.55 116.91 107.55 116.9 107.48C116.49 105.58 115.58 104.1 114.45 103.49C114.41 103.47 114.41 103.4 114.45 103.38C115.58 102.77 116.49 101.29 116.9 99.39C116.92 99.32 117.01 99.32 117.02 99.39C117.43 101.29 118.34 102.77 119.47 103.38C119.51 103.4 119.51 103.47 119.47 103.49Z" fill="url(#paint7_linear)"/>
<path d="M101.91 83.52C100.78 84.13 99.8704 85.61 99.4604 87.51C99.4504 87.58 99.3503 87.58 99.3403 87.51C98.9303 85.61 98.0204 84.13 96.8904 83.52C96.8504 83.5 96.8504 83.43 96.8904 83.41C98.0204 82.8 98.9303 81.32 99.3403 79.42C99.3603 79.35 99.4504 79.35 99.4604 79.42C99.8704 81.32 100.78 82.8 101.91 83.41C101.95 83.44 101.95 83.5 101.91 83.52Z" fill="url(#paint8_linear)"/>
<path d="M31.7002 226.73C29.8402 227.73 28.3502 230.17 27.6702 233.28C27.6502 233.39 27.4902 233.39 27.4702 233.28C26.8002 230.16 25.3102 227.73 23.4402 226.73C23.3702 226.69 23.3702 226.59 23.4402 226.55C25.3002 225.55 26.7902 223.11 27.4702 220C27.4902 219.89 27.6502 219.89 27.6702 220C28.3402 223.12 29.8402 225.55 31.7002 226.55C31.7702 226.58 31.7702 226.69 31.7002 226.73Z" fill="url(#paint9_linear)"/>
<path d="M42.1301 221.53C41.0001 222.14 40.0901 223.62 39.6801 225.52C39.6701 225.59 39.5701 225.59 39.5601 225.52C39.1501 223.62 38.2401 222.14 37.1101 221.53C37.0701 221.51 37.0701 221.44 37.1101 221.42C38.2401 220.81 39.1501 219.33 39.5601 217.43C39.5701 217.36 39.6701 217.36 39.6801 217.43C40.0901 219.33 41.0001 220.81 42.1301 221.42C42.1801 221.45 42.1801 221.51 42.1301 221.53Z" fill="url(#paint10_linear)"/>
<path d="M34.0905 211.47C33.2905 211.9 32.6405 212.95 32.3505 214.3C32.3405 214.35 32.2705 214.35 32.2605 214.3C31.9705 212.95 31.3205 211.9 30.5205 211.47C30.4905 211.45 30.4905 211.41 30.5205 211.39C31.3205 210.96 31.9705 209.91 32.2605 208.56C32.2705 208.51 32.3405 208.51 32.3505 208.56C32.6405 209.9 33.2905 210.96 34.0905 211.39C34.1205 211.41 34.1205 211.46 34.0905 211.47Z" fill="url(#paint11_linear)"/>
<path d="M83.6299 130.47C84.0099 131.18 84.4099 131.77 84.6399 132.41C85.0399 133.49 84.3399 134.39 83.2799 134.05C78.9799 132.7 74.9199 130.92 71.8199 127.46C71.2199 126.79 70.9099 125.97 70.7499 125.11C70.3299 122.82 71.5699 121.38 73.8899 121.41C74.1099 121.41 74.3199 121.41 74.6199 121.41C74.5299 120.5 73.9899 119.78 73.9099 118.92C73.8599 118.4 73.8699 117.9 73.9899 117.41C74.4299 115.64 76.1399 115.08 77.4999 116.28C79.6399 118.17 80.9199 120.68 82.2999 123.11C83.2799 124.85 84.0399 126.69 84.5699 128.63C84.8499 129.6 84.5999 130.19 83.6299 130.47Z" fill="url(#paint12_linear)"/>
<path d="M81.6793 143.33C82.1893 143.75 82.6593 144.2 82.9993 144.77C83.4993 145.58 83.8493 146.4 83.2493 147.3C82.6493 148.2 81.7093 148.32 80.7393 148.26C80.2793 148.23 79.8393 148.07 79.2493 147.93C79.9293 149.61 78.8293 150.4 77.7593 150.75C76.0893 151.29 74.5893 150.88 73.2593 149.85C72.0693 148.93 71.0893 147.82 70.4393 146.43C69.3993 144.19 68.4893 141.9 67.9693 139.48C67.8593 138.98 67.9593 138.5 68.3693 138.2C68.7493 137.93 69.2593 137.93 69.5993 138.22C69.6093 138.22 69.8593 135.12 81.6793 143.33Z" fill="url(#paint13_linear)"/>
<path d="M97.0297 127.47C96.9597 129.93 95.1697 132.5 91.9797 130.63C88.4197 128.55 86.0897 125.4 84.5797 121.62C84.3897 121.13 84.2797 120.54 84.7097 120.07C85.1497 119.6 85.7197 119.7 86.2297 119.9C89.4997 121.15 92.5597 122.8 95.4197 124.81C96.3397 125.46 97.1797 126.29 97.0297 127.47Z" fill="url(#paint14_linear)"/>
<path d="M39.9697 48.96C39.4797 49.03 38.8697 48.84 38.2897 48.68C36.9697 48.32 36.6797 47.1 37.6697 46.16C39.2297 44.68 40.9297 43.38 42.6697 42.13C45.1997 40.31 47.7497 38.51 50.5597 37.11C51.0597 36.86 51.6297 36.38 52.1397 36.95C52.5997 37.46 52.4297 38.12 52.1497 38.69C51.3397 40.37 50.2297 41.85 49.0297 43.27C47.5397 45.03 45.8897 46.61 43.9097 47.82C42.7497 48.54 41.4897 48.95 39.9697 48.96Z" fill="url(#paint15_linear)"/>
<path d="M62.4497 136.51C59.5497 136.31 56.4097 135.99 53.8197 133.83C53.2197 133.33 52.7197 132.76 52.3897 132.07C51.9797 131.21 51.6097 130.31 52.2897 129.41C53.0197 128.44 54.0597 128.2 55.1897 128.25C55.4797 128.26 55.7697 128.32 56.0397 128.42C59.3797 129.77 62.3797 131.62 64.8297 134.29C65.1797 134.67 65.3797 135.17 65.1397 135.7C64.8797 136.25 64.3997 136.48 63.8097 136.5C63.4497 136.52 63.0897 136.51 62.4497 136.51Z" fill="url(#paint16_linear)"/>
<path d="M83.0194 168.18C83.0194 169.47 82.0594 170.3 80.6094 170.43C79.3594 170.54 78.2694 170.06 77.2494 169.4C75.0994 168 73.6094 165.98 72.1194 163.96C71.5594 163.2 71.0494 162.41 70.5394 161.61C70.2394 161.14 70.0094 160.61 70.4294 160.1C70.8094 159.65 71.2994 159.71 71.8294 159.87C74.7594 160.76 77.2794 162.4 79.6894 164.22C80.5894 164.9 81.4694 165.6 82.2494 166.42C82.7794 166.99 83.0794 167.6 83.0194 168.18Z" fill="url(#paint17_linear)"/>
</g>
<defs>
<linearGradient id="paint0_linear" x1="-0.00292969" y1="154.514" x2="176.18" y2="154.514" gradientUnits="userSpaceOnUse">
<stop stop-color="#924D3D"/>
<stop offset="0.0448" stop-color="#9F5D4B"/>
<stop offset="0.0995" stop-color="#B47363"/>
<stop offset="0.1573" stop-color="#C68877"/>
<stop offset="0.2749" stop-color="#F2BBA8"/>
<stop offset="0.2985" stop-color="#F9C4B3"/>
<stop offset="0.5025" stop-color="#F7B8A7"/>
<stop offset="1" stop-color="#946051"/>
</linearGradient>
<linearGradient id="paint1_linear" x1="95.9043" y1="221.299" x2="99.3937" y2="221.299" gradientUnits="userSpaceOnUse">
<stop stop-color="#924D3D"/>
<stop offset="0.0448" stop-color="#9F5D4B"/>
<stop offset="0.0995" stop-color="#B47363"/>
<stop offset="0.1573" stop-color="#C68877"/>
<stop offset="0.2749" stop-color="#F2BBA8"/>
<stop offset="0.2985" stop-color="#F9C4B3"/>
<stop offset="0.5025" stop-color="#F7B8A7"/>
<stop offset="1" stop-color="#946051"/>
</linearGradient>
<linearGradient id="paint2_linear" x1="125.98" y1="201.064" x2="131.716" y2="201.064" gradientUnits="userSpaceOnUse">
<stop stop-color="#924D3D"/>
<stop offset="0.0448" stop-color="#9F5D4B"/>
<stop offset="0.0995" stop-color="#B47363"/>
<stop offset="0.1573" stop-color="#C68877"/>
<stop offset="0.2749" stop-color="#F2BBA8"/>
<stop offset="0.2985" stop-color="#F9C4B3"/>
<stop offset="0.5025" stop-color="#F7B8A7"/>
<stop offset="1" stop-color="#946051"/>
</linearGradient>
<linearGradient id="paint3_linear" x1="29.1348" y1="155.304" x2="32.8952" y2="155.304" gradientUnits="userSpaceOnUse">
<stop stop-color="#924D3D"/>
<stop offset="0.0448" stop-color="#9F5D4B"/>
<stop offset="0.0995" stop-color="#B47363"/>
<stop offset="0.1573" stop-color="#C68877"/>
<stop offset="0.2749" stop-color="#F2BBA8"/>
<stop offset="0.2985" stop-color="#F9C4B3"/>
<stop offset="0.5025" stop-color="#F7B8A7"/>
<stop offset="1" stop-color="#946051"/>
</linearGradient>
<linearGradient id="paint4_linear" x1="119.497" y1="212.968" x2="121.455" y2="212.968" gradientUnits="userSpaceOnUse">
<stop stop-color="#924D3D"/>
<stop offset="0.0448" stop-color="#9F5D4B"/>
<stop offset="0.0995" stop-color="#B47363"/>
<stop offset="0.1573" stop-color="#C68877"/>
<stop offset="0.2749" stop-color="#F2BBA8"/>
<stop offset="0.2985" stop-color="#F9C4B3"/>
<stop offset="0.5025" stop-color="#F7B8A7"/>
<stop offset="1" stop-color="#946051"/>
</linearGradient>
<linearGradient id="paint5_linear" x1="34.2334" y1="85.3141" x2="35.6888" y2="85.3141" gradientUnits="userSpaceOnUse">
<stop stop-color="#924D3D"/>
<stop offset="0.0448" stop-color="#9F5D4B"/>
<stop offset="0.0995" stop-color="#B47363"/>
<stop offset="0.1573" stop-color="#C68877"/>
<stop offset="0.2749" stop-color="#F2BBA8"/>
<stop offset="0.2985" stop-color="#F9C4B3"/>
<stop offset="0.5025" stop-color="#F7B8A7"/>
<stop offset="1" stop-color="#946051"/>
</linearGradient>
<linearGradient id="paint6_linear" x1="106.147" y1="115.641" x2="114.511" y2="115.641" gradientUnits="userSpaceOnUse">
<stop stop-color="#924D3D"/>
<stop offset="0.0448" stop-color="#9F5D4B"/>
<stop offset="0.0995" stop-color="#B47363"/>
<stop offset="0.1573" stop-color="#C68877"/>
<stop offset="0.2749" stop-color="#F2BBA8"/>
<stop offset="0.2985" stop-color="#F9C4B3"/>
<stop offset="0.5025" stop-color="#F7B8A7"/>
<stop offset="1" stop-color="#946051"/>
</linearGradient>
<linearGradient id="paint7_linear" x1="114.42" y1="103.436" x2="119.499" y2="103.436" gradientUnits="userSpaceOnUse">
<stop stop-color="#924D3D"/>
<stop offset="0.0448" stop-color="#9F5D4B"/>
<stop offset="0.0995" stop-color="#B47363"/>
<stop offset="0.1573" stop-color="#C68877"/>
<stop offset="0.2749" stop-color="#F2BBA8"/>
<stop offset="0.2985" stop-color="#F9C4B3"/>
<stop offset="0.5025" stop-color="#F7B8A7"/>
<stop offset="1" stop-color="#946051"/>
</linearGradient>
<linearGradient id="paint8_linear" x1="96.8604" y1="83.4659" x2="101.94" y2="83.4659" gradientUnits="userSpaceOnUse">
<stop stop-color="#924D3D"/>
<stop offset="0.0448" stop-color="#9F5D4B"/>
<stop offset="0.0995" stop-color="#B47363"/>
<stop offset="0.1573" stop-color="#C68877"/>
<stop offset="0.2749" stop-color="#F2BBA8"/>
<stop offset="0.2985" stop-color="#F9C4B3"/>
<stop offset="0.5025" stop-color="#F7B8A7"/>
<stop offset="1" stop-color="#946051"/>
</linearGradient>
<linearGradient id="paint9_linear" x1="23.3877" y1="226.641" x2="31.7517" y2="226.641" gradientUnits="userSpaceOnUse">
<stop stop-color="#924D3D"/>
<stop offset="0.0448" stop-color="#9F5D4B"/>
<stop offset="0.0995" stop-color="#B47363"/>
<stop offset="0.1573" stop-color="#C68877"/>
<stop offset="0.2749" stop-color="#F2BBA8"/>
<stop offset="0.2985" stop-color="#F9C4B3"/>
<stop offset="0.5025" stop-color="#F7B8A7"/>
<stop offset="1" stop-color="#946051"/>
</linearGradient>
<linearGradient id="paint10_linear" x1="37.0801" y1="221.476" x2="42.167" y2="221.476" gradientUnits="userSpaceOnUse">
<stop stop-color="#924D3D"/>
<stop offset="0.0448" stop-color="#9F5D4B"/>
<stop offset="0.0995" stop-color="#B47363"/>
<stop offset="0.1573" stop-color="#C68877"/>
<stop offset="0.2749" stop-color="#F2BBA8"/>
<stop offset="0.2985" stop-color="#F9C4B3"/>
<stop offset="0.5025" stop-color="#F7B8A7"/>
<stop offset="1" stop-color="#946051"/>
</linearGradient>
<linearGradient id="paint11_linear" x1="30.498" y1="211.431" x2="34.1126" y2="211.431" gradientUnits="userSpaceOnUse">
<stop stop-color="#924D3D"/>
<stop offset="0.0448" stop-color="#9F5D4B"/>
<stop offset="0.0995" stop-color="#B47363"/>
<stop offset="0.1573" stop-color="#C68877"/>
<stop offset="0.2749" stop-color="#F2BBA8"/>
<stop offset="0.2985" stop-color="#F9C4B3"/>
<stop offset="0.5025" stop-color="#F7B8A7"/>
<stop offset="1" stop-color="#946051"/>
</linearGradient>
<linearGradient id="paint12_linear" x1="70.6689" y1="124.885" x2="84.7521" y2="124.885" gradientUnits="userSpaceOnUse">
<stop stop-color="#924D3D"/>
<stop offset="0.0448" stop-color="#9F5D4B"/>
<stop offset="0.0995" stop-color="#B47363"/>
<stop offset="0.1573" stop-color="#C68877"/>
<stop offset="0.2749" stop-color="#F2BBA8"/>
<stop offset="0.2985" stop-color="#F9C4B3"/>
<stop offset="0.5025" stop-color="#F7B8A7"/>
<stop offset="1" stop-color="#946051"/>
</linearGradient>
<linearGradient id="paint13_linear" x1="67.9277" y1="144.319" x2="83.5638" y2="144.319" gradientUnits="userSpaceOnUse">
<stop stop-color="#924D3D"/>
<stop offset="0.0448" stop-color="#9F5D4B"/>
<stop offset="0.0995" stop-color="#B47363"/>
<stop offset="0.1573" stop-color="#C68877"/>
<stop offset="0.2749" stop-color="#F2BBA8"/>
<stop offset="0.2985" stop-color="#F9C4B3"/>
<stop offset="0.5025" stop-color="#F7B8A7"/>
<stop offset="1" stop-color="#946051"/>
</linearGradient>
<linearGradient id="paint14_linear" x1="84.4121" y1="125.504" x2="97.0456" y2="125.504" gradientUnits="userSpaceOnUse">
<stop stop-color="#924D3D"/>
<stop offset="0.0448" stop-color="#9F5D4B"/>
<stop offset="0.0995" stop-color="#B47363"/>
<stop offset="0.1573" stop-color="#C68877"/>
<stop offset="0.2749" stop-color="#F2BBA8"/>
<stop offset="0.2985" stop-color="#F9C4B3"/>
<stop offset="0.5025" stop-color="#F7B8A7"/>
<stop offset="1" stop-color="#946051"/>
</linearGradient>
<linearGradient id="paint15_linear" x1="37.0801" y1="42.83" x2="52.4235" y2="42.83" gradientUnits="userSpaceOnUse">
<stop stop-color="#924D3D"/>
<stop offset="0.0448" stop-color="#9F5D4B"/>
<stop offset="0.0995" stop-color="#B47363"/>
<stop offset="0.1573" stop-color="#C68877"/>
<stop offset="0.2749" stop-color="#F2BBA8"/>
<stop offset="0.2985" stop-color="#F9C4B3"/>
<stop offset="0.5025" stop-color="#F7B8A7"/>
<stop offset="1" stop-color="#946051"/>
</linearGradient>
<linearGradient id="paint16_linear" x1="51.9131" y1="132.379" x2="65.2431" y2="132.379" gradientUnits="userSpaceOnUse">
<stop stop-color="#924D3D"/>
<stop offset="0.0448" stop-color="#9F5D4B"/>
<stop offset="0.0995" stop-color="#B47363"/>
<stop offset="0.1573" stop-color="#C68877"/>
<stop offset="0.2749" stop-color="#F2BBA8"/>
<stop offset="0.2985" stop-color="#F9C4B3"/>
<stop offset="0.5025" stop-color="#F7B8A7"/>
<stop offset="1" stop-color="#946051"/>
</linearGradient>
<linearGradient id="paint17_linear" x1="70.2002" y1="165.1" x2="83.0254" y2="165.1" gradientUnits="userSpaceOnUse">
<stop stop-color="#924D3D"/>
<stop offset="0.0448" stop-color="#9F5D4B"/>
<stop offset="0.0995" stop-color="#B47363"/>
<stop offset="0.1573" stop-color="#C68877"/>
<stop offset="0.2749" stop-color="#F2BBA8"/>
<stop offset="0.2985" stop-color="#F9C4B3"/>
<stop offset="0.5025" stop-color="#F7B8A7"/>
<stop offset="1" stop-color="#946051"/>
</linearGradient>
<clipPath id="clip0">
<rect width="176.21" height="308.98" fill="white"/>
</clipPath>
</defs>
</svg>
