<svg width="100" height="100" viewBox="0 0 100 100" fill="none" xmlns="http://www.w3.org/2000/svg">
<path d="M34.0478 44.6984H27.7197V42.4127H43.1483V44.6984H36.7779V63.2381H34.0478V44.6984Z" fill="url(#paint0_linear)"/>
<path d="M59.4657 44.4656H53.1377V42.1799H68.5663V44.4656H62.1959V63.0053H59.4657V44.4656Z" fill="url(#paint1_linear)"/>
<g opacity="0.49">
<g opacity="0.49">
<path d="M51.762 61.5026C51.508 61.2487 51.254 60.9947 50.9154 60.6137C50.1323 61.3545 49.2434 61.6508 48.2487 61.6508C46.471 61.6508 45.4551 60.4656 45.4551 59.0899C45.4551 57.8413 46.1958 56.9947 47.2329 56.4233V56.3809C46.7673 55.7883 46.471 55.1323 46.471 54.4762C46.471 53.3756 47.2752 52.2328 48.7778 52.2328C49.9207 52.2328 50.7884 52.9947 50.7884 54.1587C50.7884 55.1111 50.2381 55.873 48.7778 56.5926V56.6349C49.5397 57.5238 50.4075 58.5185 51.0001 59.1746C51.4233 58.5397 51.6985 57.6508 51.8889 56.5079H52.9683C52.7143 57.9471 52.3334 59.0688 51.6561 59.873C52.1429 60.3809 52.6085 60.91 53.1588 61.4815H51.762V61.5026ZM50.3228 59.9365C49.7725 59.3439 48.7778 58.2222 47.762 57.0793C47.2752 57.3968 46.5768 57.9682 46.5768 58.9418C46.5768 59.9788 47.3387 60.7831 48.4392 60.7831C49.2434 60.7619 49.8995 60.4021 50.3228 59.9365ZM47.5715 54.3704C47.5715 55.0264 47.8678 55.5132 48.2699 56C49.18 55.4709 49.7937 54.9841 49.7937 54.2222C49.7937 53.6719 49.4762 53.037 48.7355 53.037C47.9524 53.0582 47.5715 53.6719 47.5715 54.3704Z" fill="white"/>
</g>
</g>
<path d="M27.5504 68C27.762 67.9577 28.1218 67.9153 28.4604 67.9153C28.9684 67.9153 29.2858 68 29.5186 68.1905C29.7303 68.3386 29.8361 68.5714 29.8361 68.8677C29.8361 69.2487 29.5821 69.5661 29.18 69.7143V69.7354C29.5398 69.8201 29.9842 70.1376 29.9842 70.709C29.9842 71.0476 29.8573 71.3016 29.6456 71.4921C29.3705 71.746 28.926 71.8518 28.2911 71.8518C27.9525 71.8518 27.6774 71.8307 27.5081 71.8095V68H27.5504ZM28.0583 69.6085H28.5239C29.053 69.6085 29.3705 69.3333 29.3705 68.9524C29.3705 68.4868 29.0319 68.3175 28.5239 68.3175C28.2911 68.3175 28.1641 68.3386 28.0795 68.3598V69.6085H28.0583ZM28.0583 71.4709C28.1641 71.4921 28.2911 71.4921 28.4816 71.4921C29.0107 71.4921 29.4763 71.3016 29.4763 70.7302C29.4763 70.2011 29.0107 69.9894 28.4816 69.9894H28.0583V71.4709Z" fill="#924D3D"/>
<path d="M33.8573 70.0317H32.3546V71.4285H34.0477V71.8518H31.8467V67.9576H33.9419V68.3809H32.3334V69.6084H33.8361V70.0317H33.8573Z" fill="#924D3D"/>
<path d="M36.4605 70.6243L36.0584 71.8518H35.5293L36.8415 67.9576H37.4552L38.7885 71.8518H38.2594L37.8362 70.6243H36.4605ZM37.7515 70.2222L37.3706 69.1005C37.2859 68.8465 37.2224 68.6137 37.1589 68.3809H37.1378C37.0743 68.6137 37.0108 68.8465 36.9473 69.0793L36.5663 70.201H37.7515V70.2222Z" fill="#924D3D"/>
<path d="M40.8624 67.9576V70.2645C40.8624 71.1322 41.2434 71.5132 41.7725 71.5132C42.3439 71.5132 42.7249 71.1322 42.7249 70.2645V67.9576H43.2328V70.2222C43.2328 71.4074 42.5979 71.9153 41.7513 71.9153C40.9471 71.9153 40.3545 71.4497 40.3545 70.2434V67.9576H40.8624Z" fill="#924D3D"/>
<path d="M46.0053 68.3809H44.8201V67.9576H47.6984V68.3809H46.5132V71.8518H46.0053V68.3809Z" fill="#924D3D"/>
<path d="M50.3227 71.8518V70.201L49.0952 67.9576H49.6666L50.2169 69.037C50.3651 69.3333 50.492 69.5661 50.5979 69.8412H50.619C50.7248 69.5873 50.8518 69.3333 51.0211 69.037L51.5714 67.9576H52.1428L50.8307 70.201V71.8518H50.3227Z" fill="#924D3D"/>
<path d="M53.5822 71.2381C53.815 71.3862 54.1325 71.492 54.4923 71.492C55.0002 71.492 55.2965 71.2169 55.2965 70.836C55.2965 70.4762 55.0849 70.2645 54.5558 70.0529C53.9209 69.8201 53.5187 69.5026 53.5187 68.9524C53.5187 68.3386 54.0267 67.8942 54.7674 67.8942C55.1695 67.8942 55.4447 67.9788 55.6351 68.0846L55.487 68.4868C55.36 68.4233 55.106 68.2963 54.7463 68.2963C54.2172 68.2963 54.0055 68.6137 54.0055 68.8889C54.0055 69.2487 54.2383 69.4391 54.7886 69.6296C55.4447 69.8836 55.7833 70.2011 55.7833 70.7725C55.7833 71.3651 55.3388 71.8942 54.4288 71.8942C54.0478 71.8942 53.6457 71.7883 53.4341 71.6402L53.5822 71.2381Z" fill="#924D3D"/>
<path d="M58.3018 70.6243L57.8997 71.8518H57.3706L58.7039 67.9576H59.3177L60.651 71.8518H60.1219L59.6986 70.6243H58.3018ZM59.5717 70.2222L59.1907 69.1005C59.1061 68.8465 59.0426 68.6137 58.9791 68.3809H58.9579C58.8944 68.6137 58.8309 68.8465 58.7674 69.0793L58.3865 70.201H59.5717V70.2222Z" fill="#924D3D"/>
<path d="M62.3652 67.9576H62.8732V71.4285H64.5451V71.8518H62.3864V67.9576H62.3652Z" fill="#924D3D"/>
<path d="M69.3493 69.8624C69.3493 71.1958 68.545 71.9153 67.5503 71.9153C66.5133 71.9153 65.7937 71.1111 65.7937 69.9471C65.7937 68.7196 66.5556 67.8942 67.5926 67.8942C68.6508 67.8942 69.3493 68.6984 69.3493 69.8624ZM66.3228 69.9259C66.3228 70.7513 66.7672 71.5132 67.5715 71.5132C68.3757 71.5132 68.8202 70.7725 68.8202 69.9047C68.8202 69.1217 68.418 68.3174 67.5715 68.3174C66.7461 68.2963 66.3228 69.0794 66.3228 69.9259Z" fill="#924D3D"/>
<path d="M71.1484 71.8518V67.9576H71.6987L72.9474 69.9259C73.2437 70.3915 73.4553 70.7936 73.6458 71.1957H73.667C73.6246 70.6666 73.6035 70.201 73.6035 69.5873V67.9576H74.0691V71.8518H73.5611L72.3336 69.8836C72.0585 69.4603 71.8045 69.0158 71.614 68.5926H71.5929C71.614 69.0793 71.6352 69.5449 71.6352 70.201V71.873H71.1484V71.8518Z" fill="#924D3D"/>
<path d="M78.2169 69.4815L84.291 80H49.6455H15L21.1376 69.3757" stroke="url(#paint2_linear)" stroke-width="1.0609" stroke-miterlimit="10"/>
<path d="M37.3916 41.2064L49.6456 20L60.8413 39.4074" stroke="url(#paint3_linear)" stroke-width="1.0609" stroke-miterlimit="10"/>
<defs>
<linearGradient id="paint0_linear" x1="27.7031" y1="52.8255" x2="43.1316" y2="52.8255" gradientUnits="userSpaceOnUse">
<stop stop-color="#924D3D"/>
<stop offset="0.0448" stop-color="#9F5D4B"/>
<stop offset="0.0995" stop-color="#B47363"/>
<stop offset="0.1573" stop-color="#C68877"/>
<stop offset="0.2749" stop-color="#F2BBA8"/>
<stop offset="0.2985" stop-color="#F9C4B3"/>
<stop offset="0.5025" stop-color="#F7B8A7"/>
<stop offset="1" stop-color="#946051"/>
</linearGradient>
<linearGradient id="paint1_linear" x1="53.138" y1="52.5927" x2="68.5665" y2="52.5927" gradientUnits="userSpaceOnUse">
<stop stop-color="#924D3D"/>
<stop offset="0.0448" stop-color="#9F5D4B"/>
<stop offset="0.0995" stop-color="#B47363"/>
<stop offset="0.1573" stop-color="#C68877"/>
<stop offset="0.2749" stop-color="#F2BBA8"/>
<stop offset="0.2985" stop-color="#F9C4B3"/>
<stop offset="0.5025" stop-color="#F7B8A7"/>
<stop offset="1" stop-color="#946051"/>
</linearGradient>
<linearGradient id="paint2_linear" x1="14.8058" y1="74.7159" x2="84.4857" y2="74.7159" gradientUnits="userSpaceOnUse">
<stop stop-color="#924D3D"/>
<stop offset="0.0448" stop-color="#9F5D4B"/>
<stop offset="0.0995" stop-color="#B47363"/>
<stop offset="0.1573" stop-color="#C68877"/>
<stop offset="0.2749" stop-color="#F2BBA8"/>
<stop offset="0.2985" stop-color="#F9C4B3"/>
<stop offset="0.5025" stop-color="#F7B8A7"/>
<stop offset="1" stop-color="#946051"/>
</linearGradient>
<linearGradient id="paint3_linear" x1="37.2947" y1="30.519" x2="60.9389" y2="30.519" gradientUnits="userSpaceOnUse">
<stop stop-color="#924D3D"/>
<stop offset="0.0448" stop-color="#9F5D4B"/>
<stop offset="0.0995" stop-color="#B47363"/>
<stop offset="0.1573" stop-color="#C68877"/>
<stop offset="0.2749" stop-color="#F2BBA8"/>
<stop offset="0.2985" stop-color="#F9C4B3"/>
<stop offset="0.5025" stop-color="#F7B8A7"/>
<stop offset="1" stop-color="#946051"/>
</linearGradient>
</defs>
</svg>
