<svg width="474" height="133" viewBox="0 0 474 133" fill="none" xmlns="http://www.w3.org/2000/svg">
<path d="M474 15.1094H251.616V17.1959H474V15.1094Z" fill="url(#paint0_linear)"/>
<path d="M222.262 15.1094H0V17.1959H222.262V15.1094Z" fill="url(#paint1_linear)"/>
<path d="M236.937 32.3053L220.788 16.1527L236.937 0L253.09 16.1527L236.937 32.3053ZM223.736 16.1527L236.937 29.3576L250.142 16.1527L236.937 2.94766L223.736 16.1527Z" fill="url(#paint2_linear)"/>
<path d="M236.88 132.207L185.432 80.7563L236.88 29.3052L288.331 80.7563L236.88 132.207ZM188.38 80.7563L236.88 129.256L285.383 80.7563L236.88 32.2528L188.38 80.7563Z" fill="url(#paint3_linear)"/>
<defs>
<linearGradient id="paint0_linear" x1="251.616" y1="16.1524" x2="474.001" y2="16.1524" gradientUnits="userSpaceOnUse">
<stop stop-color="#924D3D"/>
<stop offset="0.0448" stop-color="#9F5D4B"/>
<stop offset="0.0995" stop-color="#B47363"/>
<stop offset="0.1573" stop-color="#C68877"/>
<stop offset="0.2749" stop-color="#F2BBA8"/>
<stop offset="0.2985" stop-color="#F9C4B3"/>
<stop offset="0.5025" stop-color="#F7B8A7"/>
<stop offset="1" stop-color="#946051"/>
</linearGradient>
<linearGradient id="paint1_linear" x1="0" y1="16.1524" x2="222.261" y2="16.1524" gradientUnits="userSpaceOnUse">
<stop stop-color="#924D3D"/>
<stop offset="0.0448" stop-color="#9F5D4B"/>
<stop offset="0.0995" stop-color="#B47363"/>
<stop offset="0.1573" stop-color="#C68877"/>
<stop offset="0.2749" stop-color="#F2BBA8"/>
<stop offset="0.2985" stop-color="#F9C4B3"/>
<stop offset="0.5025" stop-color="#F7B8A7"/>
<stop offset="1" stop-color="#946051"/>
</linearGradient>
<linearGradient id="paint2_linear" x1="220.787" y1="16.1524" x2="253.09" y2="16.1524" gradientUnits="userSpaceOnUse">
<stop stop-color="#924D3D"/>
<stop offset="0.0448" stop-color="#9F5D4B"/>
<stop offset="0.0995" stop-color="#B47363"/>
<stop offset="0.1573" stop-color="#C68877"/>
<stop offset="0.2749" stop-color="#F2BBA8"/>
<stop offset="0.2985" stop-color="#F9C4B3"/>
<stop offset="0.5025" stop-color="#F7B8A7"/>
<stop offset="1" stop-color="#946051"/>
</linearGradient>
<linearGradient id="paint3_linear" x1="185.431" y1="80.756" x2="288.331" y2="80.756" gradientUnits="userSpaceOnUse">
<stop stop-color="#924D3D"/>
<stop offset="0.0448" stop-color="#9F5D4B"/>
<stop offset="0.0995" stop-color="#B47363"/>
<stop offset="0.1573" stop-color="#C68877"/>
<stop offset="0.2749" stop-color="#F2BBA8"/>
<stop offset="0.2985" stop-color="#F9C4B3"/>
<stop offset="0.5025" stop-color="#F7B8A7"/>
<stop offset="1" stop-color="#946051"/>
</linearGradient>
</defs>
</svg>
